<svg width="343" height="343" viewBox="0 0 343 343" fill="none" xmlns="http://www.w3.org/2000/svg">
<path d="M171.5 303.617C244.959 303.617 304.509 300.14 304.509 295.851C304.509 291.562 244.959 288.086 171.5 288.086C98.0414 288.086 38.4915 291.562 38.4915 295.851C38.4915 300.14 98.0414 303.617 171.5 303.617Z" fill="#F5F5F5"/>
<path d="M163.542 234.29H31.0826C30.0443 234.288 29.049 233.874 28.3148 233.14C27.5806 232.406 27.1673 231.411 27.1655 230.372V44.1715C27.1764 43.1392 27.5936 42.1527 28.3268 41.4259C29.0601 40.6991 30.0502 40.2905 31.0826 40.2888H163.542C164.58 40.2906 165.575 40.7041 166.308 41.4385C167.041 42.1729 167.453 43.1681 167.453 44.2058V230.372C167.453 231.41 167.041 232.405 166.308 233.14C165.575 233.874 164.58 234.288 163.542 234.29ZM31.0826 40.426C30.0898 40.4278 29.1381 40.823 28.4361 41.525C27.734 42.227 27.3388 43.1787 27.337 44.1715V230.372C27.3388 231.365 27.734 232.317 28.4361 233.019C29.1381 233.721 30.0898 234.116 31.0826 234.118H163.542C164.535 234.116 165.485 233.721 166.186 233.019C166.887 232.316 167.281 231.365 167.281 230.372V44.1715C167.281 43.1793 166.887 42.2277 166.186 41.5254C165.485 40.8232 164.535 40.4278 163.542 40.426H31.0826Z" fill="#E6E6E6"/>
<path d="M311.924 234.29H179.458C178.42 234.288 177.425 233.874 176.692 233.14C175.959 232.405 175.547 231.41 175.547 230.372V44.1715C175.556 43.1398 175.972 42.1533 176.704 41.4263C177.436 40.6993 178.426 40.2905 179.458 40.2888H311.924C312.956 40.2905 313.945 40.6993 314.677 41.4263C315.41 42.1533 315.825 43.1398 315.834 44.1715V230.372C315.834 231.41 315.423 232.405 314.69 233.14C313.956 233.874 312.962 234.288 311.924 234.29ZM179.458 40.426C178.465 40.4278 177.514 40.8232 176.813 41.5254C176.113 42.2277 175.719 43.1793 175.719 44.1715V230.372C175.719 231.365 176.113 232.316 176.813 233.019C177.514 233.721 178.465 234.116 179.458 234.118H311.924C312.918 234.116 313.87 233.721 314.573 233.019C315.276 232.318 315.673 231.366 315.677 230.372V44.1715C315.673 43.1781 315.276 42.2264 314.573 41.5246C313.87 40.8227 312.918 40.4278 311.924 40.426H179.458Z" fill="#E6E6E6"/>
<path d="M58.9549 269.056H30.6848V269.228H58.9549V269.056Z" fill="#E0E0E0"/>
<path d="M116.579 267.684H88.2266V267.856H116.579V267.684Z" fill="#E0E0E0"/>
<path d="M153.472 267.684H146.612V267.856H153.472V267.684Z" fill="#E0E0E0"/>
<path d="M84.9062 273.542H53.1787V273.714H84.9062V273.542Z" fill="#E0E0E0"/>
<path d="M194.646 268.967H179.828V269.138H194.646V268.967Z" fill="#E0E0E0"/>
<path d="M219.911 268.967H200.751V269.138H219.911V268.967Z" fill="#E0E0E0"/>
<path d="M312.315 271.869H269.481V272.04H312.315V271.869Z" fill="#E0E0E0"/>
<path d="M343 262.326H0V262.498H343V262.326Z" fill="#EBEBEB"/>
<path opacity="0.8" d="M229.693 54.5233L227.985 78.0393C227.927 78.8362 227.589 79.587 227.032 80.1591C226.714 80.4981 226.33 80.769 225.905 80.9553C225.479 81.1416 225.02 81.2395 224.555 81.243H205.697C205.285 81.2472 204.877 81.1654 204.498 81.003C204.12 80.8406 203.779 80.601 203.498 80.2995C203.217 79.998 203.002 79.6414 202.867 79.2522C202.732 78.863 202.679 78.45 202.713 78.0393L204.428 54.5233C204.498 53.658 204.888 52.85 205.523 52.2575C206.157 51.6649 206.99 51.3305 207.858 51.3196H226.716C227.128 51.3132 227.537 51.3935 227.917 51.5553C228.296 51.7171 228.637 51.9568 228.918 52.2588C229.198 52.5609 229.412 52.9185 229.546 53.3086C229.68 53.6987 229.73 54.1125 229.693 54.5233Z" fill="#E0E0E0"/>
<path d="M221.38 66.2177C222.095 62.7986 220.43 59.5569 217.66 58.9772C214.89 58.3975 212.064 60.6992 211.348 64.1183C210.633 67.5374 212.298 70.7791 215.068 71.3588C217.839 71.9385 220.664 69.6368 221.38 66.2177Z" fill="white"/>
<path d="M223.897 79.624H206.637C205.539 79.624 204.785 79.0958 204.757 78.3617C204.716 77.2916 210.314 72.6611 215.624 73.0658H215.747C219.009 73.1814 222.138 74.3893 224.631 76.4958C227.196 78.5127 224.775 79.624 223.897 79.624Z" fill="white"/>
<path d="M132.398 80.3854C130.594 80.3783 128.858 79.7011 127.525 78.4854C126.193 77.2697 125.36 75.6022 125.188 73.8067C125.108 72.954 125.206 72.094 125.477 71.2813C125.747 70.4687 126.184 69.7212 126.759 69.0863C127.333 68.4515 128.034 67.9431 128.816 67.5937C129.598 67.2442 130.444 67.0613 131.3 67.0565C133.104 67.0636 134.841 67.7407 136.173 68.9565C137.505 70.1722 138.338 71.8397 138.51 73.6352C138.59 74.4879 138.492 75.3479 138.221 76.1606C137.951 76.9732 137.515 77.7207 136.94 78.3556C136.365 78.9904 135.664 79.4987 134.882 79.8482C134.1 80.1977 133.254 80.3806 132.398 80.3854ZM131.595 70.5962C131.193 70.5962 130.796 70.6804 130.428 70.8433C130.06 71.0062 129.731 71.2442 129.461 71.5421C129.191 71.84 128.986 72.1911 128.86 72.5728C128.734 72.9546 128.689 73.3585 128.728 73.7587C128.812 74.5995 129.204 75.3795 129.828 75.9492C130.452 76.5188 131.265 76.8381 132.11 76.8457C132.511 76.8447 132.908 76.7599 133.275 76.5965C133.642 76.4332 133.97 76.195 134.24 75.8973C134.509 75.5995 134.713 75.2487 134.839 74.8675C134.965 74.4862 135.01 74.0828 134.97 73.6832C134.886 72.8459 134.497 72.0687 133.878 71.4995C133.258 70.9303 132.45 70.6088 131.609 70.5962H131.595Z" fill="#E0E0E0"/>
<path d="M132.741 70.0817L130.217 70.116L128.872 53.8441L131.403 53.8167L132.741 70.0817Z" fill="#E0E0E0"/>
<path d="M133.797 54.5439L129.05 54.6056L128.844 52.0743L133.592 52.0125L133.797 54.5439Z" fill="#E0E0E0"/>
<path d="M134.072 57.7955L129.606 57.8504L129.4 55.319L133.859 55.2642L134.072 57.7955Z" fill="#E0E0E0"/>
<path d="M134.456 62.3779L130.56 62.426L130.347 59.9015L134.243 59.8535L134.456 62.3779Z" fill="#E0E0E0"/>
<path d="M54.4066 218.676C54.4212 218.881 54.4464 219.085 54.4821 219.287C54.7185 220.603 55.3757 221.806 56.3548 222.717C57.4671 223.772 58.9376 224.368 60.4708 224.384H118.431C119.804 224.406 121.131 223.885 122.123 222.935C123.114 221.984 123.691 220.68 123.727 219.307C123.742 218.494 123.597 217.685 123.299 216.928C123 216.171 122.555 215.48 121.989 214.895C121.423 214.311 120.747 213.844 120 213.521C119.253 213.199 118.449 213.027 117.635 213.017H59.6819C58.9535 213.007 58.2312 213.151 57.5614 213.437C56.8915 213.723 56.2889 214.146 55.7922 214.679C55.2955 215.212 54.9157 215.843 54.6771 216.531C54.4384 217.22 54.3463 217.95 54.4066 218.676Z" fill="#F0F0F0"/>
<path d="M123.747 219.287C123.743 219.471 123.725 219.654 123.693 219.836C123.525 218.338 122.816 216.954 121.7 215.943C120.583 214.933 119.135 214.365 117.628 214.348L55.9912 214.444C56.987 213.489 58.3165 212.962 59.6956 212.976H117.656C118.474 212.969 119.286 213.129 120.041 213.446C120.796 213.762 121.479 214.229 122.048 214.817C122.618 215.405 123.062 216.102 123.354 216.867C123.646 217.632 123.78 218.448 123.747 219.266V219.287Z" fill="#E0E0E0"/>
<path d="M113.828 215.733L114.02 218.477L116.62 217.51L117.21 218.882L114.562 219.788L116.414 222.113L115.248 222.991L113.444 220.576L112.003 222.991L110.72 222.113L112.223 219.788L109.479 218.916L109.87 217.544L112.614 218.477L112.422 215.733H113.828Z" fill="white"/>
<path d="M97.9746 215.733L98.1735 218.477L100.767 217.51L101.357 218.882L98.7018 219.753L100.561 222.079L99.3603 222.957L97.5562 220.542L96.1155 222.957L94.8327 222.079L96.3351 219.753L93.5911 218.882L93.9889 217.51L96.7329 218.443L96.5409 215.699L97.9746 215.733Z" fill="white"/>
<path d="M82.1279 215.733L82.32 218.477L84.92 217.51L85.5099 218.882L82.8551 219.753L84.7073 222.079L83.5068 222.957L81.7026 220.542L80.262 222.957L78.9792 222.079L80.4815 219.753L77.7375 218.882L78.1354 217.51L80.8794 218.443L80.6874 215.699L82.1279 215.733Z" fill="white"/>
<path d="M66.2745 215.733L66.4665 218.477L69.0665 217.51L69.6564 218.882L67.0016 219.753L68.8538 222.079L67.6602 222.957L65.856 220.576L64.4085 222.991L63.112 222.113L64.6212 219.788L61.8772 218.916L62.2751 217.544L65.0191 218.477L64.827 215.733H66.2745Z" fill="white"/>
<path d="M104.78 210.993H102.077L102.084 210.307H104.787L104.78 210.993Z" fill="#E0E0E0"/>
<path d="M116.394 210.993H107.579L107.592 210.307H116.407L116.394 210.993Z" fill="#E0E0E0"/>
<g opacity="0.8">
<path d="M184.795 207.536L195.73 224.363L231.786 188.307C231.821 188.276 231.849 188.238 231.87 188.196C231.891 188.154 231.903 188.108 231.906 188.061C231.908 188.014 231.902 187.968 231.887 187.923C231.871 187.879 231.848 187.838 231.817 187.803C231.785 187.768 231.748 187.739 231.706 187.718C231.663 187.698 231.618 187.686 231.571 187.683C231.524 187.68 231.477 187.686 231.433 187.702C231.388 187.717 231.347 187.741 231.312 187.772L196.951 214.718L190.461 204.256L184.795 207.536Z" fill="#E0E0E0"/>
</g>
<path opacity="0.1" d="M178.264 87.7737L152.375 184.609H161.08L186.681 87.7737H178.264Z" fill="white"/>
<path opacity="0.1" d="M191.703 87.7737L165.813 184.609H183.087L208.688 87.7737H191.703Z" fill="white"/>
<path d="M284.903 175.143L290.391 97.4188C290.442 96.8217 290.367 96.2204 290.171 95.6541C289.975 95.0877 289.662 94.5688 289.252 94.131C288.843 93.6932 288.346 93.3463 287.794 93.1126C287.243 92.8789 286.648 92.7638 286.048 92.7746L150.399 92.8912C149.137 92.9087 147.927 93.3942 147.002 94.2536C146.078 95.113 145.507 96.2851 145.398 97.5423L139.944 175.273C139.894 175.871 139.97 176.472 140.167 177.038C140.364 177.605 140.677 178.123 141.087 178.561C141.497 178.999 141.994 179.346 142.546 179.579C143.099 179.813 143.694 179.928 144.293 179.917L279.888 179.801C281.154 179.788 282.369 179.303 283.297 178.442C284.224 177.581 284.797 176.404 284.903 175.143Z" fill="#263238"/>
<path d="M283.16 173.448L288.648 95.7244C288.7 95.127 288.626 94.5253 288.43 93.9585C288.235 93.3916 287.922 92.8723 287.512 92.4343C287.103 91.9962 286.606 91.6493 286.053 91.416C285.501 91.1827 284.906 91.0683 284.306 91.0802L148.656 91.1968C147.395 91.2128 146.184 91.6981 145.261 92.5579C144.338 93.4178 143.768 94.5907 143.662 95.8479L138.174 173.579C138.123 174.176 138.198 174.777 138.394 175.343C138.59 175.91 138.903 176.429 139.313 176.866C139.722 177.304 140.219 177.651 140.771 177.885C141.322 178.118 141.917 178.234 142.517 178.223L278.159 178.106C279.423 178.09 280.635 177.604 281.559 176.743C282.484 175.882 283.055 174.707 283.16 173.448Z" fill="#2E0D44"/>
<path opacity="0.6" d="M279.566 174.601C279.287 174.857 278.922 174.999 278.543 174.999L142.894 175.115C142.676 175.113 142.461 175.066 142.262 174.979C142.063 174.891 141.883 174.764 141.735 174.605C141.586 174.446 141.471 174.258 141.397 174.053C141.322 173.849 141.29 173.631 141.302 173.414L146.79 95.6901C146.811 95.3128 146.979 94.9585 147.257 94.7023C147.534 94.4432 147.9 94.3007 148.279 94.3044L283.929 94.1878C284.146 94.1903 284.361 94.2368 284.56 94.3245C284.76 94.4123 284.939 94.5395 285.088 94.6985C285.236 94.8575 285.351 95.0449 285.426 95.2495C285.5 95.4542 285.532 95.6717 285.52 95.8891L280.032 173.613C280.007 173.989 279.841 174.342 279.566 174.601Z" fill="white"/>
<path d="M234.447 131.87H186.832C186.412 131.877 186.01 132.036 185.698 132.317C185.387 132.598 185.187 132.983 185.138 133.4L184.404 140.362C184.38 140.556 184.398 140.752 184.457 140.938C184.515 141.124 184.613 141.296 184.742 141.441C184.872 141.586 185.031 141.702 185.21 141.781C185.388 141.86 185.581 141.901 185.776 141.899H233.391C233.812 141.891 234.216 141.731 234.528 141.448C234.841 141.166 235.041 140.78 235.092 140.362L235.819 133.4C235.842 133.207 235.823 133.011 235.764 132.826C235.705 132.641 235.608 132.47 235.478 132.326C235.348 132.181 235.189 132.066 235.012 131.987C234.834 131.908 234.642 131.868 234.447 131.87Z" fill="white"/>
<path d="M192.499 160.304H185.069C184.648 160.313 184.244 160.473 183.932 160.755C183.619 161.038 183.419 161.423 183.368 161.841L182.641 168.804C182.618 168.997 182.637 169.193 182.696 169.378C182.755 169.563 182.853 169.733 182.982 169.878C183.112 170.022 183.271 170.138 183.448 170.217C183.626 170.295 183.818 170.335 184.013 170.334H191.442C191.862 170.326 192.265 170.166 192.577 169.886C192.89 169.605 193.091 169.221 193.143 168.804L193.871 161.841C193.894 161.648 193.876 161.451 193.817 161.265C193.759 161.079 193.662 160.908 193.532 160.763C193.402 160.617 193.243 160.501 193.065 160.422C192.886 160.343 192.693 160.303 192.499 160.304Z" fill="white"/>
<path d="M205.327 160.304H197.897C197.476 160.313 197.072 160.473 196.76 160.755C196.447 161.038 196.247 161.423 196.196 161.841L195.469 168.804C195.446 168.997 195.465 169.193 195.524 169.378C195.583 169.563 195.681 169.733 195.81 169.878C195.94 170.022 196.099 170.138 196.277 170.217C196.454 170.295 196.647 170.335 196.841 170.334H204.27C204.69 170.326 205.093 170.166 205.406 169.886C205.718 169.605 205.919 169.221 205.971 168.804L206.699 161.841C206.722 161.648 206.704 161.451 206.646 161.265C206.587 161.079 206.49 160.908 206.36 160.763C206.23 160.617 206.071 160.501 205.893 160.422C205.715 160.343 205.522 160.303 205.327 160.304Z" fill="white"/>
<path d="M218.148 160.304H210.726C210.305 160.313 209.901 160.473 209.588 160.755C209.276 161.038 209.075 161.423 209.024 161.841L208.297 168.804C208.275 168.997 208.294 169.193 208.353 169.378C208.411 169.563 208.509 169.733 208.639 169.878C208.768 170.022 208.927 170.138 209.105 170.217C209.283 170.295 209.475 170.335 209.669 170.334H217.099C217.519 170.326 217.922 170.166 218.234 169.886C218.546 169.605 218.747 169.221 218.8 168.804L219.52 161.841C219.544 161.648 219.525 161.451 219.467 161.265C219.409 161.079 219.311 160.908 219.181 160.763C219.052 160.617 218.892 160.501 218.714 160.422C218.536 160.343 218.343 160.303 218.148 160.304Z" fill="white"/>
<path d="M230.983 160.304H223.554C223.133 160.313 222.729 160.473 222.416 160.755C222.104 161.038 221.904 161.423 221.852 161.841L221.125 168.804C221.103 168.997 221.122 169.193 221.181 169.378C221.24 169.563 221.337 169.733 221.467 169.878C221.597 170.022 221.755 170.138 221.933 170.217C222.111 170.295 222.303 170.335 222.497 170.334H229.927C230.347 170.326 230.75 170.166 231.062 169.886C231.374 169.605 231.575 169.221 231.628 168.804L232.355 161.841C232.379 161.648 232.36 161.451 232.302 161.265C232.244 161.079 232.146 160.908 232.016 160.763C231.887 160.617 231.727 160.501 231.549 160.422C231.371 160.343 231.178 160.303 230.983 160.304Z" fill="white"/>
<path d="M222.587 155.907H192.807C192.426 155.916 192.047 155.843 191.697 155.692C191.346 155.541 191.033 155.316 190.778 155.033C190.522 154.749 190.331 154.414 190.217 154.05C190.103 153.686 190.07 153.301 190.118 152.923L190.475 149.493C190.574 148.699 190.956 147.967 191.55 147.432C192.145 146.896 192.913 146.593 193.713 146.578H223.492C223.874 146.57 224.253 146.644 224.603 146.796C224.953 146.947 225.267 147.173 225.522 147.457C225.777 147.741 225.968 148.076 226.082 148.441C226.196 148.805 226.23 149.19 226.181 149.569L225.824 152.999C225.724 153.791 225.342 154.522 224.747 155.056C224.153 155.59 223.386 155.892 222.587 155.907ZM193.713 147.27C193.081 147.285 192.476 147.526 192.006 147.949C191.537 148.371 191.234 148.949 191.154 149.575L190.797 153.005C190.759 153.288 190.783 153.576 190.868 153.849C190.952 154.122 191.095 154.373 191.286 154.585C191.478 154.797 191.713 154.965 191.975 155.078C192.238 155.19 192.522 155.243 192.807 155.235H222.587C223.218 155.222 223.823 154.983 224.293 154.561C224.762 154.139 225.065 153.563 225.145 152.937L225.502 149.507C225.54 149.224 225.516 148.936 225.431 148.663C225.347 148.39 225.204 148.139 225.013 147.927C224.822 147.715 224.587 147.547 224.324 147.435C224.061 147.323 223.778 147.269 223.492 147.277L193.713 147.27Z" fill="#2E0D44"/>
<path d="M236.162 117.368H188.547C188.127 117.378 187.725 117.539 187.414 117.821C187.103 118.103 186.904 118.488 186.853 118.904L186.119 125.867C186.096 126.06 186.115 126.256 186.174 126.441C186.233 126.626 186.331 126.797 186.46 126.941C186.59 127.086 186.749 127.201 186.927 127.28C187.104 127.358 187.296 127.398 187.491 127.397H235.099C235.519 127.389 235.922 127.23 236.235 126.949C236.547 126.668 236.748 126.284 236.8 125.867L237.528 118.904C237.551 118.711 237.533 118.516 237.475 118.33C237.417 118.145 237.32 117.974 237.191 117.829C237.062 117.683 236.904 117.567 236.726 117.488C236.549 117.408 236.357 117.367 236.162 117.368Z" fill="white"/>
<path d="M192.622 136.884C192.651 136.669 192.633 136.451 192.569 136.243C192.505 136.036 192.397 135.845 192.252 135.683C192.108 135.521 191.93 135.393 191.731 135.307C191.531 135.22 191.316 135.178 191.099 135.183C190.633 135.194 190.187 135.372 189.84 135.684C189.494 135.996 189.272 136.422 189.213 136.884C189.186 137.099 189.206 137.317 189.271 137.524C189.336 137.731 189.445 137.921 189.59 138.081C189.735 138.242 189.913 138.37 190.112 138.456C190.311 138.541 190.526 138.583 190.742 138.579C191.207 138.569 191.653 138.393 191.998 138.082C192.343 137.77 192.564 137.346 192.622 136.884Z" fill="#263238"/>
<path d="M197.863 136.884C197.891 136.669 197.872 136.45 197.807 136.243C197.742 136.035 197.634 135.844 197.488 135.683C197.343 135.521 197.165 135.393 196.965 135.307C196.766 135.221 196.55 135.178 196.333 135.183C195.868 135.193 195.421 135.37 195.076 135.683C194.731 135.996 194.51 136.422 194.454 136.884C194.426 137.099 194.445 137.317 194.509 137.524C194.573 137.73 194.682 137.92 194.826 138.081C194.971 138.242 195.148 138.37 195.347 138.456C195.545 138.542 195.76 138.584 195.976 138.579C196.442 138.569 196.888 138.393 197.235 138.082C197.581 137.771 197.804 137.346 197.863 136.884Z" fill="#263238"/>
<path d="M203.097 136.884C203.125 136.669 203.106 136.45 203.041 136.243C202.976 136.035 202.868 135.844 202.722 135.683C202.577 135.521 202.399 135.393 202.2 135.307C202 135.221 201.785 135.178 201.567 135.183C201.102 135.193 200.655 135.37 200.31 135.683C199.965 135.996 199.744 136.422 199.688 136.884C199.661 137.099 199.681 137.317 199.746 137.524C199.811 137.731 199.92 137.921 200.065 138.081C200.21 138.242 200.388 138.37 200.587 138.456C200.786 138.541 201.001 138.583 201.218 138.579C201.682 138.569 202.128 138.393 202.473 138.082C202.818 137.77 203.04 137.346 203.097 136.884Z" fill="#263238"/>
<path d="M208.331 136.884C208.36 136.669 208.342 136.451 208.278 136.243C208.214 136.036 208.106 135.845 207.962 135.683C207.817 135.521 207.639 135.393 207.44 135.307C207.241 135.22 207.025 135.178 206.809 135.183C206.343 135.193 205.896 135.37 205.551 135.683C205.206 135.996 204.985 136.422 204.929 136.884C204.9 137.102 204.92 137.322 204.986 137.531C205.053 137.74 205.164 137.932 205.313 138.093C205.461 138.254 205.643 138.38 205.846 138.463C206.049 138.546 206.267 138.583 206.486 138.572C206.944 138.555 207.38 138.375 207.718 138.066C208.056 137.757 208.273 137.339 208.331 136.884Z" fill="#263238"/>
<path d="M213.675 136.884C213.703 136.669 213.684 136.45 213.619 136.243C213.555 136.035 213.446 135.844 213.301 135.683C213.156 135.521 212.977 135.393 212.778 135.307C212.578 135.221 212.363 135.178 212.146 135.183C211.68 135.193 211.234 135.37 210.888 135.683C210.543 135.996 210.322 136.422 210.266 136.884C210.238 137.099 210.257 137.317 210.322 137.524C210.386 137.73 210.494 137.92 210.639 138.081C210.783 138.242 210.961 138.37 211.159 138.456C211.358 138.542 211.573 138.584 211.789 138.579C212.254 138.569 212.701 138.393 213.047 138.082C213.393 137.771 213.616 137.346 213.675 136.884Z" fill="#263238"/>
<path d="M194.337 122.382C194.366 122.168 194.348 121.949 194.284 121.742C194.22 121.535 194.112 121.344 193.967 121.183C193.822 121.022 193.644 120.894 193.445 120.809C193.246 120.723 193.031 120.682 192.814 120.688C192.35 120.698 191.904 120.874 191.559 121.185C191.214 121.496 190.992 121.921 190.935 122.382C190.906 122.597 190.924 122.816 190.988 123.023C191.051 123.23 191.16 123.42 191.304 123.582C191.449 123.743 191.627 123.87 191.826 123.956C192.026 124.041 192.241 124.083 192.457 124.077C192.922 124.069 193.369 123.893 193.714 123.581C194.06 123.27 194.281 122.844 194.337 122.382Z" fill="#263238"/>
<path d="M199.578 122.382C199.605 122.167 199.585 121.949 199.52 121.743C199.455 121.536 199.346 121.346 199.201 121.185C199.056 121.025 198.878 120.897 198.679 120.811C198.48 120.725 198.265 120.683 198.048 120.688C197.589 120.704 197.15 120.883 196.81 121.194C196.471 121.504 196.253 121.926 196.196 122.382C196.169 122.597 196.187 122.815 196.252 123.021C196.316 123.228 196.424 123.418 196.569 123.579C196.713 123.74 196.891 123.868 197.09 123.954C197.288 124.04 197.503 124.082 197.719 124.077C198.18 124.062 198.621 123.884 198.962 123.573C199.303 123.262 199.521 122.84 199.578 122.382Z" fill="#263238"/>
<path d="M204.812 122.382C204.84 122.168 204.821 121.95 204.757 121.743C204.692 121.537 204.584 121.347 204.44 121.186C204.295 121.025 204.117 120.897 203.919 120.811C203.72 120.725 203.506 120.683 203.289 120.688C202.824 120.697 202.377 120.874 202.031 121.185C201.685 121.496 201.462 121.921 201.403 122.382C201.375 122.598 201.394 122.816 201.459 123.023C201.523 123.23 201.632 123.421 201.778 123.582C201.923 123.743 202.101 123.87 202.301 123.956C202.5 124.041 202.716 124.083 202.933 124.077C203.398 124.069 203.844 123.893 204.189 123.581C204.535 123.27 204.756 122.844 204.812 122.382Z" fill="#263238"/>
<path d="M210.047 122.382C210.075 122.168 210.057 121.949 209.993 121.742C209.93 121.535 209.822 121.344 209.677 121.183C209.532 121.022 209.354 120.894 209.155 120.809C208.956 120.723 208.74 120.682 208.524 120.688C208.059 120.698 207.613 120.874 207.268 121.185C206.923 121.496 206.702 121.921 206.644 122.382C206.615 122.597 206.633 122.816 206.697 123.023C206.761 123.23 206.869 123.42 207.014 123.582C207.159 123.743 207.337 123.87 207.536 123.956C207.735 124.041 207.95 124.083 208.167 124.077C208.632 124.069 209.078 123.893 209.424 123.581C209.769 123.27 209.99 122.844 210.047 122.382Z" fill="#263238"/>
<path d="M215.288 122.382C215.314 122.167 215.294 121.949 215.229 121.743C215.164 121.536 215.055 121.346 214.91 121.185C214.765 121.025 214.587 120.897 214.388 120.811C214.189 120.725 213.974 120.683 213.758 120.688C213.293 120.698 212.848 120.874 212.502 121.185C212.157 121.496 211.936 121.921 211.878 122.382C211.85 122.598 211.869 122.816 211.934 123.023C211.999 123.23 212.108 123.421 212.253 123.582C212.398 123.743 212.577 123.87 212.776 123.956C212.976 124.041 213.191 124.083 213.408 124.077C213.873 124.069 214.319 123.893 214.665 123.581C215.01 123.27 215.231 122.844 215.288 122.382Z" fill="#263238"/>
<path d="M220.522 122.382C220.549 122.168 220.53 121.95 220.466 121.743C220.402 121.537 220.294 121.347 220.149 121.186C220.004 121.025 219.827 120.897 219.628 120.811C219.43 120.725 219.215 120.683 218.999 120.688C218.533 120.697 218.087 120.874 217.741 121.185C217.394 121.496 217.171 121.921 217.112 122.382C217.084 122.598 217.104 122.816 217.168 123.023C217.233 123.23 217.342 123.421 217.487 123.582C217.632 123.743 217.811 123.87 218.01 123.956C218.21 124.041 218.425 124.083 218.642 124.077C219.107 124.069 219.553 123.893 219.899 123.581C220.244 123.27 220.465 122.844 220.522 122.382Z" fill="#263238"/>
<path d="M216.09 102.015L215.72 105.534C215.694 105.687 215.616 105.827 215.5 105.931C215.384 106.034 215.237 106.095 215.082 106.104C215.009 106.106 214.936 106.093 214.868 106.065C214.801 106.036 214.741 105.993 214.692 105.939C214.643 105.885 214.606 105.82 214.585 105.75C214.563 105.68 214.557 105.607 214.567 105.534L214.938 102.015C214.97 101.755 214.946 101.49 214.868 101.239C214.789 100.989 214.657 100.758 214.482 100.563C214.306 100.368 214.09 100.213 213.849 100.108C213.609 100.004 213.348 99.9521 213.085 99.9571H211.816C211.253 99.9705 210.712 100.185 210.293 100.563C209.874 100.941 209.604 101.456 209.532 102.015L209.21 105.28H208.057L208.38 102.015C208.488 101.142 208.908 100.338 209.562 99.7492C210.216 99.1607 211.06 98.8278 211.94 98.8114H213.202C213.612 98.8011 214.019 98.8796 214.395 99.0414C214.772 99.2032 215.109 99.4446 215.383 99.749C215.657 100.053 215.863 100.413 215.985 100.805C216.107 101.196 216.143 101.609 216.09 102.015Z" fill="#2E0D44"/>
<path d="M216.09 105.404L215.37 112.264C215.342 112.477 215.239 112.673 215.079 112.816C214.919 112.96 214.713 113.041 214.499 113.046H207.639C207.54 113.047 207.442 113.027 207.352 112.986C207.262 112.946 207.181 112.887 207.116 112.812C207.051 112.738 207.003 112.651 206.974 112.556C206.946 112.461 206.939 112.362 206.953 112.264L207.673 105.404C207.686 105.263 207.733 105.127 207.809 105.008C207.886 104.889 207.99 104.789 208.112 104.718C208.243 104.641 208.392 104.601 208.544 104.601H215.404C215.544 104.6 215.682 104.638 215.802 104.711C215.912 104.786 215.998 104.892 216.049 105.015C216.1 105.138 216.115 105.273 216.09 105.404Z" fill="#2E0D44"/>
<path d="M253.045 91.0665C252.954 91.0665 252.867 91.0303 252.802 90.966C252.738 90.9017 252.702 90.8144 252.702 90.7235C252.702 90.6325 252.738 90.5453 252.802 90.4809C252.867 90.4166 252.954 90.3805 253.045 90.3805L269.811 90.2844C269.902 90.2844 269.989 90.3206 270.053 90.3849C270.118 90.4492 270.154 90.5365 270.154 90.6274C270.154 90.7184 270.118 90.8056 270.053 90.87C269.989 90.9343 269.902 90.9704 269.811 90.9704L253.052 91.0665H253.045Z" fill="#263238"/>
<path d="M273.028 90.9499C272.937 90.9499 272.85 90.9137 272.786 90.8494C272.721 90.7851 272.685 90.6978 272.685 90.6069C272.685 90.5159 272.721 90.4286 272.786 90.3643C272.85 90.3 272.937 90.2639 273.028 90.2639H278.955C279.046 90.2639 279.133 90.3 279.198 90.3643C279.262 90.4286 279.298 90.5159 279.298 90.6069C279.298 90.6978 279.262 90.7851 279.198 90.8494C279.133 90.9137 279.046 90.9499 278.955 90.9499H273.028Z" fill="#263238"/>
<g opacity="0.3">
<path d="M161.279 94.2838H180.487L160.956 175.115H145.473C145.026 175.106 144.588 174.997 144.189 174.794C143.791 174.592 143.443 174.302 143.173 173.946C142.902 173.591 142.716 173.179 142.627 172.741C142.538 172.303 142.55 171.851 142.661 171.418L161.279 94.2838Z" fill="white"/>
<path d="M188.993 94.2838H197.136L177.626 175.115H169.483L188.993 94.2838Z" fill="white"/>
</g>
<path d="M59.4419 69.0527H63.3383C62.4255 69.0398 61.5201 69.2183 60.6805 69.5768C59.8409 69.9354 59.0859 70.466 58.464 71.1344C57.8422 71.8027 57.3674 72.5941 57.0703 73.4573C56.7731 74.3205 56.6603 75.2365 56.739 76.146L65.0053 194.344C65.162 196.258 66.026 198.045 67.4287 199.356C68.8315 200.667 70.6724 201.409 72.5925 201.437H68.7029C66.7821 201.409 64.9403 200.668 63.5364 199.357C62.1326 198.045 61.2672 196.258 61.1088 194.344L52.822 76.146C52.743 75.2347 52.8564 74.317 53.1548 73.4523C53.4531 72.5877 53.9298 71.7953 54.5539 71.1266C55.1779 70.4579 55.9355 69.9277 56.7776 69.5705C57.6196 69.2132 58.5273 69.0368 59.4419 69.0527Z" fill="#2E0D44"/>
<path d="M59.442 69.0528H63.3385C62.4257 69.0398 61.5203 69.2183 60.6807 69.5769C59.8411 69.9354 59.086 70.466 58.4642 71.1344C57.8424 71.8028 57.3675 72.5941 57.0704 73.4573C56.7733 74.3206 56.6605 75.2365 56.7392 76.146L65.0055 194.344C65.1622 196.258 66.0262 198.045 67.4289 199.356C68.8316 200.667 70.6726 201.409 72.5927 201.437H68.703C64.786 201.437 60.8346 198.261 60.5602 194.344L52.2939 76.146C52.0195 72.229 55.525 69.0528 59.442 69.0528Z" fill="#263238"/>
<path d="M69.8623 201.444H117.539C118.454 201.461 119.363 201.285 120.206 200.928C121.049 200.571 121.807 200.041 122.432 199.373C123.057 198.704 123.534 197.911 123.833 197.046C124.131 196.181 124.245 195.263 124.166 194.351L115.872 76.146C115.717 74.2297 114.853 72.4402 113.449 71.1272C112.044 69.8142 110.201 69.0721 108.278 69.0459H60.6081C59.6947 69.0328 58.7886 69.2115 57.9485 69.5705C57.1085 69.9294 56.353 70.4607 55.7311 71.1298C55.1091 71.799 54.6345 72.5911 54.3378 73.4552C54.0412 74.3192 53.9291 75.2359 54.0088 76.146L62.2408 194.344C62.398 196.264 63.2666 198.057 64.6764 199.37C66.0862 200.683 67.9356 201.423 69.8623 201.444Z" fill="#2E0D44"/>
<g opacity="0.6">
<path d="M108.155 71.344C109.49 71.3651 110.77 71.8826 111.746 72.7956C112.721 73.7086 113.321 74.9518 113.43 76.2832L121.696 194.481C121.753 195.084 121.681 195.692 121.485 196.266C121.29 196.839 120.976 197.365 120.563 197.809C120.151 198.252 119.649 198.604 119.092 198.84C118.534 199.077 117.932 199.192 117.327 199.18H69.6565C68.32 199.159 67.0392 198.642 66.0629 197.729C65.0867 196.816 64.4848 195.573 64.3743 194.241L56.1423 76.0431C56.0864 75.4428 56.1574 74.8375 56.3506 74.2665C56.5438 73.6954 56.8549 73.1713 57.2637 72.7282C57.6725 72.2852 58.1699 71.933 58.7236 71.6945C59.2773 71.456 59.875 71.3366 60.4778 71.344H108.155Z" fill="white"/>
</g>
<g opacity="0.3">
<path d="M94.6679 199.166H75.6726L91.3546 71.344H106.659C107.32 71.3416 107.974 71.4756 108.581 71.7376C109.188 71.9997 109.734 72.3841 110.185 72.8669L94.6679 199.166Z" fill="white"/>
<path d="M72.2633 199.166H67.9827L83.6646 71.3303H87.9453L72.2633 199.166Z" fill="white"/>
</g>
<path d="M105.315 127.527H70.7815C70.6905 127.527 70.6033 127.491 70.5389 127.427C70.4746 127.363 70.4385 127.275 70.4385 127.184C70.4385 127.093 70.4746 127.006 70.5389 126.942C70.6033 126.878 70.6905 126.841 70.7815 126.841H105.315C105.405 126.843 105.491 126.88 105.555 126.944C105.619 127.008 105.656 127.094 105.658 127.184C105.658 127.275 105.622 127.363 105.557 127.427C105.493 127.491 105.406 127.527 105.315 127.527Z" fill="white"/>
<path d="M102.283 132.638H75.2336C75.1427 132.638 75.0554 132.602 74.9911 132.538C74.9268 132.473 74.8906 132.386 74.8906 132.295C74.8906 132.204 74.9268 132.117 74.9911 132.053C75.0554 131.988 75.1427 131.952 75.2336 131.952H102.283C102.374 131.952 102.461 131.988 102.525 132.053C102.589 132.117 102.626 132.204 102.626 132.295C102.626 132.386 102.589 132.473 102.525 132.538C102.461 132.602 102.374 132.638 102.283 132.638Z" fill="white"/>
<path d="M71.8106 103.641L71.8586 105.013H70.9737L70.9257 103.641L69.3547 101.178H70.2946L71.3784 102.879L72.3388 101.178H73.2101L71.8106 103.641Z" fill="#2E0D44"/>
<path d="M73.2442 103.078C73.2325 102.809 73.2784 102.54 73.3789 102.289C73.4793 102.039 73.632 101.812 73.8267 101.625C74.0214 101.439 74.2537 101.295 74.5081 101.205C74.7625 101.115 75.0332 101.08 75.3022 101.103C75.5742 101.089 75.8462 101.129 76.1025 101.221C76.3589 101.313 76.5943 101.455 76.7953 101.639C76.9963 101.823 77.1589 102.045 77.2735 102.292C77.3881 102.539 77.4526 102.806 77.4631 103.078C77.4758 103.349 77.4306 103.618 77.3306 103.87C77.2306 104.121 77.0781 104.348 76.8833 104.536C76.6885 104.724 76.4558 104.868 76.2009 104.958C75.946 105.049 75.6747 105.084 75.4051 105.061C75.1326 105.075 74.86 105.034 74.6032 104.942C74.3465 104.849 74.1107 104.707 73.9096 104.522C73.7085 104.338 73.5461 104.115 73.4319 103.867C73.3177 103.619 73.2539 103.351 73.2442 103.078ZM76.537 103.078C76.538 102.916 76.5064 102.755 76.444 102.605C76.3817 102.455 76.29 102.319 76.1742 102.205C76.0584 102.092 75.921 102.002 75.77 101.942C75.6191 101.883 75.4577 101.854 75.2954 101.857C75.1363 101.851 74.9776 101.878 74.8301 101.938C74.6826 101.998 74.5497 102.089 74.4405 102.205C74.3312 102.321 74.2481 102.459 74.1967 102.609C74.1454 102.76 74.127 102.92 74.1429 103.078C74.141 103.241 74.1719 103.403 74.2338 103.554C74.2957 103.704 74.3874 103.841 74.5032 103.956C74.6191 104.07 74.7568 104.16 74.9082 104.221C75.0596 104.281 75.2216 104.31 75.3845 104.306C75.5436 104.311 75.7019 104.282 75.8489 104.22C75.9958 104.159 76.1281 104.068 76.2371 103.952C76.346 103.836 76.429 103.698 76.4808 103.547C76.5325 103.397 76.5516 103.237 76.537 103.078Z" fill="#2E0D44"/>
<path d="M78.0737 103.312L78.0051 101.164H78.8901L78.9587 103.277C78.9587 104.004 79.3154 104.306 79.8505 104.306C80.3855 104.306 80.6874 104.004 80.6668 103.277L80.5913 101.164H81.4626L81.538 103.312C81.5741 103.542 81.5566 103.778 81.4868 104.001C81.4171 104.224 81.297 104.428 81.1358 104.597C80.9747 104.766 80.7768 104.896 80.5575 104.977C80.3382 105.057 80.1033 105.086 79.871 105.061C79.6338 105.082 79.3948 105.052 79.1704 104.972C78.9459 104.892 78.7414 104.765 78.5707 104.599C78.4 104.433 78.2672 104.232 78.1815 104.01C78.0957 103.787 78.0589 103.549 78.0737 103.312Z" fill="#2E0D44"/>
<path d="M84.9131 104.999L84.1379 103.929H83.3216L83.3627 104.999H82.4778L82.3406 101.164H84.0007C85.0228 101.164 85.6814 101.7 85.7088 102.536C85.7311 102.791 85.6702 103.047 85.5355 103.264C85.4007 103.482 85.1993 103.65 84.9611 103.744L85.8666 104.979L84.9131 104.999ZM83.9733 101.892H83.2873L83.3353 103.222H84.0213C84.5632 103.222 84.8239 102.975 84.8102 102.536C84.7965 102.097 84.5152 101.892 83.9733 101.892Z" fill="#2E0D44"/>
<path d="M87.7395 103.078C87.7253 102.813 87.7676 102.547 87.8637 102.299C87.9597 102.051 88.1072 101.827 88.2965 101.64C88.4859 101.453 88.7127 101.309 88.9619 101.216C89.2112 101.123 89.4773 101.085 89.7426 101.103C90.043 101.093 90.3417 101.15 90.6178 101.269C90.894 101.387 91.1408 101.565 91.341 101.789L90.7922 102.31C90.6708 102.169 90.5202 102.056 90.3508 101.979C90.1814 101.902 89.9973 101.863 89.8112 101.864C89.6505 101.856 89.4898 101.882 89.34 101.941C89.1903 102 89.0549 102.09 88.943 102.206C88.8312 102.322 88.7455 102.46 88.6917 102.612C88.6379 102.763 88.6173 102.925 88.6313 103.085C88.6302 103.25 88.6627 103.414 88.7266 103.566C88.7905 103.718 88.8846 103.856 89.0033 103.971C89.1219 104.085 89.2625 104.175 89.4167 104.234C89.5709 104.293 89.7355 104.32 89.9004 104.313C90.0826 104.317 90.2631 104.278 90.4275 104.199C90.5919 104.121 90.7356 104.005 90.8471 103.86L91.4302 104.382C91.2436 104.61 91.006 104.79 90.7367 104.909C90.4674 105.029 90.1739 105.083 89.8798 105.068C89.6084 105.079 89.3375 105.036 89.0827 104.942C88.8279 104.848 88.5943 104.704 88.3953 104.519C88.1963 104.334 88.0359 104.111 87.9234 103.864C87.8108 103.617 87.7483 103.35 87.7395 103.078Z" fill="#2E0D44"/>
<path d="M91.6633 103.078C91.6521 102.812 91.6972 102.546 91.7956 102.298C91.894 102.05 92.0435 101.825 92.2344 101.639C92.4253 101.453 92.6533 101.309 92.9036 101.216C93.1539 101.124 93.4208 101.085 93.687 101.103C93.959 101.089 94.231 101.129 94.4873 101.221C94.7436 101.313 94.9791 101.455 95.1801 101.639C95.3811 101.823 95.5436 102.045 95.6583 102.292C95.7729 102.539 95.8373 102.806 95.8479 103.078C95.8601 103.345 95.8157 103.612 95.7178 103.861C95.6198 104.11 95.4704 104.335 95.2794 104.522C95.0884 104.709 94.8601 104.854 94.6093 104.947C94.3585 105.04 94.091 105.079 93.8242 105.061C93.5516 105.075 93.2791 105.034 93.0223 104.942C92.7656 104.849 92.5298 104.707 92.3287 104.522C92.1276 104.338 91.9652 104.115 91.851 103.867C91.7368 103.619 91.6729 103.351 91.6633 103.078ZM94.9492 103.078C94.9511 102.916 94.9204 102.756 94.8588 102.606C94.7972 102.456 94.7061 102.32 94.5909 102.206C94.4757 102.092 94.3387 102.002 94.1881 101.942C94.0375 101.883 93.8764 101.854 93.7144 101.857C93.5554 101.851 93.3967 101.878 93.2492 101.938C93.1017 101.998 92.9688 102.089 92.8595 102.205C92.7503 102.321 92.6671 102.459 92.6158 102.609C92.5644 102.76 92.5461 102.92 92.5619 103.078C92.5591 103.241 92.5892 103.402 92.6503 103.553C92.7115 103.704 92.8025 103.841 92.9178 103.955C93.0331 104.07 93.1704 104.16 93.3214 104.221C93.4725 104.281 93.6342 104.31 93.7967 104.306C93.9562 104.312 94.1149 104.283 94.2624 104.223C94.4099 104.162 94.5427 104.07 94.6519 103.954C94.761 103.838 94.844 103.699 94.8953 103.548C94.9466 103.397 94.965 103.237 94.9492 103.078Z" fill="#2E0D44"/>
<path d="M96.4517 101.164H98.1872C98.4576 101.138 98.7305 101.167 98.989 101.251C99.2475 101.334 99.4861 101.47 99.69 101.649C99.8939 101.829 100.059 102.048 100.174 102.294C100.29 102.54 100.354 102.807 100.362 103.078C100.377 103.347 100.333 103.615 100.233 103.864C100.133 104.113 99.9793 104.338 99.7829 104.521C99.5865 104.704 99.3522 104.842 99.0966 104.925C98.841 105.007 98.5704 105.033 98.3039 104.999H96.5614L96.4517 101.164ZM98.2558 104.272C98.4176 104.289 98.5811 104.27 98.7347 104.216C98.8882 104.162 99.028 104.075 99.144 103.961C99.26 103.847 99.3493 103.709 99.4057 103.556C99.4621 103.404 99.4841 103.24 99.4701 103.078C99.4697 102.913 99.4351 102.75 99.3684 102.599C99.3016 102.448 99.2042 102.312 99.0824 102.2C98.9605 102.089 98.8168 102.004 98.6603 101.951C98.5039 101.897 98.3381 101.877 98.1735 101.892H97.364L97.4464 104.272H98.2558Z" fill="#2E0D44"/>
<path d="M104.039 104.272V104.958H101.075L100.938 101.123H103.833V101.809H101.871V102.639H103.648V103.325H101.871V104.21L104.039 104.272Z" fill="#2E0D44"/>
<path d="M78.4647 119.234V120.77H71.2686V119.556L75.0965 115.859C76.0294 114.946 76.1872 114.377 76.1804 113.801C76.1804 112.909 75.5355 112.387 74.335 112.387C73.9016 112.366 73.4692 112.447 73.0733 112.625C72.6774 112.802 72.3293 113.071 72.0575 113.41L70.7678 112.429C71.2112 111.886 71.7769 111.457 72.4185 111.175C73.06 110.894 73.7591 110.769 74.4585 110.81C76.5851 110.81 77.9777 111.887 78.0051 113.622C78.0051 114.569 77.7719 115.44 76.441 116.716L73.8685 119.206L78.4647 119.234Z" fill="#263238"/>
<path d="M86.4361 117.834C86.4361 119.481 85.2424 120.907 82.615 120.907C81.2917 120.931 79.9948 120.535 78.9106 119.776L79.6721 118.362C80.4987 119 81.5161 119.341 82.5602 119.33C83.8567 119.33 84.6182 118.753 84.6182 117.848C84.6182 116.942 83.9322 116.387 82.4641 116.387H81.5723V115.145L83.6921 112.504H79.2399V110.981H85.9216V112.202L83.5892 115.028C85.4619 115.248 86.4361 116.359 86.4361 117.834Z" fill="#263238"/>
<path d="M95.5872 117.992C95.5872 119.81 94.0575 120.942 91.6222 120.942C89.1869 120.942 87.6091 119.81 87.5816 117.992C87.561 117.492 87.6966 116.998 87.9695 116.579C88.2425 116.16 88.6392 115.836 89.1046 115.653C88.7247 115.46 88.4061 115.166 88.1843 114.802C87.9626 114.439 87.8465 114.021 87.8492 113.595C87.8492 111.914 89.2761 110.851 91.4438 110.851C93.6116 110.851 95.1276 111.9 95.1551 113.595C95.1763 114.018 95.0734 114.439 94.8588 114.804C94.6443 115.17 94.3276 115.465 93.9477 115.653C94.4247 115.832 94.8364 116.152 95.129 116.569C95.4215 116.986 95.5812 117.482 95.5872 117.992ZM93.7488 117.937C93.7488 116.97 92.8844 116.366 91.5399 116.366C90.1953 116.366 89.3927 116.97 89.4132 117.937C89.4338 118.904 90.2502 119.515 91.5947 119.515C92.9393 119.515 93.7694 118.898 93.7488 117.903V117.937ZM89.6328 113.684C89.6328 114.521 90.3188 115.056 91.5056 115.056C92.6923 115.056 93.3715 114.521 93.3509 113.684C93.3303 112.847 92.5757 112.312 91.4507 112.312C90.3256 112.312 89.6328 112.765 89.6465 113.65L89.6328 113.684Z" fill="#263238"/>
<path d="M104.711 117.992C104.711 119.81 103.181 120.942 100.746 120.942C98.3106 120.942 96.726 119.776 96.726 117.992C96.7064 117.492 96.8424 116.999 97.1152 116.58C97.388 116.161 97.7841 115.837 98.2489 115.653C97.8688 115.461 97.5502 115.167 97.3295 114.803C97.1087 114.439 96.9947 114.02 97.0004 113.595C96.9661 111.914 98.4204 110.851 100.588 110.851C102.756 110.851 104.272 111.9 104.299 113.595C104.321 114.018 104.218 114.439 104.003 114.804C103.789 115.17 103.472 115.465 103.092 115.653C103.565 115.836 103.973 116.156 104.261 116.573C104.55 116.991 104.707 117.485 104.711 117.992ZM102.873 117.937C102.873 116.97 102.008 116.366 100.664 116.366C99.3191 116.366 98.5164 116.97 98.537 117.937C98.5576 118.904 99.3739 119.515 100.718 119.515C102.063 119.515 102.9 118.898 102.9 117.903L102.873 117.937ZM98.7565 113.684C98.7565 114.521 99.4768 115.056 100.629 115.056C101.782 115.056 102.495 114.521 102.482 113.684C102.468 112.847 101.699 112.312 100.581 112.312C99.4631 112.312 98.784 112.765 98.784 113.65L98.7565 113.684Z" fill="#263238"/>
<path d="M53.8443 103.113C53.7568 103.113 53.6725 103.08 53.6087 103.02C53.545 102.96 53.5065 102.878 53.5013 102.79L52.2871 86.2096C52.2814 86.1197 52.3113 86.0312 52.3703 85.9632C52.4294 85.8951 52.5128 85.8531 52.6026 85.846C52.6932 85.8403 52.7826 85.87 52.8517 85.9289C52.9208 85.9878 52.9643 86.0712 52.9731 86.1616L54.1941 102.742C54.1979 102.787 54.1927 102.833 54.1788 102.876C54.165 102.919 54.1428 102.959 54.1134 102.993C54.0841 103.028 54.0482 103.056 54.0079 103.076C53.9676 103.097 53.9237 103.109 53.8786 103.113H53.8443Z" fill="#2E0D44"/>
<path d="M52.3967 83.349C52.3103 83.3493 52.227 83.317 52.1634 83.2585C52.0998 83.2 52.0606 83.1196 52.0537 83.0335L51.7313 78.6568C51.7282 78.6117 51.7339 78.5665 51.7482 78.5237C51.7626 78.4809 51.7852 78.4413 51.8148 78.4072C51.8746 78.3384 51.9593 78.2961 52.0503 78.2898C52.1413 78.2834 52.231 78.3134 52.2999 78.3733C52.3687 78.4331 52.4109 78.5178 52.4173 78.6088L52.7397 82.9855C52.7454 83.0754 52.7155 83.1639 52.6564 83.2319C52.5974 83.2999 52.514 83.342 52.4242 83.349H52.3967Z" fill="#2E0D44"/>
<path d="M84.6318 62.4878C84.5408 62.4878 84.4536 62.4516 84.3893 62.3873C84.325 62.323 84.2888 62.2357 84.2888 62.1448V52.0537C84.2888 51.9627 84.325 51.8755 84.3893 51.8112C84.4536 51.7468 84.5408 51.7107 84.6318 51.7107C84.7228 51.7107 84.81 51.7468 84.8744 51.8112C84.9387 51.8755 84.9748 51.9627 84.9748 52.0537V62.1448C84.9748 62.2357 84.9387 62.323 84.8744 62.3873C84.81 62.4516 84.7228 62.4878 84.6318 62.4878Z" fill="#2E0D44"/>
<path d="M76.64 64.6281C76.5801 64.6277 76.5214 64.6117 76.4696 64.5816C76.4179 64.5515 76.3749 64.5084 76.345 64.4566L71.296 55.7169C71.2505 55.6378 71.2383 55.5438 71.2621 55.4557C71.2859 55.3676 71.3438 55.2925 71.4229 55.247C71.5021 55.2015 71.596 55.1893 71.6842 55.2131C71.7723 55.2369 71.8474 55.2948 71.8928 55.3739L76.9349 64.1136C76.9581 64.1521 76.9734 64.1949 76.9797 64.2395C76.9861 64.284 76.9834 64.3294 76.9719 64.3729C76.9604 64.4164 76.9402 64.4572 76.9127 64.4927C76.8851 64.5283 76.8507 64.558 76.8115 64.58C76.7589 64.6095 76.7001 64.626 76.64 64.6281Z" fill="#2E0D44"/>
<path d="M92.6101 64.6281C92.5504 64.6283 92.4916 64.6142 92.4386 64.5869C92.3602 64.5398 92.3034 64.4639 92.2804 64.3754C92.2573 64.2869 92.2698 64.1929 92.3151 64.1136L97.3572 55.3739C97.4027 55.2948 97.4778 55.2369 97.5659 55.2131C97.654 55.1893 97.748 55.2015 97.8271 55.247C97.9063 55.2925 97.9641 55.3676 97.9879 55.4557C98.0117 55.5438 97.9995 55.6378 97.954 55.7169L92.9188 64.484C92.8843 64.5328 92.8377 64.5718 92.7836 64.5971C92.7294 64.6223 92.6696 64.633 92.6101 64.6281Z" fill="#2E0D44"/>
<path d="M210.828 283.915C210.109 269.557 211.514 255.172 214.999 241.225L215.685 241.39C212.218 255.272 210.817 269.59 211.528 283.881L210.828 283.915Z" fill="#2E0D44"/>
<path d="M212.125 240.717C212.125 241.993 213.305 246.528 214.588 246.494C215.871 246.459 216.797 241.884 216.762 240.601C216.755 240.296 216.687 239.996 216.564 239.718C216.44 239.439 216.263 239.188 216.042 238.978C215.821 238.768 215.561 238.604 215.277 238.495C214.993 238.385 214.69 238.333 214.385 238.34C214.081 238.348 213.781 238.416 213.502 238.539C213.224 238.663 212.973 238.84 212.763 239.061C212.553 239.281 212.389 239.541 212.279 239.826C212.17 240.11 212.117 240.413 212.125 240.717Z" fill="#2E0D44"/>
<path d="M217.112 255.117C217.112 253.834 215.932 249.306 214.656 249.334C213.38 249.361 212.447 253.943 212.475 255.226C212.482 255.531 212.549 255.831 212.672 256.109C212.795 256.388 212.972 256.64 213.193 256.85C213.413 257.06 213.673 257.225 213.957 257.335C214.241 257.444 214.544 257.497 214.848 257.49C215.153 257.483 215.453 257.416 215.731 257.293C216.01 257.169 216.262 256.993 216.472 256.772C216.682 256.552 216.847 256.292 216.957 256.008C217.066 255.724 217.119 255.421 217.112 255.117Z" fill="#2E0D44"/>
<path d="M207.419 250.39C208.702 250.39 213.229 249.21 213.195 247.927C213.161 246.644 208.592 245.718 207.309 245.753C207.005 245.76 206.705 245.827 206.426 245.95C206.147 246.073 205.896 246.25 205.686 246.471C205.475 246.691 205.311 246.951 205.201 247.235C205.091 247.519 205.038 247.822 205.045 248.126C205.053 248.431 205.12 248.731 205.243 249.009C205.366 249.288 205.543 249.539 205.763 249.75C205.984 249.96 206.243 250.125 206.527 250.234C206.811 250.344 207.114 250.397 207.419 250.39Z" fill="#2E0D44"/>
<path d="M221.818 245.423C220.542 245.423 216.008 246.603 216.042 247.879C216.076 249.155 220.652 250.088 221.935 250.061C222.239 250.053 222.539 249.985 222.818 249.862C223.096 249.738 223.347 249.561 223.557 249.34C223.767 249.12 223.931 248.86 224.041 248.575C224.15 248.291 224.203 247.988 224.195 247.684C224.187 247.379 224.12 247.079 223.996 246.801C223.873 246.522 223.695 246.271 223.475 246.061C223.254 245.851 222.994 245.687 222.71 245.578C222.426 245.468 222.123 245.416 221.818 245.423Z" fill="#2E0D44"/>
<path d="M207.762 244.586C208.695 245.471 212.708 247.865 213.593 246.933C214.478 246 211.892 242.131 210.966 241.232C210.521 240.807 209.925 240.576 209.31 240.59C208.695 240.605 208.111 240.863 207.686 241.307C207.262 241.752 207.031 242.348 207.045 242.963C207.059 243.577 207.317 244.162 207.762 244.586Z" fill="#2E0D44"/>
<path d="M221.475 251.241C220.549 250.356 216.536 247.968 215.651 248.895C214.766 249.821 217.345 253.697 218.272 254.602C218.492 254.812 218.752 254.977 219.037 255.087C219.321 255.197 219.624 255.25 219.929 255.242C220.234 255.235 220.534 255.168 220.813 255.044C221.092 254.921 221.344 254.744 221.554 254.523C221.764 254.302 221.929 254.042 222.039 253.758C222.149 253.474 222.202 253.17 222.194 252.866C222.187 252.561 222.12 252.26 221.996 251.982C221.873 251.703 221.696 251.451 221.475 251.241Z" fill="#2E0D44"/>
<path d="M211.288 254.774C212.173 253.841 214.56 249.827 213.634 248.943C212.708 248.058 208.832 250.644 207.927 251.57C207.502 252.016 207.272 252.612 207.286 253.228C207.301 253.843 207.56 254.428 208.006 254.852C208.451 255.277 209.048 255.508 209.663 255.493C210.279 255.478 210.863 255.219 211.288 254.774Z" fill="#2E0D44"/>
<path d="M217.949 241.06C217.064 241.986 214.67 246 215.603 246.885C216.536 247.769 220.405 245.19 221.304 244.264C221.514 244.044 221.679 243.784 221.789 243.5C221.899 243.216 221.952 242.913 221.945 242.609C221.938 242.304 221.871 242.004 221.748 241.726C221.625 241.447 221.448 241.195 221.228 240.985C221.008 240.775 220.748 240.61 220.464 240.5C220.18 240.39 219.878 240.337 219.573 240.344C219.269 240.351 218.968 240.417 218.69 240.54C218.411 240.663 218.159 240.84 217.949 241.06Z" fill="#2E0D44"/>
<path d="M211.871 247.982C211.885 248.524 212.059 249.05 212.371 249.494C212.684 249.937 213.12 250.278 213.626 250.473C214.132 250.668 214.685 250.709 215.214 250.59C215.743 250.472 216.226 250.199 216.6 249.807C216.974 249.414 217.224 248.919 217.317 248.385C217.411 247.851 217.343 247.301 217.124 246.805C216.905 246.309 216.544 245.889 216.087 245.597C215.629 245.306 215.095 245.157 214.553 245.17C214.192 245.178 213.836 245.257 213.506 245.402C213.176 245.548 212.878 245.758 212.628 246.019C212.379 246.28 212.184 246.588 212.054 246.925C211.924 247.262 211.862 247.621 211.871 247.982Z" fill="white"/>
<path d="M211.48 268.397C211.48 268.397 211.953 261.393 215.802 260.289C219.65 259.184 221.057 257.675 221.057 257.675C221.057 257.675 220.666 268.535 211.48 268.397Z" fill="#2E0D44"/>
<path opacity="0.5" d="M211.48 268.397C211.48 268.397 211.953 261.393 215.802 260.289C219.65 259.184 221.057 257.675 221.057 257.675C221.057 257.675 220.666 268.535 211.48 268.397Z" fill="white"/>
<path d="M210.972 273.762C210.972 273.762 210.499 266.758 206.651 265.647C202.802 264.535 201.396 263.04 201.396 263.04C201.396 263.04 201.787 273.899 210.972 273.762Z" fill="#2E0D44"/>
<path opacity="0.5" d="M210.972 273.762C210.972 273.762 210.499 266.758 206.651 265.647C202.802 264.535 201.396 263.04 201.396 263.04C201.396 263.04 201.787 273.899 210.972 273.762Z" fill="white"/>
<path d="M225.488 288.353C225.488 293.841 218.978 298.245 210.952 298.245C202.926 298.245 196.416 293.821 196.416 288.353C196.416 285.609 198.082 283.085 200.778 281.294C202.477 280.186 204.366 279.4 206.349 278.976H215.555C217.589 279.413 219.523 280.23 221.256 281.383C223.876 283.174 225.488 285.63 225.488 288.353Z" fill="#2E0D44"/>
<path opacity="0.8" d="M215.555 278.976C217.589 279.413 219.523 280.23 221.256 281.383C223.876 283.174 225.488 285.63 225.488 288.353C225.488 293.841 218.978 298.245 210.952 298.245C202.926 298.245 196.416 293.821 196.416 288.353C196.416 285.609 198.082 283.085 200.778 281.294C202.477 280.186 204.366 279.4 206.349 278.976H215.555Z" fill="white"/>
<path d="M211.336 279.867H210.65V284.759H211.336V279.867Z" fill="#2E0D44"/>
<path d="M221.894 278.825L221.125 281.226L221.112 281.253H200.785L200.744 281.123L200.01 278.825H221.894Z" fill="#2E0D44"/>
<path d="M223.773 290.343C222.317 292.361 220.403 294.007 218.189 295.145C214.697 296.997 200.01 297.47 198.329 289.142C198.329 289.025 198.268 288.909 198.247 288.792C198.173 288.277 198.218 287.751 198.378 287.255C198.538 286.759 198.809 286.306 199.17 285.931C199.531 285.555 199.973 285.267 200.462 285.088C200.951 284.908 201.474 284.843 201.993 284.896C203.385 284.99 204.783 284.911 206.157 284.663C211.43 283.864 216.811 284.151 221.969 285.506C222.458 285.636 222.908 285.881 223.283 286.22C223.657 286.56 223.945 286.984 224.122 287.458C224.298 287.932 224.359 288.441 224.298 288.943C224.238 289.445 224.058 289.925 223.773 290.343Z" fill="#263238"/>
<path d="M118.342 287.571C118.47 287.521 118.584 287.44 118.673 287.334C118.761 287.229 118.822 287.103 118.849 286.967C118.876 286.886 118.879 286.799 118.86 286.716C118.841 286.632 118.799 286.556 118.74 286.494C118.211 285.945 116.064 286.336 115.824 286.384C115.796 286.387 115.77 286.398 115.749 286.417C115.728 286.435 115.713 286.46 115.707 286.487C115.702 286.514 115.704 286.542 115.714 286.567C115.724 286.593 115.741 286.615 115.762 286.631C116.19 286.944 116.65 287.211 117.134 287.427C117.508 287.615 117.935 287.666 118.342 287.571ZM118.534 286.686C118.559 286.715 118.576 286.75 118.583 286.787C118.591 286.824 118.588 286.863 118.575 286.899C118.559 286.989 118.521 287.073 118.463 287.144C118.405 287.215 118.331 287.27 118.246 287.304C117.855 287.448 117.107 287.18 116.188 286.618C117.079 286.467 118.253 286.391 118.534 286.686Z" fill="#2E0D44"/>
<path d="M115.865 286.659C116.551 286.576 118.033 285.801 118.163 285.129C118.186 285.019 118.17 284.905 118.117 284.806C118.065 284.707 117.979 284.63 117.875 284.587C117.779 284.534 117.672 284.502 117.562 284.493C117.451 284.485 117.341 284.501 117.237 284.539C116.414 284.82 115.742 286.398 115.714 286.467C115.705 286.488 115.699 286.512 115.699 286.535C115.699 286.559 115.705 286.582 115.714 286.604C115.73 286.625 115.752 286.642 115.776 286.652L115.865 286.659ZM117.731 284.834C117.896 284.923 117.903 285.012 117.889 285.074C117.807 285.486 116.798 286.124 116.092 286.323C116.346 285.808 116.839 284.951 117.333 284.8C117.443 284.755 117.566 284.755 117.676 284.8L117.731 284.834Z" fill="#2E0D44"/>
<path d="M109.355 283.894L114.939 286.151L119.817 273.247L114.226 270.991L109.355 283.894Z" fill="#FFB573"/>
<path d="M115.646 285.692L109.376 283.16C109.269 283.113 109.149 283.107 109.038 283.143C108.927 283.178 108.832 283.252 108.772 283.352L106.028 287.948C105.963 288.067 105.924 288.197 105.914 288.332C105.904 288.466 105.922 288.601 105.968 288.728C106.015 288.854 106.087 288.97 106.181 289.066C106.276 289.162 106.39 289.237 106.515 289.286C108.724 290.137 109.828 290.432 112.586 291.55C114.287 292.236 116.702 293.409 119.035 294.363C121.367 295.316 122.465 293.08 121.566 292.476C117.58 289.78 117.45 288.223 116.455 286.412C116.278 286.084 115.992 285.83 115.646 285.692Z" fill="#263238"/>
<path d="M119.741 279.579L110.041 275.655L110.933 272.102L121.34 275.909L119.741 279.579Z" fill="#2E0D44"/>
<path d="M129.455 130.223C127.486 135.924 121.662 149.342 117.169 143.751C116.36 142.764 115.699 141.664 115.207 140.486C113.307 135.787 112.833 128.172 112.593 126.505L111.063 121.285C111.036 121.196 111.022 121.103 111.022 121.01V118.026C111.022 116.819 111.996 116.099 113.313 116.208C113.313 116.208 115.44 115.961 115.44 117.23L115.852 121.71C116.064 123.267 115.447 125.435 115.811 126.862C117.183 132.233 119.069 132.48 120.256 138.023C121.909 134.024 124.866 127.102 124.866 127.102C126.828 127.349 130.1 128.351 129.455 130.223Z" fill="#FFB573"/>
<path d="M122.417 145.796C122.108 146.277 121.687 146.676 121.19 146.959C120.693 147.242 120.135 147.4 119.564 147.419C118.992 147.439 118.424 147.319 117.909 147.071C117.394 146.823 116.947 146.454 116.606 145.994C115.793 144.914 115.154 143.713 114.713 142.434C112.929 136.583 111.825 132.96 111.674 126.848C112.306 126.21 113.105 125.761 113.979 125.554C114.853 125.346 115.768 125.388 116.62 125.675L119.542 135.574C119.542 135.574 125.49 120.791 127.898 120.263C130.731 119.638 131.911 122.17 133.111 125.284C133.976 127.521 126.292 139.82 122.417 145.796Z" fill="#2E0D44"/>
<path d="M146.447 105.466C145.761 108.896 144.266 116.387 146.667 118.678C146.667 118.678 145.727 122.156 139.354 122.156C132.336 122.156 135.999 118.678 135.999 118.678C139.827 117.766 139.724 114.926 139.059 112.257L146.447 105.466Z" fill="#FFB573"/>
<path d="M135.725 97.412C135.766 97.4184 135.808 97.4184 135.849 97.412C135.912 97.3771 135.959 97.3191 135.981 97.2501C136.003 97.1812 135.997 97.1065 135.965 97.0416C135.782 96.6474 135.506 96.3036 135.16 96.0396C134.815 95.7756 134.411 95.5992 133.983 95.5255C133.947 95.5207 133.911 95.5232 133.876 95.5328C133.841 95.5424 133.809 95.5589 133.781 95.5813C133.752 95.6037 133.729 95.6316 133.712 95.6633C133.695 95.6949 133.684 95.7297 133.681 95.7656C133.676 95.8013 133.679 95.8376 133.688 95.8723C133.698 95.907 133.714 95.9394 133.737 95.9676C133.759 95.9958 133.787 96.0192 133.819 96.0363C133.85 96.0535 133.885 96.0641 133.921 96.0674C134.259 96.1333 134.576 96.2783 134.846 96.4906C135.117 96.7029 135.334 96.9763 135.478 97.2885C135.505 97.3291 135.542 97.3619 135.585 97.3836C135.628 97.4053 135.677 97.4151 135.725 97.412Z" fill="#263238"/>
<path d="M133.633 100.375C133.09 101.379 132.411 102.302 131.616 103.119C131.831 103.317 132.087 103.465 132.365 103.554C132.644 103.643 132.938 103.67 133.228 103.634L133.633 100.375Z" fill="#ED893E"/>
<path d="M134.181 99.3739C134.284 99.8267 134.12 100.252 133.825 100.314C133.53 100.376 133.201 100.06 133.104 99.6278C133.008 99.1956 133.166 98.7497 133.468 98.6811C133.77 98.6125 134.085 98.9143 134.181 99.3739Z" fill="#263238"/>
<path d="M133.605 98.6605L132.439 98.5782C132.439 98.5782 133.187 99.3122 133.605 98.6605Z" fill="#263238"/>
<path opacity="0.2" d="M129.208 127.301C130.422 126.183 131.266 126.519 131.801 127.404C132.357 129.97 129.057 135.348 127.76 137.385L129.208 127.301Z" fill="black"/>
<path d="M157.3 130.683C157.142 133.509 156.874 137.07 156.442 141.549C155.989 146.276 155.345 152.018 154.46 158.994C145.137 158.994 135.375 158.85 130.841 158.85C131.225 149.582 131.362 140.191 127.205 121.751C127.153 121.523 127.147 121.286 127.188 121.055C127.23 120.824 127.317 120.604 127.445 120.408C127.573 120.211 127.739 120.042 127.933 119.911C128.128 119.78 128.347 119.69 128.577 119.645C131.287 119.154 134.025 118.831 136.775 118.678C140.326 118.424 143.891 118.424 147.442 118.678C152.018 119.096 157.217 120.16 157.217 120.16C157.217 120.16 157.78 121.861 157.3 130.683Z" fill="#2E0D44"/>
<path opacity="0.2" d="M157.3 130.683C157.142 133.509 156.874 137.07 156.442 141.549C153.931 138.641 151.558 128.625 152.326 125.202C154.198 126.586 155.843 128.252 157.204 130.141C157.245 130.32 157.278 130.501 157.3 130.683Z" fill="black"/>
<path d="M181.509 143.237L186.311 140.548L187.203 145.439C187.203 145.439 183.155 146.996 181.029 145.905L181.509 143.237Z" fill="#FFB573"/>
<path d="M189.487 141.103L189.823 142.702C189.872 142.947 189.849 143.201 189.755 143.433C189.661 143.664 189.501 143.863 189.295 144.005L187.182 145.432L186.29 140.541L187.943 140.129C188.109 140.088 188.281 140.08 188.449 140.107C188.618 140.134 188.779 140.195 188.923 140.286C189.068 140.377 189.192 140.497 189.289 140.637C189.386 140.778 189.453 140.936 189.487 141.103Z" fill="#FFB573"/>
<path d="M152.704 125.826C154.233 128.941 159.845 140.705 162.308 143.422L162.795 143.93L163.035 144.183C163.117 144.266 163.186 144.341 163.316 144.458C163.759 144.878 164.246 145.249 164.77 145.562C165.706 146.103 166.713 146.509 167.761 146.77C169.6 147.196 171.487 147.374 173.373 147.298C176.886 147.157 180.368 146.567 183.731 145.542L183.162 142.688C181.577 142.825 179.917 142.921 178.312 142.949C176.721 142.996 175.129 142.945 173.544 142.798C172.075 142.692 170.624 142.409 169.222 141.954C168.656 141.764 168.12 141.493 167.631 141.151C167.443 141.02 167.271 140.868 167.116 140.699C167.062 140.643 167.012 140.583 166.966 140.52L166.787 140.308L166.424 139.882C164.53 137.509 159.529 126.066 158.027 123.206L152.704 125.826Z" fill="#FFB573"/>
<path d="M181.433 148.107C177.48 150.209 172.855 150.658 168.571 149.356C164.484 148.042 161.037 145.247 158.905 141.522C156.429 137.879 149.836 127.575 150.673 124.914C151.654 121.731 153.739 119.755 157.224 120.612C159.673 121.202 164.345 133.098 166.609 137.852C167.494 139.176 169.195 141.282 171.095 141.927C174.45 143.086 176.919 142.613 180.432 142.084C181.077 142.468 181.029 143.065 181.351 143.731C181.697 144.406 181.884 145.151 181.899 145.909C181.913 146.668 181.754 147.42 181.433 148.107Z" fill="#2E0D44"/>
<path d="M149.905 99.9708C148.855 105.61 148.533 108.018 145.295 110.583C140.438 114.439 133.736 111.914 133.084 106.069C132.494 100.808 134.312 92.4659 140.157 90.895C141.444 90.5418 142.8 90.5236 144.096 90.8421C145.392 91.1605 146.585 91.8051 147.561 92.7145C148.538 93.6239 149.266 94.768 149.676 96.038C150.087 97.308 150.165 98.6618 149.905 99.9708Z" fill="#FFB573"/>
<path d="M169.922 131.191C168.845 132.419 168.509 133.132 167.006 133.797C165.504 134.463 162.252 133.88 161.217 132.611C161.553 133.598 163.515 135.355 164.544 135.512C163.382 136.149 162.039 136.371 160.734 136.142C159.43 135.912 158.242 135.245 157.368 134.25C157.512 134.869 157.812 135.44 158.239 135.91C158.667 136.38 159.208 136.732 159.81 136.932C146.667 137.275 152.203 131.088 143.971 122.286C134.861 112.545 136.836 104.491 136.836 104.491C136.858 102.486 136.23 100.527 135.046 98.9074C133.729 97.2199 134.113 94.9424 134.531 93.6664C135.142 91.7936 137.001 91.1351 138.784 91.0253C139.1 89.18 142.9 89.5161 143.36 89.8248C143.82 90.1335 143.875 90.0718 144.293 89.8248C145.219 89.228 147.552 88.6106 150.049 90.6274C151.571 91.8622 153.204 94.0574 153.259 98.7771C153.314 103.668 150.975 109.479 159.069 116.908C163.837 121.271 161.553 130.676 169.922 131.191Z" fill="#263238"/>
<path d="M135.753 100.396C135.115 101.3 134.849 102.416 135.012 103.51C135.245 104.958 136.651 105.054 137.673 104.128C138.695 103.202 139.587 101.528 138.833 100.327C138.078 99.1269 136.548 99.2985 135.753 100.396Z" fill="#FFB573"/>
<path d="M148.484 158.987C148.484 158.987 145.679 198.371 142.523 224.343C141.574 232.137 139.198 239.69 135.512 246.624L120.05 275.82L112.12 272.699C112.12 272.699 117.608 244.95 128.302 229.817C128.302 229.817 120.304 184.589 130.772 158.85L148.484 158.987Z" fill="#263238"/>
<path opacity="0.2" d="M137.701 168.53C137.701 168.53 140.061 186.366 141.35 196.978C136.514 190.598 132.762 181.694 137.701 168.53Z" fill="black"/>
<path d="M168.509 291.269C168.601 291.166 168.665 291.041 168.694 290.906C168.722 290.772 168.716 290.632 168.673 290.5C168.658 290.416 168.619 290.338 168.562 290.274C168.506 290.21 168.433 290.163 168.351 290.137C167.617 289.89 165.909 291.228 165.717 291.378C165.696 291.397 165.68 291.42 165.671 291.447C165.663 291.474 165.662 291.502 165.669 291.529C165.677 291.555 165.693 291.577 165.713 291.594C165.734 291.611 165.759 291.622 165.785 291.625C166.319 291.707 166.86 291.727 167.398 291.687C167.805 291.68 168.198 291.532 168.509 291.269ZM168.255 290.404C168.292 290.415 168.324 290.436 168.349 290.466C168.373 290.495 168.388 290.531 168.392 290.569C168.422 290.655 168.429 290.747 168.413 290.836C168.396 290.925 168.356 291.008 168.296 291.077C168.022 291.385 167.24 291.495 166.17 291.385C166.869 290.864 167.871 290.267 168.255 290.404Z" fill="#2E0D44"/>
<path d="M165.888 291.605C166.43 291.228 167.398 289.849 167.192 289.197C167.159 289.089 167.09 288.995 166.997 288.931C166.903 288.867 166.79 288.838 166.677 288.847C166.568 288.844 166.459 288.865 166.359 288.907C166.258 288.95 166.168 289.014 166.094 289.094C165.497 289.725 165.655 291.427 165.662 291.502C165.666 291.526 165.676 291.549 165.69 291.57C165.704 291.59 165.723 291.607 165.744 291.619C165.769 291.625 165.795 291.625 165.82 291.619C165.844 291.621 165.867 291.616 165.888 291.605ZM166.67 289.128C166.856 289.128 166.904 289.211 166.924 289.272C167.041 289.677 166.458 290.699 165.93 291.2C165.85 290.539 165.979 289.87 166.3 289.286C166.378 289.199 166.486 289.145 166.602 289.135L166.67 289.128Z" fill="#2E0D44"/>
<path d="M158.823 292.161L164.832 291.584L162.993 277.933L156.984 278.516L158.823 292.161Z" fill="#FFB573"/>
<path d="M165.237 290.864L158.487 291.516C158.371 291.524 158.262 291.575 158.181 291.658C158.1 291.742 158.052 291.852 158.047 291.968L157.801 297.299C157.801 297.434 157.829 297.568 157.885 297.691C157.94 297.815 158.021 297.925 158.122 298.015C158.223 298.105 158.342 298.173 158.471 298.214C158.6 298.255 158.736 298.268 158.871 298.252C161.217 297.991 162.301 297.745 165.305 297.456C167.13 297.278 169.819 297.209 172.344 296.969C174.868 296.729 174.752 294.26 173.716 294.136C168.914 293.594 168.029 292.291 166.314 291.132C165.997 290.92 165.616 290.825 165.237 290.864Z" fill="#263238"/>
<path d="M154.425 158.98C154.425 158.98 162.115 205.978 163.59 233.816L163.872 283.688L157.65 284.903C157.65 284.903 148.642 253.086 147.6 234.694C144.856 185.906 128.961 185.824 138.524 158.891L154.425 158.98Z" fill="#263238"/>
<path d="M165.937 283.894L155.64 285.301L154.59 281.349L165.6 279.915L165.937 283.894Z" fill="#2E0D44"/>
<path d="M110.446 108.559H110.837C110.744 108.559 110.652 108.578 110.566 108.615C110.481 108.651 110.403 108.705 110.339 108.772C110.275 108.84 110.225 108.919 110.193 109.007C110.161 109.094 110.146 109.187 110.151 109.28L110.782 121.223C110.801 121.41 110.888 121.584 111.028 121.711C111.167 121.838 111.348 121.908 111.537 121.909H111.132C110.944 121.907 110.763 121.836 110.624 121.709C110.485 121.583 110.397 121.41 110.377 121.223L109.76 109.28C109.755 109.187 109.77 109.094 109.802 109.007C109.834 108.919 109.884 108.84 109.948 108.772C110.012 108.705 110.09 108.651 110.175 108.615C110.261 108.578 110.353 108.559 110.446 108.559Z" fill="#2E0D44"/>
<path opacity="0.1" d="M110.446 108.559H110.837C110.744 108.559 110.652 108.578 110.566 108.615C110.481 108.651 110.403 108.705 110.339 108.772C110.275 108.84 110.225 108.919 110.193 109.007C110.161 109.094 110.146 109.187 110.151 109.28L110.782 121.223C110.801 121.41 110.888 121.584 111.028 121.711C111.167 121.838 111.348 121.908 111.537 121.909H111.132C110.944 121.907 110.763 121.836 110.624 121.709C110.485 121.583 110.397 121.41 110.377 121.223L109.76 109.28C109.755 109.187 109.77 109.094 109.802 109.007C109.834 108.919 109.884 108.84 109.948 108.772C110.012 108.705 110.09 108.651 110.175 108.615C110.261 108.578 110.353 108.559 110.446 108.559Z" fill="white"/>
<path d="M111.235 121.943H116.037C116.219 121.943 116.393 121.871 116.522 121.742C116.65 121.614 116.723 121.439 116.723 121.257L116.098 109.314C116.086 109.121 116.002 108.94 115.862 108.806C115.722 108.673 115.537 108.597 115.344 108.594H110.542C110.449 108.594 110.357 108.612 110.271 108.649C110.186 108.686 110.108 108.739 110.044 108.807C109.98 108.874 109.93 108.954 109.898 109.041C109.865 109.128 109.851 109.221 109.856 109.314L110.48 121.257C110.5 121.444 110.588 121.617 110.727 121.744C110.866 121.87 111.047 121.941 111.235 121.943Z" fill="#2E0D44"/>
<path opacity="0.4" d="M111.235 121.943H116.037C116.219 121.943 116.393 121.871 116.522 121.742C116.65 121.614 116.723 121.439 116.723 121.257L116.098 109.314C116.086 109.121 116.002 108.94 115.862 108.806C115.722 108.673 115.537 108.597 115.344 108.594H110.542C110.449 108.594 110.357 108.612 110.271 108.649C110.186 108.686 110.108 108.739 110.044 108.807C109.98 108.874 109.93 108.954 109.898 109.041C109.865 109.128 109.851 109.221 109.856 109.314L110.48 121.257C110.5 121.444 110.588 121.617 110.727 121.744C110.866 121.87 111.047 121.941 111.235 121.943Z" fill="white"/>
<path d="M116.435 120.976C116.438 121.036 116.43 121.096 116.41 121.153C116.39 121.209 116.359 121.261 116.318 121.305C116.232 121.389 116.116 121.436 115.996 121.436H111.324C111.193 121.434 111.068 121.383 110.974 121.292C110.88 121.202 110.823 121.079 110.816 120.949L110.206 109.362C110.201 109.303 110.209 109.244 110.23 109.188C110.25 109.133 110.281 109.082 110.322 109.04C110.364 108.996 110.414 108.961 110.469 108.937C110.525 108.913 110.584 108.902 110.645 108.902H115.316C115.447 108.904 115.572 108.955 115.667 109.046C115.761 109.136 115.817 109.259 115.824 109.39L115.865 110.22L116.435 120.976Z" fill="#263238"/>
<g opacity="0.1">
<path d="M115.865 110.22L114.315 121.422H112.456L114.212 108.889H115.317C115.447 108.89 115.572 108.941 115.667 109.032C115.761 109.122 115.817 109.245 115.824 109.376L115.865 110.22Z" fill="white"/>
<path d="M111.784 121.436H111.365L113.121 108.902H113.54L111.784 121.436Z" fill="white"/>
</g>
<path d="M129.325 160.318C125.832 167.202 123.955 174.792 123.837 182.51C135.499 191.559 146.358 180.96 159.708 182.75C159.241 176.72 157.19 165.6 154.762 160.03C145.919 160.407 137.66 159.522 129.325 160.318Z" fill="#2E0D44"/>
<path d="M130.539 157.869C130.539 157.869 129.599 160.291 129.853 160.291H154.35C154.563 160.291 154.734 160.188 154.748 160.051L154.96 157.993C154.96 157.849 154.789 157.725 154.563 157.725H130.923C130.852 157.715 130.78 157.723 130.713 157.749C130.646 157.774 130.586 157.815 130.539 157.869Z" fill="white"/>
<path d="M133.989 160.524H133.358C133.228 160.524 133.132 160.455 133.139 160.373L133.441 157.629C133.441 157.547 133.557 157.485 133.681 157.485H134.319C134.442 157.485 134.538 157.547 134.531 157.629L134.236 160.373C134.217 160.422 134.183 160.463 134.138 160.49C134.094 160.517 134.041 160.529 133.989 160.524Z" fill="#2E0D44"/>
<path d="M149.328 160.524H148.697C148.574 160.524 148.478 160.455 148.485 160.373L148.78 157.629C148.78 157.547 148.896 157.485 149.027 157.485H149.658C149.781 157.485 149.877 157.547 149.87 157.629L149.575 160.373C149.548 160.428 149.459 160.524 149.328 160.524Z" fill="#2E0D44"/>
</svg>
