<svg width="343" height="343" viewBox="0 0 343 343" fill="none" xmlns="http://www.w3.org/2000/svg">
<path d="M220.329 77.8198C220.329 77.8198 183.052 60.8139 143.374 79.3153C103.696 97.8167 80.948 139.381 61.5411 172.611C42.1341 205.841 48.5071 241.836 75.9471 260.385C103.387 278.934 125.03 256.955 165.566 259.308C206.102 261.661 216.474 268.37 252.002 248.442C287.53 228.513 298.293 175.108 275.292 132.912C252.29 90.7166 220.329 77.8198 220.329 77.8198Z" fill="#B46B6B"/>
<path opacity="0.7" d="M220.329 77.8198C220.329 77.8198 183.052 60.8139 143.374 79.3153C103.696 97.8167 80.948 139.381 61.5411 172.611C42.1341 205.841 48.5071 241.836 75.9471 260.385C103.387 278.934 125.03 256.955 165.566 259.308C206.102 261.661 216.474 268.37 252.002 248.442C287.53 228.513 298.293 175.108 275.292 132.912C252.29 90.7166 220.329 77.8198 220.329 77.8198Z" fill="white"/>
<path d="M244.044 245.423C241.431 243.612 238.028 246.747 236.732 248.915C235.655 250.712 234.269 253.484 233.947 254.136L233.905 253.978L233.981 253.916L233.905 253.957C233.314 251.69 232.462 249.498 231.367 247.426C231.937 246.74 234.248 245.924 234.797 245.705C236.938 244.778 239.002 244.038 240.285 241.932C241.273 240.265 241.719 237.918 239.558 236.979C236.643 235.703 233.919 239.441 233.062 241.815C232.376 243.681 231.628 246.452 231.381 247.344C230.434 245.56 229.358 243.848 228.164 242.22C228.988 241.337 229.908 240.55 230.908 239.874C232.746 238.433 234.543 237.191 235.223 234.831C235.751 232.966 235.579 230.585 233.254 230.228C230.112 229.741 228.452 234.056 228.212 236.567C228.061 238.33 228.02 240.813 228.006 241.98C227.1 240.745 226.208 239.627 225.392 238.604C224.576 237.582 223.773 236.546 223.176 235.703L223.389 235.607C223.309 235.64 223.221 235.652 223.135 235.641L223.101 235.6C223.533 234.831 225.66 233.59 226.126 233.274C228.061 231.971 229.947 230.86 230.791 228.561C231.477 226.737 231.477 224.349 229.165 223.821C226.064 223.135 224.075 227.292 223.677 229.783C223.362 231.731 223.121 234.585 223.046 235.517C222.943 235.367 222.847 235.222 222.765 235.078C221.668 233.29 220.693 231.429 219.849 229.508L220.076 229.467C219.992 229.487 219.905 229.487 219.822 229.467C219.788 229.398 219.76 229.323 219.726 229.254C220.391 228.256 221.167 227.336 222.038 226.51C223.615 224.788 225.193 223.272 225.468 220.837C225.687 218.909 225.138 216.591 222.785 216.611C219.602 216.611 218.635 221.166 218.827 223.684C218.944 225.221 219.232 227.292 219.424 228.561C218.882 227.285 218.484 226.215 218.237 225.509C218.114 225.159 218.025 224.905 217.976 224.747C217.918 223.668 217.943 222.585 218.052 221.509C218.155 219.184 218.388 217.002 217.037 214.958C215.973 213.332 214.053 211.912 212.235 213.442C209.813 215.5 211.988 219.616 213.751 221.4C214.992 222.669 216.851 224.329 217.73 225.097C217.963 225.783 218.512 227.354 219.342 229.261C218.429 228.623 217.573 227.907 216.783 227.121C215.034 225.577 213.483 224.027 211.041 223.794C209.113 223.602 206.802 224.205 206.87 226.538C206.959 229.714 211.508 230.592 214.018 230.352C215.836 230.174 218.388 229.748 219.506 229.563C220.359 231.524 221.35 233.422 222.47 235.243C222.532 235.353 222.607 235.463 222.676 235.565C221.621 235.176 220.604 234.692 219.637 234.118C217.579 233.048 215.678 231.93 213.257 232.3C211.336 232.595 209.244 233.748 209.889 236.005C210.76 239.071 215.377 238.797 217.757 237.946C219.472 237.328 221.839 236.293 222.854 235.833C223.464 236.718 224.226 237.699 225.118 238.797C226.01 239.894 226.984 241.143 227.972 242.508C227.286 242.796 224.802 241.294 224.247 241.012C222.189 239.942 220.295 238.824 217.867 239.194C215.953 239.489 213.86 240.642 214.505 242.899C215.377 245.965 219.993 245.691 222.367 244.84C224.583 244.044 227.855 242.549 227.972 242.508V242.618C227.965 242.584 227.965 242.549 227.972 242.515C229.127 244.104 230.17 245.773 231.093 247.509C230.208 247.708 227.889 247.056 227.347 246.939C225.07 246.452 222.957 245.869 220.714 246.864C218.944 247.646 217.229 249.306 218.443 251.323C220.083 254.067 224.473 252.571 226.538 251.131C228.177 249.985 230.434 248.147 231.127 247.577C232.2 249.623 233.038 251.784 233.624 254.019C232.664 254.136 230.537 253.539 230.023 253.429C227.745 252.949 225.632 252.359 223.389 253.353C221.619 254.142 219.904 255.796 221.118 257.812C222.758 260.556 227.148 259.061 229.213 257.62C230.757 256.537 232.849 254.842 233.665 254.19C234.44 257.271 234.688 260.46 234.399 263.623H234.708C235.001 260.442 234.757 257.235 233.988 254.136C234.543 253.546 237.164 253.155 237.733 253.031C240.018 252.544 242.179 252.215 243.818 250.39C245.087 249.018 245.972 246.768 244.044 245.423Z" fill="white"/>
<path d="M264.796 256.838C262.381 257.257 260.954 258.896 259.308 260.591C258.938 260.968 257.504 262.649 256.639 263.081C255.88 260.899 255.375 258.636 255.137 256.338C256.029 256.427 258.924 256.701 260.92 256.742C263.445 256.79 267.91 255.576 267.78 252.4C267.67 250.054 265.324 249.656 263.417 249.958C260.996 250.376 259.569 252.016 257.929 253.703C257.538 254.101 255.974 255.933 255.13 256.255C254.934 254.3 254.874 252.333 254.952 250.369L255.027 250.445L254.966 250.356C255.069 250.356 258.636 249.752 260.92 249.183C263.369 248.572 267.362 246.226 266.408 243.201C265.688 240.964 263.307 241.143 261.551 241.986C259.329 243.029 258.389 245.005 257.257 247.042C256.955 247.584 255.706 250.225 254.993 250.356C255.055 248.668 255.185 247.097 255.309 245.684C255.432 244.271 255.528 243.036 255.542 241.966C256.639 241.774 259.185 241.321 260.954 240.882C263.403 240.271 267.396 237.925 266.442 234.9C265.756 232.664 263.342 232.842 261.586 233.686C259.308 234.715 258.382 236.67 257.25 238.728C256.763 239.744 256.187 240.715 255.528 241.63C255.528 241.499 255.528 241.369 255.528 241.246C255.446 239.108 255.217 236.979 254.842 234.873C255.857 234.42 258.217 233.357 259.823 232.485C262.045 231.292 265.311 228.04 263.644 225.344C262.395 223.355 260.145 224.137 258.643 225.344C256.742 226.901 256.317 229.049 255.72 231.299C255.499 232.394 255.185 233.468 254.78 234.509C254.41 232.451 254.005 230.86 253.806 230.146C254.108 229.021 254.732 226.606 255.062 224.864C255.528 222.381 255.062 217.778 251.899 217.4C249.567 217.126 248.757 219.369 248.771 221.31C248.771 223.766 250.198 225.426 251.577 227.32C252.264 228.156 252.885 229.043 253.436 229.975C253.484 230.132 253.552 230.393 253.642 230.75C253.827 231.477 254.088 232.588 254.328 233.947C253.779 232.787 252.873 230.908 252.112 229.563C250.87 227.361 247.557 224.13 244.895 225.879C242.926 227.169 243.756 229.405 245.012 230.88C246.603 232.746 248.757 233.137 251.028 233.686C252.204 233.89 253.354 234.221 254.458 234.674L254.499 234.9C254.447 234.97 254.379 235.027 254.3 235.065L254.513 234.976C254.887 237.04 255.116 239.128 255.199 241.225C255.199 241.397 255.199 241.568 255.199 241.746C254.623 241.019 252.832 238.776 251.488 237.329C249.773 235.476 245.794 233.11 243.612 235.428C242 237.136 243.331 239.126 244.895 240.23C246.878 241.678 249.066 241.547 251.392 241.561C251.954 241.561 254.417 241.41 255.199 241.808V241.863C255.131 241.919 255.051 241.959 254.966 241.98L255.199 241.938C255.199 242.988 255.082 244.209 254.966 245.581C254.849 246.953 254.739 248.325 254.671 249.841C253.985 248.881 252.613 246.843 251.488 245.458C249.91 243.489 246.116 240.841 243.777 242.988C242.041 244.58 243.221 246.658 244.696 247.907C246.569 249.491 248.757 249.526 251.083 249.704C252.287 249.711 253.486 249.856 254.657 250.136C254.57 252.154 254.627 254.176 254.828 256.187C254.142 255.576 251.954 253.703 250.363 252.523C248.305 251.028 243.99 249.43 242.268 252.112C240.999 254.094 242.672 255.796 244.422 256.633C246.638 257.682 248.764 257.154 251.055 256.735C251.604 256.633 253.991 256.049 254.842 256.283C255.081 258.62 255.589 260.922 256.358 263.143L256.413 263.3C255.782 262.937 253.093 261.4 251.199 260.508C248.915 259.425 244.339 258.704 243.18 261.668C242.323 263.856 244.285 265.208 246.164 265.681C248.545 266.291 250.527 265.358 252.695 264.501C253.237 264.288 255.631 263.129 256.427 263.335C257.51 266.337 259.087 269.138 261.092 271.622L261.339 271.43C259.344 268.965 257.778 266.182 256.708 263.198C257.751 263.3 260.433 263.547 262.32 263.589C264.844 263.637 269.31 262.429 269.18 259.246C269.07 256.934 266.724 256.509 264.796 256.838Z" fill="white"/>
<path d="M79.3359 248.97C76.9281 248.49 75.0004 249.526 72.8806 250.493C72.4004 250.712 70.4591 251.755 69.4918 251.865C69.569 249.546 69.9143 247.244 70.5208 245.005C71.3166 245.41 73.9508 246.706 75.7756 247.468C78.108 248.421 82.711 248.901 83.7194 245.883C84.4603 243.647 82.4229 242.405 80.5227 242.028C78.1148 241.547 76.1872 242.583 74.0674 243.557C73.5598 243.784 71.4401 244.929 70.5414 244.929C71.0581 243.033 71.7092 241.176 72.4896 239.373C72.5079 239.403 72.5218 239.435 72.5308 239.469V239.359C72.6268 239.359 76.1735 240.121 78.5059 240.409C81.0098 240.724 85.5785 239.976 85.7569 236.8C85.8872 234.454 83.596 233.789 81.6409 233.919C79.1919 234.091 77.6003 235.593 75.8167 237.088C75.3365 237.479 73.2236 239.503 72.5102 239.359C73.1962 237.809 73.8822 236.389 74.479 235.113C75.0758 233.837 75.6452 232.719 76.0431 231.724C77.1407 231.95 79.672 232.444 81.4831 232.671C83.987 232.979 88.5558 232.232 88.7341 229.055C88.8645 226.709 86.5732 226.044 84.6181 226.174C82.1691 226.346 80.5776 227.848 78.7871 229.343C77.9676 230.107 77.0814 230.796 76.1391 231.401C76.1872 231.285 76.2283 231.161 76.2695 231.045C76.96 229.027 77.5101 226.964 77.9159 224.871C79.0341 224.816 81.6134 224.672 83.4039 224.445C85.9078 224.13 90.1541 222.278 89.5779 219.156C89.1251 216.845 86.7447 216.769 84.8994 217.373C82.5738 218.141 81.4008 219.986 80.0288 221.88C79.4217 222.821 78.7331 223.707 77.9708 224.528C78.3618 222.47 78.5607 220.851 78.6568 220.11C79.3428 219.17 80.7971 217.14 81.73 215.63C83.054 213.483 84.282 209.017 81.4625 207.536C79.4045 206.431 77.8267 208.222 77.1407 210.053C76.2763 212.351 76.9761 214.423 77.5935 216.673C77.9296 217.7 78.1887 218.75 78.3686 219.815C78.3686 219.98 78.3275 220.247 78.2863 220.611C78.1972 221.358 78.0394 222.49 77.7993 223.855C77.7032 222.573 77.5317 220.494 77.3054 218.964C76.9418 216.467 75.0141 212.255 71.8997 212.928C69.6016 213.421 69.5673 215.809 70.2121 217.64C71.0216 219.952 72.8944 221.07 74.8083 222.442C75.8366 223.055 76.7938 223.779 77.6621 224.603C77.6501 224.677 77.634 224.75 77.614 224.823C77.5412 224.869 77.4594 224.899 77.374 224.912H77.6003C77.2029 226.973 76.662 229.004 75.9814 230.99C75.9265 231.148 75.8647 231.312 75.803 231.477C75.5217 230.585 74.6642 227.855 73.9302 225.989C72.9973 223.65 70.1366 220.007 67.2692 221.379C65.1494 222.401 65.6708 224.727 66.7204 226.359C68.0444 228.417 70.1504 229.103 72.3044 229.933C72.8258 230.139 75.1719 230.887 75.7344 231.539V231.594C75.6505 231.609 75.5645 231.609 75.4806 231.594L75.707 231.642C75.316 232.616 74.7809 233.7 74.1772 234.955C73.5735 236.21 72.9836 237.418 72.373 238.824C72.1055 237.685 71.5155 235.277 71.001 233.59C70.2396 231.182 67.6533 227.34 64.6898 228.507C62.5015 229.364 62.8582 231.724 63.7843 233.425C64.9574 235.579 66.9879 236.402 69.0939 237.404C70.2137 237.848 71.2812 238.414 72.277 239.092C71.466 240.943 70.7897 242.85 70.2533 244.799C69.8211 243.983 68.4628 241.445 67.4064 239.771C66.0344 237.644 62.6044 234.591 60.0044 236.471C58.1111 237.843 59.0509 240.052 60.3886 241.465C62.0693 243.242 64.2439 243.523 66.5626 243.948C67.1114 244.051 69.5536 244.353 70.2533 244.888C69.6405 247.15 69.2906 249.475 69.2106 251.817H69.1214L69.2106 251.865C69.2106 251.92 69.2106 251.975 69.2106 252.03C68.7578 251.467 66.7958 249.059 65.3552 247.543C63.6128 245.718 59.6066 243.393 57.4525 245.739C55.861 247.468 57.2124 249.436 58.8245 250.541C60.8208 251.961 63.0091 251.81 65.3346 251.789C65.9246 251.789 68.5657 251.59 69.238 252.043C69.1677 255.237 69.6314 258.421 70.61 261.462L70.905 261.366C69.9257 258.344 69.4619 255.178 69.533 252.002C70.4728 252.475 72.8875 253.669 74.63 254.382C76.9692 255.343 81.5723 255.816 82.5738 252.798C83.2736 250.589 81.2361 249.347 79.3359 248.97Z" fill="white"/>
<path d="M112.188 266.305C110.59 265.99 109.314 266.676 107.908 267.32C107.192 267.711 106.432 268.015 105.644 268.226C105.698 266.693 105.928 265.172 106.33 263.692C106.858 263.959 108.587 264.823 109.815 265.324C111.358 265.955 114.418 266.278 115.083 264.275C115.577 262.793 114.226 261.97 112.964 261.716C111.365 261.4 110.089 262.086 108.683 262.731C108.347 262.882 106.941 263.643 106.344 263.637C106.69 262.381 107.121 261.15 107.633 259.953C107.638 259.975 107.638 259.999 107.633 260.021V259.946C107.702 259.946 110.048 260.454 111.599 260.632C113.259 260.838 116.291 260.344 116.401 258.238C116.49 256.681 114.967 256.235 113.657 256.324C112.038 256.44 110.981 257.435 109.794 258.423C109.479 258.691 108.072 260.028 107.599 259.932C108.038 258.903 108.491 257.963 108.903 257.113C109.314 256.262 109.671 255.528 109.938 254.87C110.666 255.014 112.346 255.343 113.547 255.494C115.207 255.7 118.239 255.206 118.349 253.093C118.438 251.536 116.915 251.097 115.605 251.186C113.986 251.295 112.929 252.297 111.743 253.285C111.197 253.794 110.607 254.253 109.98 254.657C109.98 254.575 110.041 254.492 110.069 254.417C110.529 253.072 110.893 251.697 111.159 250.301C111.9 250.266 113.615 250.17 114.816 250.02C116.476 249.807 119.289 248.579 118.884 246.507C118.589 244.977 117.004 244.923 115.783 245.327C114.24 245.835 113.464 247.063 112.552 248.311C112.147 248.938 111.688 249.528 111.18 250.074C111.441 248.702 111.571 247.632 111.619 247.145C112.072 246.521 113.039 245.176 113.677 244.175C114.555 242.748 115.372 239.784 113.506 238.803C112.134 238.069 111.091 239.27 110.638 240.47C110.062 241.993 110.528 243.372 110.933 244.861C111.16 245.532 111.335 246.22 111.454 246.919C111.454 247.029 111.42 247.207 111.393 247.447C111.338 247.941 111.235 248.696 111.07 249.594C111.009 248.744 110.892 247.365 110.748 246.349C110.501 244.696 109.225 241.904 107.16 242.35C105.637 242.679 105.61 244.257 106.035 245.471C106.577 247.008 107.819 247.763 109.088 248.648C109.771 249.052 110.406 249.533 110.981 250.081C110.981 250.129 110.981 250.177 110.981 250.225C110.932 250.257 110.875 250.276 110.816 250.28H110.967C110.704 251.648 110.344 252.996 109.89 254.314C109.856 254.417 109.815 254.527 109.774 254.636C109.589 254.046 109.019 252.235 108.532 251.014C107.915 249.464 106.014 247.049 104.114 247.962C102.742 248.648 103.051 250.177 103.751 251.261C104.629 252.633 106.014 253.072 107.455 253.635C107.805 253.765 109.355 254.266 109.746 254.698V254.732C109.692 254.742 109.636 254.742 109.582 254.732L109.733 254.767C109.472 255.411 109.115 256.139 108.717 256.962C108.319 257.785 107.922 258.595 107.517 259.527C107.338 258.773 106.947 257.175 106.598 256.056C106.09 254.458 104.375 251.94 102.413 252.681C100.959 253.251 101.192 254.822 101.809 255.947C102.584 257.373 103.936 257.922 105.328 258.588C106.074 258.876 106.784 259.251 107.441 259.706C106.896 260.932 106.437 262.195 106.069 263.486C105.788 262.951 104.883 261.27 104.183 260.159C103.284 258.745 100.979 256.729 99.2711 257.97C98.0157 258.889 98.64 260.344 99.5249 261.277C100.643 262.457 102.084 262.649 103.607 262.93C103.97 262.999 105.589 263.198 106.056 263.547C105.65 265.048 105.42 266.59 105.37 268.144C105.37 268.178 105.37 268.219 105.37 268.253C105.068 267.883 103.771 266.285 102.811 265.276C101.658 264.069 99.0036 262.532 97.5767 264.083C96.5202 265.228 97.412 266.538 98.4616 267.279C99.7856 268.226 101.24 268.123 102.783 268.109C103.174 268.109 104.924 267.979 105.37 268.281C105.325 270.398 105.634 272.508 106.282 274.523L106.481 274.462C105.833 272.455 105.529 270.354 105.582 268.247C106.207 268.562 107.805 269.358 108.964 269.831C110.508 270.462 113.567 270.785 114.233 268.782C114.802 267.382 113.451 266.559 112.188 266.305Z" fill="white"/>
<path d="M107.201 265.9C105.829 266.724 105.301 268.089 104.684 269.509C104.407 270.267 104.039 270.988 103.586 271.656C102.603 270.481 101.758 269.196 101.068 267.828C101.645 267.67 103.504 267.142 104.759 266.717C106.337 266.161 108.82 264.364 107.983 262.422C107.366 260.996 105.809 261.277 104.704 261.935C103.332 262.759 102.804 264.124 102.187 265.544C101.914 266.339 101.531 267.092 101.048 267.78C100.47 266.613 99.9725 265.407 99.5592 264.172H99.6209L99.5592 264.131C99.6209 264.096 101.7 262.896 102.989 262.004C104.279 261.112 106.289 258.663 104.972 257.017C104.004 255.796 102.578 256.482 101.679 257.401C100.54 258.567 100.417 260.015 100.197 261.517C100.135 261.922 99.9776 263.856 99.566 264.103C99.2025 263.04 98.9212 262.045 98.6605 261.133C98.3998 260.22 98.1803 259.438 97.9334 258.766C98.5782 258.389 100.046 257.518 101.041 256.825C102.413 255.878 104.347 253.484 103.03 251.837C102.056 250.616 100.629 251.302 99.7307 252.222C98.5988 253.388 98.4753 254.835 98.2489 256.338C98.184 257.082 98.0531 257.819 97.8579 258.54C97.8579 258.457 97.7962 258.382 97.7687 258.306C97.2153 256.999 96.5712 255.731 95.8411 254.513C96.3693 253.991 97.5835 252.777 98.3793 251.865C99.4769 250.603 100.753 247.811 99.0653 246.535C97.8236 245.595 96.6094 246.61 95.9645 247.721C95.1551 249.135 95.3883 250.568 95.5529 252.105C95.6673 252.836 95.7223 253.574 95.7176 254.314C95.0316 253.127 94.3799 252.256 94.0918 251.831C94.0163 251.069 93.8379 249.423 93.6321 248.263C93.3372 246.617 91.972 243.866 89.9209 244.374C88.4048 244.751 88.4323 246.329 88.8987 247.529C89.4818 249.052 90.7509 249.766 92.0475 250.603C92.6688 250.963 93.2627 251.369 93.8242 251.817L94.1329 252.249C94.421 252.661 94.8189 253.285 95.3266 254.067C94.716 253.477 93.7076 252.523 92.9187 251.865C91.6359 250.795 88.8027 249.567 87.5816 251.275C86.6624 252.537 87.6982 253.731 88.8301 254.348C90.2502 255.137 91.677 254.87 93.2137 254.677C93.9932 254.528 94.7871 254.466 95.5804 254.492C95.608 254.532 95.6332 254.573 95.6558 254.616C95.6399 254.672 95.6118 254.723 95.5735 254.767L95.6833 254.664C96.3942 255.86 97.0245 257.102 97.5698 258.382L97.6933 258.704C97.165 258.389 95.5324 257.415 94.3524 256.832C92.857 256.084 89.8317 255.549 89.0222 257.518C88.4254 258.958 89.7082 259.877 90.9499 260.22C92.5208 260.653 93.8448 260.063 95.2923 259.534C95.6421 259.404 97.1376 258.739 97.7138 258.8C97.6859 258.851 97.6458 258.893 97.5972 258.924L97.7344 258.848C97.9677 259.5 98.194 260.282 98.4204 261.16C98.6468 262.038 98.9212 262.909 99.2368 263.904C98.5988 263.465 97.2474 262.532 96.2321 261.935C94.7915 261.078 91.8211 260.323 90.8676 262.21C90.1816 263.582 91.3821 264.611 92.5963 265.043C94.1261 265.592 95.4912 265.098 96.9798 264.666C97.7284 264.386 98.5063 264.193 99.2985 264.089C99.7158 265.364 100.225 266.606 100.821 267.808C100.245 267.595 98.4547 266.943 97.1925 266.58C95.5804 266.127 92.5071 266.154 92.0749 268.219C91.7525 269.749 93.1862 270.414 94.4691 270.524C96.088 270.654 97.2817 269.838 98.5851 269.029C98.9075 268.837 100.245 267.91 100.828 267.862C101.526 269.252 102.38 270.557 103.373 271.752H103.318H103.38L103.456 271.834C102.975 271.759 100.945 271.436 99.5592 271.327C97.8922 271.189 94.8875 271.814 94.8601 273.927C94.8601 275.484 96.3761 275.861 97.6521 275.717C99.2711 275.539 100.279 274.496 101.425 273.453C101.713 273.193 102.934 271.93 103.483 271.855C104.859 273.464 106.493 274.832 108.319 275.902L108.429 275.724C106.613 274.66 104.989 273.296 103.627 271.69C104.313 271.512 106.021 271.039 107.201 270.62C108.779 270.058 111.262 268.26 110.425 266.319C109.863 264.961 108.306 265.242 107.201 265.9Z" fill="white"/>
<path d="M89.9003 188.238C89.9011 185.25 88.7465 182.377 86.6778 180.22C84.6092 178.063 81.7868 176.79 78.8008 176.666V176.542H84.8102C84.5881 174.978 83.809 173.547 82.6161 172.512C81.4232 171.476 79.8967 170.906 78.3172 170.906C76.7376 170.906 75.2111 171.476 74.0183 172.512C72.8254 173.547 72.0463 174.978 71.8242 176.542H77.8404V176.666C75.3792 176.766 73.014 177.648 71.0885 179.184C69.1631 180.72 67.7776 182.83 67.1335 185.208C66.4894 187.585 66.6202 190.106 67.507 192.404C68.3937 194.702 69.9901 196.658 72.0643 197.986L70.5345 202.521C70.5011 202.62 70.4876 202.725 70.4947 202.829C70.5018 202.933 70.5294 203.035 70.5759 203.129C70.6224 203.223 70.6869 203.306 70.7658 203.375C70.8446 203.444 70.9362 203.496 71.0353 203.529C71.1172 203.556 71.2029 203.57 71.2891 203.57C71.4497 203.568 71.6059 203.518 71.7379 203.426C71.8698 203.334 71.9715 203.206 72.03 203.056L73.4637 198.789C74.95 199.474 76.5647 199.837 78.2013 199.852C79.8379 199.868 81.4591 199.536 82.958 198.878L84.33 203.056C84.3563 203.163 84.4045 203.263 84.4716 203.351C84.5387 203.438 84.6233 203.511 84.7199 203.564C84.8165 203.617 84.923 203.649 85.0328 203.659C85.1425 203.668 85.2531 203.655 85.3575 203.62C85.4619 203.585 85.5578 203.528 85.6392 203.454C85.7206 203.38 85.7857 203.289 85.8303 203.188C85.8749 203.088 85.8982 202.979 85.8985 202.869C85.8989 202.758 85.8763 202.649 85.8323 202.548L84.378 198.103C86.0648 197.068 87.458 195.617 88.4248 193.89C89.3916 192.163 89.8996 190.218 89.9003 188.238ZM78.3206 197.458C76.4974 197.457 74.7155 196.915 73.2002 195.901C71.6849 194.887 70.5043 193.447 69.8075 191.762C69.1107 190.077 68.9291 188.224 69.2856 186.435C69.6422 184.647 70.5208 183.005 71.8105 181.717C73.1002 180.428 74.743 179.55 76.5313 179.195C78.3196 178.84 80.173 179.023 81.8573 179.721C83.5416 180.419 84.9812 181.601 85.994 183.117C87.0068 184.633 87.5473 186.415 87.5473 188.238C87.5437 190.684 86.5702 193.028 84.8405 194.756C83.1107 196.485 80.7659 197.456 78.3206 197.458Z" fill="#263238"/>
<path d="M78.3207 187.168H78.2796L75.2063 182.305C75.1717 182.241 75.1245 182.186 75.0676 182.141C75.0107 182.097 74.9453 182.065 74.8755 182.047C74.8056 182.029 74.7328 182.025 74.6616 182.036C74.5903 182.047 74.522 182.073 74.461 182.111C74.4 182.15 74.3475 182.2 74.3068 182.26C74.2661 182.319 74.238 182.387 74.2243 182.457C74.2105 182.528 74.2114 182.601 74.227 182.672C74.2425 182.742 74.2723 182.809 74.3145 182.867L77.3809 187.731C77.2984 187.885 77.2537 188.057 77.2506 188.232C77.2514 188.42 77.3019 188.605 77.3971 188.767C77.4922 188.93 77.6286 189.065 77.7925 189.158V193.212C77.8074 193.342 77.8698 193.463 77.9678 193.551C78.0659 193.638 78.1927 193.686 78.3241 193.686C78.4556 193.686 78.5824 193.638 78.6805 193.551C78.7785 193.463 78.8409 193.342 78.8558 193.212V189.158C79.0595 189.04 79.2186 188.858 79.3085 188.64C79.3984 188.423 79.4141 188.182 79.3532 187.954C79.2923 187.727 79.1581 187.526 78.9714 187.383C78.7848 187.239 78.5561 187.162 78.3207 187.161V187.168Z" fill="#263238"/>
<path d="M83.5043 209.632C95.5984 206.893 103.182 194.869 100.444 182.775C97.7047 170.681 85.6802 163.097 73.5861 165.835C61.4921 168.574 53.9081 180.599 56.647 192.693C59.3858 204.787 71.4102 212.371 83.5043 209.632Z" stroke="#B46B6B" stroke-width="2" stroke-linecap="round" stroke-linejoin="round"/>
<path d="M274.023 183.162V176.247C273.976 175.797 273.754 175.384 273.405 175.096C273.056 174.809 272.607 174.67 272.157 174.71H260.351C259.9 174.67 259.452 174.809 259.103 175.096C258.754 175.384 258.532 175.797 258.485 176.247V183.162C258.498 183.464 258.601 183.755 258.779 183.999C258.957 184.243 259.203 184.429 259.486 184.534C259.202 184.637 258.955 184.823 258.777 185.067C258.598 185.312 258.497 185.604 258.485 185.906V189.802C258.509 190.149 258.647 190.478 258.876 190.74C259.105 191.001 259.413 191.18 259.754 191.25C259.026 192.104 258.583 193.164 258.485 194.282V203.42C258.533 203.868 258.756 204.28 259.105 204.566C259.454 204.852 259.901 204.99 260.351 204.949H272.157C272.606 204.99 273.054 204.852 273.403 204.566C273.752 204.28 273.974 203.868 274.023 203.42V194.234C273.925 193.116 273.481 192.056 272.754 191.202C273.094 191.132 273.403 190.953 273.632 190.692C273.861 190.43 273.998 190.101 274.023 189.754V185.858C274.011 185.556 273.909 185.264 273.731 185.019C273.553 184.775 273.306 184.589 273.021 184.486C273.297 184.384 273.539 184.206 273.716 183.971C273.894 183.736 274 183.455 274.023 183.162Z" fill="#263238"/>
<path d="M265.084 170.574H267.417C267.553 170.574 267.689 170.601 267.816 170.653C267.942 170.706 268.057 170.782 268.154 170.879C268.251 170.976 268.327 171.091 268.38 171.218C268.432 171.344 268.459 171.48 268.459 171.617V173.853H264.041V171.617C264.041 171.48 264.068 171.344 264.121 171.218C264.173 171.091 264.25 170.976 264.347 170.879C264.444 170.782 264.559 170.706 264.685 170.653C264.812 170.601 264.947 170.574 265.084 170.574Z" fill="#263238"/>
<path d="M267.972 172.893H264.542V176.172H267.972V172.893Z" fill="#263238"/>
<path d="M259.383 183.8C259.409 184.059 259.504 184.305 259.659 184.514C259.814 184.723 260.022 184.887 260.262 184.987C260.009 185.09 259.791 185.264 259.634 185.488C259.477 185.712 259.388 185.976 259.377 186.249V189.899C259.388 190.218 259.504 190.524 259.706 190.772C259.907 191.02 260.185 191.195 260.495 191.271C259.846 192.084 259.457 193.073 259.377 194.111V202.658C259.408 203.067 259.599 203.446 259.909 203.714C260.218 203.983 260.621 204.118 261.03 204.092H271.478C271.886 204.118 272.289 203.983 272.599 203.714C272.908 203.446 273.099 203.067 273.131 202.658V194.09C273.051 193.053 272.661 192.063 272.013 191.25C272.323 191.174 272.6 190.999 272.802 190.751C273.004 190.504 273.119 190.197 273.131 189.878V186.249C273.12 185.976 273.03 185.712 272.874 185.488C272.717 185.264 272.499 185.09 272.246 184.987C272.486 184.887 272.694 184.723 272.849 184.514C273.003 184.305 273.098 184.059 273.124 183.8C273.124 183.8 273.124 183.745 273.124 183.718V179.855C271.489 180.465 269.787 180.879 268.055 181.09C264.817 181.426 263.904 180.301 261.05 180.301C260.464 180.308 259.888 180.454 259.37 180.727V183.718C259.37 183.718 259.37 183.773 259.37 183.8H259.383Z" fill="white"/>
<path d="M269.763 190.461C269.784 190.953 269.706 191.445 269.532 191.905C269.358 192.366 269.093 192.788 268.753 193.143C268.412 193.499 268.003 193.782 267.55 193.976C267.097 194.169 266.609 194.269 266.117 194.269C265.624 194.269 265.137 194.169 264.683 193.976C264.23 193.782 263.821 193.499 263.481 193.143C263.14 192.788 262.875 192.366 262.701 191.905C262.528 191.445 262.449 190.953 262.47 190.461C262.47 188.444 266.113 184.287 266.113 184.287C266.113 184.287 269.763 188.444 269.763 190.461Z" fill="#263238"/>
<path d="M282.131 203.615C290.899 194.847 290.899 180.631 282.131 171.862C273.363 163.094 259.146 163.094 250.378 171.862C241.61 180.631 241.61 194.847 250.378 203.615C259.146 212.384 273.363 212.384 282.131 203.615Z" stroke="#B46B6B" stroke-width="2" stroke-linecap="round" stroke-linejoin="round"/>
<path d="M94.3456 146.427C99.233 146.427 103.195 141.887 103.195 136.288C103.195 130.688 99.233 126.149 94.3456 126.149C89.4582 126.149 85.4962 130.688 85.4962 136.288C85.4962 141.887 89.4582 146.427 94.3456 146.427Z" fill="#263238"/>
<path d="M94.3456 146.749C89.283 146.749 85.1738 142.057 85.1738 136.288C85.1738 130.518 89.2898 125.826 94.3456 125.826C99.4015 125.826 103.517 130.518 103.517 136.288C103.517 142.057 99.4015 146.749 94.3456 146.749ZM94.3456 126.471C89.6397 126.471 85.8118 130.875 85.8118 136.288C85.8118 141.7 89.6397 146.118 94.3456 146.118C99.0516 146.118 102.9 141.7 102.9 136.288C102.9 130.875 99.0447 126.471 94.3456 126.471Z" fill="white"/>
<path d="M91.4507 146.427C96.3381 146.427 100.3 141.887 100.3 136.288C100.3 130.688 96.3381 126.149 91.4507 126.149C86.5633 126.149 82.6013 130.688 82.6013 136.288C82.6013 141.887 86.5633 146.427 91.4507 146.427Z" fill="#263238"/>
<path d="M91.4507 146.749C86.388 146.749 82.272 142.057 82.272 136.288C82.272 130.518 86.388 125.826 91.4507 125.826C96.5133 125.826 100.622 130.518 100.622 136.288C100.622 142.057 96.5065 146.749 91.4507 146.749ZM91.4507 126.471C86.7447 126.471 82.9168 130.875 82.9168 136.288C82.9168 141.7 86.7447 146.118 91.4507 146.118C96.1566 146.118 99.9776 141.714 99.9776 136.301C99.9776 130.889 96.1498 126.471 91.4507 126.471Z" fill="white"/>
<path d="M92.4111 137.413H74.2252V134.518H92.4111C92.6014 134.517 92.7901 134.554 92.9661 134.626C93.1421 134.698 93.302 134.805 93.4366 134.94C93.5712 135.074 93.6778 135.234 93.7502 135.41C93.8226 135.586 93.8595 135.775 93.8585 135.965C93.8585 136.155 93.8211 136.343 93.7484 136.519C93.6756 136.695 93.569 136.854 93.4346 136.989C93.3002 137.123 93.1406 137.23 92.965 137.302C92.7894 137.375 92.6012 137.413 92.4111 137.413Z" fill="#263238"/>
<path d="M92.411 137.735H73.889V134.195H92.411C92.8804 134.195 93.3306 134.382 93.6625 134.714C93.9944 135.046 94.1809 135.496 94.1809 135.965C94.1809 136.435 93.9944 136.885 93.6625 137.217C93.3306 137.549 92.8804 137.735 92.411 137.735ZM74.575 137.09H92.411C92.7094 137.09 92.9956 136.972 93.2066 136.761C93.4176 136.55 93.5361 136.264 93.5361 135.965C93.5361 135.667 93.4176 135.381 93.2066 135.17C92.9956 134.959 92.7094 134.84 92.411 134.84H74.575V137.09Z" fill="white"/>
<path d="M78.5745 146.427C83.4619 146.427 87.4239 141.887 87.4239 136.288C87.4239 130.688 83.4619 126.149 78.5745 126.149C73.6871 126.149 69.7251 130.688 69.7251 136.288C69.7251 141.887 73.6871 146.427 78.5745 146.427Z" fill="#263238"/>
<path d="M78.5744 146.749C73.5117 146.749 69.3958 142.057 69.3958 136.288C69.3958 130.518 73.5117 125.826 78.5744 125.826C83.6371 125.826 87.7463 130.518 87.7463 136.288C87.7463 142.057 83.6302 146.749 78.5744 146.749ZM78.5744 126.471C73.8685 126.471 70.0406 130.875 70.0406 136.288C70.0406 141.7 73.8685 146.118 78.5744 146.118C83.2804 146.118 87.122 141.7 87.122 136.288C87.122 130.875 83.2735 126.471 78.5744 126.471Z" fill="white"/>
<path d="M75.6726 146.427C80.56 146.427 84.522 141.887 84.522 136.288C84.522 130.688 80.56 126.149 75.6726 126.149C70.7852 126.149 66.8232 130.688 66.8232 136.288C66.8232 141.887 70.7852 146.427 75.6726 146.427Z" fill="#263238"/>
<path d="M75.6727 146.749C70.6169 146.749 66.5009 142.057 66.5009 136.288C66.5009 130.518 70.6169 125.826 75.6727 125.826C80.7285 125.826 84.8514 130.518 84.8514 136.288C84.8514 142.057 80.7354 146.749 75.6727 146.749ZM75.6727 126.471C70.9736 126.471 67.1457 130.875 67.1457 136.288C67.1457 141.7 70.9736 146.118 75.6727 146.118C80.3718 146.118 84.2065 141.714 84.2065 136.301C84.2065 130.889 80.3786 126.471 75.6727 126.471Z" fill="white"/>
<path d="M78.89 136.288C78.89 138.346 77.4425 139.985 75.6589 139.985C73.8753 139.985 72.4279 138.332 72.4279 136.288C72.4279 134.243 73.8753 132.583 75.6589 132.583C77.4425 132.583 78.89 134.243 78.89 136.288Z" fill="#263238"/>
<path d="M75.6727 140.308C73.7176 140.308 72.1193 138.503 72.1193 136.288C72.1193 134.072 73.7176 132.261 75.6727 132.261C77.6278 132.261 79.2262 134.065 79.2262 136.288C79.2262 138.51 77.6347 140.308 75.6727 140.308ZM75.6727 132.906C74.0675 132.906 72.7641 134.422 72.7641 136.288C72.7641 138.154 74.0675 139.663 75.6727 139.663C77.278 139.663 78.5814 138.147 78.5814 136.288C78.5814 134.429 77.278 132.906 75.6727 132.906Z" fill="white"/>
<path d="M77.6209 136.288C77.6209 138.346 76.1735 139.985 74.3899 139.985C72.6063 139.985 71.1588 138.332 71.1588 136.288C71.1588 134.243 72.5994 132.583 74.3899 132.583C76.1803 132.583 77.6209 134.243 77.6209 136.288Z" fill="#263238"/>
<path d="M74.3899 140.308C72.4279 140.308 70.8364 138.503 70.8364 136.288C70.8364 134.072 72.4279 132.261 74.3899 132.261C76.3519 132.261 77.9434 134.065 77.9434 136.288C77.9434 138.51 76.345 140.308 74.3899 140.308ZM74.3899 132.906C72.7847 132.906 71.4744 134.422 71.4744 136.288C71.4744 138.154 72.7847 139.663 74.3899 139.663C75.9951 139.663 77.2985 138.147 77.2985 136.288C77.2985 134.429 75.9883 132.906 74.3899 132.906Z" fill="white"/>
<path d="M106.066 144.68C110.997 133.302 105.77 120.081 94.3924 115.151C83.0145 110.22 69.7938 115.446 64.863 126.824C59.9323 138.202 65.1588 151.423 76.5366 156.354C87.9145 161.284 101.135 156.058 106.066 144.68Z" stroke="#B46B6B" stroke-width="2" stroke-linecap="round" stroke-linejoin="round"/>
<path d="M276.952 125.469C276.952 125.469 279.538 122.382 277.528 121.587C275.518 120.791 273.714 126.985 273.714 126.985C273.714 126.985 274.119 123.686 272.767 122.183C271.416 120.681 271.018 123.953 271.485 126.636C271.681 127.824 272.005 128.988 272.452 130.107C271.892 129.515 271.284 128.971 270.634 128.481C266.285 125.147 261.935 132.597 261.935 132.597C261.935 132.597 251.323 141.515 249.553 147.689C247.783 153.863 266.394 143.868 271.505 139.965C275.189 137.159 275.36 134.168 273.563 131.465C275.381 131.623 279.147 131.822 280.21 130.971C281.631 129.832 277.748 129.256 277.748 129.256C277.748 129.256 283.716 127.431 284.477 124.729C285.239 122.026 276.952 125.469 276.952 125.469Z" fill="#263238"/>
<path d="M255.954 143.154C255.902 143.169 255.849 143.172 255.796 143.163C255.744 143.153 255.694 143.132 255.652 143.1C255.272 142.827 254.832 142.653 254.369 142.592C254.324 142.589 254.28 142.578 254.24 142.558C254.2 142.538 254.164 142.511 254.134 142.477C254.105 142.443 254.083 142.403 254.069 142.361C254.055 142.318 254.05 142.273 254.053 142.228C254.056 142.184 254.067 142.14 254.087 142.1C254.107 142.059 254.135 142.023 254.169 141.994C254.202 141.965 254.242 141.942 254.284 141.928C254.327 141.914 254.372 141.909 254.417 141.913C255.01 141.979 255.575 142.199 256.056 142.551C256.128 142.604 256.176 142.684 256.191 142.772C256.205 142.861 256.184 142.951 256.132 143.024C256.089 143.087 256.026 143.133 255.954 143.154Z" fill="white"/>
<path d="M267.025 140.863C266.938 140.889 266.844 140.88 266.763 140.838C266.683 140.796 266.622 140.723 266.593 140.637C266.185 139.166 265.433 137.814 264.398 136.692C264.349 136.626 264.327 136.544 264.334 136.461C264.341 136.379 264.377 136.302 264.436 136.244C264.495 136.187 264.573 136.153 264.656 136.148C264.738 136.143 264.82 136.168 264.885 136.219C266.001 137.412 266.813 138.857 267.252 140.431C267.278 140.518 267.269 140.612 267.226 140.693C267.184 140.774 267.112 140.835 267.025 140.863Z" fill="white"/>
<path d="M263.321 135.65C263.278 135.668 263.231 135.678 263.184 135.678C263.137 135.678 263.09 135.668 263.047 135.65C262.536 135.329 261.967 135.11 261.373 135.005C261.282 134.993 261.2 134.946 261.144 134.874C261.087 134.802 261.061 134.711 261.071 134.621C261.081 134.531 261.127 134.449 261.198 134.392C261.268 134.335 261.358 134.309 261.448 134.319C262.14 134.437 262.802 134.688 263.397 135.06C263.452 135.094 263.497 135.144 263.525 135.203C263.553 135.262 263.564 135.328 263.556 135.392C263.548 135.457 263.522 135.519 263.48 135.569C263.438 135.619 263.383 135.657 263.321 135.677V135.65Z" fill="white"/>
<path d="M271.34 138.833C271.288 138.843 271.235 138.843 271.183 138.833C271.093 138.816 271.014 138.765 270.961 138.691C270.909 138.616 270.887 138.525 270.901 138.435C271.049 137.673 270.966 136.884 270.663 136.169C270.36 135.454 269.851 134.846 269.2 134.422C269.121 134.375 269.064 134.299 269.04 134.211C269.017 134.122 269.03 134.028 269.077 133.948C269.123 133.869 269.199 133.812 269.288 133.789C269.377 133.765 269.471 133.779 269.55 133.825C270.318 134.325 270.923 135.039 271.289 135.879C271.655 136.719 271.766 137.649 271.608 138.551C271.599 138.621 271.568 138.685 271.52 138.736C271.472 138.786 271.409 138.82 271.34 138.833Z" fill="white"/>
<path d="M261.675 143.559C261.587 143.585 261.493 143.576 261.413 143.534C261.332 143.491 261.271 143.419 261.242 143.333C261.054 142.87 260.775 142.449 260.422 142.095C260.068 141.742 259.648 141.463 259.184 141.275C259.101 141.24 259.034 141.174 258.999 141.091C258.963 141.007 258.961 140.914 258.992 140.829C259.008 140.787 259.031 140.748 259.062 140.715C259.092 140.682 259.129 140.655 259.17 140.637C259.211 140.618 259.255 140.608 259.3 140.607C259.345 140.606 259.39 140.614 259.431 140.63C259.999 140.855 260.513 141.195 260.943 141.628C261.372 142.061 261.708 142.579 261.928 143.148C261.947 143.236 261.931 143.328 261.884 143.404C261.837 143.481 261.762 143.536 261.675 143.559Z" fill="white"/>
<path d="M271.869 157.6C283.946 154.79 291.459 142.721 288.648 130.643C285.838 118.565 273.768 111.053 261.691 113.863C249.613 116.674 242.101 128.743 244.911 140.821C247.722 152.898 259.791 160.411 271.869 157.6Z" stroke="#B46B6B" stroke-width="2" stroke-linecap="round" stroke-linejoin="round"/>
<path d="M127.987 92.2738C128.402 92.1564 128.758 91.8902 128.989 91.5261C129.791 90.257 129.421 87.8697 128.947 86.1753C127.935 84.7702 126.621 83.6096 125.102 82.7786C123.582 81.9477 121.896 81.4675 120.167 81.3733C124.31 83.1569 127.37 87.3072 127.987 92.2738Z" fill="#263238"/>
<path d="M116.133 96.1086C119.756 96.6467 123.45 96.4578 126.999 95.553C127.051 95.0768 127.078 94.5982 127.082 94.1192C127.082 93.886 127.082 93.6573 127.082 93.4332H127.047C124.488 93.4332 122.163 91.828 119.707 90.1404C118.531 89.2999 117.312 88.5192 116.058 87.8012C114.236 86.7795 112.177 86.2587 110.089 86.292C108.697 88.2449 107.947 90.5823 107.942 92.9805C108.738 93.7831 110.974 95.4226 116.133 96.1086Z" fill="#263238"/>
<path d="M130.47 89.0497C130.57 90.0979 130.353 91.1518 129.846 92.0749C129.647 92.3877 129.389 92.6578 129.085 92.8698C128.781 93.0818 128.438 93.2313 128.076 93.3097C128.076 93.5773 128.076 93.8448 128.076 94.1192C128.076 94.3936 128.076 94.8532 128.035 95.2168C129.135 94.846 130.175 94.3168 131.122 93.6459C131.122 93.4264 131.122 93.2137 131.122 93.001C131.136 91.6561 130.915 90.319 130.47 89.0497Z" fill="#263238"/>
<path d="M127.596 98.0568C128.358 97.961 129.13 98.141 129.771 98.5645C130.375 97.444 130.793 96.232 131.005 94.9767C130.042 95.5501 129.015 96.0105 127.946 96.3487C127.865 96.9248 127.748 97.4953 127.596 98.0568Z" fill="#263238"/>
<path d="M125.963 99.5934C125.353 99.8884 124.681 100.279 123.953 100.705C122.108 101.782 120.023 103.003 117.69 103.373C117.159 103.454 116.622 103.495 116.085 103.497C115.469 103.496 114.854 103.443 114.246 103.339C116.799 104.657 119.753 104.973 122.526 104.224C124.019 102.971 125.197 101.385 125.963 99.5934Z" fill="#263238"/>
<path d="M127.438 99.0858L127.246 99.127C126.704 100.655 125.899 102.076 124.866 103.325C126.626 102.421 128.125 101.082 129.222 99.4357C128.697 99.0885 128.056 98.9627 127.438 99.0858Z" fill="#263238"/>
<path d="M116.524 86.8956C117.812 87.6297 119.062 88.4288 120.27 89.2898C122.664 90.9362 124.756 92.3768 126.972 92.3974C126.286 86.7927 122.252 82.3063 117.141 81.6203C114.723 82.1382 112.532 83.4115 110.885 85.2561C112.866 85.3622 114.795 85.9232 116.524 86.8956Z" fill="#263238"/>
<path d="M117.532 102.365C119.673 102.029 121.648 100.856 123.432 99.8267C124.387 99.2186 125.398 98.7018 126.45 98.2832C126.614 97.7518 126.747 97.2112 126.848 96.6643C124.753 97.1852 122.6 97.441 120.441 97.4257C118.957 97.4215 117.474 97.3206 116.003 97.1239C111.729 96.5545 109.314 95.3471 108.011 94.3799C108.333 97.0535 109.574 99.532 111.523 101.391C113.384 102.307 115.477 102.646 117.532 102.365Z" fill="#263238"/>
<path d="M124.643 114.871C136.72 112.061 144.233 99.9917 141.422 87.9141C138.612 75.8364 126.542 68.324 114.465 71.1346C102.387 73.9451 94.8746 86.0144 97.6851 98.092C100.496 110.17 112.565 117.682 124.643 114.871Z" stroke="#B46B6B" stroke-width="2" stroke-linecap="round" stroke-linejoin="round"/>
<path d="M243.667 93.7831C243.667 99.8062 238.742 106.2 234.022 106.2C232.87 106.2 229.858 106.2 228.788 105.788C222.943 103.531 220.686 97.9334 220.686 93.0628C220.686 90.5383 221.441 87.7806 223.43 86.093C226.085 83.8635 229.007 85.2698 232.088 85.2698C234.77 85.2698 238.529 84.1722 240.573 85.6745C243.166 87.5816 243.667 90.7853 243.667 93.7831Z" fill="#263238"/>
<path d="M231.793 86.0861C232.253 84.656 232.791 83.2522 233.405 81.8809C233.839 81.017 234.519 80.3009 235.36 79.8229L236.588 80.3374C235.695 80.9296 234.899 81.6562 234.228 82.4915C233.379 83.8584 232.658 85.3005 232.074 86.7996" fill="#263238"/>
<path d="M232.588 84.2408C232.6 83.9309 232.541 83.6225 232.416 83.3386C232.291 83.0546 232.104 82.8026 231.868 82.6012C230.593 81.7499 229.256 80.9955 227.869 80.3443C227.869 80.3443 227.56 82.0867 228.555 83.0883C229.549 84.0899 232.588 84.2408 232.588 84.2408Z" fill="#263238"/>
<path d="M240.505 89.7357C240.121 90.4217 238.948 90.4628 237.891 89.8523C236.835 89.2417 236.286 88.199 236.677 87.5267C237.068 86.8545 238.234 86.7996 239.297 87.4101C240.361 88.0207 240.896 89.0634 240.505 89.7357Z" fill="white"/>
<path d="M253.17 100.92C257.544 89.3167 251.682 76.365 240.078 71.9919C228.475 67.6188 215.523 73.4804 211.15 85.084C206.777 96.6876 212.638 109.639 224.242 114.012C235.846 118.385 248.797 112.524 253.17 100.92Z" stroke="#B46B6B" stroke-width="2" stroke-linecap="round" stroke-linejoin="round"/>
<mask id="mask0_340_448" style="mask-type:luminance" maskUnits="userSpaceOnUse" x="161" y="55" width="39" height="39">
<path d="M180.61 93.8448C191.18 93.8448 199.749 85.2758 199.749 74.7054C199.749 64.135 191.18 55.566 180.61 55.566C170.04 55.566 161.471 64.135 161.471 74.7054C161.471 85.2758 170.04 93.8448 180.61 93.8448Z" fill="white"/>
</mask>
<g mask="url(#mask0_340_448)">
<path d="M193.102 73.1756L192.999 73.1207C192.931 73.1207 186.023 69.3889 184.383 69.0596C182.39 68.8473 180.383 68.7877 178.381 68.8812H177.626C176.583 68.8812 175.719 69.0939 175.609 69.3683C175.568 69.4918 175.678 69.7662 176.137 70.1846C177.509 71.4331 180.171 71.6252 181.447 71.7213C181.747 71.7269 182.046 71.7613 182.339 71.8242C183.042 72.2601 183.666 72.8122 184.184 73.4568L184.61 73.937L166.835 75.7618C166.615 75.7736 166.409 75.8724 166.261 76.0364C166.114 76.2005 166.038 76.4163 166.05 76.6364C166.062 76.8566 166.16 77.063 166.324 77.2103C166.488 77.3576 166.704 77.4337 166.924 77.4219L180.301 77.2161L165.257 80.5844C165.165 80.6044 165.078 80.6434 165.001 80.6989C164.924 80.7544 164.86 80.8252 164.812 80.9068C164.76 80.9875 164.727 81.078 164.712 81.1725C164.698 81.267 164.704 81.3634 164.729 81.4556C164.776 81.6135 164.874 81.751 165.009 81.8457C165.143 81.9404 165.306 81.9867 165.47 81.977L176.727 81.0234L176.851 81.6683L166.787 84.6112C166.601 84.6736 166.445 84.8032 166.349 84.9746C166.253 85.1461 166.225 85.3471 166.269 85.5384C166.314 85.7297 166.428 85.8974 166.59 86.0089C166.752 86.1203 166.949 86.1674 167.144 86.141L176.871 84.4397L177.043 85.0777L171.191 87.2111C171.138 87.2324 171.092 87.2669 171.056 87.3114C171.02 87.3558 170.995 87.4086 170.986 87.465C170.978 87.5223 170.986 87.5806 171.009 87.6337C171.032 87.6868 171.069 87.7328 171.116 87.7668C171.146 87.7901 171.18 87.807 171.216 87.8164C171.253 87.8259 171.291 87.8277 171.329 87.8217C172.954 87.657 181.125 86.7927 182.49 86.4908C183.978 86.1616 191.744 82.9579 191.819 82.9236H191.936L207.542 82.5875L203.989 71.1107H203.955L193.102 73.1756Z" fill="#263238"/>
<path d="M168.927 83.3147L172.193 82.3611L172.392 82.0662L169.442 82.32L168.927 83.3147Z" fill="#263238"/>
<path d="M172.508 82.0593L172.433 82.2857L173.517 81.9701L172.508 82.0593Z" fill="#263238"/>
<path d="M167.94 78.0805C167.679 78.4783 167.466 78.7665 167.329 78.9928C167.192 79.2192 167.117 79.3427 167.021 79.5279L173.881 77.9913L167.94 78.0805Z" fill="#263238"/>
<path d="M170.574 80.015L169.771 81.6339L176.741 81.044L176.865 81.6888L172.179 83.0608L171.39 85.4206L174.958 84.7964C175.959 83.7811 176.885 82.7384 176.885 82.7384C176.404 83.3506 175.969 83.9972 175.582 84.6729L176.885 84.4465L177.057 85.0845L175.301 85.7225C175.311 85.7549 175.327 85.7852 175.349 85.8117C175.863 86.3262 176.721 86.8338 177.228 86.3262C177.736 85.8185 181.838 80.5226 182.716 80.0081C184.824 78.8127 186.823 77.4355 188.691 75.8921C189.261 75.405 190.454 74.1428 191.936 72.517C189.878 71.4605 185.652 69.2791 184.39 69.0321C182.397 68.8199 180.39 68.7602 178.388 68.8538H177.633C176.59 68.8538 175.726 69.0664 175.616 69.3408C175.575 69.4643 175.685 69.7387 176.144 70.1571C177.516 71.4057 180.178 71.5978 181.454 71.6938C181.754 71.6994 182.052 71.7339 182.346 71.7967C183.049 72.2326 183.673 72.7847 184.191 73.4294L184.616 73.9096L169.668 75.4599C169.202 76.1459 168.763 76.8319 168.386 77.3876L180.315 77.2024L166.698 80.2619C166.487 80.7976 166.315 81.3478 166.184 81.9083L168.969 81.6751C169.765 80.8313 170.574 80.015 170.574 80.015Z" fill="#263238"/>
<path d="M167.329 83.6028C167.608 83.1778 167.928 82.7804 168.283 82.416L166.019 82.6081L165.964 82.9168C165.964 82.9168 166.986 84.2819 167.329 83.6028Z" fill="#263238"/>
<path d="M170.402 69.6084C171.531 69.3743 172.68 69.2594 173.832 69.2654L170.128 74.774L183.238 73.402C182.912 73.0283 182.533 72.7046 182.113 72.4416C181.872 72.4036 181.629 72.3806 181.385 72.373C179.931 72.2632 177.221 72.0643 175.685 70.6648C175.445 70.4522 174.724 69.7936 174.999 69.1213C175.301 68.3324 176.775 68.2158 177.626 68.2158H178.367C180.427 68.1192 182.491 68.1834 184.541 68.4079C185.913 68.6823 190.413 70.9941 192.396 72.0368C197.102 66.8232 204.222 58.5089 204.222 58.5089L192.766 54.2488C192.252 54.2488 186.963 64.6555 186.963 64.6555C186.963 64.6555 177.75 63.2835 176.556 63.4618C175.362 63.6402 170.066 66.5351 168.873 67.0496C167.679 67.5641 166.314 68.0717 166.993 68.7577C167.456 69.1557 168.005 69.4399 168.597 69.5876C169.189 69.7353 169.807 69.7424 170.402 69.6084Z" fill="#263238"/>
<path d="M172.872 86.6075L172.392 86.7858C172.52 86.7697 172.646 86.7327 172.762 86.6761L172.872 86.6075Z" fill="#263238"/>
<path d="M173.352 85.7499L171.383 86.0929C171.444 86.198 171.516 86.2968 171.596 86.3879L173.352 85.7499Z" fill="#263238"/>
<path d="M171.61 83.2186L168.523 84.1173L168.351 84.4534C168.412 84.9439 168.539 85.4238 168.729 85.8803L169.84 85.6814C170.348 85.064 171.04 84.0418 171.61 83.2186Z" fill="#263238"/>
</g>
<path d="M175.012 63.3109C175.012 63.3109 172.584 58.1316 170.78 59.8809C168.859 61.7949 175.012 63.3109 175.012 63.3109Z" fill="#263238"/>
<path d="M182.476 63.3109C182.476 63.3109 184.905 58.1316 186.716 59.8809C188.65 61.7949 182.476 63.3109 182.476 63.3109Z" fill="#263238"/>
<path d="M176.199 62.9405C176.111 62.9387 176.027 62.9025 175.966 62.8397C175.904 62.7768 175.87 62.6923 175.87 62.6044V51.2442C175.872 51.1574 175.907 51.0747 175.968 51.0133C176.03 50.9519 176.112 50.9167 176.199 50.9149C176.242 50.9149 176.285 50.9234 176.325 50.94C176.365 50.9565 176.401 50.9808 176.432 51.0114C176.463 51.0419 176.487 51.0782 176.503 51.1182C176.52 51.1581 176.528 51.201 176.528 51.2442V62.6044C176.529 62.6482 176.522 62.6917 176.505 62.7325C176.489 62.7732 176.465 62.8103 176.434 62.8416C176.404 62.8729 176.367 62.8978 176.327 62.9148C176.286 62.9318 176.243 62.9405 176.199 62.9405Z" fill="#263238"/>
<path d="M178.614 67.0702C178.526 67.0702 178.443 67.0355 178.381 66.9738C178.319 66.912 178.285 66.8283 178.285 66.7409V64.3262C178.285 64.2389 178.319 64.1551 178.381 64.0934C178.443 64.0316 178.526 63.9969 178.614 63.9969C178.701 63.9987 178.783 64.034 178.845 64.0953C178.906 64.1567 178.941 64.2394 178.943 64.3262V66.7409C178.941 66.8277 178.906 66.9105 178.845 66.9718C178.783 67.0332 178.701 67.0685 178.614 67.0702Z" fill="white"/>
<path d="M178.614 64.6624C178.57 64.6624 178.527 64.6536 178.486 64.6367C178.446 64.6197 178.409 64.5948 178.379 64.5635C178.348 64.5322 178.324 64.4951 178.308 64.4543C178.292 64.4136 178.284 64.37 178.285 64.3262V58.1522C178.284 58.1087 178.292 58.0655 178.308 58.0251C178.324 57.9847 178.348 57.9481 178.379 57.9173C178.41 57.8865 178.446 57.8623 178.487 57.8461C178.527 57.8299 178.57 57.822 178.614 57.823C178.657 57.823 178.7 57.8315 178.74 57.848C178.78 57.8646 178.816 57.8888 178.847 57.9194C178.877 57.95 178.902 57.9863 178.918 58.0262C178.935 58.0662 178.943 58.109 178.943 58.1522V64.3262C178.943 64.4142 178.909 64.4987 178.847 64.5615C178.786 64.6244 178.702 64.6606 178.614 64.6624Z" fill="#263238"/>
<path d="M181.536 66.0344C181.449 66.0344 181.365 65.9997 181.303 65.9379C181.242 65.8762 181.207 65.7924 181.207 65.7051V55.566C181.207 55.478 181.241 55.3935 181.303 55.3307C181.365 55.2679 181.448 55.2317 181.536 55.2299C181.58 55.2298 181.623 55.2386 181.664 55.2556C181.704 55.2725 181.741 55.2974 181.771 55.3287C181.802 55.36 181.826 55.3971 181.842 55.4379C181.859 55.4786 181.866 55.5222 181.865 55.566V65.7188C181.865 65.7611 181.855 65.8029 181.838 65.8417C181.821 65.8805 181.797 65.9155 181.766 65.9448C181.736 65.9741 181.7 65.9971 181.66 66.0125C181.621 66.0278 181.579 66.0353 181.536 66.0344Z" fill="#263238"/>
<path d="M181.536 54.88C181.493 54.88 181.45 54.8715 181.41 54.8549C181.37 54.8384 181.334 54.8141 181.303 54.7835C181.273 54.753 181.249 54.7167 181.232 54.6767C181.215 54.6368 181.207 54.5939 181.207 54.5507V51.937C181.207 51.8491 181.241 51.7646 181.303 51.7017C181.365 51.6389 181.448 51.6027 181.536 51.6009C181.58 51.6009 181.623 51.6096 181.664 51.6266C181.704 51.6436 181.741 51.6684 181.771 51.6997C181.802 51.7311 181.826 51.7682 181.842 51.8089C181.859 51.8497 181.866 51.8932 181.865 51.937V54.5164C181.871 54.5626 181.867 54.6096 181.853 54.6541C181.839 54.6986 181.816 54.7396 181.785 54.7741C181.753 54.8087 181.715 54.8361 181.672 54.8543C181.629 54.8726 181.583 54.8813 181.536 54.88Z" fill="#263238"/>
<path d="M173.105 70.8706C172.434 70.5591 171.708 70.3835 170.968 70.354C170.229 70.3246 169.491 70.4419 168.797 70.6991C166.389 71.5566 167.425 73.2785 168.969 72.9355C170.512 72.5925 173.105 70.8706 173.105 70.8706Z" fill="#263238"/>
<path d="M173.963 74.6437C173.875 74.6437 173.792 74.609 173.73 74.5472C173.668 74.4855 173.634 74.4017 173.634 74.3144V71.2137C173.635 71.1269 173.671 71.0442 173.732 70.9828C173.793 70.9214 173.876 70.8862 173.963 70.8844C174.05 70.8844 174.134 70.9191 174.196 70.9808C174.257 71.0426 174.292 71.1263 174.292 71.2137V74.3144C174.293 74.3579 174.285 74.4011 174.269 74.4415C174.253 74.4819 174.229 74.5186 174.198 74.5493C174.167 74.5801 174.13 74.6043 174.09 74.6205C174.05 74.6367 174.006 74.6446 173.963 74.6437Z" fill="white"/>
<path d="M195.492 90.8267C204.26 82.0583 204.26 67.842 195.492 59.0736C186.724 50.3053 172.507 50.3053 163.739 59.0736C154.971 67.842 154.971 82.0583 163.739 90.8266C172.507 99.595 186.724 99.595 195.492 90.8267Z" stroke="#B46B6B" stroke-width="2" stroke-linecap="round" stroke-linejoin="round"/>
<path d="M165.326 301.154C198.503 301.154 225.399 297.008 225.399 291.893C225.399 286.778 198.503 282.632 165.326 282.632C132.149 282.632 105.253 286.778 105.253 291.893C105.253 297.008 132.149 301.154 165.326 301.154Z" fill="#263238"/>
<path d="M155.365 191.044C154.336 195.465 153.557 199.94 153.033 204.449C152.045 212.482 153.678 225.029 153.678 225.029C153.678 225.029 142.016 219.047 135.67 219.836C129.325 220.624 103.771 229.693 100.403 229.378C100.403 229.378 97.8854 233.844 100.334 233.782C103.682 233.7 139.361 234.468 145.13 235.12C151.023 235.806 159.372 237.589 162.28 234.928C164.27 233.123 171.548 210.485 171.658 203.063C171.695 198.889 171.988 194.722 172.536 190.585" fill="white"/>
<path d="M155.365 191.044C154.336 195.465 153.557 199.94 153.033 204.449C152.045 212.482 153.678 225.029 153.678 225.029C153.678 225.029 142.016 219.047 135.67 219.836C129.325 220.624 103.771 229.693 100.403 229.378C100.403 229.378 97.8854 233.844 100.334 233.782C103.682 233.7 139.361 234.468 145.13 235.12C151.023 235.806 159.372 237.589 162.28 234.928C164.27 233.123 171.548 210.485 171.658 203.063C171.695 198.889 171.988 194.722 172.536 190.585" stroke="#263238" stroke-linecap="round" stroke-linejoin="round"/>
<path d="M153.026 204.428C152.045 212.461 153.712 225.008 153.712 225.008C153.712 225.008 142.05 219.026 135.705 219.815C133.459 220.202 131.239 220.727 129.057 221.386C127.466 224.48 126.046 229.22 128.261 234.324C135.999 234.557 142.894 234.832 145.164 235.099C151.057 235.785 159.406 237.569 162.314 234.907C164.304 233.103 171.582 210.465 171.692 203.042C171.729 198.869 172.022 194.701 172.57 190.564L155.379 190.996C154.344 195.426 153.558 199.91 153.026 204.428Z" fill="#263238" stroke="#263238" stroke-linecap="round" stroke-linejoin="round"/>
<path d="M164.146 194.378L160.325 196.306C160.325 196.306 159.049 196.169 161.471 192.821" fill="white"/>
<path d="M164.146 194.378L160.325 196.306C160.325 196.306 159.049 196.169 161.471 192.821" stroke="#263238" stroke-linecap="round" stroke-linejoin="round"/>
<path d="M176.947 114.658C176.947 114.658 173.105 111.996 166.616 111.701C160.126 111.406 155.722 120.263 156.579 125.874C157.437 131.486 157.169 137.385 149.493 136.5C141.817 135.615 132.377 136.5 130.285 144.732C128.193 152.964 137.365 163.33 147.696 159.495C158.027 155.66 155.537 148.073 160.387 146.502C165.237 144.931 170.128 145.027 170.718 139.128C171.308 133.228 167.473 127.912 170.128 122.595C171.717 119.431 174.059 116.706 176.947 114.658Z" fill="#263238" stroke="#263238" stroke-linecap="round" stroke-linejoin="round"/>
<path d="M172.748 115.865C172.748 115.865 164.695 114.301 162.006 121.01C159.317 127.719 165.367 133.537 163.378 140.218C161.388 146.9 153.774 152.072 147.497 149.822C141.22 147.572 135.142 145.432 134.717 148.979C134.291 152.525 138.963 153.451 140.081 152.779C141.199 152.107 139.635 150.769 139.635 150.769" stroke="white" stroke-linecap="round" stroke-linejoin="round"/>
<path d="M146.962 142.071C146.027 141.825 145.072 141.664 144.108 141.59" stroke="white" stroke-linecap="round" stroke-linejoin="round"/>
<path d="M166.485 114.974C166.485 114.974 158.878 116.346 158.878 124.365C158.878 132.384 162.678 137.344 159.324 142.489C156.998 146.056 153.836 144.465 149.843 143.004" stroke="white" stroke-linecap="round" stroke-linejoin="round"/>
<path d="M181.344 122.616C181.344 122.616 181.612 126.931 180.658 129.476C179.705 132.021 175.445 136.089 175.691 138.256C175.938 140.424 182.154 144.883 184.136 144.135C186.119 143.388 187.772 132.124 187.772 132.124C187.772 132.124 184.287 124.111 181.344 122.616Z" fill="white" stroke="#263238" stroke-linecap="round" stroke-linejoin="round"/>
<path d="M184.822 130.457C186.098 132.844 187.189 134.826 190.029 135.348C193.919 136.034 195.352 131.026 195.874 125.95C196.003 126.005 196.139 126.042 196.278 126.059C196.764 126.132 197.261 126.092 197.729 125.944C198.198 125.795 198.626 125.541 198.981 125.202C199.297 124.879 198.817 124.262 198.185 123.597C196.333 121.635 196.175 120.119 196.196 117.423C196.258 116.216 196.156 115.007 195.894 113.828C195.824 113.572 195.739 113.32 195.64 113.073C192.807 106.145 178.628 105.891 177.859 114.445C177.639 117.471 177.993 120.511 178.902 123.405" fill="white"/>
<mask id="mask1_340_448" style="mask-type:luminance" maskUnits="userSpaceOnUse" x="177" y="107" width="23" height="29">
<path d="M184.822 130.457C186.098 132.844 187.189 134.826 190.029 135.348C193.919 136.034 195.352 131.026 195.874 125.95C196.003 126.005 196.139 126.042 196.278 126.059C196.764 126.132 197.261 126.092 197.729 125.944C198.198 125.795 198.626 125.541 198.981 125.202C199.297 124.879 198.817 124.262 198.185 123.597C196.333 121.635 196.175 120.119 196.196 117.423C196.258 116.216 196.156 115.007 195.894 113.828C195.824 113.572 195.739 113.32 195.64 113.073C192.807 106.145 178.628 105.891 177.859 114.445C177.639 117.471 177.993 120.511 178.902 123.405" fill="white"/>
</mask>
<g mask="url(#mask1_340_448)">
<path d="M196.196 117.443C196.258 116.237 196.156 115.028 195.894 113.849C195.824 113.592 195.739 113.34 195.64 113.094C192.807 106.165 178.627 105.912 177.859 114.466C177.638 117.477 177.99 120.503 178.895 123.384C184.547 121.517 190.349 120.14 196.237 119.268C196.196 118.712 196.196 118.115 196.196 117.443Z" fill="#B46B6B"/>
<path opacity="0.5" d="M196.196 117.443C196.258 116.237 196.156 115.028 195.894 113.849C195.824 113.592 195.739 113.34 195.64 113.094C192.807 106.165 178.627 105.912 177.859 114.466C177.638 117.477 177.99 120.503 178.895 123.384C184.547 121.517 190.349 120.14 196.237 119.268C196.196 118.712 196.196 118.115 196.196 117.443Z" fill="white"/>
</g>
<path d="M184.822 130.457C186.098 132.844 187.189 134.826 190.029 135.348C193.919 136.034 195.352 131.026 195.874 125.95C196.003 126.005 196.139 126.042 196.278 126.059C196.764 126.132 197.261 126.092 197.729 125.944C198.198 125.795 198.626 125.541 198.981 125.202C199.297 124.879 198.817 124.262 198.185 123.597C196.333 121.635 196.175 120.119 196.196 117.423C196.258 116.216 196.156 115.007 195.894 113.828C195.824 113.572 195.739 113.32 195.64 113.073C192.807 106.145 178.628 105.891 177.859 114.445C177.639 117.471 177.993 120.511 178.902 123.405" stroke="#263238" stroke-linecap="round" stroke-linejoin="round"/>
<path d="M194.234 120.585C194.234 121.106 194.09 121.539 193.843 121.552C193.596 121.566 193.377 121.154 193.342 120.633C193.308 120.112 193.486 119.68 193.733 119.666C193.98 119.652 194.207 120.05 194.234 120.585Z" fill="#263238"/>
<path d="M194.138 128.014C194.138 128.014 192.032 128.152 191.607 126.608" stroke="#263238" stroke-linecap="round" stroke-linejoin="round"/>
<path d="M194.824 111.708C190.797 106.179 177.756 110.22 177.043 118.136C176.686 122.135 176.535 127.507 180.377 128.131C181.564 124.406 185.398 124.303 185.275 122.389C185.103 119.549 190.763 119.645 190.008 115.351C189.411 111.626 192.368 113.876 194.824 111.708Z" fill="#263238" stroke="#263238" stroke-linecap="round" stroke-linejoin="round"/>
<path d="M177.18 121.312L196.937 114.651C196.937 114.651 194.358 107.791 191.01 106.035C187.662 104.279 179.705 106.035 176.988 109.52C174.271 113.005 175.897 115.529 177.18 121.312Z" fill="#B46B6B"/>
<mask id="mask2_340_448" style="mask-type:luminance" maskUnits="userSpaceOnUse" x="175" y="105" width="22" height="17">
<path d="M177.18 121.312L196.937 114.651C196.937 114.651 194.358 107.791 191.01 106.035C187.662 104.279 179.705 106.035 176.988 109.52C174.271 113.005 175.897 115.529 177.18 121.312Z" fill="white"/>
</mask>
<g mask="url(#mask2_340_448)">
<path opacity="0.2" d="M180.583 111.496C180.802 108.216 184.225 106.069 185.165 105.541C181.962 106.042 178.58 107.482 176.988 109.52C174.244 113.005 175.897 115.529 177.18 121.312L183.272 119.254C182.14 117.032 180.418 113.876 180.583 111.496Z" fill="black"/>
</g>
<path d="M177.18 121.312L196.937 114.651C196.937 114.651 194.358 107.791 191.01 106.035C187.662 104.279 179.705 106.035 176.988 109.52C174.271 113.005 175.897 115.529 177.18 121.312Z" stroke="#263238" stroke-linecap="round" stroke-linejoin="round"/>
<path d="M190.338 117.032C190.338 117.032 198.844 116.737 203.035 117.169C207.227 117.601 204.627 115.454 196.937 114.651C196.937 114.651 191.806 116.476 190.338 117.032Z" fill="white" stroke="#263238" stroke-linecap="round" stroke-linejoin="round"/>
<path d="M177.88 133.304C177.88 133.304 185.851 139.135 187.566 144.396C189.706 150.975 188.808 156.285 186.757 162.232C184.705 168.18 182.023 168.454 180.418 174.779C178.648 181.763 178.298 195.407 174.861 201.629C168.482 213.188 150.652 202.871 150.351 191.785C150.021 179.801 161.114 172.646 162.397 166.623C163.769 160.092 162.253 151.05 165.271 144.931C168.289 138.812 174.059 133.084 177.88 133.304Z" fill="#263238" stroke="#263238" stroke-linecap="round" stroke-linejoin="round"/>
<path d="M175.534 139.011C173.496 139.572 171.676 140.737 170.313 142.352C166.986 146.317 162.959 161.923 162.143 164.304C160.943 167.83 158.85 180.521 159.694 180.768C160.538 181.015 165.793 180.85 174.882 181.721C183.972 182.593 200.984 177.811 200.984 177.811C200.984 177.811 203.79 179.698 206.232 178.957C206.548 178.861 206.829 178.765 207.09 178.676C207.844 178.411 208.482 177.892 208.894 177.208C209.061 176.949 209.188 176.667 209.271 176.371C209.409 175.926 209.428 175.453 209.326 174.999C209.311 174.008 209.077 173.034 208.64 172.145C208.057 171.15 207.687 171.699 206.877 171.267C205.861 170.821 204.729 170.71 203.646 170.951C202.96 171.232 200.552 174.525 200.552 174.525C200.552 174.525 190.564 175.685 181.79 172.872C173.867 170.341 171.98 170.354 171.98 170.354C171.98 170.354 179.622 152.8 182.27 147.888" fill="#B46B6B"/>
<path d="M175.534 139.011C173.496 139.572 171.676 140.737 170.313 142.352C166.986 146.317 162.959 161.923 162.143 164.304C160.943 167.83 158.85 180.521 159.694 180.768C160.538 181.015 165.793 180.85 174.882 181.721C183.972 182.593 200.984 177.811 200.984 177.811C200.984 177.811 203.79 179.698 206.232 178.957C206.548 178.861 206.829 178.765 207.09 178.676C207.844 178.411 208.482 177.892 208.894 177.208C209.061 176.949 209.188 176.667 209.271 176.371C209.409 175.926 209.428 175.453 209.326 174.999C209.311 174.008 209.077 173.034 208.64 172.145C208.057 171.15 207.687 171.699 206.877 171.267C205.861 170.821 204.729 170.71 203.646 170.951C202.96 171.232 200.552 174.525 200.552 174.525C200.552 174.525 190.564 175.685 181.79 172.872C173.867 170.341 171.98 170.354 171.98 170.354C171.98 170.354 179.622 152.8 182.27 147.888" stroke="#263238" stroke-linecap="round" stroke-linejoin="round"/>
<path d="M206.232 179.005L206.856 178.799C207.334 178.65 207.776 178.407 208.158 178.084C208.54 177.762 208.853 177.365 209.079 176.919C209.165 176.762 209.229 176.593 209.271 176.419C209.409 175.974 209.428 175.501 209.326 175.047C209.311 174.056 209.077 173.082 208.64 172.193C208.057 171.198 207.687 171.747 206.877 171.315C205.861 170.869 204.729 170.758 203.646 170.999C202.96 171.28 200.552 174.573 200.552 174.573C198.249 174.782 195.935 174.841 193.624 174.752L193.713 179.643C197.938 178.717 201.012 177.852 201.012 177.852C201.012 177.852 203.79 179.732 206.232 179.005Z" fill="white" stroke="#263238" stroke-linecap="round" stroke-linejoin="round"/>
<path d="M206.85 171.322C206.85 171.322 207.693 173.654 207.172 174.882C206.651 176.11 204.894 173.133 204.894 173.133" stroke="#263238" stroke-linecap="round" stroke-linejoin="round"/>
<path d="M206.122 176.988L205.773 174.71C205.773 174.71 202.974 177.688 201.746 176.46" stroke="#263238" stroke-linecap="round" stroke-linejoin="round"/>
<path d="M190.79 155.036C190.454 153.486 190.015 151.949 189.542 150.419C188.911 148.409 188.211 146.413 187.566 144.43C187.413 143.978 187.227 143.538 187.01 143.113V142.098C187.01 141 188.293 138.99 188.293 138.99C187.34 137.93 186.301 136.95 185.186 136.061C182.812 134.051 178.607 131.314 178.607 131.314L176.631 133.468C172.886 134.312 167.974 139.512 165.271 145C162.253 151.119 163.796 160.16 162.397 166.691C161.67 170.121 157.787 173.887 154.624 178.703C161.982 182.905 170.142 185.513 178.573 186.359C179.163 182.037 179.663 177.839 180.418 174.848C181.231 171.734 182.803 168.87 184.994 166.513C188.156 163.062 191.936 160.298 190.79 155.036Z" fill="#B46B6B"/>
<mask id="mask3_340_448" style="mask-type:luminance" maskUnits="userSpaceOnUse" x="154" y="131" width="37" height="56">
<path d="M190.79 155.036C190.454 153.486 190.015 151.949 189.542 150.419C188.911 148.409 188.211 146.413 187.566 144.43C187.413 143.978 187.227 143.538 187.01 143.113V142.098C187.01 141 188.293 138.99 188.293 138.99C187.34 137.93 186.301 136.95 185.186 136.061C182.812 134.051 178.607 131.314 178.607 131.314L176.631 133.468C172.886 134.312 167.974 139.512 165.271 145C162.253 151.119 163.796 160.16 162.397 166.691C161.67 170.121 157.787 173.887 154.624 178.703C161.982 182.905 170.142 185.513 178.573 186.359C179.163 182.037 179.663 177.839 180.418 174.848C181.231 171.734 182.803 168.87 184.994 166.513C188.156 163.062 191.936 160.298 190.79 155.036Z" fill="white"/>
</mask>
<g mask="url(#mask3_340_448)">
<path opacity="0.2" d="M165.614 181.79C165.614 180.775 172.721 172.913 174.244 170.883C175.767 168.852 167.899 170.375 166.629 170.375C165.36 170.375 170.183 164.537 173.489 158.452C176.796 152.367 176.021 150.838 176.021 150.838L167.384 147.017C167.384 147.017 166.012 147.668 164.009 148.642C162.719 154.357 163.529 161.34 162.39 166.657C161.663 170.087 157.78 173.853 154.618 178.669C158.038 180.644 161.657 182.254 165.415 183.471C165.519 182.916 165.586 182.354 165.614 181.79Z" fill="black"/>
</g>
<path d="M190.79 155.036C190.454 153.486 190.015 151.949 189.542 150.419C188.911 148.409 188.211 146.413 187.566 144.43C187.413 143.978 187.227 143.538 187.01 143.113V142.098C187.01 141 188.293 138.99 188.293 138.99C187.34 137.93 186.301 136.95 185.186 136.061C182.812 134.051 178.607 131.314 178.607 131.314L176.631 133.468C172.886 134.312 167.974 139.512 165.271 145C162.253 151.119 163.796 160.16 162.397 166.691C161.67 170.121 157.787 173.887 154.624 178.703C161.982 182.905 170.142 185.513 178.573 186.359C179.163 182.037 179.663 177.839 180.418 174.848C181.231 171.734 182.803 168.87 184.994 166.513C188.156 163.062 191.936 160.298 190.79 155.036Z" stroke="#263238" stroke-linecap="round" stroke-linejoin="round"/>
<path d="M178.552 138.27C176.568 137.564 174.417 137.468 172.378 137.996C167.377 139.32 155.098 149.768 153.053 151.256C150.042 153.444 141.028 162.616 141.549 163.337C142.071 164.057 146.488 166.911 153.424 172.858C160.359 178.806 174.69 184.191 174.69 184.191C174.69 184.191 178.202 187.847 180.624 188.643C181.351 188.883 181.941 189.041 182.428 189.151C182.565 189.199 182.709 189.247 182.846 189.281C183.323 189.455 183.839 189.495 184.337 189.397C184.835 189.299 185.297 189.067 185.673 188.725C186.038 188.442 186.324 188.068 186.503 187.642C187.055 186.817 187.419 185.88 187.566 184.898C187.662 183.752 185.961 183.526 185.549 182.723C184.978 181.77 184.114 181.026 183.086 180.603C182.4 180.452 178.504 181.742 178.504 181.742C178.504 181.742 169.723 176.94 164.146 169.552C159.124 162.925 157.574 161.848 157.574 161.848C157.574 161.848 173.928 151.894 178.902 149.383" fill="#B46B6B"/>
<mask id="mask4_340_448" style="mask-type:luminance" maskUnits="userSpaceOnUse" x="141" y="137" width="47" height="53">
<path d="M178.552 138.27C176.568 137.564 174.417 137.468 172.378 137.996C167.377 139.32 155.098 149.768 153.053 151.256C150.042 153.444 141.028 162.616 141.549 163.337C142.071 164.057 146.488 166.911 153.424 172.858C160.359 178.806 174.69 184.191 174.69 184.191C174.69 184.191 178.202 187.847 180.624 188.643C181.351 188.883 181.941 189.041 182.428 189.151C182.565 189.199 182.709 189.247 182.846 189.281C183.323 189.455 183.839 189.495 184.337 189.397C184.835 189.299 185.297 189.067 185.673 188.725C186.038 188.442 186.324 188.068 186.503 187.642C187.055 186.817 187.419 185.88 187.566 184.898C187.662 183.752 185.961 183.526 185.549 182.723C184.978 181.77 184.114 181.026 183.086 180.603C182.4 180.452 178.504 181.742 178.504 181.742C178.504 181.742 169.723 176.94 164.146 169.552C159.124 162.925 157.574 161.848 157.574 161.848C157.574 161.848 173.928 151.894 178.902 149.383" fill="white"/>
</mask>
<g mask="url(#mask4_340_448)">
<path opacity="0.2" d="M184.898 188.376C179.314 186.853 172.721 181.776 167.898 178.73C163.076 175.685 149.884 164.523 148.107 164.016C146.331 163.508 148.615 162.747 151.407 160.716C154.199 158.685 147.854 160.716 146.331 160.716C144.808 160.716 168.406 145.494 171.713 141.693C174.203 138.819 170.903 139.128 169.14 139.45C163.357 142.722 154.734 150.028 153.04 151.256C150.028 153.444 141.014 162.616 141.536 163.337C142.057 164.057 146.475 166.911 153.41 172.858C160.346 178.806 174.676 184.191 174.676 184.191C174.676 184.191 178.188 187.847 180.61 188.643C181.337 188.883 181.927 189.041 182.414 189.151C182.551 189.199 182.695 189.247 182.833 189.281C183.31 189.455 183.825 189.495 184.323 189.397C184.821 189.299 185.283 189.067 185.659 188.725L185.769 188.629L184.898 188.376Z" fill="black"/>
</g>
<path d="M178.552 138.27C176.568 137.564 174.417 137.468 172.378 137.996C167.377 139.32 155.098 149.768 153.053 151.256C150.042 153.444 141.028 162.616 141.549 163.337C142.071 164.057 146.488 166.911 153.424 172.858C160.359 178.806 174.69 184.191 174.69 184.191C174.69 184.191 178.202 187.847 180.624 188.643C181.351 188.883 181.941 189.041 182.428 189.151C182.565 189.199 182.709 189.247 182.846 189.281C183.323 189.455 183.839 189.495 184.337 189.397C184.835 189.299 185.297 189.067 185.673 188.725C186.038 188.442 186.324 188.068 186.503 187.642C187.055 186.817 187.419 185.88 187.566 184.898C187.662 183.752 185.961 183.526 185.549 182.723C184.978 181.77 184.114 181.026 183.086 180.603C182.4 180.452 178.504 181.742 178.504 181.742C178.504 181.742 169.723 176.94 164.146 169.552C159.124 162.925 157.574 161.848 157.574 161.848C157.574 161.848 173.928 151.894 178.902 149.383" stroke="#263238" stroke-linecap="round" stroke-linejoin="round"/>
<path d="M185.556 182.723C184.985 181.77 184.121 181.026 183.093 180.603C182.407 180.452 178.511 181.742 178.511 181.742C177.095 180.937 175.721 180.06 174.395 179.115L171.232 182.798C173.29 183.683 174.662 184.17 174.662 184.17C174.662 184.17 178.175 187.827 180.596 188.623C181.323 188.863 181.913 189.02 182.401 189.13C182.538 189.178 182.682 189.226 182.819 189.261C183.296 189.434 183.811 189.474 184.31 189.376C184.808 189.279 185.27 189.046 185.645 188.705C186.011 188.421 186.297 188.048 186.475 187.621C187.028 186.796 187.391 185.859 187.539 184.877C187.669 183.752 185.968 183.539 185.556 182.723Z" fill="white" stroke="#263238" stroke-linecap="round" stroke-linejoin="round"/>
<path d="M184.397 123.837C184.397 123.837 182.256 119.94 180.569 121.312C178.881 122.684 180.891 125.284 183.134 126.032C185.378 126.78 184.452 125.346 184.452 125.346" fill="white"/>
<path d="M184.397 123.837C184.397 123.837 182.256 119.94 180.569 121.312C178.881 122.684 180.891 125.284 183.134 126.032C185.378 126.78 184.452 125.346 184.452 125.346" stroke="#263238" stroke-linecap="round" stroke-linejoin="round"/>
<path d="M159.948 201.718C163.075 205.008 166.385 208.121 169.86 211.041C176.034 216.275 187.278 221.057 187.278 221.057C187.278 221.057 181.152 235.346 181.378 241.705C181.605 248.064 188.355 274.359 187.738 277.679C187.738 277.679 191.456 280.499 192.121 278.146C193.205 274.345 195.236 243.455 196.045 237.569C196.841 231.799 198.954 221.413 198.947 218.731C198.947 213.586 185.117 198.885 178.977 194.721C175.513 192.394 172.193 189.858 169.037 187.127" fill="white"/>
<path d="M159.948 201.718C163.075 205.008 166.385 208.121 169.86 211.041C176.034 216.275 187.278 221.057 187.278 221.057C187.278 221.057 181.152 235.346 181.378 241.705C181.605 248.064 188.355 274.359 187.738 277.679C187.738 277.679 191.456 280.499 192.121 278.146C193.205 274.345 195.236 243.455 196.045 237.569C196.841 231.799 198.954 221.413 198.947 218.731C198.947 213.586 185.117 198.885 178.977 194.721C175.513 192.394 172.193 189.858 169.037 187.127" stroke="#263238" stroke-linecap="round" stroke-linejoin="round"/>
<path d="M178.977 194.714C175.513 192.387 172.193 189.851 169.037 187.12L159.948 201.718C163.075 205.008 166.385 208.121 169.86 211.041C176.034 216.275 187.278 221.057 187.278 221.057C187.278 221.057 181.152 235.346 181.378 241.705C181.635 244.566 182.073 247.407 182.689 250.212C186.687 251.042 190.798 251.186 194.845 250.637C195.332 244.71 195.764 239.62 196.045 237.569C196.841 231.799 198.954 221.413 198.947 218.731C198.94 213.586 185.117 198.885 178.977 194.714Z" fill="#263238" stroke="#263238" stroke-linecap="round" stroke-linejoin="round"/>
<path d="M158.507 203.468C161.608 205.978 166.465 209.642 169.86 211.014" stroke="white" stroke-linecap="round" stroke-linejoin="round"/>
<path d="M155.496 200.957C155.496 200.957 156.024 201.416 156.868 202.144" stroke="white" stroke-linecap="round" stroke-linejoin="round"/>
<path d="M165.353 186.05L175.938 192.059" stroke="white" stroke-linecap="round" stroke-linejoin="round"/>
<path d="M158.624 182.476C158.624 182.476 154.055 184.884 154.295 187.045C154.535 189.206 159.824 185.604 159.344 188.005C158.864 190.406 156.257 190.852 158.864 191.854C161.471 192.855 173.05 202.192 180.267 207.007C187.484 211.823 194.934 218.306 194.213 220.227C193.493 222.147 186.757 239.435 188.197 250.767" stroke="white" stroke-linecap="round" stroke-linejoin="round"/>
<path d="M127.596 229.81C127.596 229.81 144.911 232.451 152.12 233.171C159.33 233.892 160.057 232.451 158.857 231.01C157.656 229.57 160.057 231.491 160.538 229.323C161.018 227.155 161.985 213.696 162.225 210.328" stroke="white" stroke-linecap="round" stroke-linejoin="round"/>
<path d="M101.062 229.748C101.062 229.748 96.6094 223.519 95.1482 224.26C93.687 225.001 90.2158 227.43 88.3362 228.438C86.4566 229.446 83.0952 233.514 83.1226 234.832C83.15 236.149 86.7104 234.015 89.0702 233.542C91.4301 233.068 100.334 233.823 100.334 233.823C100.334 233.823 99.8542 230.4 101.062 229.748Z" fill="#B46B6B" stroke="#263238" stroke-linecap="round" stroke-linejoin="round"/>
<path d="M96.5682 224.706C95.992 224.288 95.4912 224.075 95.1482 224.247C93.6939 224.974 90.2158 227.416 88.3362 228.424C86.4566 229.433 83.0952 233.501 83.1226 234.818C83.1226 235.305 83.6302 235.319 84.3643 235.12C85.798 232.273 88.8919 230.791 91.8142 228.26C93.309 226.959 94.898 225.772 96.5682 224.706Z" fill="white" stroke="#263238" stroke-linecap="round" stroke-linejoin="round"/>
<path d="M187.738 277.679C187.738 277.679 184.534 284.642 185.906 285.541C187.278 286.439 191.106 288.285 192.917 289.382C194.728 290.48 199.921 291.44 201.053 290.754C202.185 290.068 198.563 288.045 196.985 286.233C195.407 284.422 192.135 278.159 192.135 278.159C192.135 278.159 188.904 278.406 187.738 277.679Z" fill="#B46B6B" stroke="#263238" stroke-linecap="round" stroke-linejoin="round"/>
<path d="M201.039 290.741C201.526 290.446 201.121 289.897 200.353 289.224C199.326 289.345 198.29 289.365 197.259 289.286C195.27 289.087 188.458 285.458 185.597 283.894C185.481 284.69 185.529 285.314 185.872 285.541C187.244 286.446 191.072 288.285 192.883 289.382C194.694 290.48 199.907 291.42 201.039 290.741Z" fill="white" stroke="#263238" stroke-linecap="round" stroke-linejoin="round"/>
</svg>
