<svg width="375" height="281" viewBox="0 0 375 281" fill="none" xmlns="http://www.w3.org/2000/svg">
<path d="M43.5484 6.43511C26.6034 3.61323 0 0 0 0V222.011C0 222.011 42.8083 220.594 70.1613 222.011C92.4517 223.167 114.919 226.302 127.016 227.374C139.113 228.447 162.097 235.954 186.29 241.317C210.484 246.679 237.097 253.115 237.097 253.115C237.097 253.115 280.288 264.676 308.468 270.275C334.237 275.394 375 281 375 281V132.992V38.6107C375 38.6107 334.5 42.0342 308.468 42.9008C280.615 43.8279 264.862 45.0649 237.097 42.9008C201.565 40.1313 147.581 26.813 147.581 26.813C147.581 26.813 112.242 19.4225 89.5161 15.0153C71.5948 11.5398 61.5781 9.43764 43.5484 6.43511Z" fill="#EFBFBB"/>
</svg>
