<svg width="308" height="263" viewBox="0 0 308 263" fill="none" xmlns="http://www.w3.org/2000/svg">
<path d="M67.5017 61.0944C36.8803 83.3514 9.97127 95.3843 1.62602 133.461C-2.03252 150.153 1.62602 177.319 1.62602 177.319C1.62602 177.319 4.14074 203.746 12.0825 217.888C18.9703 230.153 25.0797 235.94 36.1323 244.203C57.4223 260.12 74.9735 258.733 100.962 261.746C132.686 265.425 150.83 260.221 182.523 256.264C209.354 252.914 224.392 249.808 250.65 244.386L251.535 244.203C273.698 239.626 308 231.046 308 231.046V0.789114C308 0.789114 273.521 -0.986393 251.535 0.789114C233.858 2.21664 223.978 3.82953 206.572 7.36787C184.597 11.8354 151.153 22.7183 151.153 22.7183C151.153 22.7183 96.8073 39.7936 67.5017 61.0944Z" fill="#EFBFBB"/>
</svg>
