<svg width="343" height="207" viewBox="0 0 343 207" fill="none" xmlns="http://www.w3.org/2000/svg">
<path d="M13.0157 141.109H331.8" stroke="#263238" stroke-miterlimit="10" stroke-linecap="round"/>
<path d="M270.119 14.021H202.251V125.789H270.119V14.021Z" stroke="#263238" stroke-miterlimit="10" stroke-linecap="round"/>
<path d="M266.872 17.8561H205.494V81.6516H266.872V17.8561Z" stroke="#263238" stroke-miterlimit="10" stroke-linecap="round"/>
<path d="M266.872 86.2002H205.494V121.954H266.872V86.2002Z" stroke="#263238" stroke-miterlimit="10" stroke-linecap="round"/>
<path d="M219.771 17.8768V81.3423" stroke="#263238" stroke-miterlimit="10" stroke-linecap="round"/>
<path d="M236.309 17.8768V81.3423" stroke="#263238" stroke-miterlimit="10" stroke-linecap="round"/>
<path d="M252.846 17.8768V81.3423" stroke="#263238" stroke-miterlimit="10" stroke-linecap="round"/>
<path d="M219.771 85.9115V122.032" stroke="#263238" stroke-miterlimit="10" stroke-linecap="round"/>
<path d="M236.309 85.9115V122.032" stroke="#263238" stroke-miterlimit="10" stroke-linecap="round"/>
<path d="M252.846 85.9115V122.032" stroke="#263238" stroke-miterlimit="10" stroke-linecap="round"/>
<path d="M205.379 30.0338H266.827" stroke="#263238" stroke-miterlimit="10" stroke-linecap="round"/>
<path d="M205.379 43.4609H266.827" stroke="#263238" stroke-miterlimit="10" stroke-linecap="round"/>
<path d="M205.379 56.8881H266.827" stroke="#263238" stroke-miterlimit="10" stroke-linecap="round"/>
<path d="M205.379 70.3152H266.827" stroke="#263238" stroke-miterlimit="10" stroke-linecap="round"/>
<path d="M205.379 99.4582H266.827" stroke="#263238" stroke-miterlimit="10" stroke-linecap="round"/>
<path d="M205.379 111.281H266.827" stroke="#263238" stroke-miterlimit="10" stroke-linecap="round"/>
<path d="M140.685 14.021H72.8166V125.789H140.685V14.021Z" stroke="#263238" stroke-miterlimit="10" stroke-linecap="round"/>
<path d="M137.438 17.8561H76.0591V81.6516H137.438V17.8561Z" stroke="#263238" stroke-miterlimit="10" stroke-linecap="round"/>
<path d="M137.438 86.2002H76.0591V121.954H137.438V86.2002Z" stroke="#263238" stroke-miterlimit="10" stroke-linecap="round"/>
<path d="M90.337 17.8768V81.3423" stroke="#263238" stroke-miterlimit="10" stroke-linecap="round"/>
<path d="M106.874 17.8768V81.3423" stroke="#263238" stroke-miterlimit="10" stroke-linecap="round"/>
<path d="M123.411 17.8768V81.3423" stroke="#263238" stroke-miterlimit="10" stroke-linecap="round"/>
<path d="M90.337 85.9115V122.032" stroke="#263238" stroke-miterlimit="10" stroke-linecap="round"/>
<path d="M106.874 85.9115V122.032" stroke="#263238" stroke-miterlimit="10" stroke-linecap="round"/>
<path d="M123.411 85.9115V122.032" stroke="#263238" stroke-miterlimit="10" stroke-linecap="round"/>
<path d="M75.9448 30.0338H137.392" stroke="#263238" stroke-miterlimit="10" stroke-linecap="round"/>
<path d="M75.9448 43.4609H137.392" stroke="#263238" stroke-miterlimit="10" stroke-linecap="round"/>
<path d="M75.9448 56.8881H137.392" stroke="#263238" stroke-miterlimit="10" stroke-linecap="round"/>
<path d="M75.9448 70.3152H137.392" stroke="#263238" stroke-miterlimit="10" stroke-linecap="round"/>
<path d="M75.9448 99.4582H137.392" stroke="#263238" stroke-miterlimit="10" stroke-linecap="round"/>
<path d="M75.9448 111.281H137.392" stroke="#263238" stroke-miterlimit="10" stroke-linecap="round"/>
<path d="M311.879 90.8848C314.442 90.8848 316.52 85.9718 316.52 79.9114C316.52 73.8509 314.442 68.9379 311.879 68.9379C309.315 68.9379 307.237 73.8509 307.237 79.9114C307.237 85.9718 309.315 90.8848 311.879 90.8848Z" fill="#B46B6B" stroke="#263238" stroke-miterlimit="10"/>
<path d="M297.463 73.1441C298.913 77.268 301.698 80.1546 303.688 79.5691C305.677 78.9835 306.107 75.2019 304.657 71.0822C303.208 66.9625 300.418 64.0717 298.433 64.6614C296.448 65.2512 296.009 69.0286 297.463 73.1441Z" fill="#B46B6B" stroke="#263238" stroke-miterlimit="10"/>
<path d="M331.507 97.9695C336.232 97.2478 339.776 95.157 339.428 93.3055C339.081 91.4539 334.969 90.5342 330.245 91.2435C325.521 91.9528 321.963 94.0642 322.324 95.92C322.685 97.7757 326.783 98.6912 331.507 97.9695Z" fill="#B46B6B" stroke="#263238" stroke-miterlimit="10"/>
<path d="M293.091 87.8373C297.038 91.3673 301.698 92.8972 303.505 91.2559C305.311 89.6146 303.573 85.4249 299.627 81.899C295.68 78.3731 291.024 76.8391 289.218 78.4803C287.411 80.1216 289.149 84.2949 293.091 87.8373Z" fill="#B46B6B" stroke="#263238" stroke-miterlimit="10"/>
<path d="M320.275 78.1463C316.461 83.1361 315.322 88.3981 317.737 89.8951C320.152 91.392 325.196 88.5672 329.01 83.5733C332.824 78.5793 333.963 73.3256 331.549 71.8245C329.134 70.3234 324.089 73.1565 320.275 78.1463Z" fill="#B46B6B" stroke="#263238" stroke-miterlimit="10"/>
<path d="M311.554 90.3405L311.193 123.723" stroke="#263238" stroke-miterlimit="10" stroke-linecap="round"/>
<path d="M311.984 75.8329L311.554 90.3405" stroke="#263238" stroke-miterlimit="10" stroke-linecap="round"/>
<path d="M311.956 73.4658L311.983 74.5751" stroke="#263238" stroke-miterlimit="10" stroke-linecap="round"/>
<path d="M317.755 89.1858C315.097 94.1424 313.543 99.5211 313.182 105.017V125.665" stroke="#263238" stroke-miterlimit="10" stroke-linecap="round"/>
<path d="M325.727 78.1876C322.54 81.5183 319.859 85.2169 317.755 89.1858" stroke="#263238" stroke-miterlimit="10" stroke-linecap="round"/>
<path d="M328.233 75.7958C328.233 75.7958 327.753 76.2082 326.961 76.9504" stroke="#263238" stroke-miterlimit="10" stroke-linecap="round"/>
<path d="M303.212 90.7239C306.466 94.8382 309.001 99.3775 310.731 104.184" stroke="#263238" stroke-miterlimit="10" stroke-linecap="round"/>
<path d="M297.875 85.2021C299.84 86.8893 301.627 88.7379 303.212 90.7239" stroke="#263238" stroke-miterlimit="10" stroke-linecap="round"/>
<path d="M292.177 81.2845C293.628 82.0218 294.99 82.8924 296.242 83.8826" stroke="#263238" stroke-miterlimit="10" stroke-linecap="round"/>
<path d="M303.409 78.5463C305.979 85.8414 309.432 96.621 311.042 105.978" stroke="#263238" stroke-miterlimit="10" stroke-linecap="round"/>
<path d="M301.84 74.2287C302.297 75.4658 302.828 76.9216 303.404 78.5546" stroke="#263238" stroke-miterlimit="10" stroke-linecap="round"/>
<path d="M300.239 70.0348C300.239 70.0348 300.697 71.1523 301.41 73.0658" stroke="#263238" stroke-miterlimit="10" stroke-linecap="round"/>
<path d="M322.562 94.9055C319.361 96.0066 314.961 99.0665 313.438 103.079" stroke="#263238" stroke-miterlimit="10" stroke-linecap="round"/>
<path d="M328.498 93.821C326.467 93.9113 324.463 94.2769 322.553 94.9055" stroke="#263238" stroke-miterlimit="10" stroke-linecap="round"/>
<path d="M332.34 93.9034C332.34 93.9034 331.768 93.8333 330.826 93.7962" stroke="#263238" stroke-miterlimit="10" stroke-linecap="round"/>
<path d="M322.242 114.015C326.582 115.842 330.817 115.941 331.699 114.238C332.582 112.535 329.779 109.673 325.439 107.846C321.098 106.019 316.864 105.92 315.981 107.623C315.098 109.327 317.902 112.188 322.242 114.015Z" fill="#B46B6B" stroke="#263238" stroke-miterlimit="10"/>
<path d="M322.379 109.058C320.654 108.095 318.778 107.372 316.813 106.914C316.362 106.665 315.841 106.538 315.312 106.547C314.783 106.555 314.268 106.7 313.827 106.964C313.241 107.314 313.438 109.962 313.438 109.962V123.715" stroke="#263238" stroke-miterlimit="10" stroke-linecap="round"/>
<path d="M325.489 111.1C325.489 111.1 325.063 110.745 324.309 110.234" stroke="#263238" stroke-miterlimit="10" stroke-linecap="round"/>
<path d="M291.088 97.9696C286.369 97.2479 282.82 95.1571 283.167 93.3055C283.515 91.4539 287.626 90.5343 292.351 91.2436C297.075 91.9529 300.619 94.0519 300.272 95.9076C299.924 97.7634 295.813 98.6912 291.088 97.9696Z" fill="#B46B6B" stroke="#263238" stroke-miterlimit="10"/>
<path d="M299.933 94.8725C300.508 95.0651 301.07 95.2881 301.616 95.5406C303.525 96.4469 305.122 97.809 306.231 99.4781C307.34 101.147 307.919 103.059 307.904 105.005V123.195" stroke="#263238" stroke-miterlimit="10" stroke-linecap="round"/>
<path d="M293.608 93.7962C295.767 93.8558 297.903 94.219 299.938 94.8725" stroke="#263238" stroke-miterlimit="10" stroke-linecap="round"/>
<path d="M290.256 93.9035C290.256 93.9035 290.635 93.8581 291.28 93.821" stroke="#263238" stroke-miterlimit="10" stroke-linecap="round"/>
<path d="M295.831 110.428C291.683 112.588 287.471 113.013 286.433 111.384C285.395 109.755 287.91 106.687 292.062 104.531C296.215 102.374 300.423 101.945 301.461 103.574C302.499 105.203 299.983 108.271 295.831 110.428Z" fill="#B46B6B" stroke="#263238" stroke-miterlimit="10"/>
<path d="M294.825 105.772C296.531 104.575 298.435 103.627 300.468 102.963C300.468 102.963 305.618 102.201 306.793 105.199" stroke="#263238" stroke-miterlimit="10" stroke-linecap="round"/>
<path d="M292.318 107.776C292.318 107.776 292.575 107.524 293.05 107.124" stroke="#263238" stroke-miterlimit="10" stroke-linecap="round"/>
<path d="M306.002 105.376C306.002 105.376 312.066 104.316 312.066 108.019C312.066 111.722 307.785 114.725 306.002 118.96C304.218 123.195 300.912 123.372 299.142 119.137C297.372 114.902 299.933 107.141 306.002 105.376Z" fill="#B46B6B" stroke="#263238" stroke-miterlimit="10"/>
<path d="M310.109 105.57C310.109 105.57 304.827 107.512 303.249 113.689L310.109 105.57Z" fill="#B46B6B"/>
<path d="M310.109 105.57C310.109 105.57 304.827 107.512 303.249 113.689" stroke="#263238" stroke-miterlimit="10"/>
<path d="M309.72 113.669V123.723" stroke="#263238" stroke-miterlimit="10" stroke-linecap="round"/>
<path d="M300.011 143.311C298.558 139.145 297.817 134.804 297.816 130.436C297.808 127.792 298.103 125.154 298.694 122.564H323.39C323.981 125.154 324.275 127.792 324.268 130.436C324.266 134.804 323.526 139.145 322.072 143.311H300.011Z" fill="#263238"/>
<path d="M324.034 126.247C324.103 126.849 324.158 127.463 324.199 128.086H297.884C297.925 127.463 297.98 126.849 298.049 126.247H324.034Z" fill="#7A7A7A"/>
<path d="M298.181 135.649C298.099 135.039 298.031 134.412 297.976 133.81H324.144C324.089 134.428 324.021 135.047 323.938 135.649H298.181Z" fill="#7A7A7A"/>
<path d="M321.085 130.539C321.077 130.731 321.134 130.92 321.246 131.082C321.359 131.245 321.523 131.373 321.718 131.451C321.912 131.528 322.127 131.552 322.337 131.518C322.546 131.485 322.739 131.396 322.891 131.262C323.044 131.129 323.149 130.957 323.192 130.77C323.236 130.582 323.217 130.387 323.136 130.21C323.056 130.032 322.919 129.881 322.743 129.774C322.566 129.667 322.358 129.611 322.146 129.612C321.869 129.608 321.602 129.704 321.403 129.878C321.204 130.052 321.089 130.29 321.085 130.539Z" fill="#8C8C8C"/>
<path d="M315.757 130.539C315.749 130.731 315.806 130.92 315.918 131.082C316.031 131.244 316.195 131.372 316.389 131.45C316.583 131.528 316.798 131.552 317.007 131.519C317.216 131.485 317.409 131.397 317.562 131.264C317.715 131.131 317.82 130.96 317.864 130.772C317.908 130.585 317.889 130.39 317.81 130.213C317.73 130.035 317.594 129.883 317.418 129.776C317.242 129.669 317.035 129.612 316.822 129.612C316.545 129.608 316.277 129.704 316.078 129.878C315.878 130.051 315.763 130.289 315.757 130.539Z" fill="#8C8C8C"/>
<path d="M310.433 130.539C310.426 130.731 310.482 130.92 310.595 131.082C310.708 131.244 310.871 131.372 311.065 131.45C311.259 131.528 311.475 131.552 311.684 131.519C311.893 131.485 312.086 131.397 312.239 131.264C312.391 131.131 312.497 130.96 312.541 130.772C312.585 130.585 312.566 130.39 312.487 130.213C312.407 130.035 312.271 129.883 312.095 129.776C311.919 129.669 311.711 129.612 311.499 129.612C311.361 129.609 311.225 129.632 311.097 129.677C310.969 129.723 310.852 129.79 310.753 129.876C310.654 129.963 310.575 130.065 310.52 130.179C310.465 130.293 310.436 130.415 310.433 130.539Z" fill="#8C8C8C"/>
<path d="M305.11 130.539C305.103 130.731 305.159 130.92 305.272 131.082C305.384 131.244 305.548 131.372 305.742 131.45C305.936 131.528 306.151 131.552 306.36 131.519C306.569 131.485 306.762 131.397 306.915 131.264C307.068 131.131 307.173 130.96 307.217 130.772C307.261 130.585 307.243 130.39 307.163 130.213C307.084 130.035 306.947 129.883 306.771 129.776C306.595 129.669 306.388 129.612 306.176 129.612C306.038 129.609 305.901 129.632 305.773 129.677C305.645 129.723 305.529 129.79 305.43 129.876C305.331 129.963 305.252 130.065 305.197 130.179C305.142 130.293 305.112 130.415 305.11 130.539Z" fill="#8C8C8C"/>
<path d="M299.782 130.539C299.775 130.731 299.831 130.92 299.944 131.082C300.056 131.244 300.22 131.372 300.414 131.45C300.608 131.528 300.823 131.552 301.032 131.519C301.241 131.485 301.435 131.397 301.587 131.264C301.74 131.131 301.845 130.96 301.889 130.772C301.934 130.585 301.915 130.39 301.835 130.213C301.756 130.035 301.619 129.883 301.443 129.776C301.267 129.669 301.06 129.612 300.848 129.612C300.57 129.608 300.303 129.704 300.103 129.878C299.903 130.051 299.788 130.289 299.782 130.539Z" fill="#8C8C8C"/>
<path d="M37.9587 79.9114C37.9587 85.9734 35.8824 90.889 33.3168 90.889C30.7511 90.889 28.6794 85.9734 28.6794 79.9114C28.6794 73.8493 30.7557 68.9379 33.3168 68.9379C35.8778 68.9379 37.9587 73.8535 37.9587 79.9114Z" fill="#B46B6B" stroke="#263238" stroke-miterlimit="10"/>
<path d="M47.7181 73.1441C46.2638 77.268 43.4787 80.1546 41.4938 79.5691C39.509 78.9835 39.07 75.2019 40.5197 71.0822C41.9695 66.9625 44.7592 64.0717 46.744 64.6614C48.7289 65.2512 49.1679 69.0286 47.7181 73.1441Z" fill="#B46B6B" stroke="#263238" stroke-miterlimit="10"/>
<path d="M13.6697 97.9696C8.94544 97.2479 5.40111 95.1571 5.74869 93.3055C6.09626 91.4539 10.2077 90.5343 14.9319 91.2436C19.6562 91.9529 23.2005 94.0643 22.8667 95.92C22.5328 97.7757 18.3939 98.6912 13.6697 97.9696Z" fill="#B46B6B" stroke="#263238" stroke-miterlimit="10"/>
<path d="M52.0857 87.8373C48.1389 91.3673 43.4787 92.8972 41.6768 91.256C39.8749 89.6147 41.6173 85.4084 45.5504 81.8825C49.4835 78.3566 54.1574 76.8226 55.9593 78.4639C57.7612 80.1052 56.0279 84.2949 52.0857 87.8373Z" fill="#B46B6B" stroke="#263238" stroke-miterlimit="10"/>
<path d="M24.9018 78.1463C28.716 83.1362 29.8547 88.3982 27.44 89.8992C25.0253 91.4003 19.9809 88.5714 16.1667 83.5774C12.3526 78.5835 11.2138 73.3297 13.6285 71.8287C16.0433 70.3276 21.0876 73.1565 24.9018 78.1463Z" fill="#B46B6B" stroke="#263238" stroke-miterlimit="10"/>
<path d="M33.6232 90.3405L33.9845 123.723" stroke="#263238" stroke-miterlimit="10" stroke-linecap="round"/>
<path d="M33.1933 75.8329L33.6232 90.3405" stroke="#263238" stroke-miterlimit="10" stroke-linecap="round"/>
<path d="M33.224 73.4658L33.1933 74.5751" stroke="#263238" stroke-miterlimit="10" stroke-linecap="round"/>
<path d="M27.44 89.1858C30.0981 94.1424 31.6519 99.5211 32.0133 105.017V125.665" stroke="#263238" stroke-miterlimit="10" stroke-linecap="round"/>
<path d="M19.455 78.1876C22.6464 81.5177 25.3317 85.2163 27.44 89.1858" stroke="#263238" stroke-miterlimit="10" stroke-linecap="round"/>
<path d="M16.9442 75.7958C16.9442 75.7958 17.4244 76.2082 18.2156 76.9504" stroke="#263238" stroke-miterlimit="10" stroke-linecap="round"/>
<path d="M41.9649 90.724C38.7097 94.838 36.1725 99.3774 34.4418 104.184" stroke="#263238" stroke-miterlimit="10" stroke-linecap="round"/>
<path d="M47.302 85.2022C45.3379 86.8905 43.5513 88.7389 41.9649 90.724" stroke="#263238" stroke-miterlimit="10" stroke-linecap="round"/>
<path d="M53.0003 81.2845C51.5494 82.0218 50.1869 82.8924 48.9346 83.8826" stroke="#263238" stroke-miterlimit="10" stroke-linecap="round"/>
<path d="M41.7683 78.5464C39.1981 85.8414 35.7452 96.6211 34.1354 105.982" stroke="#263238" stroke-miterlimit="10" stroke-linecap="round"/>
<path d="M43.3324 74.2287C42.875 75.4658 42.3445 76.9216 41.7683 78.5546" stroke="#263238" stroke-miterlimit="10" stroke-linecap="round"/>
<path d="M44.9376 70.0348C44.9376 70.0348 44.4803 71.1523 43.7668 73.0658" stroke="#263238" stroke-miterlimit="10" stroke-linecap="round"/>
<path d="M22.6151 94.9055C25.8165 96.0066 30.216 99.0665 31.7618 103.079" stroke="#263238" stroke-miterlimit="10" stroke-linecap="round"/>
<path d="M16.6835 93.821C18.7146 93.9105 20.719 94.2761 22.6289 94.9055" stroke="#263238" stroke-miterlimit="10" stroke-linecap="round"/>
<path d="M12.8373 93.9035C12.8373 93.9035 13.409 93.8334 14.3511 93.7963" stroke="#263238" stroke-miterlimit="10" stroke-linecap="round"/>
<path d="M22.9353 114.015C18.5952 115.842 14.3603 115.941 13.4776 114.238C12.595 112.535 15.3984 109.673 19.7385 107.846C24.0786 106.019 28.3135 105.92 29.1962 107.623C30.0788 109.327 27.2754 112.188 22.9353 114.015Z" fill="#B46B6B" stroke="#263238" stroke-miterlimit="10"/>
<path d="M22.7981 109.058C24.52 108.095 26.3933 107.373 28.3547 106.914C28.8061 106.665 29.3269 106.538 29.8559 106.547C30.3849 106.555 30.9001 106.7 31.3411 106.964C31.9265 107.314 31.7344 109.962 31.7344 109.962V123.715" stroke="#263238" stroke-miterlimit="10" stroke-linecap="round"/>
<path d="M19.6882 111.1C19.6882 111.1 20.1135 110.745 20.8681 110.234" stroke="#263238" stroke-miterlimit="10" stroke-linecap="round"/>
<path d="M54.0889 97.9696C58.8131 97.2479 62.3574 95.1571 62.0099 93.3055C61.6623 91.4539 57.5509 90.5343 52.8266 91.2436C48.1024 91.9529 44.558 94.0643 44.9056 95.92C45.2532 97.7757 49.3646 98.6912 54.0889 97.9696Z" fill="#B46B6B" stroke="#263238" stroke-miterlimit="10"/>
<path d="M45.244 94.8726C44.6692 95.0659 44.1073 95.289 43.561 95.5406C41.6516 96.4469 40.0551 97.809 38.9461 99.4781C37.8371 101.147 37.2582 103.059 37.2727 105.005V123.195" stroke="#263238" stroke-miterlimit="10" stroke-linecap="round"/>
<path d="M51.5735 93.7963C49.4144 93.8559 47.2789 94.219 45.244 94.8726" stroke="#263238" stroke-miterlimit="10" stroke-linecap="round"/>
<path d="M54.9212 93.9035C54.9212 93.9035 54.5416 93.8581 53.8967 93.821" stroke="#263238" stroke-miterlimit="10" stroke-linecap="round"/>
<path d="M49.3463 110.428C53.4988 112.589 57.7063 113.013 58.7445 111.384C59.7826 109.755 57.2673 106.687 53.1147 104.531C48.9621 102.374 44.7592 101.945 43.7165 103.574C42.6738 105.203 45.1982 108.271 49.3463 110.428Z" fill="#B46B6B" stroke="#263238" stroke-miterlimit="10"/>
<path d="M50.3524 105.772C48.6487 104.576 46.7475 103.628 44.7181 102.963C44.7181 102.963 39.5685 102.201 38.416 105.199" stroke="#263238" stroke-miterlimit="10" stroke-linecap="round"/>
<path d="M52.8586 107.776C52.8586 107.776 52.6025 107.524 52.1315 107.124" stroke="#263238" stroke-miterlimit="10" stroke-linecap="round"/>
<path d="M39.1752 105.376C39.1752 105.376 33.1109 104.333 33.1109 108.019C33.1109 111.706 37.4144 114.725 39.1752 118.96C40.9359 123.195 44.2653 123.372 46.0352 119.137C47.8051 114.902 45.244 107.141 39.1752 105.376Z" fill="#B46B6B" stroke="#263238" stroke-miterlimit="10"/>
<path d="M35.0684 105.57C35.0684 105.57 40.3506 107.512 41.9284 113.689L35.0684 105.57Z" fill="#B46B6B"/>
<path d="M35.0684 105.57C35.0684 105.57 40.3506 107.512 41.9284 113.689" stroke="#263238" stroke-miterlimit="10"/>
<path d="M35.4616 113.669V123.723" stroke="#263238" stroke-miterlimit="10" stroke-linecap="round"/>
<path d="M45.1754 143.311C46.6285 139.145 47.3687 134.804 47.3706 130.436C47.3778 127.792 47.0836 125.154 46.4925 122.564H21.7965C21.2016 125.154 20.9012 127.792 20.9001 130.436C20.902 134.804 21.6422 139.145 23.0953 143.311H45.1754Z" fill="#263238"/>
<path d="M21.1425 126.247C21.0739 126.849 21.019 127.463 20.9779 128.086H47.2928C47.2517 127.463 47.1968 126.849 47.1282 126.247H21.1425Z" fill="#7A7A7A"/>
<path d="M47.0138 135.649C47.0962 135.039 47.1693 134.412 47.2242 133.81H21.0373C21.0922 134.428 21.1608 135.047 21.2477 135.649H47.0138Z" fill="#7A7A7A"/>
<path d="M24.0969 130.539C24.1042 130.731 24.048 130.92 23.9354 131.082C23.8228 131.244 23.6591 131.372 23.4651 131.45C23.2711 131.528 23.0558 131.552 22.8468 131.519C22.6377 131.485 22.4445 131.397 22.2917 131.264C22.139 131.131 22.0339 130.96 21.9897 130.772C21.9455 130.585 21.9644 130.39 22.0438 130.213C22.1233 130.035 22.2598 129.883 22.4357 129.776C22.6116 129.669 22.819 129.612 23.0313 129.612C23.3088 129.608 23.5764 129.704 23.776 129.878C23.9756 130.051 24.0909 130.289 24.0969 130.539Z" fill="#8C8C8C"/>
<path d="M29.4202 130.539C29.4275 130.731 29.3713 130.92 29.2587 131.082C29.1462 131.244 28.9824 131.373 28.7884 131.45C28.5945 131.528 28.3792 131.552 28.1701 131.519C27.9611 131.485 27.7678 131.397 27.6151 131.264C27.4624 131.131 27.3572 130.96 27.313 130.772C27.2689 130.585 27.2877 130.39 27.3672 130.213C27.4466 130.035 27.5831 129.883 27.759 129.776C27.935 129.669 28.1424 129.612 28.3547 129.612C28.4922 129.609 28.6289 129.632 28.7569 129.677C28.8849 129.723 29.0017 129.79 29.1006 129.876C29.1996 129.963 29.2787 130.066 29.3336 130.179C29.3884 130.293 29.4179 130.415 29.4202 130.539Z" fill="#8C8C8C"/>
<path d="M34.7573 130.539C34.7646 130.731 34.7084 130.92 34.5958 131.082C34.4832 131.244 34.3195 131.373 34.1255 131.45C33.9316 131.528 33.7163 131.552 33.5072 131.519C33.2982 131.485 33.1049 131.397 32.9522 131.264C32.7995 131.131 32.6943 130.96 32.6501 130.772C32.606 130.585 32.6248 130.39 32.7043 130.213C32.7837 130.035 32.9202 129.883 33.0961 129.776C33.2721 129.669 33.4795 129.612 33.6918 129.612C33.8293 129.609 33.966 129.632 34.094 129.677C34.222 129.723 34.3388 129.79 34.4377 129.876C34.5367 129.963 34.6158 130.066 34.6707 130.179C34.7255 130.293 34.755 130.415 34.7573 130.539Z" fill="#8C8C8C"/>
<path d="M40.0716 130.539C40.0789 130.731 40.0226 130.92 39.9101 131.082C39.7975 131.244 39.6337 131.372 39.4398 131.45C39.2458 131.528 39.0305 131.552 38.8214 131.519C38.6124 131.485 38.4191 131.397 38.2664 131.264C38.1137 131.131 38.0085 130.96 37.9644 130.772C37.9202 130.585 37.939 130.39 38.0185 130.213C38.098 130.035 38.2344 129.883 38.4104 129.776C38.5863 129.669 38.7937 129.612 39.006 129.612C39.2834 129.608 39.5511 129.704 39.7506 129.878C39.9502 130.051 40.0656 130.289 40.0716 130.539Z" fill="#8C8C8C"/>
<path d="M45.3949 130.539C45.4022 130.731 45.346 130.92 45.2334 131.082C45.1208 131.244 44.9571 131.373 44.7631 131.45C44.5691 131.528 44.3538 131.552 44.1448 131.519C43.9357 131.485 43.7425 131.397 43.5898 131.264C43.437 131.131 43.3319 130.96 43.2877 130.772C43.2435 130.585 43.2624 130.39 43.3418 130.213C43.4213 130.035 43.5578 129.883 43.7337 129.776C43.9096 129.669 44.117 129.612 44.3293 129.612C44.4669 129.609 44.6035 129.632 44.7315 129.677C44.8595 129.723 44.9763 129.79 45.0753 129.876C45.1742 129.963 45.2534 130.066 45.3082 130.179C45.3631 130.293 45.3925 130.415 45.3949 130.539Z" fill="#8C8C8C"/>
<path d="M222.063 146.511C224.237 151.242 226.404 155.983 228.566 160.734L309.857 160.759C303.852 156.161 298.634 151.208 293.032 146.511H222.063Z" fill="#B46B6B" stroke="#263238" stroke-miterlimit="10" stroke-linecap="round"/>
<path d="M253.093 104.444C253.093 104.444 247.445 104.724 245.442 105.739C243.438 106.753 243.059 112.749 243.059 112.749L235.284 126.556C235.284 126.556 220.727 129.756 218.967 129.995C217.206 130.234 215.998 129.801 214.425 130.193C212.852 130.585 212.774 130.803 211.599 131.979C210.424 133.154 209.916 134.272 210.373 134.49C210.831 134.709 211.933 133.822 212.267 133.488C212.668 133.149 213.096 132.836 213.547 132.552C213.547 132.552 212.701 135.006 212.322 136.173C211.539 138.618 210.986 134.239 210.3 134.717C209.408 135.335 210.03 138.927 212.312 138.503C214.594 138.078 215.72 138.127 216.634 137.047C217.549 135.966 219.529 133.315 219.529 133.315C219.529 133.315 227.674 132.808 232.334 132.354C236.995 131.9 241.12 129.954 242.67 128.605C244.042 127.405 248.693 118.494 248.693 118.494L252.951 108.337C252.951 108.337 254.108 106.201 253.093 104.444Z" fill="white" stroke="#263238" stroke-miterlimit="10" stroke-linecap="round"/>
<path d="M212.601 137.443C212.35 137.637 212.086 137.816 211.809 137.979C211.39 138.153 210.942 138.265 210.483 138.309C209.317 138.457 208.901 138.898 209.18 139.179C209.459 139.459 209.971 139.406 211.046 139.406C211.85 139.38 212.628 139.14 213.282 138.717C213.621 138.508 213.928 138.259 214.197 137.979" fill="white"/>
<path d="M212.601 137.443C212.35 137.637 212.086 137.816 211.809 137.979C211.39 138.153 210.942 138.265 210.483 138.309C209.317 138.457 208.901 138.898 209.18 139.179C209.459 139.459 209.971 139.406 211.046 139.406C211.85 139.38 212.628 139.14 213.282 138.717C213.621 138.508 213.928 138.259 214.197 137.979" stroke="#263238" stroke-miterlimit="10" stroke-linecap="round"/>
<path d="M213.771 137.517C213.55 137.738 213.314 137.946 213.062 138.14C212.692 138.394 212.256 138.56 211.796 138.622C211.206 138.692 210.309 139.389 210.629 139.632C210.95 139.876 211.443 139.769 212.509 139.632C213.303 139.514 214.04 139.185 214.627 138.688C214.929 138.445 215.195 138.168 215.418 137.863" fill="white"/>
<path d="M213.771 137.517C213.55 137.738 213.314 137.946 213.062 138.14C212.692 138.394 212.256 138.56 211.796 138.622C211.206 138.692 210.309 139.389 210.629 139.632C210.95 139.876 211.443 139.769 212.509 139.632C213.303 139.514 214.04 139.185 214.627 138.688C214.929 138.445 215.195 138.168 215.418 137.863" stroke="#263238" stroke-miterlimit="10" stroke-linecap="round"/>
<path d="M217.233 131.608C217.233 131.608 216.255 131.805 215.578 133.195C214.901 134.585 215.358 137.245 214.924 137.418C214.474 137.55 213.986 137.53 213.552 137.36C213.03 137.228 212.18 137.125 212.39 137.686C212.815 138.923 215.166 138.441 215.166 138.441C215.166 138.441 215.523 138.395 216.406 137.265C217.288 136.135 219.259 133.554 219.259 133.554" fill="white"/>
<path d="M217.233 131.608C217.233 131.608 216.255 131.805 215.578 133.195C214.901 134.585 215.358 137.245 214.924 137.418C214.474 137.55 213.986 137.53 213.552 137.36C213.03 137.228 212.18 137.125 212.39 137.686C212.815 138.923 215.166 138.441 215.166 138.441C215.166 138.441 215.523 138.395 216.406 137.265C217.288 136.135 219.259 133.554 219.259 133.554" stroke="#263238" stroke-miterlimit="10" stroke-linecap="round"/>
<path d="M248.213 117.958L246.567 113.157" stroke="#263238" stroke-miterlimit="10" stroke-linecap="round"/>
<path d="M268.167 104.444C268.167 104.444 273.815 104.724 275.818 105.739C277.821 106.753 278.2 112.749 278.2 112.749L285.975 126.556C285.975 126.556 300.532 129.756 302.293 129.995C304.054 130.234 305.261 129.801 306.834 130.193C308.407 130.585 308.485 130.803 309.66 131.979C310.836 133.154 311.362 134.284 310.904 134.502C310.447 134.721 309.345 133.834 309.011 133.5C308.609 133.161 308.182 132.848 307.73 132.564C307.73 132.564 308.577 135.018 308.952 136.185C309.738 138.63 310.292 134.251 310.978 134.729C311.869 135.348 311.243 138.94 308.965 138.515C306.688 138.09 305.558 138.14 304.643 137.059C303.729 135.979 301.749 133.327 301.749 133.327C301.749 133.327 293.603 132.82 288.943 132.366C284.283 131.913 280.153 129.966 278.607 128.618C277.235 127.418 272.584 118.506 272.584 118.506L268.327 108.349C268.327 108.349 267.147 106.201 268.167 104.444Z" fill="white" stroke="#263238" stroke-miterlimit="10" stroke-linecap="round"/>
<path d="M308.659 137.443C308.909 137.637 309.174 137.816 309.45 137.979C309.869 138.153 310.317 138.265 310.776 138.309C311.942 138.457 312.359 138.898 312.08 139.179C311.801 139.459 311.284 139.406 310.214 139.406C309.409 139.38 308.631 139.14 307.977 138.717C307.637 138.509 307.33 138.261 307.063 137.979" fill="white"/>
<path d="M308.659 137.443C308.909 137.637 309.174 137.816 309.45 137.979C309.869 138.153 310.317 138.265 310.776 138.309C311.942 138.457 312.359 138.898 312.08 139.179C311.801 139.459 311.284 139.406 310.214 139.406C309.409 139.38 308.631 139.14 307.977 138.717C307.637 138.509 307.33 138.261 307.063 137.979" stroke="#263238" stroke-miterlimit="10" stroke-linecap="round"/>
<path d="M307.488 137.517C307.709 137.741 307.945 137.952 308.197 138.148C308.568 138.402 309.003 138.568 309.464 138.63C310.054 138.7 310.95 139.397 310.63 139.641C310.31 139.884 309.816 139.777 308.75 139.641C307.956 139.522 307.219 139.194 306.633 138.696C306.331 138.453 306.065 138.176 305.842 137.872" fill="white"/>
<path d="M307.488 137.517C307.709 137.741 307.945 137.952 308.197 138.148C308.568 138.402 309.003 138.568 309.464 138.63C310.054 138.7 310.95 139.397 310.63 139.641C310.31 139.884 309.816 139.777 308.75 139.641C307.956 139.522 307.219 139.194 306.633 138.696C306.331 138.453 306.065 138.176 305.842 137.872" stroke="#263238" stroke-miterlimit="10" stroke-linecap="round"/>
<path d="M304.031 131.608C304.031 131.608 305.009 131.805 305.686 133.195C306.363 134.585 305.901 137.245 306.34 137.418C306.79 137.55 307.278 137.53 307.712 137.36C308.229 137.228 309.084 137.125 308.874 137.686C308.448 138.923 306.098 138.441 306.098 138.441C306.098 138.441 305.741 138.395 304.858 137.265C303.976 136.135 302.005 133.554 302.005 133.554" fill="white"/>
<path d="M304.031 131.608C304.031 131.608 305.009 131.805 305.686 133.195C306.363 134.585 305.901 137.245 306.34 137.418C306.79 137.55 307.278 137.53 307.712 137.36C308.229 137.228 309.084 137.125 308.874 137.686C308.448 138.923 306.098 138.441 306.098 138.441C306.098 138.441 305.741 138.395 304.858 137.265C303.976 136.135 302.005 133.554 302.005 133.554" stroke="#263238" stroke-miterlimit="10" stroke-linecap="round"/>
<path d="M273.046 117.958L274.688 113.157" stroke="#263238" stroke-miterlimit="10" stroke-linecap="round"/>
<path d="M258.229 97.5736C258.229 97.5736 257.973 100.2 256.774 101.974C255.576 103.747 253.093 104.448 253.093 104.448L248.213 117.941L250.783 127.051C250.783 127.051 246.242 133.306 244.445 137.088C242.647 140.87 244.806 145.154 246.69 146.927C248.574 148.701 251.076 151.121 257.479 150.899C266.365 150.581 272.68 151.311 275.507 148.301C278.333 145.29 278.635 139.608 275.255 135.319C273.202 132.709 270.407 127.071 270.407 127.071L273.188 117.677L268.912 104.423C268.912 104.423 266.355 104.291 264.796 102.592C263.236 100.893 263.598 97.8045 263.598 97.8045L258.229 97.5736Z" fill="white" stroke="#263238" stroke-miterlimit="10" stroke-linecap="round"/>
<path d="M261.092 101.157C262.035 101.157 262.968 100.985 263.836 100.65C263.612 99.7158 263.54 98.7574 263.621 97.8045L258.224 97.5736C258.113 98.503 257.9 99.4202 257.588 100.312C258.653 100.867 259.862 101.159 261.092 101.157Z" fill="#263238"/>
<path d="M273.17 117.673L268.912 104.423C268.486 104.396 268.063 104.332 267.65 104.234C268.144 107.31 267.554 108.848 267.554 108.848C267.469 109.521 267.208 110.167 266.791 110.731C266.374 111.294 265.814 111.76 265.157 112.089C262.843 113.327 258.476 113.558 255.736 111.549C253.674 110.036 254.04 105.887 254.364 103.941C253.96 104.141 253.538 104.31 253.102 104.444L248.213 117.941L250.783 127.051H270.389L273.17 117.673Z" fill="#B46B6B" stroke="#263238" stroke-miterlimit="10" stroke-linecap="round"/>
<path d="M254.332 90.2868C254.332 90.2868 253.139 88.6373 252.594 90.093C252.05 91.5487 253.139 93.4209 253.898 93.9117C254.657 94.4024 254.332 90.2868 254.332 90.2868Z" fill="white" stroke="#263238" stroke-miterlimit="10" stroke-linecap="round"/>
<path d="M267.577 90.2868C267.577 90.2868 268.775 88.6373 269.314 90.093C269.854 91.5487 268.775 93.4209 268.011 93.9117C267.247 94.4024 267.577 90.2868 267.577 90.2868Z" fill="white" stroke="#263238" stroke-miterlimit="10" stroke-linecap="round"/>
<path d="M261.092 99.417C260.186 99.417 259.29 99.2561 258.454 98.9435C257.617 98.6308 256.858 98.1726 256.218 97.5951C255.578 97.0175 255.071 96.3319 254.726 95.5775C254.38 94.823 254.203 94.0145 254.204 93.1983V83.6681C254.204 83.0546 254.474 82.4661 254.956 82.0323C255.437 81.5984 256.089 81.3547 256.77 81.3547H265.409C266.089 81.3547 266.742 81.5984 267.223 82.0323C267.704 82.4661 267.974 83.0546 267.974 83.6681V93.1983C267.976 94.0143 267.799 94.8227 267.454 95.5771C267.109 96.3316 266.603 97.0172 265.963 97.5948C265.324 98.1725 264.565 98.6307 263.729 98.9434C262.893 99.2561 261.997 99.417 261.092 99.417Z" fill="white" stroke="#263238" stroke-miterlimit="10" stroke-linecap="round"/>
<path d="M262.967 80.6041C262.967 80.6041 257.62 85.9939 254.007 87.8043V89.7961C252.453 88.2387 251.448 86.2992 251.122 84.2248C250.719 80.9629 258.951 74.9916 263.168 76.439C267.384 77.8865 262.967 80.6041 262.967 80.6041Z" fill="#263238"/>
<path d="M261.823 80.4144C261.823 80.4144 264.54 85.3094 267.796 87.7589V89.6188C267.796 89.6188 271.162 85.0166 271.272 83.2557C271.382 81.4949 263.881 78.5381 261.823 78.1463C259.765 77.7546 261.823 80.4144 261.823 80.4144Z" fill="#263238"/>
<path d="M253.898 93.9117C253.898 93.9117 255.526 97.9242 253.463 99.3922C251.401 100.86 249.882 100.568 248.684 104.679C247.486 108.79 253.029 109.574 253.029 112.217C253.029 114.861 249.773 115.45 249.773 115.45C249.773 115.45 249.773 117.9 254.007 117.702C258.242 117.504 261.389 114.176 260.739 109.867C260.09 105.557 256.829 104.675 257.049 103.013C257.289 101.562 257.614 100.123 258.023 98.7036C258.023 98.7036 254.332 96.7489 253.898 93.9117Z" fill="#263238"/>
<path d="M267.887 90.5054C267.887 90.5054 262.72 89.759 261.371 89.627C260.021 89.495 254.328 90.6373 254.328 90.6373L254.204 91.0085V93.1982C254.204 94.8475 254.931 96.4293 256.224 97.5955C257.517 98.7618 259.272 99.4169 261.101 99.4169C262.93 99.4169 264.684 98.7618 265.977 97.5955C267.271 96.4293 267.997 94.8475 267.997 93.1982V90.6002L267.887 90.5054Z" fill="#B46B6B" stroke="#263238" stroke-miterlimit="10" stroke-linecap="round"/>
<path d="M255.979 88.9796C256.452 89.2656 257.009 89.4183 257.579 89.4183C258.149 89.4183 258.706 89.2656 259.18 88.9796" stroke="#263238" stroke-miterlimit="10" stroke-linecap="round"/>
<path d="M263.104 88.9796C263.578 89.2646 264.135 89.4166 264.704 89.4166C265.274 89.4166 265.831 89.2646 266.305 88.9796" stroke="#263238" stroke-miterlimit="10" stroke-linecap="round"/>
<path d="M255.672 87.1362C255.672 87.1362 256.509 85.8372 259.084 86.0393" stroke="#263238" stroke-width="2" stroke-miterlimit="10" stroke-linecap="round"/>
<path d="M262.573 86.0393C263.268 85.7737 264.045 85.7381 264.766 85.9388C265.488 86.1395 266.107 86.5636 266.516 87.1362" stroke="#263238" stroke-width="2" stroke-miterlimit="10" stroke-linecap="round"/>
<path d="M244.445 137.105C242.647 140.886 244.806 145.171 246.69 146.944C248.574 148.717 251.076 151.121 257.479 150.899C266.365 150.581 272.68 151.311 275.507 148.301C278.333 145.29 278.635 139.608 275.255 135.319C274.49 134.303 273.792 133.247 273.165 132.156H247.312C246.256 133.757 245.298 135.409 244.445 137.105Z" fill="#263238" stroke="#263238" stroke-miterlimit="10" stroke-linecap="round"/>
<path d="M258.462 144.746C253.953 140.531 245.775 138.424 241.769 137.822C237.763 137.22 230.414 133.612 230.414 133.612C230.414 133.612 226.074 133.48 226.407 138.148C226.741 142.816 239.263 148.235 244.106 150.643C246.285 151.747 248.726 152.364 251.223 152.442C253.721 152.52 256.203 152.058 258.462 151.093" fill="#263238"/>
<path d="M258.462 144.746C253.953 140.531 245.775 138.424 241.769 137.822C237.763 137.22 230.414 133.612 230.414 133.612C230.414 133.612 226.074 133.48 226.407 138.148C226.741 142.816 239.263 148.235 244.106 150.643C246.285 151.747 248.726 152.364 251.223 152.442C253.721 152.52 256.203 152.058 258.462 151.093" stroke="#263238" stroke-miterlimit="10" stroke-linecap="round"/>
<path d="M261.279 144.915C265.788 140.7 273.966 138.593 277.976 137.991C281.987 137.389 288.216 134.309 288.216 134.309C288.216 134.309 293.667 133.624 293.334 138.292C293 142.96 280.478 148.375 275.635 150.783C273.456 151.888 271.016 152.506 268.518 152.584C266.02 152.663 263.538 152.201 261.279 151.237" fill="#263238"/>
<path d="M261.279 144.915C265.788 140.7 273.966 138.593 277.976 137.991C281.987 137.389 288.216 134.309 288.216 134.309C288.216 134.309 293.667 133.624 293.334 138.292C293 142.96 280.478 148.375 275.635 150.783C273.456 151.888 271.016 152.506 268.518 152.584C266.02 152.663 263.538 152.201 261.279 151.237" stroke="#263238" stroke-miterlimit="10" stroke-linecap="round"/>
<path d="M279.888 148.717C279.888 148.717 280.345 148.189 279.737 147.393C279.129 146.598 277.812 147.76 276.732 148.078C275.653 148.396 271.414 149.245 269.388 149.641C267.659 149.979 264.974 149.996 264.179 150.115C264.474 151.227 264.4 152.394 263.964 153.468C263.57 153.488 264.764 153.439 264.362 153.468C267.883 153.328 269.9 153.295 270.988 153.192C272.978 152.998 275.562 153.81 277.569 153.121C279.577 152.433 281.013 150.647 280.729 149.851C280.59 149.402 280.296 149.005 279.888 148.717Z" fill="white" stroke="#263238" stroke-miterlimit="10" stroke-linecap="round"/>
<path d="M264.037 150.132H264.146" stroke="#263238" stroke-miterlimit="10" stroke-linecap="round"/>
<path d="M263.941 150.148H263.99" stroke="#263238" stroke-miterlimit="10" stroke-linecap="round"/>
<path d="M279.888 148.717C279.349 148.975 278.766 149.149 278.164 149.233" stroke="#263238" stroke-miterlimit="10" stroke-linecap="round"/>
<path d="M280.707 149.839C279.965 150.119 279.201 150.346 278.42 150.519" stroke="#263238" stroke-miterlimit="10" stroke-linecap="round"/>
<path d="M278.324 151.41C278.948 151.515 279.594 151.425 280.153 151.154" stroke="#263238" stroke-miterlimit="10" stroke-linecap="round"/>
<path d="M277.766 152.21C278.352 152.282 278.949 152.196 279.481 151.963" stroke="#263238" stroke-miterlimit="10" stroke-linecap="round"/>
<path d="M263.941 153.468C264.377 152.394 264.452 151.227 264.156 150.115L263.941 150.148C263.941 150.148 256.166 148.659 249.585 145.035C243.004 141.41 234.639 135.834 230.414 133.612C226.188 131.389 222.182 134.729 222.584 138.259C222.987 141.789 226.192 143.649 231.959 145.785C237.726 147.921 248.245 151.27 253.806 152.288C256.678 152.808 260.73 153.612 263.941 153.468Z" fill="#263238" stroke="#263238" stroke-miterlimit="10" stroke-linecap="round"/>
<path d="M252.393 153.266C251.924 152.198 251.827 151.027 252.114 149.909L252.338 149.942C252.338 149.942 260.351 148.424 267.192 144.804C274.034 141.183 284.891 135.731 289.277 133.492C290.132 133.02 291.118 132.773 292.121 132.78C293.124 132.788 294.104 133.049 294.951 133.534C295.798 134.019 296.476 134.709 296.91 135.524C297.344 136.34 297.515 137.249 297.404 138.148C296.974 141.682 293.658 143.538 287.672 145.674C281.685 147.81 268.583 151.035 262.807 152.062C259.829 152.581 255.718 153.406 252.393 153.266Z" fill="#263238" stroke="#263238" stroke-miterlimit="10" stroke-linecap="round"/>
<path d="M252.114 149.909C252.114 149.909 244.426 149.043 242.002 148.437C239.579 147.831 237.946 146.449 237.15 146.837C236.354 147.224 237.013 148.198 237.013 148.198C237.013 148.198 236.473 149.402 237.013 150.194C237.553 150.985 238.335 151.744 241.051 153.022C243.768 154.301 246.96 153.818 248.648 153.744C249.907 153.666 251.159 153.506 252.393 153.266C252.393 153.266 251.739 152.099 252.114 149.909Z" fill="white" stroke="#263238" stroke-miterlimit="10" stroke-linecap="round"/>
<path d="M237.013 148.198C237.214 148.126 237.433 148.109 237.644 148.149C237.856 148.188 238.049 148.283 238.202 148.42C238.559 148.731 238.986 148.968 239.455 149.113" stroke="#263238" stroke-miterlimit="10" stroke-linecap="round"/>
<path d="M236.784 149.645C236.946 149.564 237.128 149.518 237.313 149.513C237.499 149.508 237.683 149.544 237.85 149.616C238.232 149.791 238.638 149.922 239.057 150.004" stroke="#263238" stroke-miterlimit="10" stroke-linecap="round"/>
<path d="M237.813 151.06C237.813 151.06 238.051 150.713 238.33 150.763C238.609 150.812 239.748 151.175 240.059 151.204" stroke="#263238" stroke-miterlimit="10" stroke-linecap="round"/>
<path d="M239.29 152.095C239.468 151.951 239.693 151.864 239.931 151.847C240.261 151.869 240.589 151.907 240.914 151.963" stroke="#263238" stroke-miterlimit="10" stroke-linecap="round"/>
<path d="M49.7716 146.511C44.1692 151.208 38.9556 156.161 32.9509 160.759L114.242 160.734C116.403 155.975 118.57 151.234 120.741 146.511H49.7716Z" fill="#B46B6B" stroke="#263238" stroke-miterlimit="10" stroke-linecap="round"/>
<path d="M75.5881 104.444C75.5881 104.444 69.9354 104.724 67.9323 105.739C65.9292 106.753 65.5542 112.749 65.5542 112.749L57.7795 126.556C57.7795 126.556 43.2271 129.756 41.4664 129.995C39.7057 130.234 38.4983 129.801 36.9251 130.193C35.3518 130.585 35.2741 130.803 34.0988 131.979C32.9234 133.154 32.3975 134.284 32.8548 134.502C33.3121 134.721 34.4143 133.834 34.7482 133.5C35.1484 133.162 35.5748 132.849 36.0241 132.564C36.0241 132.564 35.1781 135.018 34.803 136.185C34.0164 138.63 33.4676 134.251 32.7816 134.729C31.867 135.348 32.5118 138.94 34.7939 138.515C37.076 138.09 38.201 138.14 39.1157 137.059C40.0304 135.979 42.006 133.327 42.006 133.327C42.006 133.327 50.1557 132.82 54.8114 132.366C59.467 131.913 63.6013 129.966 65.1517 128.618C66.5237 127.418 71.1748 118.506 71.1748 118.506L75.46 108.337C75.46 108.337 76.6033 106.201 75.5881 104.444Z" fill="white" stroke="#263238" stroke-miterlimit="10" stroke-linecap="round"/>
<path d="M35.0957 137.443C34.8451 137.637 34.5808 137.816 34.3046 137.979C33.8852 138.153 33.4373 138.264 32.9783 138.309C31.8121 138.457 31.3913 138.898 31.6749 139.179C31.9584 139.459 32.4661 139.406 33.5408 139.406C34.3452 139.38 35.1231 139.14 35.7772 138.717C36.1167 138.508 36.4242 138.26 36.6918 137.979" fill="white"/>
<path d="M35.0957 137.443C34.8451 137.637 34.5808 137.816 34.3046 137.979C33.8852 138.153 33.4373 138.264 32.9783 138.309C31.8121 138.457 31.3913 138.898 31.6749 139.179C31.9584 139.459 32.4661 139.406 33.5408 139.406C34.3452 139.38 35.1231 139.14 35.7772 138.717C36.1167 138.508 36.4242 138.26 36.6918 137.979" stroke="#263238" stroke-miterlimit="10" stroke-linecap="round"/>
<path d="M36.2665 137.517C36.0448 137.74 35.808 137.951 35.5577 138.148C35.1888 138.398 34.7565 138.561 34.3 138.622C33.7146 138.692 32.8137 139.389 33.1338 139.632C33.4539 139.876 33.9524 139.769 35.018 139.632C35.8121 139.514 36.5492 139.185 37.1355 138.688C37.4377 138.445 37.7036 138.168 37.9266 137.863" fill="white"/>
<path d="M36.2665 137.517C36.0448 137.74 35.808 137.951 35.5577 138.148C35.1888 138.398 34.7565 138.561 34.3 138.622C33.7146 138.692 32.8137 139.389 33.1338 139.632C33.4539 139.876 33.9524 139.769 35.018 139.632C35.8121 139.514 36.5492 139.185 37.1355 138.688C37.4377 138.445 37.7036 138.168 37.9266 137.863" stroke="#263238" stroke-miterlimit="10" stroke-linecap="round"/>
<path d="M39.724 131.608C39.724 131.608 38.7407 131.805 38.0684 133.195C37.3961 134.585 37.8489 137.245 37.4144 137.418C36.9646 137.55 36.4766 137.53 36.0424 137.36C35.5211 137.228 34.6704 137.125 34.8808 137.686C35.3061 138.923 37.6568 138.441 37.6568 138.441C37.6568 138.441 38.0135 138.395 38.8962 137.265C39.7789 136.135 41.75 133.554 41.75 133.554" fill="white"/>
<path d="M39.724 131.608C39.724 131.608 38.7407 131.805 38.0684 133.195C37.3961 134.585 37.8489 137.245 37.4144 137.418C36.9646 137.55 36.4766 137.53 36.0424 137.36C35.5211 137.228 34.6704 137.125 34.8808 137.686C35.3061 138.923 37.6568 138.441 37.6568 138.441C37.6568 138.441 38.0135 138.395 38.8962 137.265C39.7789 136.135 41.75 133.554 41.75 133.554" stroke="#263238" stroke-miterlimit="10" stroke-linecap="round"/>
<path d="M70.7083 117.958L69.0619 113.158" stroke="#263238" stroke-miterlimit="10" stroke-linecap="round"/>
<path d="M90.6618 104.444C90.6618 104.444 96.3098 104.724 98.313 105.739C100.316 106.753 100.691 112.749 100.691 112.749L108.466 126.556C108.466 126.556 123.023 129.756 124.783 129.995C126.544 130.234 127.752 129.801 129.325 130.193C130.898 130.585 130.976 130.803 132.151 131.979C133.326 133.154 133.848 134.284 133.395 134.502C132.942 134.721 131.836 133.834 131.497 133.5C131.098 133.161 130.671 132.848 130.221 132.564C130.221 132.564 131.067 135.018 131.442 136.185C132.229 138.63 132.778 134.251 133.468 134.729C134.383 135.348 133.733 138.94 131.456 138.515C129.178 138.09 128.053 138.148 127.139 137.047C126.224 135.946 124.244 133.315 124.244 133.315C124.244 133.315 116.099 132.808 111.438 132.354C106.778 131.9 102.648 129.954 101.103 128.605C99.7307 127.405 95.075 118.494 95.075 118.494L90.8218 108.337C90.8218 108.337 89.6374 106.201 90.6618 104.444Z" fill="white" stroke="#263238" stroke-miterlimit="10" stroke-linecap="round"/>
<path d="M131.149 137.443C131.401 137.636 131.665 137.815 131.941 137.979C132.361 138.153 132.811 138.265 133.272 138.309C134.438 138.457 134.854 138.898 134.57 139.179C134.287 139.459 133.779 139.406 132.704 139.406C131.901 139.38 131.125 139.14 130.473 138.717C130.133 138.509 129.825 138.261 129.558 137.979" fill="white"/>
<path d="M131.149 137.443C131.401 137.636 131.665 137.815 131.941 137.979C132.361 138.153 132.811 138.265 133.272 138.309C134.438 138.457 134.854 138.898 134.57 139.179C134.287 139.459 133.779 139.406 132.704 139.406C131.901 139.38 131.125 139.14 130.473 138.717C130.133 138.509 129.825 138.261 129.558 137.979" stroke="#263238" stroke-miterlimit="10" stroke-linecap="round"/>
<path d="M129.983 137.517C130.203 137.738 130.439 137.946 130.687 138.14C131.06 138.393 131.497 138.559 131.959 138.622C132.549 138.692 133.445 139.389 133.125 139.632C132.805 139.876 132.306 139.769 131.241 139.632C130.448 139.515 129.712 139.186 129.128 138.688C128.826 138.445 128.56 138.168 128.337 137.863" fill="white"/>
<path d="M129.983 137.517C130.203 137.738 130.439 137.946 130.687 138.14C131.06 138.393 131.497 138.559 131.959 138.622C132.549 138.692 133.445 139.389 133.125 139.632C132.805 139.876 132.306 139.769 131.241 139.632C130.448 139.515 129.712 139.186 129.128 138.688C128.826 138.445 128.56 138.168 128.337 137.863" stroke="#263238" stroke-miterlimit="10" stroke-linecap="round"/>
<path d="M126.526 131.608C126.526 131.608 127.504 131.805 128.181 133.195C128.858 134.585 128.396 137.245 128.831 137.418C129.281 137.55 129.769 137.53 130.203 137.36C130.724 137.228 131.575 137.125 131.369 137.686C130.944 138.923 128.588 138.441 128.588 138.441C128.588 138.441 128.236 138.395 127.354 137.265C126.471 136.135 124.5 133.554 124.5 133.554" fill="white"/>
<path d="M126.526 131.608C126.526 131.608 127.504 131.805 128.181 133.195C128.858 134.585 128.396 137.245 128.831 137.418C129.281 137.55 129.769 137.53 130.203 137.36C130.724 137.228 131.575 137.125 131.369 137.686C130.944 138.923 128.588 138.441 128.588 138.441C128.588 138.441 128.236 138.395 127.354 137.265C126.471 136.135 124.5 133.554 124.5 133.554" stroke="#263238" stroke-miterlimit="10" stroke-linecap="round"/>
<path d="M95.5415 117.958L97.1833 113.158" stroke="#263238" stroke-miterlimit="10" stroke-linecap="round"/>
<path d="M80.7239 97.5737C80.7239 97.5737 80.4678 100.201 79.2696 101.974C78.0714 103.747 75.588 104.448 75.588 104.448L70.7083 117.941L73.2739 127.051C73.2739 127.051 68.7372 133.307 66.9399 137.088C65.1425 140.87 67.3012 145.154 69.1854 146.928C71.0696 148.701 73.5666 151.105 79.9556 150.882C88.8416 150.565 95.1573 151.295 97.9837 148.284C100.81 145.274 101.112 139.591 97.7321 135.302C95.6787 132.692 92.8844 127.055 92.8844 127.055L95.665 117.661L91.4164 104.411C91.4164 104.411 88.8599 104.279 87.3004 102.58C85.7408 100.881 86.1021 97.7922 86.1021 97.7922L80.7239 97.5737Z" fill="white" stroke="#263238" stroke-miterlimit="10" stroke-linecap="round"/>
<path d="M83.5868 101.157C84.5301 101.157 85.4635 100.985 86.3308 100.65C86.1072 99.7159 86.0348 98.7575 86.1158 97.8046L80.7193 97.5737C80.6077 98.5034 80.3932 99.4207 80.079 100.312C81.1455 100.867 82.3554 101.158 83.5868 101.157Z" fill="#263238"/>
<path d="M84.9588 78.0144C87.4972 78.0144 89.555 76.3749 89.555 74.3524C89.555 72.33 87.4972 70.6905 84.9588 70.6905C82.4204 70.6905 80.3626 72.33 80.3626 74.3524C80.3626 76.3749 82.4204 78.0144 84.9588 78.0144Z" fill="#263238" stroke="#263238" stroke-miterlimit="10" stroke-linecap="round"/>
<path d="M76.5439 89.9569C76.5439 89.9569 74.9753 88.7982 74.9753 90.9838C74.9618 91.5985 75.1254 92.2058 75.45 92.7464C75.7747 93.2871 76.2493 93.7426 76.8275 94.0684L76.5439 89.9569Z" fill="white" stroke="#263238" stroke-miterlimit="10" stroke-linecap="round"/>
<path d="M90.3645 89.9569C90.3645 89.9569 91.9331 88.7982 91.9331 90.9838C91.9466 91.5985 91.783 92.2058 91.4584 92.7464C91.1337 93.2871 90.6591 93.7426 90.0809 94.0684L90.3645 89.9569Z" fill="white" stroke="#263238" stroke-miterlimit="10" stroke-linecap="round"/>
<path d="M84.5426 77.0453C84.5426 77.0453 77.9753 76.6123 75.8258 78.8763C73.6764 81.1402 76.6993 91.0085 76.6993 91.0085H90.7486C90.7486 91.0085 92.4225 84.7939 92.4225 81.7836C92.4225 78.7732 91.3477 77.1525 84.5426 77.0453Z" fill="#263238" stroke="#263238" stroke-miterlimit="10" stroke-linecap="round"/>
<path d="M83.5868 99.417C82.6815 99.417 81.7852 99.2561 80.949 98.9434C80.1127 98.6308 79.3531 98.1726 78.7134 97.5951C78.0737 97.0175 77.5666 96.3319 77.221 95.5774C76.8754 94.823 76.6981 94.0145 76.6993 93.1983V83.6681C76.6993 82.3897 78.0713 82.1052 80.358 81.0289L82.0273 80.167L87.8994 81.3547C89.6693 81.767 90.4651 82.3897 90.4651 83.6681V93.1983C90.4669 94.014 90.2903 94.822 89.9455 95.5762C89.6007 96.3303 89.0944 97.0158 88.4556 97.5934C87.8168 98.1709 87.0579 98.6293 86.2225 98.9422C85.3871 99.2551 84.4914 99.4164 83.5868 99.417Z" fill="white" stroke="#263238" stroke-miterlimit="10" stroke-linecap="round"/>
<path d="M90.3827 90.5054C90.3827 90.5054 85.2149 89.759 83.8657 89.6271C82.5166 89.4951 76.8228 90.6374 76.8228 90.6374L76.6993 91.0085V93.1983C76.6756 94.0271 76.8362 94.8517 77.1715 95.6236C77.5069 96.3956 78.0103 97.0991 78.652 97.6928C79.2936 98.2866 80.0607 98.7584 80.9078 99.0806C81.755 99.4028 82.6651 99.5688 83.5845 99.5688C84.5039 99.5688 85.414 99.4028 86.2611 99.0806C87.1082 98.7584 87.8753 98.2866 88.517 97.6928C89.1587 97.0991 89.662 96.3956 89.9974 95.6236C90.3327 94.8517 90.4933 94.0271 90.4696 93.1983V90.6003L90.3827 90.5054Z" fill="#B46B6B" stroke="#263238" stroke-miterlimit="10" stroke-linecap="round"/>
<path d="M78.4692 88.9796C78.9433 89.2646 79.5002 89.4166 80.0699 89.4166C80.6396 89.4166 81.1966 89.2646 81.6706 88.9796" stroke="#263238" stroke-miterlimit="10" stroke-linecap="round"/>
<path d="M85.599 88.9796C86.0726 89.2656 86.6297 89.4183 87.1997 89.4183C87.7696 89.4183 88.3268 89.2656 88.8003 88.9796" stroke="#263238" stroke-miterlimit="10" stroke-linecap="round"/>
<path d="M78.1674 87.1363C78.1674 87.1363 78.9998 85.8373 81.5791 86.0394" stroke="#263238" stroke-width="2" stroke-miterlimit="10" stroke-linecap="round"/>
<path d="M85.064 86.0393C85.759 85.7737 86.5358 85.7381 87.2572 85.9388C87.9785 86.1395 88.598 86.5637 89.0062 87.1363" stroke="#263238" stroke-width="2" stroke-miterlimit="10" stroke-linecap="round"/>
<path d="M66.9399 137.105C65.1425 140.886 67.3012 145.171 69.1854 146.944C71.0696 148.717 73.5666 151.121 79.9556 150.899C88.8416 150.581 95.1573 151.311 97.9837 148.301C100.81 145.29 101.112 139.608 97.7321 135.319C96.9668 134.303 96.269 133.247 95.6421 132.156H69.8073C68.7492 133.756 67.7919 135.408 66.9399 137.105Z" fill="#787878" stroke="#263238" stroke-miterlimit="10" stroke-linecap="round"/>
<path d="M75.588 104.444C75.588 104.444 77.7375 107.986 83.4587 107.986C89.3492 107.986 90.6617 104.448 90.6617 104.444C90.8447 103.945 94.9104 104.337 95.5003 104.419C96.9043 104.613 99.0447 104.885 99.9044 106.069C100.476 106.84 102.763 111.224 102.763 111.224L95.665 117.69C95.665 117.69 93.7533 125.409 93.8951 126.568C94.0369 127.727 98.3266 135.839 98.3266 135.839H67.4429L72.0163 126.552L71.1885 118.494L63.4367 112.37C63.4367 112.37 65.0099 106.955 66.2996 106.184C67.5893 105.413 73.1733 103.743 75.588 104.444Z" fill="#B46B6B" stroke="#263238" stroke-miterlimit="10" stroke-linecap="round"/>
<path d="M74.8198 122.646C75.3914 121.376 76.0729 119.698 76.8275 117.541L74.8198 122.646Z" fill="#B46B6B"/>
<path d="M74.8198 122.646C75.3914 121.376 76.0729 119.698 76.8275 117.541" stroke="#263238" stroke-miterlimit="10" stroke-linecap="round"/>
<path d="M73.0132 126.049C73.506 125.317 73.9357 124.551 74.2984 123.76L73.0132 126.049Z" fill="#B46B6B"/>
<path d="M73.0132 126.049C73.506 125.317 73.9357 124.551 74.2984 123.76" stroke="#263238" stroke-miterlimit="10" stroke-linecap="round"/>
<path d="M88.4756 118.081C88.4756 118.081 90.6846 123.512 92.2898 125.504L88.4756 118.081Z" fill="#B46B6B"/>
<path d="M88.4756 118.081C88.4756 118.081 90.6846 123.512 92.2898 125.504" stroke="#263238" stroke-miterlimit="10" stroke-linecap="round"/>
<path d="M69.6922 111.335L69.3958 109.933" stroke="#263238" stroke-miterlimit="10" stroke-linecap="round"/>
<path d="M71.1885 118.494L69.9857 112.753" stroke="#263238" stroke-miterlimit="10" stroke-linecap="round"/>
<path d="M95.665 117.673L97.1102 109.933" stroke="#263238" stroke-miterlimit="10" stroke-linecap="round"/>
<path d="M93.2502 130.193C93.5201 130.577 93.8036 130.948 94.0963 131.298L93.2502 130.193Z" fill="#B46B6B"/>
<path d="M93.2502 130.193C93.5201 130.577 93.8036 130.948 94.0963 131.298" stroke="#263238" stroke-miterlimit="10" stroke-linecap="round"/>
<path d="M89.2761 122.246C90.1402 124.717 91.2834 127.1 92.6878 129.36L89.2761 122.246Z" fill="#B46B6B"/>
<path d="M89.2761 122.246C90.1402 124.717 91.2834 127.1 92.6878 129.36" stroke="#263238" stroke-miterlimit="10" stroke-linecap="round"/>
<path d="M77.8336 117.36C77.8336 117.36 76.2237 122.065 75.6246 123.512L77.8336 117.36Z" fill="#B46B6B"/>
<path d="M77.8336 117.36C77.8336 117.36 76.2237 122.065 75.6246 123.512" stroke="#263238" stroke-miterlimit="10" stroke-linecap="round"/>
<path d="M80.948 144.746C76.4387 140.532 68.257 138.424 64.2507 137.822C60.2445 137.22 52.9089 133.612 52.9089 133.612C52.9089 133.612 48.5688 133.48 48.9026 138.148C49.2365 142.816 61.7583 148.235 66.5968 150.643C68.7765 151.747 71.2179 152.364 73.7164 152.442C76.2149 152.521 78.6978 152.058 80.9571 151.093" fill="#787878"/>
<path d="M80.948 144.746C76.4387 140.532 68.257 138.424 64.2507 137.822C60.2445 137.22 52.9089 133.612 52.9089 133.612C52.9089 133.612 48.5688 133.48 48.9026 138.148C49.2365 142.816 61.7583 148.235 66.5968 150.643C68.7765 151.747 71.2179 152.364 73.7164 152.442C76.2149 152.521 78.6978 152.058 80.9571 151.093" stroke="#263238" stroke-miterlimit="10" stroke-linecap="round"/>
<path d="M83.7743 144.915C88.2836 140.701 96.4607 138.593 100.467 137.991C104.473 137.389 110.711 134.309 110.711 134.309C110.711 134.309 116.163 133.612 115.829 138.292C115.495 142.973 102.973 148.375 98.13 150.783C95.9515 151.888 93.5111 152.506 91.0133 152.585C88.5156 152.663 86.0332 152.201 83.7743 151.237" fill="#787878"/>
<path d="M83.7743 144.915C88.2836 140.701 96.4607 138.593 100.467 137.991C104.473 137.389 110.711 134.309 110.711 134.309C110.711 134.309 116.163 133.612 115.829 138.292C115.495 142.973 102.973 148.375 98.13 150.783C95.9515 151.888 93.5111 152.506 91.0133 152.585C88.5156 152.663 86.0332 152.201 83.7743 151.237" stroke="#263238" stroke-miterlimit="10" stroke-linecap="round"/>
<path d="M102.36 148.717C102.36 148.717 102.818 148.189 102.209 147.393C101.601 146.598 100.284 147.761 99.2047 148.078C98.1254 148.396 93.8859 149.245 91.8599 149.641C90.1312 149.979 87.4467 149.996 86.6509 150.115C86.9429 151.228 86.8666 152.394 86.4314 153.468C86.0427 153.488 87.2363 153.439 86.8339 153.468C90.3553 153.328 92.3722 153.295 93.4606 153.192C95.45 152.998 98.0339 153.81 100.042 153.121C102.049 152.433 103.485 150.647 103.197 149.851C103.061 149.402 102.767 149.004 102.36 148.717Z" fill="white" stroke="#263238" stroke-miterlimit="10" stroke-linecap="round"/>
<path d="M86.532 150.132H86.6415" stroke="#263238" stroke-miterlimit="10" stroke-linecap="round"/>
<path d="M86.436 150.148H86.4852" stroke="#263238" stroke-miterlimit="10" stroke-linecap="round"/>
<path d="M102.36 148.717C101.822 148.975 101.239 149.149 100.636 149.233" stroke="#263238" stroke-miterlimit="10" stroke-linecap="round"/>
<path d="M103.197 149.839C102.456 150.119 101.691 150.347 100.911 150.519" stroke="#263238" stroke-miterlimit="10" stroke-linecap="round"/>
<path d="M100.819 151.41C101.451 151.52 102.105 151.43 102.671 151.154" stroke="#263238" stroke-miterlimit="10" stroke-linecap="round"/>
<path d="M100.261 152.21C100.846 152.282 101.441 152.196 101.972 151.963" stroke="#263238" stroke-miterlimit="10" stroke-linecap="round"/>
<path d="M86.436 153.468C86.8712 152.394 86.9475 151.228 86.6555 150.115L86.4406 150.148C86.4406 150.148 78.6659 148.66 72.0803 145.035C65.4947 141.41 57.1346 135.834 52.9089 133.612C48.6831 131.389 44.6769 134.729 45.0793 138.259C45.4818 141.789 48.6831 143.649 54.4547 145.785C60.2262 147.921 70.7403 151.27 76.3015 152.288C79.1735 152.808 83.2347 153.612 86.436 153.468Z" fill="#787878" stroke="#263238" stroke-miterlimit="10" stroke-linecap="round"/>
<path d="M74.8883 153.266C74.4192 152.198 74.3219 151.028 74.6093 149.909L74.8334 149.942C74.8334 149.942 82.8413 148.424 89.6876 144.804C96.5339 141.183 107.386 135.731 111.772 133.492C112.628 133.02 113.613 132.773 114.616 132.78C115.619 132.788 116.6 133.049 117.446 133.534C118.293 134.019 118.972 134.709 119.405 135.524C119.839 136.34 120.01 137.249 119.899 138.148C119.469 141.682 116.153 143.538 110.167 145.674C104.18 147.81 91.0779 151.035 85.3018 152.062C82.3199 152.581 78.2039 153.406 74.8883 153.266Z" fill="#787878" stroke="#263238" stroke-miterlimit="10" stroke-linecap="round"/>
<path d="M74.6094 149.909C74.6094 149.909 66.9216 149.043 64.484 148.457C62.0464 147.872 60.432 146.47 59.6363 146.857C58.8405 147.245 59.4991 148.218 59.4991 148.218C59.4991 148.218 58.9594 149.422 59.4991 150.214C60.0387 151.006 60.8208 151.765 63.5328 153.043C66.2447 154.322 69.4507 153.831 71.1474 153.765C72.407 153.687 73.6587 153.527 74.8929 153.286C74.8929 153.286 74.2344 152.099 74.6094 149.909Z" fill="white" stroke="#263238" stroke-miterlimit="10" stroke-linecap="round"/>
<path d="M59.5082 148.198C59.7089 148.126 59.9284 148.109 60.1396 148.149C60.3509 148.188 60.5447 148.283 60.6972 148.42C61.0538 148.731 61.4815 148.968 61.9503 149.113" stroke="#263238" stroke-miterlimit="10" stroke-linecap="round"/>
<path d="M59.275 149.645C59.4378 149.564 59.62 149.518 59.8062 149.513C59.9923 149.508 60.1772 149.544 60.3451 149.616C60.7276 149.791 61.1333 149.922 61.5525 150.004" stroke="#263238" stroke-miterlimit="10" stroke-linecap="round"/>
<path d="M60.304 151.06C60.304 151.06 60.5418 150.713 60.8208 150.763C61.0997 150.812 62.2385 151.175 62.5495 151.204" stroke="#263238" stroke-miterlimit="10" stroke-linecap="round"/>
<path d="M61.7857 152.095C61.9635 151.951 62.1884 151.865 62.426 151.847C62.7559 151.869 63.0842 151.908 63.4093 151.963" stroke="#263238" stroke-miterlimit="10" stroke-linecap="round"/>
<path d="M120.489 169.687C117.923 176.347 115.285 183.032 112.349 189.766L230.436 189.745C227.775 183.048 225.107 176.362 222.433 169.687H120.489Z" fill="#B46B6B" stroke="#263238" stroke-miterlimit="10" stroke-linecap="round"/>
<path d="M162.879 122.329C162.879 122.329 155.832 122.675 153.33 123.941C150.829 125.207 150.362 132.671 150.362 132.671L140.667 149.892C140.667 149.892 122.51 153.884 120.315 154.185C118.12 154.486 116.615 153.942 114.649 154.429C112.682 154.915 112.591 155.192 111.123 156.656C109.655 158.119 109.005 159.542 109.573 159.806C110.14 160.07 111.516 158.981 111.937 158.569C112.435 158.144 112.967 157.753 113.528 157.398C113.528 157.398 112.477 160.458 112.006 161.934C111.027 164.986 110.341 159.526 109.481 160.12C108.365 160.895 109.147 165.373 111.992 164.845C114.836 164.318 116.24 164.375 117.384 163.027C118.527 161.678 120.992 158.355 120.992 158.355C120.992 158.355 131.154 157.719 136.999 157.155C142.844 156.59 147.975 154.161 149.896 152.478C151.611 150.981 157.41 139.867 157.41 139.867L162.719 127.191C162.719 127.191 164.146 124.539 162.879 122.329Z" fill="#787878" stroke="#263238" stroke-miterlimit="10" stroke-linecap="round"/>
<path d="M112.371 163.489C112.058 163.73 111.728 163.953 111.384 164.157C110.861 164.376 110.301 164.516 109.728 164.569C108.274 164.755 107.752 165.303 108.104 165.654C108.457 166.004 109.092 165.938 110.432 165.938C111.434 165.904 112.402 165.606 113.217 165.081C113.636 164.818 114.016 164.507 114.347 164.157" fill="#787878"/>
<path d="M112.371 163.489C112.058 163.73 111.728 163.953 111.384 164.157C110.861 164.376 110.301 164.516 109.728 164.569C108.274 164.755 107.752 165.303 108.104 165.654C108.457 166.004 109.092 165.938 110.432 165.938C111.434 165.904 112.402 165.606 113.217 165.081C113.636 164.818 114.016 164.507 114.347 164.157" stroke="#263238" stroke-miterlimit="10" stroke-linecap="round"/>
<path d="M113.83 163.579C113.555 163.856 113.26 164.117 112.948 164.359C112.482 164.673 111.936 164.878 111.361 164.953C110.629 165.039 109.508 165.905 109.906 166.215C110.304 166.524 110.926 166.384 112.257 166.215C113.246 166.066 114.164 165.657 114.896 165.039C115.274 164.73 115.606 164.378 115.884 163.992" fill="#787878"/>
<path d="M113.83 163.579C113.555 163.856 113.26 164.117 112.948 164.359C112.482 164.673 111.936 164.878 111.361 164.953C110.629 165.039 109.508 165.905 109.906 166.215C110.304 166.524 110.926 166.384 112.257 166.215C113.246 166.066 114.164 165.657 114.896 165.039C115.274 164.73 115.606 164.378 115.884 163.992" stroke="#263238" stroke-miterlimit="10" stroke-linecap="round"/>
<path d="M118.143 156.206C118.143 156.206 116.917 156.458 116.076 158.19C115.234 159.922 115.806 163.241 115.262 163.46C114.718 163.678 114.201 163.546 113.551 163.386C112.902 163.225 111.859 163.093 112.102 163.798C112.632 165.332 115.564 164.738 115.564 164.738C115.564 164.738 116.021 164.68 117.109 163.278C118.198 161.876 120.667 158.643 120.667 158.643" fill="#787878"/>
<path d="M118.143 156.206C118.143 156.206 116.917 156.458 116.076 158.19C115.234 159.922 115.806 163.241 115.262 163.46C114.718 163.678 114.201 163.546 113.551 163.386C112.902 163.225 111.859 163.093 112.102 163.798C112.632 165.332 115.564 164.738 115.564 164.738C115.564 164.738 116.021 164.68 117.109 163.278C118.198 161.876 120.667 158.643 120.667 158.643" stroke="#263238" stroke-miterlimit="10" stroke-linecap="round"/>
<path d="M156.788 139.183L154.739 133.195" stroke="#263238" stroke-miterlimit="10" stroke-linecap="round"/>
<path d="M181.68 122.329C181.68 122.329 188.728 122.675 191.225 123.941C193.722 125.207 194.193 132.671 194.193 132.671L203.888 149.892C203.888 149.892 222.044 153.884 224.24 154.185C226.435 154.486 227.944 153.942 229.906 154.429C231.868 154.915 231.969 155.192 233.432 156.656C234.896 158.119 235.554 159.542 234.982 159.806C234.411 160.07 233.039 158.981 232.618 158.569C232.121 158.143 231.589 157.751 231.026 157.398C231.026 157.398 232.083 160.458 232.549 161.934C233.533 164.986 234.219 159.526 235.074 160.12C236.19 160.895 235.408 165.373 232.563 164.845C229.719 164.318 228.314 164.375 227.176 163.027C226.037 161.678 223.563 158.375 223.563 158.375C223.563 158.375 213.405 157.74 207.556 157.175C201.707 156.61 196.58 154.181 194.659 152.499C192.944 151.002 187.145 139.888 187.145 139.888L181.854 127.179C181.854 127.179 180.409 124.539 181.68 122.329Z" fill="#787878" stroke="#263238" stroke-miterlimit="10" stroke-linecap="round"/>
<path d="M232.188 163.489C232.499 163.731 232.828 163.954 233.171 164.157C233.696 164.376 234.257 164.515 234.832 164.569C236.286 164.755 236.807 165.303 236.455 165.654C236.103 166.004 235.467 165.938 234.127 165.938C233.124 165.904 232.155 165.606 231.338 165.081C230.921 164.817 230.543 164.506 230.213 164.157" fill="#787878"/>
<path d="M232.188 163.489C232.499 163.731 232.828 163.954 233.171 164.157C233.696 164.376 234.257 164.515 234.832 164.569C236.286 164.755 236.807 165.303 236.455 165.654C236.103 166.004 235.467 165.938 234.127 165.938C233.124 165.904 232.155 165.606 231.338 165.081C230.921 164.817 230.543 164.506 230.213 164.157" stroke="#263238" stroke-miterlimit="10" stroke-linecap="round"/>
<path d="M230.725 163.579C231.002 163.856 231.298 164.116 231.612 164.359C232.076 164.674 232.62 164.878 233.194 164.953C233.931 165.039 235.051 165.905 234.649 166.215C234.246 166.524 233.629 166.384 232.298 166.215C231.31 166.065 230.392 165.656 229.659 165.039C229.281 164.73 228.949 164.378 228.671 163.992" fill="#787878"/>
<path d="M230.725 163.579C231.002 163.856 231.298 164.116 231.612 164.359C232.076 164.674 232.62 164.878 233.194 164.953C233.931 165.039 235.051 165.905 234.649 166.215C234.246 166.524 233.629 166.384 232.298 166.215C231.31 166.065 230.392 165.656 229.659 165.039C229.281 164.73 228.949 164.378 228.671 163.992" stroke="#263238" stroke-miterlimit="10" stroke-linecap="round"/>
<path d="M226.412 156.206C226.412 156.206 227.638 156.458 228.479 158.19C229.321 159.922 228.749 163.241 229.293 163.46C229.838 163.678 230.354 163.546 231.004 163.386C231.653 163.225 232.696 163.093 232.458 163.798C231.928 165.332 228.991 164.738 228.991 164.738C228.991 164.738 228.534 164.68 227.45 163.278C226.366 161.876 223.888 158.643 223.888 158.643" fill="#787878"/>
<path d="M226.412 156.206C226.412 156.206 227.638 156.458 228.479 158.19C229.321 159.922 228.749 163.241 229.293 163.46C229.838 163.678 230.354 163.546 231.004 163.386C231.653 163.225 232.696 163.093 232.458 163.798C231.928 165.332 228.991 164.738 228.991 164.738C228.991 164.738 228.534 164.68 227.45 163.278C226.366 161.876 223.888 158.643 223.888 158.643" stroke="#263238" stroke-miterlimit="10" stroke-linecap="round"/>
<path d="M187.767 139.183L189.816 133.195" stroke="#263238" stroke-miterlimit="10" stroke-linecap="round"/>
<path d="M196.242 101.966C196.402 102.378 195.515 103.087 195.606 103.516C195.697 103.945 196.823 104.176 196.873 104.613C196.923 105.05 195.862 105.673 195.839 106.122C195.816 106.572 196.859 106.947 196.781 107.392C196.704 107.838 195.492 108.353 195.341 108.807C195.19 109.261 196.105 109.768 195.894 110.226C195.684 110.683 194.357 111.05 194.065 111.487C193.772 111.925 194.522 112.56 194.175 113.001C193.827 113.442 192.428 113.636 192.011 114.052C191.595 114.469 192.112 115.195 191.636 115.599C191.161 116.003 189.743 116.011 189.203 116.378C188.664 116.745 188.929 117.549 188.33 117.892C187.731 118.234 186.368 118.053 185.723 118.349C185.078 118.646 185.055 119.488 184.351 119.752C183.647 120.015 182.398 119.644 181.671 119.851C180.944 120.057 180.633 120.894 179.842 121.059C179.051 121.224 178.012 120.684 177.212 120.791C176.412 120.898 175.84 121.677 175.026 121.731C174.212 121.785 173.366 121.108 172.566 121.108C171.765 121.108 170.901 121.789 170.105 121.731C169.309 121.673 168.687 120.906 167.919 120.791C167.151 120.675 166.049 121.203 165.285 121.059C164.521 120.914 164.201 120.061 163.456 119.851C162.71 119.64 161.471 120.011 160.776 119.752C160.08 119.492 160.058 118.646 159.404 118.349C158.75 118.053 157.391 118.238 156.797 117.892C156.202 117.545 156.458 116.745 155.919 116.378C155.379 116.011 153.97 116.003 153.49 115.599C153.01 115.195 153.531 114.469 153.115 114.048C152.699 113.628 151.286 113.446 150.952 113.001C150.618 112.555 151.345 111.937 151.057 111.487C150.769 111.038 149.447 110.687 149.228 110.226C149.008 109.764 149.932 109.273 149.781 108.807C149.63 108.341 148.409 107.858 148.341 107.392C148.272 106.926 149.31 106.568 149.283 106.122C149.255 105.677 148.199 105.062 148.249 104.613C148.299 104.164 149.42 103.953 149.516 103.516C149.612 103.079 148.72 102.39 148.88 101.966C149.04 101.541 150.197 101.458 150.394 101.054C150.591 100.65 149.882 99.8871 150.133 99.5077C150.385 99.1283 151.537 99.1572 151.821 98.7861C152.104 98.4149 151.583 97.6149 151.912 97.2726C152.242 96.9303 153.348 97.0788 153.701 96.7489C154.053 96.419 153.701 95.5942 154.103 95.2932C154.505 94.9921 155.534 95.2437 155.932 94.955C156.33 94.6664 156.161 93.8333 156.591 93.5777C157.021 93.322 157.963 93.6601 158.42 93.4168C158.878 93.1735 158.836 92.3405 159.294 92.1261C159.751 91.9116 160.625 92.3405 161.091 92.1261C161.558 91.9116 161.667 91.1034 162.138 90.9343C162.609 90.7652 163.391 91.2683 163.876 91.1199C164.361 90.9714 164.581 90.1632 165.065 90.0436C165.55 89.924 166.232 90.4972 166.725 90.3941C167.219 90.291 167.544 89.5157 168.029 89.4415C168.514 89.3673 169.113 90.0106 169.611 89.9611C170.11 89.9116 170.526 89.1693 171.015 89.1363C171.505 89.1033 172.008 89.8085 172.511 89.8085C173.014 89.8085 173.526 89.1116 174.006 89.1363C174.486 89.1611 174.921 89.9033 175.41 89.9611C175.9 90.0188 176.512 89.3714 176.993 89.4415C177.473 89.5116 177.807 90.2951 178.296 90.3941C178.785 90.4931 179.48 89.9198 179.956 90.0436C180.432 90.1673 180.665 90.9714 181.145 91.1199C181.625 91.2683 182.417 90.7652 182.883 90.9343C183.349 91.1034 183.464 91.9323 183.93 92.1261C184.397 92.3199 185.275 91.8993 185.728 92.1261C186.18 92.3529 186.162 93.1777 186.601 93.421C187.04 93.6643 188.01 93.322 188.43 93.5777C188.851 93.8333 188.687 94.6705 189.094 94.955C189.501 95.2396 190.543 94.9963 190.923 95.2932C191.303 95.5901 190.973 96.4231 191.325 96.7489C191.678 97.0747 192.789 96.9345 193.114 97.2726C193.438 97.6108 192.926 98.419 193.205 98.7902C193.484 99.1613 194.636 99.1242 194.893 99.5077C195.149 99.8912 194.435 100.646 194.632 101.054C194.829 101.462 196.082 101.549 196.242 101.966Z" fill="#263238"/>
<path d="M169.287 113.76C169.287 113.76 168.966 117.034 167.457 119.248C165.948 121.463 162.884 122.329 162.884 122.329L156.792 139.183L159.994 150.548C159.994 150.548 154.332 158.355 152.091 163.064C149.85 167.773 152.548 173.126 154.894 175.341C157.24 177.555 160.359 180.553 168.326 180.289C179.407 179.877 187.287 180.805 190.813 177.048C194.339 173.291 194.719 166.206 190.502 160.854C187.937 157.6 184.452 150.565 184.452 150.565L187.923 138.849L182.622 122.317C182.622 122.317 179.421 122.152 177.509 120.036C175.598 117.921 176.014 114.065 176.014 114.065L169.287 113.76Z" fill="#787878" stroke="#263238" stroke-miterlimit="10" stroke-linecap="round"/>
<path d="M172.872 118.23C174.051 118.229 175.218 118.013 176.302 117.595C176.023 116.431 175.932 115.236 176.032 114.048L169.305 113.76C169.166 114.918 168.898 116.06 168.505 117.17C169.832 117.863 171.338 118.228 172.872 118.23Z" fill="#263238"/>
<path d="M187.923 138.832L182.622 122.3C182.091 122.268 181.564 122.189 181.049 122.065C181.662 125.9 180.926 127.818 180.926 127.818C180.821 128.658 180.495 129.464 179.975 130.168C179.455 130.872 178.755 131.453 177.935 131.863C175.053 133.406 169.607 133.694 166.19 131.191C163.611 129.302 164.068 124.127 164.453 121.706C163.95 121.959 163.424 122.17 162.879 122.337L156.788 139.191L159.989 150.556H184.447L187.923 138.832Z" fill="#B46B6B" stroke="#263238" stroke-miterlimit="10" stroke-linecap="round"/>
<path d="M181.223 105.157H183.752C183.752 105.157 183.331 107.817 182.38 108.869C181.429 109.92 181.118 109.916 181.118 109.916L181.223 105.157Z" fill="#787878" stroke="#263238" stroke-miterlimit="10" stroke-linecap="round"/>
<path d="M164.48 105.157H161.955C161.955 105.157 162.376 107.817 163.327 108.869C164.279 109.92 164.59 109.916 164.59 109.916L164.48 105.157Z" fill="#787878" stroke="#263238" stroke-miterlimit="10" stroke-linecap="round"/>
<path d="M172.872 116.057C170.594 116.057 168.41 115.241 166.799 113.788C165.188 112.336 164.283 110.366 164.283 108.312V96.4107C164.283 95.6451 164.621 94.9109 165.221 94.3695C165.821 93.8282 166.636 93.524 167.485 93.524H178.259C179.108 93.524 179.923 93.8282 180.523 94.3695C181.123 94.9109 181.461 95.6451 181.461 96.4107V108.312C181.461 109.329 181.239 110.336 180.807 111.276C180.375 112.215 179.743 113.069 178.945 113.788C178.148 114.507 177.201 115.078 176.159 115.467C175.117 115.856 174 116.057 172.872 116.057Z" fill="#787878" stroke="#263238" stroke-miterlimit="10" stroke-linecap="round"/>
<path d="M181.333 104.939C181.333 104.939 174.884 104.011 173.201 103.842C171.518 103.673 164.416 105.108 164.416 105.108L164.265 105.57V108.312C164.265 110.366 165.17 112.336 166.781 113.788C168.391 115.241 170.576 116.057 172.854 116.057C175.132 116.057 177.316 115.241 178.927 113.788C180.538 112.336 181.442 110.366 181.442 108.312V105.058L181.333 104.939Z" fill="#B46B6B" stroke="#263238" stroke-miterlimit="10" stroke-linecap="round"/>
<path d="M166.469 103.038C166.469 103.038 168.171 104.234 170.444 103.038" stroke="#263238" stroke-miterlimit="10" stroke-linecap="round"/>
<path d="M175.365 103.038C175.954 103.39 176.645 103.578 177.352 103.578C178.058 103.578 178.75 103.39 179.339 103.038" stroke="#263238" stroke-miterlimit="10" stroke-linecap="round"/>
<path d="M166.094 100.737C166.094 100.737 167.137 99.1159 170.352 99.3716" stroke="#263238" stroke-width="2" stroke-miterlimit="10" stroke-linecap="round"/>
<path d="M174.701 99.384C175.569 99.0564 176.537 99.0135 177.436 99.2629C178.335 99.5124 179.109 100.038 179.622 100.749" stroke="#263238" stroke-width="2" stroke-miterlimit="10" stroke-linecap="round"/>
<path d="M152.091 163.064C149.85 167.786 152.548 173.126 154.894 175.341C157.24 177.555 160.359 180.553 168.326 180.289C179.407 179.877 187.287 180.805 190.813 177.048C194.339 173.291 194.719 166.206 190.502 160.854C189.546 159.588 188.676 158.271 187.895 156.911H155.667C154.349 158.901 153.155 160.955 152.091 163.064Z" fill="white" stroke="#263238" stroke-miterlimit="10" stroke-linecap="round"/>
<path d="M169.575 172.619C163.949 167.361 153.746 164.734 148.752 163.984C143.758 163.233 134.575 158.701 134.575 158.701C134.575 158.701 129.165 158.536 129.581 164.359C129.997 170.182 145.615 176.937 151.652 179.943C154.37 181.32 157.415 182.09 160.531 182.188C163.647 182.285 166.743 181.708 169.561 180.504" fill="white"/>
<path d="M169.575 172.619C163.949 167.361 153.746 164.734 148.752 163.984C143.758 163.233 134.575 158.701 134.575 158.701C134.575 158.701 129.165 158.536 129.581 164.359C129.997 170.182 145.615 176.937 151.652 179.943C154.37 181.32 157.415 182.09 160.531 182.188C163.647 182.285 166.743 181.708 169.561 180.504" stroke="#263238" stroke-miterlimit="10" stroke-linecap="round"/>
<path d="M173.092 172.809C178.712 167.551 188.915 164.92 193.914 164.169C198.913 163.419 206.687 159.592 206.687 159.592C206.687 159.592 213.488 158.742 213.09 164.561C212.692 170.38 197.056 177.143 191.014 180.145C188.298 181.523 185.254 182.293 182.138 182.392C179.023 182.49 175.927 181.913 173.11 180.71" fill="white"/>
<path d="M173.092 172.809C178.712 167.551 188.915 164.92 193.914 164.169C198.913 163.419 206.687 159.592 206.687 159.592C206.687 159.592 213.488 158.742 213.09 164.561C212.692 170.38 197.056 177.143 191.014 180.145C188.298 181.523 185.254 182.293 182.138 182.392C179.023 182.49 175.927 181.913 173.11 180.71" stroke="#263238" stroke-miterlimit="10" stroke-linecap="round"/>
<path d="M196.274 177.551C196.274 177.551 196.85 176.895 196.086 175.901C195.322 174.908 193.685 176.363 192.336 176.755C190.987 177.147 185.7 178.211 183.189 178.71C181.031 179.122 177.701 179.151 176.691 179.299C177.057 180.688 176.963 182.144 176.421 183.485L176.919 183.465C181.31 183.287 183.825 183.25 185.183 183.122C187.667 182.883 190.868 183.893 193.415 183.031C195.963 182.17 197.71 179.947 197.353 178.953C197.167 178.394 196.789 177.903 196.274 177.551Z" fill="#787878" stroke="#263238" stroke-miterlimit="10" stroke-linecap="round"/>
<path d="M176.531 179.316L176.667 179.295" stroke="#263238" stroke-miterlimit="10" stroke-linecap="round"/>
<path d="M176.407 179.337H176.471" stroke="#263238" stroke-miterlimit="10" stroke-linecap="round"/>
<path d="M196.274 177.551C195.602 177.871 194.875 178.089 194.124 178.194" stroke="#263238" stroke-miterlimit="10" stroke-linecap="round"/>
<path d="M197.321 178.949C196.4 179.298 195.451 179.582 194.481 179.798" stroke="#263238" stroke-miterlimit="10" stroke-linecap="round"/>
<path d="M194.367 180.912C195.147 181.043 195.954 180.93 196.653 180.59" stroke="#263238" stroke-miterlimit="10" stroke-linecap="round"/>
<path d="M193.653 181.91C193.772 181.873 194.262 182.128 195.789 181.601" stroke="#263238" stroke-miterlimit="10" stroke-linecap="round"/>
<path d="M176.407 183.481C176.95 182.14 177.043 180.684 176.677 179.295L176.407 179.337C176.407 179.337 166.725 177.477 158.498 172.957C150.271 168.437 139.862 161.48 134.589 158.701C129.316 155.922 124.308 160.091 124.82 164.495C125.332 168.899 129.32 171.217 136.519 173.885C143.717 176.553 156.829 180.722 163.771 181.996C167.347 182.656 172.415 183.654 176.407 183.481Z" fill="white" stroke="#263238" stroke-miterlimit="10" stroke-linecap="round"/>
<path d="M162.006 183.225C161.422 181.894 161.299 180.435 161.654 179.04L161.937 179.077C161.937 179.077 171.93 177.188 180.464 172.668C188.998 168.149 202.544 161.34 208.009 158.557C213.474 155.773 218.683 159.95 218.148 164.355C217.613 168.759 213.479 171.077 206.01 173.741C198.542 176.405 182.197 180.434 174.994 181.708C171.285 182.368 166.154 183.386 162.006 183.225Z" fill="white" stroke="#263238" stroke-miterlimit="10" stroke-linecap="round"/>
<path d="M161.654 179.04C161.654 179.04 152.05 177.959 149.04 177.2C146.031 176.442 143.982 174.726 142.99 175.209C141.997 175.691 142.821 176.904 142.821 176.904C142.821 176.904 142.144 178.405 142.821 179.378C143.498 180.351 144.472 181.316 147.851 182.908C151.231 184.5 155.219 183.922 157.323 183.819C158.893 183.724 160.454 183.526 161.992 183.225C161.992 183.225 161.192 181.77 161.654 179.04Z" fill="#787878" stroke="#263238" stroke-miterlimit="10" stroke-linecap="round"/>
<path d="M142.821 176.912C143.071 176.822 143.344 176.8 143.608 176.849C143.871 176.898 144.113 177.016 144.302 177.188C144.748 177.576 145.281 177.872 145.867 178.054" stroke="#263238" stroke-miterlimit="10" stroke-linecap="round"/>
<path d="M142.533 178.71C142.735 178.609 142.961 178.552 143.193 178.546C143.424 178.539 143.654 178.583 143.863 178.673C144.342 178.89 144.849 179.052 145.373 179.155" stroke="#263238" stroke-miterlimit="10" stroke-linecap="round"/>
<path d="M143.813 180.471C143.813 180.471 144.11 180.058 144.458 180.104C144.805 180.149 146.228 180.607 146.612 180.652" stroke="#263238" stroke-miterlimit="10" stroke-linecap="round"/>
<path d="M145.665 181.765C145.887 181.588 146.166 181.479 146.461 181.456C146.872 181.483 147.281 181.53 147.687 181.596" stroke="#263238" stroke-miterlimit="10" stroke-linecap="round"/>
<path d="M163.209 98.485C163.734 98.5881 163.579 99.1366 164.251 99.0293C164.553 98.984 164.768 98.2293 165.166 98.1592C165.486 98.1056 165.994 98.7366 166.373 98.6623C166.753 98.5881 166.885 97.8376 167.251 97.7592C167.617 97.6809 168.12 98.3036 168.482 98.2211C168.843 98.1386 168.971 97.3963 169.323 97.2932C169.675 97.1901 170.238 97.8046 170.572 97.7056C170.905 97.6066 171.029 96.8437 171.372 96.7489C171.715 96.654 172.287 97.2272 172.639 97.12C172.991 97.0128 173.055 96.2458 173.398 96.1344C173.741 96.0231 174.345 96.5715 174.678 96.4561C175.012 96.3406 175.053 95.5612 175.383 95.4334C175.712 95.3055 176.357 95.8458 176.686 95.6932C177.015 95.5406 177.002 94.7818 177.322 94.6375C177.642 94.4931 178.323 94.9756 178.644 94.8231C178.964 94.6705 178.89 93.8952 179.197 93.7302C179.503 93.5653 180.226 94.0024 180.528 93.8251C180.83 93.6478 180.688 92.8849 180.985 92.6952C181.282 92.5055 182.106 92.8148 182.385 92.6127C182.499 92.4766 181.671 92.3117 181.648 92.0931C181.648 91.9982 182.403 91.8044 182.385 91.6807C182.366 91.557 181.575 91.557 181.557 91.4333C181.538 91.3096 182.298 91.1034 182.275 90.9879C182.252 90.8724 181.461 90.8848 181.438 90.7693C181.415 90.6539 182.16 90.4106 182.133 90.2951C182.106 90.1796 181.314 90.225 181.282 90.1095C181.25 89.9941 181.987 89.7178 181.955 89.6064C181.923 89.4951 181.131 89.5734 181.095 89.458C181.058 89.3425 181.772 89.0456 181.735 88.9219C181.699 88.7982 180.912 88.9219 180.866 88.8229C180.82 88.7239 181.511 88.3569 181.465 88.2497C181.42 88.1425 180.647 88.3115 180.592 88.2084C180.537 88.1054 181.191 87.693 181.136 87.5899C181.081 87.4868 180.327 87.7218 180.262 87.6229C180.198 87.5239 180.798 87.0497 180.72 86.9548C180.642 86.86 179.938 87.1816 179.86 87.0909C179.782 87.0002 180.295 86.4517 180.208 86.3692C180.121 86.2868 179.485 86.7115 179.389 86.6373C179.179 86.4723 179.266 85.7259 178.877 85.5939C178.584 85.495 178.022 86.0806 177.651 86.0063C177.281 85.9321 177.139 85.1816 176.778 85.1403C176.416 85.0991 176.009 85.763 175.653 85.73C175.296 85.697 175.026 84.9754 174.665 84.963C174.303 84.9506 173.96 85.6476 173.608 85.6476C173.256 85.6476 172.909 84.9424 172.556 84.9506C172.204 84.9589 171.907 85.6847 171.555 85.7094C171.203 85.7342 170.796 85.0537 170.448 85.0867C170.101 85.1197 169.858 85.862 169.533 85.9115C169.209 85.961 168.719 85.3094 168.376 85.3671C168.033 85.4249 167.855 86.1919 167.521 86.2538C167.187 86.3156 166.643 85.7218 166.314 85.8084C165.985 85.895 165.884 86.662 165.559 86.7651C165.235 86.8682 164.617 86.3239 164.302 86.4435C163.986 86.563 163.995 87.3383 163.693 87.4827C163.391 87.627 162.687 87.1734 162.399 87.3383C162.111 87.5033 162.276 88.2662 162.01 88.46C161.745 88.6538 160.949 88.3528 160.716 88.5796C160.561 88.7281 161.013 89.3342 160.885 89.491C160.757 89.6477 159.971 89.4209 159.865 89.5899C159.76 89.759 160.346 90.2621 160.263 90.4436C160.181 90.625 159.349 90.5755 159.298 90.7611C159.248 90.9467 159.957 91.3013 159.925 91.4951C159.893 91.6889 159.088 91.8292 159.083 92.023C159.079 92.2168 159.865 92.4065 159.884 92.6044C159.902 92.8024 159.152 93.0911 159.189 93.2849C159.225 93.4787 160.044 93.5199 160.103 93.6973C160.163 93.8746 159.481 94.287 159.554 94.4767C159.628 94.6663 160.442 94.5921 160.529 94.7736C160.615 94.955 159.998 95.4375 160.071 95.5983C160.144 95.7592 160.986 95.6231 161.077 95.7921C161.169 95.9612 160.62 96.5056 160.744 96.6664C160.867 96.8272 161.658 96.6128 161.763 96.7736C161.869 96.9344 161.393 97.52 161.521 97.6726C161.649 97.8252 162.436 97.5613 162.545 97.7015C162.655 97.8417 162.253 98.485 162.376 98.6128C162.655 98.9139 162.884 98.4231 163.209 98.485Z" fill="#263238"/>
</svg>
