<svg width="343" height="343" viewBox="0 0 343 343" fill="none" xmlns="http://www.w3.org/2000/svg">
<path d="M343 262.326H0V262.498H343V262.326Z" fill="#EBEBEB"/>
<path d="M279.284 266.998H228.664V267.17H279.284V266.998Z" fill="#EBEBEB"/>
<path d="M77.0446 268.151H71.0833V268.322H77.0446V268.151Z" fill="#EBEBEB"/>
<path d="M293.135 273.364H279.97V273.536H293.135V273.364Z" fill="#EBEBEB"/>
<path d="M170.588 271.045H137.2V271.217H170.588V271.045Z" fill="#EBEBEB"/>
<path d="M131.095 271.045H114.37V271.217H131.095V271.045Z" fill="#EBEBEB"/>
<path d="M58.7285 268.151H35.9875V268.322H58.7285V268.151Z" fill="#EBEBEB"/>
<path d="M162.582 231.731H30.1224C29.0847 231.729 28.0901 231.316 27.357 230.581C26.6239 229.847 26.2122 228.851 26.2122 227.814V41.6128C26.2212 40.581 26.6369 39.5945 27.3691 38.8675C28.1012 38.1406 29.0906 37.7318 30.1224 37.73H162.582C163.621 37.73 164.617 38.1427 165.352 38.8773C166.086 39.6119 166.499 40.6082 166.499 41.6471V227.814C166.499 228.853 166.086 229.849 165.352 230.584C164.617 231.318 163.621 231.731 162.582 231.731ZM30.1224 37.8672C29.1302 37.869 28.1792 38.2644 27.4783 38.9667C26.7773 39.6689 26.3837 40.6206 26.3837 41.6128V227.814C26.3837 228.806 26.7773 229.758 27.4783 230.46C28.1792 231.162 29.1302 231.557 30.1224 231.559H162.582C163.575 231.557 164.527 231.162 165.229 230.46C165.931 229.758 166.326 228.807 166.328 227.814V41.6128C166.326 40.6199 165.931 39.6683 165.229 38.9663C164.527 38.2642 163.575 37.869 162.582 37.8672H30.1224Z" fill="#EBEBEB"/>
<path d="M310.971 231.731H178.504C177.466 231.729 176.47 231.316 175.736 230.582C175.002 229.847 174.589 228.852 174.587 227.814V41.6128C174.598 40.5804 175.015 39.5939 175.748 38.8671C176.481 38.1403 177.472 37.7318 178.504 37.73H310.971C312.001 37.7336 312.989 38.1432 313.719 38.87C314.45 39.5968 314.865 40.5822 314.874 41.6128V227.814C314.874 228.85 314.463 229.844 313.731 230.579C313 231.313 312.007 231.727 310.971 231.731ZM178.504 37.8672C177.511 37.869 176.559 38.2642 175.857 38.9663C175.155 39.6683 174.76 40.6199 174.758 41.6128V227.814C174.76 228.807 175.155 229.758 175.857 230.46C176.559 231.162 177.511 231.557 178.504 231.559H310.971C311.963 231.557 312.915 231.162 313.617 230.46C314.319 229.758 314.714 228.807 314.716 227.814V41.6128C314.714 40.6199 314.319 39.6683 313.617 38.9663C312.915 38.2642 311.963 37.869 310.971 37.8672H178.504Z" fill="#EBEBEB"/>
<path d="M225.523 260.351H119.357V262.32H225.523V260.351Z" fill="#F0F0F0"/>
<path d="M266.216 180.59C266.216 180.59 275.004 192.938 287.887 182.394C299.851 172.618 288.092 148.965 288.092 148.965C288.092 148.965 301.998 153.335 304.241 134.998C306.484 116.661 286.748 121.319 286.748 121.319C293.779 107.338 285.719 106.913 279.703 108.148C281.527 104.718 282.104 100.506 277.761 96.9593C267.821 88.8439 261.043 98.3313 261.043 98.3313C261.043 98.3313 255.871 80.5501 243.633 90.9293V190.194C259.514 203.646 266.216 180.59 266.216 180.59Z" fill="#F5F5F5"/>
<path d="M248.215 83.4999H45.5024V262.326H248.215V83.4999Z" fill="#FAFAFA"/>
<path d="M233.631 55.7169H60.0868L45.5024 83.4999H248.215L233.631 55.7169Z" fill="#F0F0F0"/>
<path d="M217.771 243.969V225.605H205.862V207.247H119.158V225.605H131.067V243.969H142.983V262.326H229.68V243.969H217.771Z" fill="#F5F5F5"/>
<path d="M119.158 207.247V225.605H131.067V243.969H142.983V262.326H45.5024V207.247H119.158Z" fill="#EBEBEB"/>
<path d="M205.862 223.636H119.158V225.605H205.862V223.636Z" fill="#F0F0F0"/>
<path d="M217.771 241.993H131.067V243.962H217.771V241.993Z" fill="#F0F0F0"/>
<path d="M113.19 99.6964H56.1765V207.247H113.19V99.6964Z" fill="#F0F0F0"/>
<path d="M55.1064 207.247H56.1765L56.1765 99.6964H55.1064L55.1064 207.247Z" fill="#E6E6E6"/>
<path d="M104.67 156.634C106.416 156.634 107.832 155.219 107.832 153.472C107.832 151.725 106.416 150.309 104.67 150.309C102.923 150.309 101.507 151.725 101.507 153.472C101.507 155.219 102.923 156.634 104.67 156.634Z" fill="#FAFAFA"/>
<path d="M215.857 99.6964H132.981V182.401H215.857V99.6964Z" fill="#F5F5F5"/>
<path d="M212.406 178.518V103.579H136.445V178.518H212.406Z" fill="white"/>
<path d="M136.438 103.586V178.518H138.675C138.675 178.518 148.924 153.993 151.777 103.579L136.438 103.586Z" fill="#FAFAFA"/>
<path d="M212.406 103.586V178.518H210.163C210.163 178.518 199.921 153.993 197.067 103.586H212.406Z" fill="#FAFAFA"/>
<path d="M214.43 138.442H134.415V143.655H214.43V138.442Z" fill="#F5F5F5"/>
<path d="M177.029 181.056V101.041H171.815V181.056H177.029Z" fill="#F5F5F5"/>
<path d="M171.5 293.306C244.959 293.306 304.509 289.829 304.509 285.541C304.509 281.252 244.959 277.775 171.5 277.775C98.0414 277.775 38.4915 281.252 38.4915 285.541C38.4915 289.829 98.0414 293.306 171.5 293.306Z" fill="#F5F5F5"/>
<path d="M126.629 285.541H105.013C104.198 285.541 103.416 285.217 102.84 284.641C102.263 284.064 101.939 283.282 101.939 282.467V244.799H129.702V282.474C129.7 283.288 129.375 284.068 128.799 284.643C128.223 285.218 127.443 285.541 126.629 285.541Z" fill="#B46B6B"/>
<path opacity="0.2" d="M129.702 244.799H101.946V261.146L129.702 255.13V244.799Z" fill="black"/>
<path d="M141.645 195.38C141.645 185.009 145.765 175.063 153.098 167.73C160.431 160.397 170.377 156.278 180.747 156.278C191.118 156.278 201.064 160.397 208.397 167.73C215.73 175.063 219.849 185.009 219.849 195.38V244.772H141.645V195.38Z" fill="#B46B6B"/>
<path opacity="0.3" d="M141.645 195.38C141.645 185.009 145.765 175.063 153.098 167.73C160.431 160.397 170.377 156.278 180.747 156.278C191.118 156.278 201.064 160.397 208.397 167.73C215.73 175.063 219.849 185.009 219.849 195.38V244.772H141.645V195.38Z" fill="black"/>
<path d="M49.5908 195.373V239.928C49.5908 240.569 49.717 241.203 49.9622 241.794C50.2074 242.385 50.5668 242.923 51.0198 243.375C51.4728 243.827 52.0106 244.186 52.6023 244.43C53.194 244.675 53.8281 244.8 54.4683 244.799H141.645V195.373C141.645 185.002 145.765 175.057 153.098 167.723C160.431 160.39 170.377 156.271 180.747 156.271H88.6928C78.3223 156.271 68.3766 160.39 61.0435 167.723C53.7105 175.057 49.5908 185.002 49.5908 195.373Z" fill="#B46B6B"/>
<path opacity="0.2" d="M49.5978 230.215H141.652V216.495H49.5978V230.215Z" fill="black"/>
<path opacity="0.2" d="M49.5978 212.235H141.652V198.515H49.5978V212.235Z" fill="black"/>
<path d="M147.414 153.87H136.212V154.556H147.414V153.87Z" fill="#B46B6B"/>
<path d="M130.34 153.87H124.317V154.556H130.34V153.87Z" fill="#B46B6B"/>
<path d="M94.6131 208.228V152.662C94.6132 152.441 94.565 152.222 94.4718 152.021C94.3786 151.82 94.2426 151.642 94.0735 151.499C93.9043 151.356 93.706 151.251 93.4923 151.193C93.2786 151.134 93.0548 151.123 92.8363 151.16L73.4431 154.35V162.397H88.2676V208.105C86.7706 208.793 85.5511 209.968 84.8086 211.438C84.0661 212.909 83.8444 214.588 84.1798 216.201C84.5152 217.814 85.3879 219.265 86.6552 220.318C87.9224 221.37 89.5093 221.962 91.1563 221.996C92.8034 222.03 94.4132 221.504 95.7226 220.504C97.032 219.504 97.9636 218.09 98.3649 216.492C98.7663 214.894 98.6138 213.208 97.9323 211.708C97.2508 210.208 96.0806 208.984 94.6131 208.235V208.228Z" fill="#263238"/>
<path d="M147.209 250.39H247.529C248.261 250.392 248.965 250.105 249.486 249.591C250.008 249.077 250.305 248.378 250.315 247.646C250.315 246.907 250.021 246.199 249.499 245.677C248.976 245.154 248.268 244.861 247.529 244.861H141.645C141.654 246.33 142.244 247.737 143.287 248.773C144.329 249.809 145.739 250.39 147.209 250.39Z" fill="#B46B6B"/>
<path opacity="0.2" d="M147.209 250.39H188.204C188.936 250.392 189.639 250.105 190.161 249.591C190.683 249.077 190.98 248.378 190.989 247.646C190.989 246.907 190.696 246.199 190.173 245.677C189.651 245.154 188.943 244.861 188.204 244.861H141.645C141.654 246.33 142.244 247.737 143.287 248.773C144.329 249.809 145.739 250.39 147.209 250.39Z" fill="black"/>
<path d="M243.173 279.463L237.37 279.511L235.785 266.072L241.596 266.024L243.173 279.463Z" fill="#FF8B7B"/>
<path opacity="0.2" d="M235.785 266.079L236.601 273.007L242.412 272.953L241.596 266.031L235.785 266.079Z" fill="black"/>
<path d="M290.343 265.214L285.349 268.178L277.219 257.36L282.214 254.396L290.343 265.214Z" fill="#FF8B7B"/>
<path opacity="0.2" d="M277.226 257.36L281.411 262.937L286.412 259.973L282.22 254.396L277.226 257.36Z" fill="black"/>
<path d="M237.356 278.838L243.701 278.784C243.819 278.784 243.933 278.823 244.026 278.893C244.12 278.964 244.189 279.062 244.223 279.175L245.759 284.326C245.799 284.446 245.809 284.573 245.789 284.697C245.77 284.822 245.72 284.939 245.646 285.041C245.571 285.142 245.474 285.224 245.361 285.28C245.248 285.336 245.124 285.364 244.998 285.362C242.707 285.362 239.393 285.239 236.512 285.266C233.151 285.266 231.655 285.506 227.711 285.541C225.324 285.541 224.487 283.153 225.468 282.927C229.933 281.898 232.245 281.761 235.991 279.305C236.392 279.021 236.866 278.859 237.356 278.838Z" fill="#263238"/>
<path d="M234.962 279.888C235.588 279.876 236.211 279.8 236.821 279.662C236.849 279.657 236.874 279.643 236.893 279.622C236.912 279.6 236.923 279.573 236.924 279.545C236.927 279.517 236.921 279.489 236.908 279.465C236.894 279.44 236.874 279.42 236.849 279.408C236.574 279.271 234.105 278.104 233.467 278.516C233.405 278.556 233.355 278.611 233.321 278.676C233.287 278.741 233.271 278.813 233.274 278.886C233.267 279.017 233.291 279.148 233.345 279.267C233.399 279.386 233.48 279.491 233.583 279.572C233.997 279.824 234.48 279.935 234.962 279.888ZM236.334 279.476C235.079 279.696 234.125 279.648 233.741 279.339C233.674 279.285 233.62 279.216 233.585 279.137C233.549 279.059 233.532 278.973 233.535 278.886C233.533 278.86 233.537 278.834 233.548 278.81C233.559 278.786 233.576 278.765 233.597 278.749C233.974 278.516 235.353 279.01 236.348 279.463L236.334 279.476Z" fill="#B46B6B"/>
<path d="M236.794 279.655C236.821 279.661 236.849 279.661 236.876 279.655C236.896 279.64 236.912 279.62 236.92 279.597C236.929 279.574 236.93 279.548 236.924 279.524C236.924 279.415 236.471 276.918 235.086 277.075C234.722 277.117 234.619 277.295 234.598 277.446C234.502 278.132 235.97 279.353 236.739 279.668L236.794 279.655ZM235.202 277.316C236.032 277.316 236.451 278.688 236.574 279.264C235.813 278.832 234.791 277.844 234.845 277.46C234.845 277.46 234.845 277.343 235.092 277.316H235.202Z" fill="#B46B6B"/>
<path d="M245.78 119.11C245.019 123.521 244.051 127.754 242.878 132.028C242.293 134.159 241.646 136.283 240.937 138.4C240.567 139.464 240.217 140.52 239.798 141.577C239.599 142.105 239.4 142.633 239.174 143.161L238.852 143.957L238.687 144.348L238.598 144.561L238.474 144.828C237.911 146.041 237.221 147.191 236.416 148.258C235.73 149.226 234.983 150.117 234.249 151.002C232.78 152.731 231.251 154.336 229.7 155.914C226.604 159.024 223.348 161.971 219.945 164.743L216.852 161.663C219.493 158.308 222.154 154.919 224.727 151.565C226.01 149.891 227.258 148.19 228.424 146.509C229.007 145.672 229.563 144.828 230.05 144.005C230.491 143.304 230.868 142.565 231.175 141.796C231.216 141.714 231.312 141.385 231.388 141.165L231.621 140.438C231.786 139.965 231.93 139.471 232.074 138.977C232.369 137.996 232.643 136.994 232.925 135.999C233.46 133.99 233.96 131.959 234.447 129.915C235.394 125.799 236.307 121.642 237.13 117.567L245.78 119.11Z" fill="#FF8B7B"/>
<path d="M247.831 119.913C247.481 126.54 244.271 135.842 244.271 135.842L235.257 132.412L231.546 131.04C232.035 126.652 233.076 122.344 234.646 118.218C237.39 111.153 243.75 109.431 246.994 114.631C247.749 115.804 247.948 117.711 247.831 119.913Z" fill="#B46B6B"/>
<path opacity="0.2" d="M247.831 119.913C247.481 126.54 244.271 135.842 244.271 135.842L235.257 132.412C235.793 130.074 236.495 127.777 237.356 125.538C239.606 119.652 244.408 117.478 247.831 119.913Z" fill="black"/>
<path d="M218.313 161.011L212.194 162.013L212.146 168.015C212.146 168.015 218.018 167.192 220.316 164.379L218.313 161.011Z" fill="#FF8B7B"/>
<path d="M206.527 165.491L206.658 169.435L212.146 168.015L212.187 162.013L206.527 165.491Z" fill="#FF8B7B"/>
<path d="M241.39 162.013C241.39 162.013 232.671 193.754 230.359 211.521C227.958 230.002 233.624 269.632 233.624 269.632L244.113 269.406C244.113 269.406 244.902 229.007 248.332 210.835C252.091 191.03 259.253 161.628 259.253 161.628L241.39 162.013Z" fill="#263238"/>
<path d="M245.403 269.879L233.069 270.126L232.163 266.031L245.245 265.996L245.403 269.879Z" fill="#B46B6B"/>
<path opacity="0.4" d="M245.403 269.879L233.069 270.126L232.163 266.031L245.245 265.996L245.403 269.879Z" fill="white"/>
<path d="M284.999 267.602L290.452 264.364C290.558 264.296 290.684 264.266 290.809 264.28C290.934 264.294 291.05 264.35 291.138 264.439L295.055 268.116C295.151 268.2 295.224 268.305 295.27 268.422C295.316 268.54 295.333 268.667 295.32 268.793C295.306 268.919 295.263 269.04 295.193 269.145C295.123 269.251 295.029 269.338 294.918 269.399C292.929 270.538 290.013 272.143 287.537 273.577C284.649 275.299 283.421 276.232 280.066 278.242C278.008 279.463 276.081 277.809 276.815 277.117C280.156 273.975 282.083 272.692 284.086 268.692C284.279 268.249 284.596 267.87 284.999 267.602Z" fill="#263238"/>
<path d="M283.448 269.701C283.981 269.374 284.482 268.997 284.944 268.576C284.964 268.556 284.978 268.53 284.984 268.502C284.99 268.474 284.988 268.445 284.978 268.418C284.968 268.391 284.949 268.368 284.924 268.353C284.899 268.339 284.87 268.332 284.841 268.336C284.532 268.336 281.836 268.569 281.473 269.269C281.434 269.332 281.413 269.404 281.413 269.478C281.413 269.552 281.434 269.624 281.473 269.687C281.533 269.798 281.618 269.894 281.722 269.967C281.825 270.039 281.945 270.087 282.07 270.106C282.561 270.125 283.045 269.983 283.448 269.701ZM284.443 268.644C283.469 269.468 282.618 269.907 282.131 269.831C282.047 269.819 281.966 269.787 281.896 269.738C281.826 269.689 281.768 269.625 281.727 269.55C281.712 269.526 281.704 269.499 281.704 269.471C281.704 269.443 281.712 269.416 281.727 269.392C281.946 269.022 283.352 268.754 284.443 268.644Z" fill="#B46B6B"/>
<path d="M284.923 268.59C284.947 268.571 284.966 268.548 284.978 268.521C284.992 268.501 284.999 268.477 284.999 268.452C284.999 268.428 284.992 268.404 284.978 268.384C284.91 268.301 283.27 266.326 282.159 267.19C281.864 267.41 281.864 267.622 281.919 267.76C282.166 268.37 284.086 268.706 284.889 268.61L284.923 268.59ZM282.371 267.368C283.092 266.95 284.135 267.91 284.56 268.349C283.675 268.349 282.303 268.02 282.152 267.663C282.152 267.663 282.111 267.561 282.296 267.423L282.371 267.368Z" fill="#B46B6B"/>
<path d="M252.235 161.779C252.235 161.779 252.235 192.965 253.052 210.863C253.889 229.481 277.144 261.517 277.144 261.517L286.096 256.029C286.096 256.029 270.387 225.543 270.627 207.055C270.888 186.894 272.452 161.327 272.452 161.327L252.235 161.779Z" fill="#263238"/>
<path d="M287.249 256.022L277.336 262.073L274.86 259.61L285.767 252.338L287.249 256.022Z" fill="#B46B6B"/>
<path opacity="0.4" d="M287.249 256.022L277.336 262.073L274.86 259.61L285.767 252.338L287.249 256.022Z" fill="white"/>
<path d="M240.67 111.818C240.67 111.818 234.187 129.503 241.39 162.019L272.452 161.333C272.562 156.566 269.07 133.372 273.193 110.81C269.735 110.231 266.242 109.88 262.738 109.76C258.337 109.594 253.93 109.688 249.54 110.041C246.541 110.402 243.575 110.996 240.67 111.818Z" fill="#B46B6B"/>
<path d="M261.14 94.8944C260.399 99.1544 259.733 106.961 262.766 109.733C262.766 109.733 261.695 114.089 253.806 114.233C247.502 114.349 249.567 110.014 249.567 110.014C254.28 108.779 254.081 105.267 253.182 101.988L261.14 94.8944Z" fill="#FF8B7B"/>
<path opacity="0.2" d="M257.895 97.7824L253.189 101.981C253.408 102.743 253.56 103.524 253.642 104.313C255.446 104.018 257.895 101.974 258.046 100.074C258.136 99.3071 258.085 98.5306 257.895 97.7824Z" fill="black"/>
<path opacity="0.2" d="M266.264 122.06L271.443 125.792C271.217 129.764 271.148 133.626 271.183 137.248C268.007 134.051 266.23 128.172 266.264 122.06Z" fill="black"/>
<path d="M261.634 107.613C261.634 107.613 260.145 111.194 253.196 114.24C254.314 114.689 255.325 115.366 256.166 116.228C257.007 117.09 257.659 118.119 258.08 119.247C258.08 119.247 263.136 114.445 264.487 109.643L261.634 107.613Z" fill="white"/>
<path d="M248.003 117.951C248.003 117.951 250.13 114.864 253.196 114.24C252.119 112.922 251.008 110 252.037 108.614C251.133 108.853 250.257 109.186 249.423 109.609C249.423 109.609 245.252 112.113 248.003 117.951Z" fill="white"/>
<path d="M247.392 82.6973C244.559 83.9115 243.153 91.5398 246.843 93.1999C250.534 94.8601 252.757 80.4061 247.392 82.6973Z" fill="#263238"/>
<path d="M261.51 88.494C261.277 94.2564 261.435 97.6384 258.595 100.65C254.321 105.184 247.166 102.708 245.67 96.9935C244.298 91.8485 244.929 83.2736 250.507 80.8863C251.735 80.3488 253.08 80.1342 254.414 80.2629C255.748 80.3916 257.027 80.8593 258.13 81.6217C259.232 82.384 260.122 83.4156 260.713 84.6184C261.305 85.8212 261.579 87.1553 261.51 88.494Z" fill="#FF8B7B"/>
<path d="M252.818 90.2845C252.818 90.7509 252.592 91.1351 252.283 91.142C251.975 91.1488 251.721 90.7715 251.714 90.305C251.707 89.8386 251.94 89.4544 252.249 89.4475C252.558 89.4407 252.812 89.8111 252.818 90.2845Z" fill="#263238"/>
<path d="M247.523 90.3942C247.523 90.8607 247.296 91.2449 246.988 91.2517C246.679 91.2586 246.425 90.8882 246.418 90.4148C246.411 89.9415 246.644 89.5642 246.953 89.5573C247.262 89.5505 247.516 89.9278 247.523 90.3942Z" fill="#263238"/>
<path d="M249.217 90.5932C248.688 92.0368 247.963 93.4009 247.063 94.6474C247.387 94.8688 247.756 95.0167 248.144 95.0807C248.531 95.1447 248.928 95.1232 249.306 95.0179L249.217 90.5932Z" fill="#FF5652"/>
<path d="M250.699 96.2801C251.329 96.2853 251.951 96.1384 252.513 95.8517C253.074 95.5651 253.558 95.1473 253.923 94.6337C253.933 94.6186 253.939 94.6016 253.942 94.5839C253.945 94.5661 253.944 94.548 253.94 94.5306C253.935 94.5132 253.927 94.4969 253.916 94.4828C253.905 94.4687 253.891 94.457 253.875 94.4485C253.845 94.4302 253.809 94.4242 253.774 94.4319C253.74 94.4396 253.709 94.4602 253.69 94.4896C253.344 94.9599 252.893 95.3422 252.372 95.6055C251.851 95.8689 251.276 96.006 250.692 96.0057C250.674 96.0066 250.656 96.011 250.64 96.0187C250.624 96.0264 250.609 96.0373 250.597 96.0507C250.585 96.0641 250.576 96.0797 250.569 96.0967C250.563 96.1137 250.561 96.1317 250.562 96.1498C250.563 96.185 250.579 96.2181 250.604 96.2424C250.63 96.2666 250.664 96.2802 250.699 96.2801Z" fill="#263238"/>
<path d="M254.376 88.542C254.438 88.5401 254.498 88.5184 254.547 88.4803C254.603 88.4346 254.639 88.3686 254.647 88.2967C254.655 88.2247 254.634 88.1526 254.588 88.0961C254.325 87.7471 253.983 87.4661 253.589 87.2764C253.195 87.0866 252.762 86.9937 252.325 87.0054C252.252 87.0117 252.185 87.0468 252.138 87.1027C252.091 87.1587 252.068 87.231 252.074 87.3038C252.081 87.3766 252.116 87.4438 252.172 87.4908C252.228 87.5377 252.3 87.5605 252.373 87.5542C252.718 87.551 253.059 87.6287 253.369 87.7812C253.679 87.9337 253.948 88.1567 254.156 88.4322C254.181 88.4667 254.215 88.4947 254.253 88.5138C254.291 88.5329 254.333 88.5426 254.376 88.542Z" fill="#263238"/>
<path d="M245.163 88.6243C245.216 88.6238 245.267 88.6088 245.312 88.5809C245.357 88.5531 245.393 88.5136 245.417 88.4666C245.552 88.1451 245.763 87.8612 246.032 87.639C246.301 87.4168 246.619 87.263 246.96 87.1906C247.033 87.1788 247.097 87.1392 247.141 87.0802C247.185 87.0213 247.203 86.9477 247.193 86.875C247.18 86.8035 247.14 86.7397 247.082 86.6964C247.023 86.6531 246.95 86.6336 246.878 86.6418C246.451 86.7335 246.052 86.9257 245.715 87.2025C245.377 87.4793 245.11 87.8327 244.937 88.2333C244.92 88.2656 244.911 88.3008 244.909 88.3369C244.907 88.3729 244.912 88.4089 244.924 88.4429C244.936 88.4769 244.955 88.508 244.98 88.5345C245.004 88.561 245.034 88.5822 245.067 88.5969C245.097 88.6122 245.129 88.6215 245.163 88.6243Z" fill="#263238"/>
<path d="M274.187 114.905C275.484 116.771 276.623 118.596 277.796 120.475C278.969 122.355 280.053 124.248 281.13 126.169C283.314 130.059 285.256 134.08 286.947 138.208C287.167 138.723 287.359 139.272 287.558 139.807L287.859 140.616L288.01 141.028L288.189 141.59C288.626 143.069 288.784 144.616 288.655 146.152C288.384 148.837 287.489 151.421 286.042 153.698C284.782 155.732 283.282 157.606 281.576 159.282C280.759 160.106 279.895 160.867 279.017 161.601C278.127 162.335 277.2 163.022 276.239 163.659L273.447 160.311C274.057 159.625 274.75 158.775 275.367 157.986C275.985 157.197 276.588 156.353 277.158 155.53C278.268 153.948 279.221 152.262 280.005 150.495C280.687 149.024 281.045 147.424 281.054 145.802C281.03 145.184 280.9 144.573 280.67 143.998L280.121 142.777C279.909 142.324 279.717 141.865 279.483 141.405C277.713 137.735 275.669 134.086 273.522 130.477C271.375 126.869 269.125 123.247 266.895 119.782L274.187 114.905Z" fill="#FF8B7B"/>
<path d="M273.193 110.823C278.619 111.996 286.426 128.735 286.426 128.735L271.889 135.828C269.304 131.874 267.156 127.651 265.482 123.233C262.951 116.16 267.382 109.561 273.193 110.823Z" fill="#B46B6B"/>
<path d="M268.027 153.87L282.632 197.012C283.199 198.705 283.074 200.554 282.284 202.156C281.494 203.757 280.102 204.981 278.413 205.56L180.24 238.845C178.545 239.413 176.694 239.287 175.092 238.494C173.489 237.701 172.267 236.305 171.692 234.612L157.094 191.483C156.813 190.666 156.696 189.801 156.751 188.938C156.83 187.598 157.306 186.311 158.118 185.242C158.93 184.173 160.043 183.37 161.313 182.936L259.507 149.651C260.778 149.223 262.149 149.184 263.443 149.538C264.737 149.892 265.896 150.624 266.772 151.64C267.333 152.293 267.76 153.051 268.027 153.87Z" fill="#B46B6B"/>
<path opacity="0.8" d="M268.027 153.87L282.632 197.012C283.199 198.705 283.074 200.554 282.284 202.156C281.494 203.757 280.102 204.981 278.413 205.56L180.24 238.845C178.545 239.413 176.694 239.287 175.092 238.494C173.489 237.701 172.267 236.305 171.692 234.612L157.094 191.483C156.813 190.666 156.696 189.801 156.751 188.938C156.83 187.598 157.306 186.311 158.118 185.242C158.93 184.173 160.043 183.37 161.313 182.936L259.507 149.651C260.778 149.223 262.149 149.184 263.443 149.538C264.737 149.892 265.896 150.624 266.772 151.64C267.333 152.293 267.76 153.051 268.027 153.87Z" fill="white"/>
<path opacity="0.6" d="M266.744 151.64L226.126 187.964C224.084 189.788 221.695 191.181 219.102 192.059C216.508 192.937 213.764 193.283 211.034 193.075L156.717 188.959C156.796 187.618 157.271 186.332 158.084 185.263C158.896 184.194 160.008 183.391 161.279 182.956L259.473 149.671C260.743 149.24 262.114 149.196 263.409 149.547C264.704 149.898 265.865 150.627 266.744 151.64Z" fill="#B46B6B"/>
<path d="M274.914 159.509L268.672 159.55L272.52 165.854C272.52 165.854 276.966 164.777 277.377 162.541L274.914 159.509Z" fill="#FF8B7B"/>
<path d="M264.769 163.247L268.192 168.317L272.52 165.854L268.672 159.55L264.769 163.247Z" fill="#FF8B7B"/>
<path d="M265.441 83.8772C266.813 87.6365 262.663 96.3418 260.248 96.1772C257.833 96.0126 257.175 86.9642 258.547 84.7141C257.243 85.3178 244.827 85.3384 244.888 84.0281C245.204 79.2673 253.649 77.5386 262.91 79.9121C265.317 79.7955 266.216 80.4541 265.441 83.8772Z" fill="#263238"/>
<path d="M264.24 94.7709C263.873 95.388 263.387 95.9259 262.81 96.3534C262.233 96.7809 261.576 97.0894 260.879 97.2611C259.013 97.7138 258.135 96.0331 258.725 94.3044C259.239 92.7472 260.831 90.6412 262.683 90.9567C264.535 91.2723 265.146 93.2411 264.24 94.7709Z" fill="#FF8B7B"/>
<path d="M237.487 81.634L265.983 84.9268C266.127 84.9423 266.27 84.9005 266.383 84.8106C266.496 84.7207 266.569 84.5899 266.587 84.4466C266.602 84.3041 266.561 84.1611 266.473 84.0483C266.385 83.9355 266.255 83.8618 266.113 83.8429L237.61 80.557C237.468 80.5414 237.325 80.5822 237.212 80.6706C237.099 80.7591 237.025 80.8882 237.006 81.0303C236.991 81.1739 237.033 81.3177 237.122 81.4307C237.212 81.5437 237.343 81.6168 237.487 81.634Z" fill="#B46B6B"/>
<path d="M266.587 84.4192L267.081 80.166C267.075 79.7009 266.896 79.2546 266.579 78.9145C266.262 78.5744 265.829 78.3651 265.366 78.3275L247.866 75.021C246.569 74.774 245.375 75.5012 245.382 76.5302V81.977L266.587 84.4192Z" fill="#B46B6B"/>
<path d="M247.015 80.7216L254.424 81.5791L254.678 79.4182L247.022 78.5401L247.015 80.7216Z" fill="white"/>
</svg>
