<svg width="308" height="280" viewBox="0 0 308 280" fill="none" xmlns="http://www.w3.org/2000/svg">
<path d="M240.498 214.957C271.12 191.261 298.029 178.45 306.374 137.913C310.033 120.141 306.374 91.2193 306.374 91.2193C306.374 91.2193 303.859 63.0839 295.918 48.0279C289.03 34.9699 282.92 28.8093 271.868 20.0119C250.578 3.06616 233.026 4.54279 207.038 1.33463C175.314 -2.58145 157.17 2.95865 125.477 7.1713C98.6465 10.7377 83.6079 14.0442 57.3506 19.8172L56.4648 20.0119C34.3017 24.8846 0 34.0199 0 34.0199L0 279.16C0 279.16 34.4791 281.05 56.4648 279.16C74.1416 277.64 84.0225 275.923 101.428 272.156C123.403 267.4 156.847 255.813 156.847 255.813C156.847 255.813 211.193 237.634 240.498 214.957Z" fill="#EFBFBB"/>
</svg>
