<svg width="257" height="227" viewBox="0 0 257 227" fill="none" xmlns="http://www.w3.org/2000/svg">
<path d="M45.3013 54.9503C47.0731 54.8212 48.852 54.8212 50.6239 54.9503C55.3814 55.3796 57.6421 58.5274 60.3177 61.389C64.5243 65.8674 75.4986 78.8593 78.532 82.701L69.2817 87.6301L49.8083 71.6122L45.3013 54.9503Z" fill="#FFA8A7"/>
<path d="M17.8152 108.391C14.4242 115.238 6.06821 135.806 2.79164 150.028C-0.313226 163.356 -1.5008 172.585 2.79164 175.782C6.98393 178.923 19.4606 177.042 27.28 160.394C29.7267 155.186 38.9412 139.104 38.9412 139.104C38.9412 139.104 45.759 136.643 48.1127 134.811C48.1127 134.811 70.8555 135.469 81.9014 133.209C92.9473 130.948 97.0251 116.947 92.5038 115.617C84.3696 113.22 76.1782 111.997 57.8351 110.816L17.8152 108.391Z" fill="#2E0D44"/>
<path opacity="0.2" d="M69.7251 122.034C64.7172 123.193 58.6077 126.498 54.5155 128.787C54.768 127.322 54.7218 125.821 54.3796 124.373C54.1478 126.323 53.5197 128.205 52.5338 129.904C51.8542 130.29 51.2747 130.619 50.8526 130.819C48.0912 132.25 40.5007 136.113 39.0913 134.89C36.9712 132.155 33.9625 130.248 30.5851 129.496C32.9603 131.098 39.8854 136.035 37.4101 141.758L38.9053 139.132C38.9053 139.132 45.7232 136.671 48.0769 134.84C48.0769 134.84 60.7897 135.212 71.8212 134.446L79.8839 122.041C79.8839 122.041 76.6431 120.424 69.7251 122.034Z" fill="black"/>
<path d="M33.6542 148.411C33.6542 148.411 25.8921 150.622 15.769 157.468C15.769 157.468 23.6385 149.263 34.7273 146.522L33.6542 148.411Z" fill="#263238"/>
<path d="M48.2559 134.21C45.3943 135.562 41.3737 136.149 39.0916 134.89C36.8094 133.631 33.3683 132.329 30.5067 136.779C27.2587 141.822 21.2064 143.654 17.4719 145.828C13.7375 148.003 13.2439 152.839 13.7304 156.424C14.5459 162.483 16.964 157.726 19.9759 154.993C22.9877 152.26 32.0162 149.305 35.7148 147.91C39.4135 146.515 38.9985 146.05 48.9642 143.203L48.2559 134.21Z" fill="#FFA8A7"/>
<path d="M89.9713 115.037C104 117.828 101.733 126.212 96.5029 130.776C90.887 135.648 74.1894 138.725 66.0337 140.155C57.8781 141.586 46.639 143.983 46.639 143.983C45.0182 141.226 44.4706 137.968 45.1009 134.833C54.5157 131.807 68.509 121.033 79.8912 122.034L89.9713 115.037Z" fill="#2E0D44"/>
<path d="M50.4307 142.831C52.906 141.801 56.5403 140.32 57.7994 138.031C59.0585 135.741 61.9917 133.273 66.7921 135.505C72.2435 138.031 78.3388 136.335 82.6527 136.178C86.9666 136.02 89.9713 139.841 91.4808 143.124C94.0348 148.683 89.4419 145.986 85.4213 145.271C81.4007 144.555 71.8286 145.364 68.1514 146.429C64.4742 147.495 55.274 152.024 55.274 152.024L50.4307 142.831Z" fill="#FFA8A7"/>
<path d="M2.75592 175.811C5.85364 178.043 10.0316 180.604 21.7071 176.419C33.3825 172.234 56.855 151.924 56.855 151.924C56.855 151.924 57.1985 143.21 50.3448 142.33C50.3448 142.33 44.5143 144.297 35.0637 147.874C30.8002 149.5 26.6259 151.351 22.5584 153.419C17.2715 163.256 9.86708 160.695 7.85678 164.15C5.7598 167.851 4.05045 171.759 2.75592 175.811Z" fill="#2E0D44"/>
<path d="M55.9608 86.5712C56.5188 91.7436 57.7994 110.838 57.7994 110.838C53.7788 124.373 22.5942 121.655 16.5704 111.031C19.9042 103.254 23.5957 98.6044 26.0138 96.0074L20.4766 80.5546C20.4766 80.5546 19.8112 78.9736 19.8255 78.9593C20.1975 78.3297 27.924 69.616 20.591 55.7801L30.5638 54.8715L45.1724 54.4494C48.356 54.6283 50.6238 54.9359 50.6238 54.9359C52.6628 56.8389 55.8821 62.09 57.9639 67.4197C59.3089 70.8823 60.7612 76.3766 55.9608 86.5712Z" fill="#F5F5F5"/>
<path d="M29.8055 106.173C33.1536 104.07 42.6828 99.513 46.7034 98.9192C49.422 98.5257 54.208 99.2698 57.0267 99.7992C56.8121 96.8302 56.5832 93.7468 56.3686 91.2143L51.9903 90.735C51.9903 90.735 49.3933 83.1302 46.7034 82.1501C44.0135 81.17 42.1248 86.836 39.7282 90.1912C37.3316 93.5465 28.6966 93.0529 28.6966 93.0529L23.1307 79.6318C23.1307 79.6318 25.1339 69.3443 24.4041 63.6711L23.4741 64.1576C23.3669 69.3188 22.121 74.3926 19.8255 79.0166L20.4766 80.6119L26.0138 96.0647C23.5957 98.6402 19.9042 103.29 16.5704 111.088C20.634 118.242 36.1655 121.819 47.0683 119.215C37.353 120.017 28.5106 117.463 26.9653 114.672C25.42 111.882 26.4574 108.277 29.8055 106.173Z" fill="#E0E0E0"/>
<path d="M42.6113 47.0093H36.8379C34.4551 47.0103 32.0955 46.5416 29.8939 45.6302C27.6923 44.7188 25.6919 43.3824 24.007 41.6975C22.3221 40.0126 20.9857 38.0122 20.0743 35.8106C19.1629 33.609 18.6943 31.2494 18.6952 28.8666C18.6952 23.2883 20.9112 17.9385 24.8556 13.994C28.8001 10.0496 34.1499 7.83362 39.7282 7.83362C45.3065 7.83362 50.6563 10.0496 54.6008 13.994C58.5452 17.9385 60.7612 23.2883 60.7612 28.8666C60.7612 31.2497 60.2917 33.6095 59.3795 35.8112C58.4672 38.0128 57.1302 40.0132 55.4448 41.698C53.7593 43.3828 51.7584 44.719 49.5564 45.6304C47.3544 46.5417 44.9944 47.0103 42.6113 47.0093Z" fill="#BA68C8"/>
<path opacity="0.5" d="M42.6113 47.0093H36.8379C34.4551 47.0103 32.0955 46.5416 29.8939 45.6302C27.6923 44.7188 25.6919 43.3824 24.007 41.6975C22.3221 40.0126 20.9857 38.0122 20.0743 35.8106C19.1629 33.609 18.6943 31.2494 18.6952 28.8666C18.6952 23.2883 20.9112 17.9385 24.8556 13.994C28.8001 10.0496 34.1499 7.83362 39.7282 7.83362C45.3065 7.83362 50.6563 10.0496 54.6008 13.994C58.5452 17.9385 60.7612 23.2883 60.7612 28.8666C60.7612 31.2497 60.2917 33.6095 59.3795 35.8112C58.4672 38.0128 57.1302 40.0132 55.4448 41.698C53.7593 43.3828 51.7584 44.719 49.5564 45.6304C47.3544 46.5417 44.9944 47.0103 42.6113 47.0093Z" fill="black"/>
<path d="M33.2103 11.0285C34.1869 6.89085 31.6243 2.74491 27.4866 1.76833C23.3489 0.791743 19.203 3.35433 18.2264 7.49201C17.2498 11.6297 19.8124 15.7756 23.9501 16.7522C28.0878 17.7288 32.2337 15.1662 33.2103 11.0285Z" fill="#BA68C8"/>
<path opacity="0.5" d="M33.2103 11.0285C34.1869 6.89085 31.6243 2.74491 27.4866 1.76833C23.3489 0.791743 19.203 3.35433 18.2264 7.49201C17.2498 11.6297 19.8124 15.7756 23.9501 16.7522C28.0878 17.7288 32.2337 15.1662 33.2103 11.0285Z" fill="black"/>
<path d="M53.2494 16.9908C55.4671 18.3072 58.2143 23.8945 57.9425 35.5914C57.7135 45.5213 54.4942 47.9751 52.8774 48.6834C51.2605 49.3917 48.1485 48.9624 45.1152 48.4545V54.4138C45.1152 54.4138 49.3075 59.2786 49.0428 62.0114C48.7781 64.7443 42.9976 65.3882 39.0772 62.7269C35.1567 60.0655 31.8587 54.8574 31.8587 54.8574L31.9302 41.1573C31.9302 41.1573 30.1417 42.8886 27.1227 40.2488C24.6259 38.1025 23.7817 34.3824 25.6919 32.3793C26.1965 31.9104 26.8052 31.5681 27.468 31.3805C28.1307 31.1928 28.8286 31.1653 29.504 31.3001C30.1795 31.4349 30.8133 31.7283 31.3533 32.1559C31.8932 32.5836 32.3239 33.1334 32.6099 33.76C32.6099 33.76 37.446 33.9389 43.8775 30.4047C46.383 29.0615 48.537 27.1472 50.1652 24.8168C51.7933 22.4865 52.8499 19.8055 53.2494 16.9908Z" fill="#FFA8A7"/>
<path d="M45.1007 48.4688C41.91 48.0467 35.3426 46.1652 34.3195 43.5682C34.7311 44.8817 35.535 46.0376 36.6231 46.8806C38.5833 48.5618 45.1007 50.4576 45.1007 50.4576V48.4688Z" fill="#F28F8F"/>
<path d="M23.8175 16.5758L18.7596 18.8293C18.5951 18.5054 18.4981 18.1515 18.4745 17.789C18.4509 17.4265 18.5011 17.0629 18.6222 16.7204C18.7433 16.3779 18.9327 16.0636 19.1789 15.7965C19.4251 15.5293 19.7229 15.315 20.0544 15.1664C20.7426 14.8729 21.5174 14.8555 22.218 15.1179C22.9187 15.3804 23.4914 15.9024 23.8175 16.5758Z" fill="#BA68C8"/>
<path opacity="0.5" d="M23.8175 16.5758L18.7596 18.8293C18.5951 18.5054 18.4981 18.1515 18.4745 17.789C18.4509 17.4265 18.5011 17.0629 18.6222 16.7204C18.7433 16.3779 18.9327 16.0636 19.1789 15.7965C19.4251 15.5293 19.7229 15.315 20.0544 15.1664C20.7426 14.8729 21.5174 14.8555 22.218 15.1179C22.9187 15.3804 23.4914 15.9024 23.8175 16.5758Z" fill="black"/>
<path d="M46.7034 31.8712C46.6515 32.3607 46.4329 32.8175 46.0843 33.165C45.7356 33.5126 45.2781 33.7297 44.7885 33.78C44.2988 33.8303 43.8067 33.7108 43.3946 33.4414C42.9826 33.172 42.6757 32.7692 42.5254 32.3004C43.1453 32.7506 43.9093 32.9569 44.6716 32.8799C45.4497 32.8045 46.173 32.4455 46.7034 31.8712Z" fill="#263238"/>
<path d="M57.4131 31.678C57.2899 32.1566 57.0052 32.578 56.6073 32.871C56.2093 33.1641 55.7224 33.3108 55.2288 33.2864C54.7352 33.262 54.2652 33.068 53.898 32.7372C53.5309 32.4064 53.2892 31.959 53.2137 31.4706C53.7676 32.0123 54.5003 32.3328 55.2741 32.372C56.0473 32.4053 56.8067 32.159 57.4131 31.678Z" fill="#263238"/>
<path d="M44.3353 27.307L41.4737 28.8666C41.2696 28.4789 41.2242 28.0272 41.347 27.6067C41.4698 27.1862 41.7513 26.8299 42.1319 26.613C42.3203 26.5054 42.5288 26.438 42.7445 26.4148C42.9602 26.3917 43.1783 26.4134 43.3852 26.4785C43.5922 26.5437 43.7834 26.6509 43.9469 26.7935C44.1104 26.936 44.2426 27.1109 44.3353 27.307Z" fill="#263238"/>
<path d="M45.9521 41.1572L48.9783 42.2947C48.9124 42.4975 48.8064 42.6849 48.6665 42.8457C48.5266 43.0066 48.3558 43.1377 48.1642 43.2312C47.9726 43.3246 47.7641 43.3786 47.5513 43.3898C47.3384 43.4009 47.1254 43.3692 46.9251 43.2963C46.518 43.1345 46.1893 42.8214 46.0079 42.4227C45.8265 42.0239 45.8066 41.5704 45.9521 41.1572Z" fill="#F28F8F"/>
<path d="M57.8852 27.5216L54.809 26.4342C54.8695 26.2297 54.9711 26.0397 55.1076 25.8758C55.2441 25.712 55.4126 25.5777 55.6028 25.4813C55.793 25.3848 56.0009 25.3282 56.2138 25.3149C56.4267 25.3017 56.64 25.332 56.8407 25.404C57.2526 25.5564 57.5905 25.8609 57.7847 26.2548C57.979 26.6487 58.015 27.102 57.8852 27.5216Z" fill="#263238"/>
<path d="M49.6938 30.369L50.1302 38.3386L54.2939 36.9221L49.6938 30.369Z" fill="#F28F8F"/>
<path d="M22.3008 55.6442C19.5294 55.6018 16.8477 56.6263 14.8105 58.5058C11.906 61.3675 10.5753 64.179 8.65801 70.0454C7.2272 74.4165 -0.642283 101.674 0.745608 104.893C2.89183 109.779 11.398 107.225 16.8852 105.608C23.0806 103.82 43.6057 96.1649 44.7861 93.7754C45.43 92.4448 45.709 91.5934 45.7018 83.0014C45.7018 79.2884 45.6088 75.5755 45.4371 73.5366C45.0508 68.9079 42.1033 68.7505 40.7512 72.1057C39.3991 75.461 37.4031 87.7302 37.4031 87.7302L14.0021 93.7897L22.401 74.2877C22.401 74.2877 27.0011 62.6266 22.3008 55.6442Z" fill="#FFA8A7"/>
<path d="M78.5319 82.6937C80.8784 85.7342 82.1089 88.8677 78.5319 91.4575C74.9548 94.0472 50.2661 95.3564 47.0539 93.6037C45.666 92.8454 45.6732 89.812 45.666 86.6428C45.6589 83.4735 45.666 75.3751 45.666 73.5365C45.666 71.6979 46.7034 67.6272 48.635 68.4285C50.5666 69.2298 52.8416 84.4465 52.8416 84.4465C61.1331 84.7756 72.9159 80.662 78.5319 82.6937Z" fill="#FFA8A7"/>
<path d="M159.426 158.344C155.508 166.18 150.948 180.99 145.846 194.467C140.275 209.167 139.578 219.472 144.507 223.178C149.318 226.782 163.657 224.628 172.645 205.492C175.458 199.514 186.044 181.037 186.044 181.037C186.044 181.037 193.88 178.208 196.576 176.092C196.576 176.092 222.708 176.876 235.394 174.259C248.081 171.642 252.782 155.555 247.579 154.042C238.231 151.292 228.828 149.882 207.75 148.557L159.426 158.344Z" fill="#37474F"/>
<path d="M221.439 161.392C213.493 163.242 202.938 169.871 199.757 171.485C196.576 173.099 187.659 177.879 186.037 176.476C183.953 174.704 181.563 173.328 178.984 172.417C181.711 174.259 187.102 177.479 184.289 184.054L186.013 181.037C186.013 181.037 193.849 178.208 196.544 176.092C196.544 176.092 211.158 176.516 223.829 175.646L233.091 161.392C233.091 161.392 229.4 159.543 221.439 161.392Z" fill="#263238"/>
<path d="M180.026 191.694C180.026 191.694 171.086 194.24 159.426 202.107C159.426 202.107 168.492 192.704 181.21 189.531L180.026 191.694Z" fill="#263238"/>
<path d="M196.787 175.379C193.457 176.947 188.881 177.613 186.256 176.163C183.631 174.713 179.689 173.217 176.398 178.326C172.669 184.132 165.702 186.232 161.416 188.732C157.13 191.231 156.566 196.787 157.122 200.909C158.055 207.867 160.836 202.405 164.3 199.232C167.763 196.058 178.13 192.704 182.408 191.098C186.687 189.492 186.185 188.959 197.633 185.684L196.787 175.379Z" fill="#B16668"/>
<path d="M244.711 153.345C260.837 156.558 258.228 166.196 252.218 171.414C245.73 177.033 226.579 180.543 217.207 182.197C207.836 183.85 194.93 186.592 194.93 186.592C193.067 183.436 192.433 179.703 193.151 176.108C203.965 172.629 220.044 160.256 233.114 161.408L244.711 153.345Z" fill="#37474F"/>
<path d="M199.279 185.284C202.123 184.101 206.331 182.4 207.75 179.799C209.168 177.197 212.569 174.314 218.085 176.899C224.354 179.799 231.351 177.848 236.303 177.683C241.256 177.519 244.711 181.899 246.451 185.676C249.381 192.054 244.1 188.928 239.493 188.105C234.885 187.282 223.891 188.214 219.644 189.437C215.397 190.659 204.874 195.862 204.874 195.862L199.279 185.284Z" fill="#B16668"/>
<path d="M144.507 223.178C148.072 225.74 152.867 228.663 166.282 223.875C179.697 219.088 206.668 195.737 206.668 195.737C206.668 195.737 207.06 185.723 199.185 184.712C199.185 184.712 192.485 186.976 181.625 191.082C176.729 192.949 171.934 195.073 167.262 197.445C161.181 208.752 152.679 205.814 150.368 209.818C147.96 214.058 145.996 218.535 144.507 223.178Z" fill="#37474F"/>
<path d="M200.948 171.673C200.948 171.673 203.51 167.974 203.824 164.08C203.824 164.08 204.764 167.622 203.565 170.584L200.948 171.673Z" fill="#263238"/>
<path d="M189.155 79.9154C194.178 79.1318 200.235 80.6989 205.117 85.8706C209.998 91.0422 227.911 112.826 231.429 117.284L219.401 123.373L198.112 104.426L189.155 79.9154Z" fill="#B16668"/>
<path d="M166.047 85.8707C163.827 86.8523 162.082 88.6677 161.189 90.9248C160.152 93.7131 159.65 96.6717 159.708 99.646C159.708 99.646 160.437 109.214 160.437 120.239C160.437 131.264 159.426 158.344 159.426 158.344C173.899 165.976 197.265 160.695 207.75 148.526C207.75 148.526 206.888 105.554 206.888 97.6949C206.888 97.3423 206.888 96.9819 206.888 96.6136C206.323 85.3927 195.275 77.6901 184.399 80.4953L175.254 82.846L166.079 85.8707H166.047Z" fill="#2E0D44"/>
<path opacity="0.2" d="M193.316 135.91C196.121 135.346 204.607 135.714 207.499 135.863C207.452 133.387 207.397 130.692 207.35 127.91L193.559 119.941L165.546 138.316L163.924 121.202C167.489 115.467 168.853 104.692 168.406 96.5587C168.406 96.5587 164.229 93.6986 161.056 91.2773C160.113 93.962 159.657 96.7933 159.708 99.6382C159.708 99.6382 160.437 109.206 160.437 120.231C160.437 131.256 159.426 158.336 159.426 158.336C170.349 164.096 186.334 162.489 198.025 156.134C190.934 160.005 176.351 159.739 172.214 157.96C168.077 156.182 168.429 148.902 170.937 146.551C173.444 144.201 189.907 136.608 193.316 135.91Z" fill="black"/>
<path d="M204.754 54.4156C207.683 47.3428 204.325 39.2343 197.252 36.3046C190.179 33.375 182.071 36.7336 179.141 43.8064C176.211 50.8792 179.57 58.9878 186.643 61.9175C193.716 64.8471 201.824 61.4884 204.754 54.4156Z" fill="#263238"/>
<path d="M167.983 58.9703C167.983 58.9703 170.232 69.5173 171.117 71.2569C171.717 72.3247 172.705 73.1213 173.875 73.4822L173.719 66.0539L167.983 58.9703Z" fill="#263238"/>
<path d="M170.804 43.8471C170.018 43.7553 169.222 43.8445 168.476 44.108C167.731 44.3715 167.055 44.8023 166.502 45.3673C164.653 47.2557 165.718 53.2031 167.983 58.9703L172.214 59.4561L170.804 43.8471Z" fill="#263238"/>
<path d="M173.484 59.4561C172.637 59.9654 171.423 58.3355 170.349 57.2385C169.276 56.1415 165.891 54.6449 164.182 58.2415C162.474 61.8382 165.687 66.7277 168.375 67.574C173.013 69.0314 173.703 66.0538 173.703 66.0538L174.048 83.2927C179.807 90.674 195.8 90.055 189.132 82.3367V77.2512C189.132 77.2512 193.332 77.8859 195.4 77.5725C198.809 77.0475 200.956 74.352 201.982 70.6691C203.644 64.7452 204.278 59.9576 202.868 48.3057C201.301 35.5333 186.468 35.4001 178.451 40.4699C170.435 45.5396 173.484 59.4561 173.484 59.4561Z" fill="#B16668"/>
<path d="M173.483 60.8822C173.06 60.8822 171.438 58.2023 170.349 57.2385C168.884 55.9064 170.772 43.8471 170.772 43.8471C170.772 43.8471 169.37 40.8538 172.183 37.7508C174.189 35.5489 177.542 35.2982 183.263 34.4049C186.264 33.9269 190.808 33.0885 193.81 32.5321C197.383 31.8661 200.345 31.1609 202.876 33.3549C203.866 34.2152 204.566 35.3606 204.88 36.6343C205.195 37.908 205.107 39.2476 204.631 40.4698C204.371 41.0232 204.027 41.5333 203.612 41.9822C202.929 42.7968 202.038 43.4114 201.034 43.7609C201.034 43.7609 199.467 45.14 194.045 45.806C188.622 46.4721 180.167 45.6807 179.008 45.5161C177.441 45.3046 177.096 46.8325 176.25 51.0012C175.536 54.6527 174.917 60.8587 173.483 60.8822Z" fill="#263238"/>
<path d="M170.812 44.7874L165.687 42.037C165.85 41.6915 166.082 41.3826 166.368 41.1293C166.654 40.8759 166.988 40.6833 167.351 40.5631C167.714 40.443 168.097 40.3977 168.478 40.4302C168.858 40.4626 169.228 40.5721 169.566 40.7519C170.253 41.1349 170.766 41.7681 170.998 42.5198C171.23 43.2715 171.163 44.0837 170.812 44.7874Z" fill="#263238"/>
<path d="M189.155 77.2434C189.155 77.2434 181.547 75.6762 178.89 74.2971C177.325 73.4837 176.041 72.2165 175.208 70.6613C175.611 72.2158 176.322 73.6733 177.3 74.9475C179.243 77.4393 189.155 79.2651 189.155 79.2651V77.2434Z" fill="#9A4A4D"/>
<path d="M189.312 57.4031C189.237 57.9553 188.979 58.4662 188.578 58.8538C188.178 59.2413 187.659 59.483 187.104 59.54C186.55 59.5969 185.993 59.4659 185.522 59.1678C185.051 58.8698 184.694 58.4222 184.509 57.8968C185.228 58.4192 186.116 58.6565 187 58.5628C187.887 58.4712 188.709 58.0588 189.312 57.4031Z" fill="#263238"/>
<path d="M201.645 57.1759C201.49 57.7124 201.158 58.1807 200.703 58.5052C200.248 58.8297 199.697 58.9914 199.139 58.9642C198.581 58.937 198.049 58.7226 197.628 58.3554C197.207 57.9883 196.922 57.4899 196.819 56.9408C197.455 57.5645 198.298 57.933 199.187 57.9763C200.077 58.0197 200.952 57.7348 201.645 57.1759Z" fill="#263238"/>
<path d="M186.609 52.1217L183.341 53.924C183.112 53.4728 183.065 52.9507 183.211 52.4662C183.357 51.9817 183.684 51.572 184.125 51.3225C184.34 51.2092 184.575 51.14 184.817 51.119C185.059 51.0979 185.303 51.1254 185.535 51.1999C185.766 51.2743 185.98 51.3942 186.165 51.5525C186.349 51.7108 186.5 51.9043 186.609 52.1217Z" fill="#263238"/>
<path d="M188.466 68.0833L191.945 69.3919C191.869 69.6239 191.747 69.8383 191.587 70.0225C191.427 70.2067 191.232 70.3569 191.013 70.4643C190.794 70.5717 190.555 70.6341 190.311 70.6477C190.068 70.6614 189.824 70.626 189.594 70.5438C189.124 70.3592 188.744 69.9998 188.534 69.541C188.323 69.0822 188.299 68.5597 188.466 68.0833Z" fill="#9A4A4D"/>
<path d="M202.633 53.1639L199.655 50.8758C199.794 50.6744 199.973 50.5035 200.181 50.3736C200.388 50.2436 200.62 50.1573 200.862 50.1199C201.104 50.0825 201.351 50.0948 201.588 50.1561C201.825 50.2173 202.047 50.3262 202.241 50.4762C202.638 50.789 202.899 51.242 202.972 51.7419C203.045 52.2419 202.924 52.7508 202.633 53.1639Z" fill="#263238"/>
<path d="M193.253 55.6714L193.755 64.8394L198.535 63.2095L193.253 55.6714Z" fill="#9A4A4D"/>
<path d="M166.047 85.8707C163.082 86.369 160.275 87.5552 157.851 89.3341C154.09 92.202 152.593 95.783 150.368 102.584C148.707 107.654 139.57 139.28 141.192 143.017C143.653 148.683 153.549 145.713 159.912 143.879C167.097 141.803 190.91 132.909 192.25 130.151C192.995 128.584 193.316 127.62 193.316 117.614C193.316 113.312 193.206 108.994 193.003 106.643C192.556 101.276 189.132 101.088 187.572 104.967C186.013 108.845 183.654 123.091 183.654 123.091L156.503 130.143L166.251 107.521C166.251 107.521 171.501 93.9651 166.047 85.8707Z" fill="#B16668"/>
<path d="M231.429 117.284C234.149 120.811 235.559 124.446 231.429 127.471C227.3 130.496 198.644 131.992 194.93 129.963C193.316 129.085 193.324 125.567 193.316 121.884C193.308 118.201 193.316 108.822 193.316 106.69C193.316 104.559 194.523 99.8341 196.764 100.767C199.005 101.699 201.645 119.345 201.645 119.345C211.252 119.698 224.91 114.926 231.429 117.284Z" fill="#B16668"/>
</svg>
