<svg width="343" height="343" viewBox="0 0 343 343" fill="none" xmlns="http://www.w3.org/2000/svg">
<path d="M234.612 265.482C234.612 265.482 267.54 263.424 290.178 222.95C312.816 182.476 308.7 120.736 280.574 86.436C252.448 52.136 208.544 40.474 166.698 51.45C146.31 56.794 132.714 70.658 120.962 87.3827C110.727 101.953 99.2162 115.989 83.7263 125.209C68.3873 134.333 52.6162 141.618 44.8713 158.96C26.02 201.19 39.788 250.308 84.378 266.854C132.398 284.69 212.66 275.086 234.612 265.482Z" fill="#B46B6B"/>
<path opacity="0.7" d="M234.612 265.482C234.612 265.482 267.54 263.424 290.178 222.95C312.816 182.476 308.7 120.736 280.574 86.436C252.448 52.136 208.544 40.474 166.698 51.45C146.31 56.794 132.714 70.658 120.962 87.3827C110.727 101.953 99.2162 115.989 83.7263 125.209C68.3873 134.333 52.6162 141.618 44.8713 158.96C26.02 201.19 39.788 250.308 84.378 266.854C132.398 284.69 212.66 275.086 234.612 265.482Z" fill="white"/>
<path d="M175.047 295.68C239.768 295.68 292.236 291.073 292.236 285.39C292.236 279.707 239.768 275.1 175.047 275.1C110.325 275.1 57.8572 279.707 57.8572 285.39C57.8572 291.073 110.325 295.68 175.047 295.68Z" fill="#B46B6B"/>
<path opacity="0.5" d="M175.047 295.68C239.768 295.68 292.236 291.073 292.236 285.39C292.236 279.707 239.768 275.1 175.047 275.1C110.325 275.1 57.8572 279.707 57.8572 285.39C57.8572 291.073 110.325 295.68 175.047 295.68Z" fill="white"/>
<path d="M55.5454 155.242V161.327" stroke="#263238" stroke-linecap="round" stroke-linejoin="round"/>
<path d="M58.5912 158.288H52.5063" stroke="#263238" stroke-linecap="round" stroke-linejoin="round"/>
<path d="M263.177 103.106V109.191" stroke="#263238" stroke-linecap="round" stroke-linejoin="round"/>
<path d="M266.216 106.152H260.131" stroke="#263238" stroke-linecap="round" stroke-linejoin="round"/>
<path d="M176.741 56.0051V62.0899" stroke="#263238" stroke-linecap="round" stroke-linejoin="round"/>
<path d="M179.78 59.0441H173.695" stroke="#263238" stroke-linecap="round" stroke-linejoin="round"/>
<path d="M76.585 223.389V229.474" stroke="#263238" stroke-linecap="round" stroke-linejoin="round"/>
<path d="M79.6239 226.428H73.5391" stroke="#263238" stroke-linecap="round" stroke-linejoin="round"/>
<path d="M260.454 81.1744C260.455 82.1706 260.161 83.1448 259.609 83.9737C259.056 84.8026 258.27 85.4491 257.35 85.8312C256.43 86.2134 255.418 86.3141 254.44 86.1206C253.463 85.9271 252.565 85.4481 251.861 84.7441C251.156 84.0402 250.675 83.143 250.481 82.1661C250.286 81.1892 250.385 80.1764 250.766 79.256C251.147 78.3355 251.792 77.5487 252.62 76.9951C253.449 76.4415 254.422 76.146 255.419 76.146C256.753 76.146 258.032 76.6756 258.977 77.6184C259.921 78.5612 260.452 79.8402 260.454 81.1744Z" stroke="#263238" stroke-linecap="round" stroke-linejoin="round"/>
<path d="M45.1429 201.99C47.7086 200.927 48.9269 197.985 47.8642 195.42C46.8015 192.854 43.86 191.636 41.2943 192.698C38.7286 193.761 37.5102 196.703 38.573 199.268C39.6357 201.834 42.5772 203.052 45.1429 201.99Z" stroke="#263238" stroke-linecap="round" stroke-linejoin="round"/>
<path d="M283.318 132.624C283.33 132.782 283.31 132.94 283.258 133.089C283.206 133.238 283.124 133.375 283.017 133.491C282.909 133.607 282.779 133.699 282.635 133.763C282.49 133.826 282.334 133.859 282.176 133.859C282.018 133.859 281.862 133.826 281.717 133.763C281.572 133.699 281.442 133.607 281.335 133.491C281.228 133.375 281.146 133.238 281.094 133.089C281.042 132.94 281.021 132.782 281.034 132.624C281.056 132.337 281.186 132.068 281.398 131.872C281.61 131.676 281.887 131.567 282.176 131.567C282.464 131.567 282.742 131.676 282.954 131.872C283.166 132.068 283.296 132.337 283.318 132.624Z" stroke="#263238" stroke-linecap="round" stroke-linejoin="round"/>
<path d="M108.848 116.16C108.849 116.387 108.783 116.609 108.658 116.799C108.533 116.988 108.354 117.136 108.145 117.224C107.936 117.311 107.705 117.335 107.483 117.292C107.26 117.248 107.055 117.14 106.894 116.98C106.733 116.82 106.624 116.616 106.579 116.393C106.534 116.171 106.556 115.94 106.643 115.73C106.729 115.521 106.876 115.341 107.065 115.215C107.253 115.089 107.475 115.022 107.702 115.022C108.005 115.022 108.295 115.141 108.51 115.355C108.724 115.568 108.846 115.858 108.848 116.16Z" stroke="#263238" stroke-linecap="round" stroke-linejoin="round"/>
<path d="M301.099 183.622V183.587H301.058V183.553C300.104 183.457 290.233 182.613 281.226 187.292C285.205 182.293 287.04 175.921 286.329 169.572C284.155 147.826 263.637 135.382 262.052 134.449V134.456H262.004H261.956C260.371 135.389 239.853 147.833 237.678 169.579C237.214 173.789 237.862 178.047 239.558 181.927C228.006 175.019 214.533 176.185 213.291 176.309V176.268V176.316H213.243V176.35C212.632 177.756 204.922 196.299 214.183 212.056C222.47 226.147 239.846 222.422 244.566 221.098C248.531 225.262 255.761 234.742 258.972 250.918H254.472L256.564 281.596H266.689L268.912 250.959H263.609C266.039 239.995 270.421 229.557 276.547 220.144C281.274 221.324 294.061 223.314 300.365 212.598C307.856 199.804 301.6 184.767 301.099 183.622ZM261.681 183.505L250.98 168.639C250.957 168.609 250.941 168.574 250.932 168.537C250.922 168.5 250.921 168.462 250.926 168.424C250.932 168.387 250.945 168.35 250.965 168.318C250.985 168.285 251.011 168.257 251.042 168.235C251.104 168.188 251.183 168.169 251.26 168.181C251.337 168.192 251.407 168.234 251.453 168.296L261.702 182.531V167.473L251 152.614C250.954 152.552 250.935 152.473 250.946 152.396C250.958 152.319 251 152.249 251.062 152.203C251.126 152.159 251.205 152.142 251.282 152.155C251.358 152.167 251.427 152.209 251.474 152.271L261.723 166.506V144.554C261.723 144.516 261.73 144.479 261.745 144.444C261.759 144.409 261.78 144.377 261.807 144.35C261.834 144.323 261.866 144.302 261.9 144.288C261.935 144.273 261.973 144.266 262.011 144.266C262.087 144.266 262.16 144.296 262.214 144.35C262.269 144.404 262.299 144.478 262.299 144.554V165.744L273.412 151.654C273.459 151.593 273.529 151.553 273.605 151.544C273.682 151.534 273.759 151.555 273.82 151.603C273.881 151.65 273.921 151.719 273.93 151.796C273.94 151.873 273.919 151.95 273.872 152.011L262.299 166.684V181.776L273.412 167.679C273.461 167.618 273.531 167.58 273.608 167.571C273.685 167.562 273.763 167.583 273.824 167.631C273.853 167.654 273.878 167.683 273.897 167.716C273.915 167.749 273.927 167.786 273.932 167.823C273.936 167.861 273.933 167.899 273.923 167.936C273.912 167.972 273.895 168.006 273.872 168.036L262.299 182.716V195.51L273.412 181.42C273.459 181.359 273.529 181.319 273.605 181.309C273.682 181.3 273.759 181.321 273.82 181.368C273.881 181.415 273.921 181.485 273.93 181.562C273.94 181.638 273.919 181.715 273.872 181.776L262.299 196.45V196.731H261.366L251.014 182.325C250.968 182.262 250.948 182.184 250.96 182.107C250.972 182.029 251.013 181.96 251.076 181.913C251.14 181.87 251.219 181.852 251.295 181.865C251.372 181.878 251.441 181.92 251.488 181.982L261.702 196.196V183.478L261.681 183.505ZM244.676 219.788L243.626 218.347L228.534 214.149C228.474 214.128 228.423 214.086 228.393 214.03C228.362 213.974 228.354 213.909 228.369 213.847C228.387 213.784 228.428 213.731 228.485 213.699C228.542 213.667 228.608 213.658 228.671 213.675L243.132 217.709L236.841 209.107L221.749 204.908C221.687 204.891 221.634 204.849 221.602 204.793C221.57 204.736 221.561 204.669 221.578 204.606C221.598 204.546 221.641 204.496 221.697 204.465C221.753 204.435 221.818 204.426 221.88 204.442L236.347 208.475L228.911 198.295L213.819 194.097C213.789 194.089 213.76 194.075 213.735 194.056C213.71 194.036 213.689 194.012 213.674 193.985C213.658 193.957 213.649 193.927 213.645 193.895C213.642 193.864 213.645 193.832 213.655 193.802C213.663 193.771 213.677 193.742 213.696 193.717C213.715 193.692 213.739 193.671 213.766 193.655C213.794 193.639 213.824 193.628 213.856 193.624C213.887 193.62 213.919 193.622 213.95 193.63L228.417 197.664L217.956 183.354C217.918 183.301 217.902 183.236 217.913 183.171C217.923 183.107 217.958 183.05 218.011 183.011C218.036 182.992 218.065 182.978 218.096 182.97C218.127 182.962 218.159 182.96 218.191 182.966C218.222 182.971 218.252 182.982 218.279 183C218.306 183.017 218.329 183.039 218.347 183.066L229.172 197.87L229.124 183.196C229.126 183.131 229.152 183.07 229.198 183.024C229.244 182.978 229.306 182.951 229.371 182.949C229.435 182.951 229.496 182.978 229.541 183.024C229.586 183.07 229.611 183.132 229.611 183.196L229.721 198.515L237.157 208.688L237.047 194.015C237.041 193.979 237.043 193.943 237.053 193.908C237.062 193.874 237.079 193.841 237.102 193.814C237.125 193.787 237.154 193.765 237.187 193.75C237.219 193.734 237.255 193.727 237.291 193.727C237.327 193.727 237.362 193.734 237.395 193.75C237.427 193.765 237.456 193.787 237.479 193.814C237.502 193.841 237.519 193.874 237.529 193.908C237.538 193.943 237.54 193.979 237.534 194.015L237.644 209.34L243.928 217.935L243.818 203.262C243.82 203.198 243.847 203.136 243.893 203.092C243.939 203.047 244.001 203.022 244.065 203.022C244.129 203.022 244.19 203.047 244.235 203.092C244.28 203.137 244.305 203.198 244.305 203.262L244.415 218.587L245.314 219.815L244.676 219.788ZM246.391 219.788C248.586 216.447 254.924 205.478 251.138 194.92C254.081 196.862 257.231 198.473 260.529 199.722V247.358C257.051 232.76 250.507 224.034 246.514 219.788H246.391ZM262.855 244.422V199.942C265.993 198.802 269.003 197.335 271.834 195.565C265.791 205.251 272.561 216.44 274.345 219.081C269.268 226.905 265.394 235.447 262.855 244.422ZM300.53 197.986L288.312 201.416L282.275 209.648L294.013 206.376C294.038 206.368 294.065 206.365 294.091 206.367C294.117 206.37 294.143 206.378 294.166 206.391C294.189 206.404 294.21 206.421 294.226 206.442C294.242 206.463 294.253 206.488 294.26 206.513C294.272 206.563 294.265 206.616 294.24 206.661C294.214 206.706 294.172 206.739 294.122 206.754L281.905 210.184L276.801 217.16L288.538 213.888C288.588 213.875 288.641 213.882 288.686 213.908C288.731 213.934 288.764 213.976 288.778 214.025C288.791 214.076 288.784 214.13 288.759 214.176C288.733 214.222 288.691 214.256 288.641 214.272L276.424 217.702L275.779 218.58C275.662 218.512 275.552 218.45 275.443 218.374L275.806 217.874L275.902 205.443C275.897 205.415 275.898 205.385 275.905 205.357C275.912 205.328 275.926 205.302 275.945 205.28C275.963 205.257 275.987 205.239 276.013 205.226C276.04 205.214 276.069 205.208 276.098 205.208C276.127 205.208 276.156 205.214 276.182 205.226C276.209 205.239 276.232 205.257 276.251 205.28C276.27 205.302 276.283 205.328 276.29 205.357C276.298 205.385 276.299 205.415 276.293 205.443L276.211 217.352L281.26 210.341L281.349 197.911C281.349 197.885 281.354 197.86 281.364 197.836C281.374 197.812 281.389 197.791 281.408 197.773C281.426 197.755 281.448 197.741 281.472 197.732C281.497 197.722 281.522 197.718 281.548 197.719C281.574 197.719 281.6 197.724 281.624 197.734C281.648 197.744 281.67 197.759 281.689 197.777C281.707 197.796 281.722 197.818 281.732 197.842C281.742 197.866 281.747 197.892 281.747 197.918L281.658 209.82L287.695 201.588L287.784 189.158C287.784 189.132 287.789 189.106 287.799 189.082C287.809 189.057 287.824 189.035 287.842 189.017C287.861 188.999 287.882 188.984 287.907 188.974C287.931 188.964 287.957 188.959 287.983 188.959C288.008 188.959 288.034 188.964 288.058 188.974C288.082 188.984 288.103 188.999 288.121 189.017C288.139 189.036 288.153 189.058 288.162 189.082C288.171 189.106 288.176 189.132 288.175 189.158L288.092 201.06L296.873 189.048C296.905 189.007 296.951 188.979 297.002 188.972C297.053 188.964 297.106 188.976 297.148 189.007C297.169 189.022 297.187 189.041 297.2 189.063C297.214 189.085 297.223 189.11 297.227 189.135C297.231 189.161 297.229 189.187 297.223 189.212C297.216 189.237 297.205 189.261 297.189 189.281L288.703 200.895L300.44 197.623C300.49 197.61 300.543 197.617 300.588 197.643C300.633 197.669 300.666 197.711 300.681 197.76C300.687 197.785 300.687 197.811 300.683 197.836C300.678 197.861 300.669 197.885 300.655 197.906C300.64 197.928 300.622 197.946 300.601 197.959C300.579 197.973 300.555 197.982 300.53 197.986Z" fill="#263238"/>
<path d="M233.851 76.8869H127.932C125.375 76.8869 123.302 78.96 123.302 81.5174V279.833C123.302 282.39 125.375 284.464 127.932 284.464H233.851C236.408 284.464 238.481 282.39 238.481 279.833V81.5174C238.481 78.96 236.408 76.8869 233.851 76.8869Z" fill="#263238" stroke="#263238" stroke-linecap="round" stroke-linejoin="round"/>
<path d="M230.194 76.8869H124.276C121.718 76.8869 119.645 78.96 119.645 81.5174V279.833C119.645 282.39 121.718 284.464 124.276 284.464H230.194C232.752 284.464 234.825 282.39 234.825 279.833V81.5174C234.825 78.96 232.752 76.8869 230.194 76.8869Z" fill="white"/>
<mask id="mask0_342_956" style="mask-type:luminance" maskUnits="userSpaceOnUse" x="119" y="76" width="116" height="209">
<path d="M230.194 76.8869H124.276C121.718 76.8869 119.645 78.96 119.645 81.5174V279.833C119.645 282.39 121.718 284.464 124.276 284.464H230.194C232.752 284.464 234.825 282.39 234.825 279.833V81.5174C234.825 78.96 232.752 76.8869 230.194 76.8869Z" fill="white"/>
</mask>
<g mask="url(#mask0_342_956)">
<path d="M234.825 155.214L133.544 284.47H230.201C231.428 284.469 232.604 283.98 233.471 283.112C234.338 282.244 234.825 281.067 234.825 279.84V155.214Z" fill="#B46B6B"/>
<path opacity="0.5" d="M234.825 155.214L133.544 284.47H230.201C231.428 284.469 232.604 283.98 233.471 283.112C234.338 282.244 234.825 281.067 234.825 279.84V155.214Z" fill="white"/>
</g>
<path d="M230.194 76.8869H124.276C121.718 76.8869 119.645 78.96 119.645 81.5174V279.833C119.645 282.39 121.718 284.464 124.276 284.464H230.194C232.752 284.464 234.825 282.39 234.825 279.833V81.5174C234.825 78.96 232.752 76.8869 230.194 76.8869Z" stroke="#263238" stroke-linecap="round" stroke-linejoin="round"/>
<path d="M185.22 89.2898H170.883C170.491 89.2898 170.116 89.1344 169.84 88.8578C169.563 88.5812 169.408 88.206 169.408 87.8149C169.408 87.6215 169.446 87.43 169.52 87.2515C169.594 87.0729 169.703 86.9108 169.84 86.7744C169.977 86.638 170.14 86.53 170.319 86.4566C170.498 86.3832 170.689 86.3459 170.883 86.3468H185.22C185.609 86.3468 185.983 86.5015 186.258 86.7768C186.533 87.0521 186.688 87.4255 186.688 87.8149C186.689 88.0082 186.652 88.1999 186.578 88.3788C186.505 88.5577 186.397 88.7203 186.261 88.8574C186.124 88.9944 185.962 89.1032 185.783 89.1774C185.605 89.2516 185.413 89.2898 185.22 89.2898Z" fill="#263238" stroke="#263238" stroke-linecap="round" stroke-linejoin="round"/>
<path d="M227.546 265.914H126.91V89.4612H150.762L153.444 91.6839C154.381 92.4635 155.56 92.8907 156.778 92.8912H198.864C200.128 92.8861 201.347 92.423 202.294 91.5878L204.723 89.4612H227.546V265.914Z" fill="#263238" stroke="#263238" stroke-linecap="round" stroke-linejoin="round"/>
<path d="M145.802 227.869H208.668" stroke="white" stroke-linecap="round" stroke-linejoin="round"/>
<path d="M145.802 236.142H208.668" stroke="white" stroke-linecap="round" stroke-linejoin="round"/>
<path d="M145.802 244.415H208.668" stroke="white" stroke-linecap="round" stroke-linejoin="round"/>
<path d="M151.606 151.057C147.655 156.782 145.737 163.665 146.157 170.608C146.577 177.55 149.311 184.152 153.924 189.358C158.536 194.565 164.76 198.075 171.601 199.329C178.443 200.583 185.507 199.508 191.666 196.276C197.825 193.044 202.723 187.841 205.578 181.499C208.433 175.156 209.081 168.04 207.417 161.286C205.753 154.533 201.874 148.532 196.399 144.242C190.924 139.951 184.17 137.619 177.214 137.618C175.307 137.619 173.404 137.791 171.527 138.133" stroke="white" stroke-linecap="round" stroke-linejoin="round"/>
<path d="M156.909 145.178C155.864 146.083 154.878 147.054 153.959 148.087" stroke="white" stroke-linecap="round" stroke-linejoin="round"/>
<path d="M201.521 179.078C207.234 165.666 200.992 150.161 187.579 144.448C174.166 138.736 158.662 144.978 152.949 158.391C147.236 171.804 153.478 187.308 166.891 193.021C180.304 198.734 195.809 192.491 201.521 179.078Z" fill="#B46B6B"/>
<path d="M165.045 165.991L175.06 177.372L191.442 154.165" stroke="#263238" stroke-width="6" stroke-linecap="round" stroke-linejoin="round"/>
<path d="M202.322 91.5878C201.374 92.423 200.155 92.8861 198.892 92.8912H156.792C155.574 92.8907 154.394 92.4635 153.458 91.6839L150.776 89.4612H126.91V107.51H227.546V89.4612H204.75L202.322 91.5878Z" fill="#B46B6B" stroke="#263238" stroke-linecap="round" stroke-linejoin="round"/>
<path d="M180.452 271.354C180.454 270.9 180.32 270.456 180.069 270.079C179.818 269.701 179.46 269.406 179.041 269.232C178.622 269.058 178.161 269.012 177.716 269.1C177.271 269.188 176.862 269.406 176.541 269.727C176.22 270.048 176.002 270.457 175.914 270.902C175.825 271.347 175.871 271.808 176.046 272.227C176.22 272.646 176.515 273.004 176.892 273.255C177.27 273.506 177.714 273.64 178.168 273.639C178.773 273.637 179.353 273.395 179.781 272.967C180.209 272.539 180.451 271.959 180.452 271.354Z" fill="#263238" stroke="#263238" stroke-linecap="round" stroke-linejoin="round"/>
<path d="M90.9499 201.176L81.977 281.438C81.977 281.438 75.3982 287.16 75.9745 289.471C76.5507 291.783 84.1447 288.099 85.1943 286.192C85.9392 284.605 86.4697 282.925 86.7721 281.198L105.665 220.83L120.194 285.568C120.194 285.568 126.368 290.638 129.798 290.466C133.228 290.295 132.007 288.943 130.052 286.467C128.097 283.99 123.672 282.577 123.672 282.577L121.491 199.139L90.9499 201.176Z" fill="#263238" stroke="#263238" stroke-linecap="round" stroke-linejoin="round"/>
<path d="M120.998 197.735L90.8533 199.267L91.0622 203.378L121.207 201.846L120.998 197.735Z" fill="#263238" stroke="#263238" stroke-linecap="round" stroke-linejoin="round"/>
<path d="M109.554 200.346C109.602 201.368 108.306 202.26 106.646 202.349C104.986 202.439 103.586 201.684 103.586 200.655C103.586 199.626 104.842 198.741 106.495 198.659C108.148 198.576 109.499 199.331 109.554 200.346Z" fill="white"/>
<path d="M104.389 158.171L93.0559 161.491L94.4622 199.372L121.045 198.714L117.683 159.557L104.389 158.171Z" fill="white" stroke="#263238" stroke-linecap="round" stroke-linejoin="round"/>
<path d="M99.429 158.596L97.9061 223.238L83.4727 216.248L89.8182 195.832L85.4895 161.361L99.429 158.596Z" fill="#B46B6B" stroke="#263238" stroke-linecap="round" stroke-linejoin="round"/>
<path d="M110.906 158.013L118.973 222.168L132.631 213.751L124.248 194.083L125.058 159.351L110.906 158.013Z" fill="#B46B6B" stroke="#263238" stroke-linecap="round" stroke-linejoin="round"/>
<path d="M102.317 165.834L104.567 169.497L102.77 195.002L107.037 200.051L109.245 193.987L105.829 169.545L107.935 166.005L104.876 162.04L102.317 165.834Z" fill="#263238" stroke="#263238" stroke-linecap="round" stroke-linejoin="round"/>
<path d="M105.102 165.347L100.856 168.543L97.4531 160.243L99.3671 157.279L109.76 156.751L112.216 160.064L110.192 167.61L105.102 165.347Z" fill="white" stroke="#263238" stroke-linecap="round" stroke-linejoin="round"/>
<path d="M100.231 154.089L101.185 159.365L105.102 165.347L108.69 158.294L108.463 153.842L100.231 154.089Z" fill="white" stroke="#263238" stroke-linecap="round" stroke-linejoin="round"/>
<path d="M85.4894 161.361L66.2402 184.664L79.0341 199.811L84.186 196.464L77.8611 183.56L87.3004 176.727L85.4894 161.361Z" fill="#B46B6B" stroke="#263238" stroke-linecap="round" stroke-linejoin="round"/>
<path d="M84.1859 196.464L84.9543 198.137L80.6187 200.593L80.0356 199.249L84.1859 196.464Z" fill="white" stroke="#263238" stroke-linecap="round" stroke-linejoin="round"/>
<path d="M84.9544 198.137L89.3722 203.927L87.9179 205.718L86.8615 205.258L84.7211 207.083C84.7211 207.083 83.157 206.644 82.9581 206.143C82.7592 205.642 80.6394 204.366 80.5914 203.516C80.5434 202.665 80.5914 200.593 80.5914 200.593L84.9544 198.137Z" fill="white" stroke="#263238" stroke-linecap="round" stroke-linejoin="round"/>
<path d="M135.78 163.899C136.041 163.219 136.098 162.478 135.945 161.766C135.629 160.949 134.929 158.123 135.067 157.19C135.204 156.257 136.617 154.899 136.741 153.691C136.864 152.484 136.741 151.38 136.741 150.728C136.752 150.55 136.821 150.38 136.936 150.243C137.052 150.107 137.209 150.012 137.383 149.972C137.557 149.932 137.739 149.949 137.903 150.021C138.067 150.093 138.203 150.216 138.291 150.371C138.977 151.167 139.388 151.983 139.059 152.827C138.835 153.771 138.729 154.739 138.744 155.708C138.744 155.708 139.841 157.224 140.445 158.212C141.049 159.2 140.994 161.786 140.589 162.822C140.212 163.607 139.68 164.307 139.025 164.88L139.093 166.664L135.78 163.899Z" fill="white" stroke="#263238" stroke-linecap="round" stroke-linejoin="round"/>
<path d="M137.783 154.281C137.783 154.281 137.303 155.695 138.147 156.017C138.991 156.339 142.441 156.82 142.476 155.708C142.51 154.597 142.578 154.041 142.023 154.069C141.467 154.096 138.881 154.069 138.881 154.069C138.881 154.069 137.68 154.007 137.783 154.281Z" fill="white" stroke="#263238" stroke-linecap="round" stroke-linejoin="round"/>
<path d="M138.174 161.21C138.174 161.21 137.831 162.26 138.442 162.5C139.052 162.74 141.536 163.103 141.556 162.273C141.577 161.443 141.625 161.032 141.227 161.052C140.829 161.073 138.963 161.052 138.963 161.052C138.963 161.052 138.099 160.99 138.174 161.21Z" fill="white" stroke="#263238" stroke-linecap="round" stroke-linejoin="round"/>
<path d="M137.715 158.967C137.715 158.967 137.317 160.188 138.023 160.469C138.73 160.75 141.604 161.155 141.632 160.208C141.659 159.262 141.714 158.768 141.248 158.788C140.781 158.809 138.627 158.788 138.627 158.788C138.627 158.788 137.625 158.734 137.715 158.967Z" fill="white" stroke="#263238" stroke-linecap="round" stroke-linejoin="round"/>
<path d="M137.447 156.792C137.447 156.792 136.967 158.205 137.817 158.528C138.668 158.85 142.105 159.33 142.139 158.219C142.174 157.108 142.242 156.552 141.687 156.58C141.131 156.607 138.545 156.58 138.545 156.58C138.545 156.58 137.344 156.525 137.447 156.792Z" fill="white" stroke="#263238" stroke-linecap="round" stroke-linejoin="round"/>
<path d="M135.389 165.305L135.924 163.151L139.642 165.367L139.018 167.706L135.389 165.305Z" fill="white" stroke="#263238" stroke-linecap="round" stroke-linejoin="round"/>
<path d="M125.058 159.351L132.179 174.505L135.677 164.757L139.107 168.022L135.595 186.091C135.485 186.648 135.216 187.16 134.819 187.565C134.422 187.97 133.916 188.25 133.362 188.371C132.808 188.492 132.231 188.449 131.701 188.246C131.171 188.043 130.713 187.69 130.381 187.23L124.694 179.293L125.058 159.351Z" fill="#B46B6B" stroke="#263238" stroke-linecap="round" stroke-linejoin="round"/>
<path d="M96.9182 147.929C96.9182 147.929 95.4776 146.392 95.2924 147.517C95.1072 148.642 95.6902 150.584 96.5958 151.277C97.5013 151.97 98.297 150.824 98.297 150.824L96.9182 147.929Z" fill="white" stroke="#263238" stroke-linecap="round" stroke-linejoin="round"/>
<path d="M110.535 147.236C110.535 147.236 111.804 145.562 112.113 146.66C112.422 147.758 112.024 149.754 111.194 150.536C110.364 151.318 109.451 150.255 109.451 150.255L110.535 147.236Z" fill="white" stroke="#263238" stroke-linecap="round" stroke-linejoin="round"/>
<path d="M97.4945 149.507L96.1225 146.605C95.0182 145.051 94.2539 143.281 93.8793 141.412C93.1933 138.229 94.3252 135.581 95.7658 134.765C96.5754 134.28 97.5313 134.1 98.4618 134.257C98.4618 134.257 98.7362 132.391 103.264 130.827C107.791 129.263 112.717 132.082 112.641 133.07C112.566 134.058 111.359 134.497 111.359 134.497C111.359 134.497 114.885 135.801 113.609 137.468C112.822 138.486 111.804 139.302 110.638 139.848C110.894 140.689 111.102 141.543 111.263 142.407C111.441 143.511 110.446 148.258 110.446 148.258L108.011 141.584L100.369 141.975C100.369 141.975 99.9161 145.212 99.1066 146.365C98.5899 147.24 98.302 148.231 98.2697 149.246C98.2697 149.246 97.913 150.467 97.4945 149.507Z" fill="#263238" stroke="#263238" stroke-linecap="round" stroke-linejoin="round"/>
<path d="M98.8526 137.447C98.8395 139.439 98.6951 141.428 98.4204 143.401C98.2551 144.499 97.6879 145.497 96.8289 146.2C96.8289 146.2 97.803 150.721 99.0378 153.129C100.273 155.537 102.838 157.512 105.424 157.245C108.011 156.977 110.076 154.041 110.322 151.558C110.569 149.075 109.355 139.896 109.355 139.896C109.355 139.896 101.274 141.316 98.8526 137.447Z" fill="white" stroke="#263238" stroke-linecap="round" stroke-linejoin="round"/>
<path d="M99.5386 146.729C99.9505 146.485 100.416 146.345 100.894 146.321C101.372 146.297 101.848 146.39 102.283 146.591" stroke="#263238" stroke-linecap="round" stroke-linejoin="round"/>
<path d="M99.429 144.671C99.429 144.671 99.5867 143.299 101.878 143.175" stroke="#263238" stroke-linecap="round" stroke-linejoin="round"/>
<path d="M105.527 142.873C106.046 142.661 106.619 142.62 107.162 142.757C107.705 142.894 108.19 143.202 108.546 143.635" stroke="#263238" stroke-linecap="round" stroke-linejoin="round"/>
<path d="M104.725 145.089C104.725 145.089 105.088 147.833 105.109 148.169C105.13 148.505 106.275 148.567 105.966 149.267C105.658 149.966 104.663 150.707 103.833 150.179" stroke="#263238" stroke-linecap="round" stroke-linejoin="round"/>
<path d="M106.015 152.477C106.015 152.477 105.143 153.321 103.387 152.608" stroke="#263238" stroke-linecap="round" stroke-linejoin="round"/>
<path d="M107.75 145.967C107.75 146.475 107.537 146.9 107.222 146.914C106.906 146.927 106.632 146.53 106.604 146.029C106.577 145.528 106.817 145.103 107.133 145.082C107.448 145.062 107.702 145.466 107.75 145.967Z" fill="#263238"/>
</svg>
