<svg width="343" height="343" viewBox="0 0 343 343" fill="none" xmlns="http://www.w3.org/2000/svg">
<path d="M66.7204 294.603C125.758 325.473 221.482 325.473 280.519 294.603C339.556 263.733 339.556 213.751 280.519 182.908C221.482 152.066 125.758 152.038 66.7204 182.908C7.68323 213.778 7.67636 263.767 66.7204 294.603Z" fill="#F5F5F5"/>
<path d="M243.297 266.607C258.789 266.607 271.347 259.356 271.347 250.411C271.347 241.466 258.789 234.214 243.297 234.214C227.805 234.214 215.246 241.466 215.246 250.411C215.246 259.356 227.805 266.607 243.297 266.607Z" fill="#E0E0E0"/>
<path d="M72.4416 241.952C72.0231 237.191 67.7219 227.635 62.2408 221.887C56.7596 216.138 48.6031 212.283 43.2523 214.663C38.2651 216.872 39.4107 223.581 46.0374 227.484C52.6642 231.388 62.5014 236.197 65.9314 243.681L72.5102 252.654L72.4416 241.952Z" fill="#B46B6B"/>
<path opacity="0.1" d="M72.4416 241.952C72.0231 237.191 67.7219 227.635 62.2408 221.887C56.7596 216.138 48.6031 212.283 43.2523 214.663C38.2651 216.872 39.4107 223.581 46.0374 227.484C52.6642 231.388 62.5014 236.197 65.9314 243.681L72.5102 252.654L72.4416 241.952Z" fill="black"/>
<path d="M73.3609 248.435C73.2843 248.437 73.2092 248.413 73.1481 248.367C73.087 248.321 73.0434 248.255 73.0247 248.181C68.4148 232.211 54.1186 220.158 45.9963 217.922C45.9513 217.909 45.9091 217.889 45.8721 217.86C45.8351 217.832 45.8042 217.796 45.7809 217.756C45.7577 217.715 45.7426 217.671 45.7366 217.624C45.7306 217.578 45.7338 217.531 45.7459 217.486C45.7581 217.441 45.779 217.399 45.8075 217.362C45.8359 217.325 45.8714 217.294 45.9119 217.271C45.9523 217.247 45.997 217.232 46.0432 217.226C46.0895 217.22 46.1365 217.223 46.1815 217.236C54.4547 219.513 69.0185 231.765 73.6901 247.975C73.7038 248.019 73.7086 248.065 73.7042 248.11C73.6998 248.156 73.6863 248.2 73.6646 248.241C73.6429 248.281 73.6133 248.316 73.5776 248.345C73.542 248.374 73.5009 248.395 73.4569 248.407L73.3609 248.435Z" fill="white"/>
<path d="M71.8448 259.047C70.8432 256.441 67.1937 252.311 61.5548 249.121C55.3808 245.602 47.7936 244.394 45.7768 241.397C43.3964 237.809 46.2707 233.967 52.3418 234.187C58.4129 234.406 69.6839 241.678 72.4553 253.868L71.8448 259.047Z" fill="#B46B6B"/>
<path d="M72.7639 256.139C72.696 256.139 72.6293 256.12 72.5721 256.084C72.5148 256.047 72.4694 255.995 72.4415 255.933C66.2675 242.453 55.1954 238.495 50.2219 238.282C50.176 238.28 50.1308 238.27 50.089 238.25C50.0473 238.231 50.0097 238.204 49.9785 238.17C49.9472 238.136 49.923 238.097 49.9071 238.054C49.8912 238.01 49.8839 237.965 49.8858 237.919C49.8866 237.873 49.8968 237.827 49.9158 237.785C49.9348 237.744 49.9621 237.706 49.9962 237.675C50.0303 237.644 50.0703 237.621 50.1139 237.606C50.1574 237.591 50.2035 237.586 50.2494 237.589C55.7374 237.816 66.7134 241.877 73.0794 255.645C73.1151 255.729 73.1171 255.823 73.0852 255.909C73.0533 255.994 72.9899 256.064 72.9079 256.104C72.8627 256.125 72.8137 256.137 72.7639 256.139Z" fill="white"/>
<path d="M258.739 235.785C258.636 231.95 259.699 225.529 263.472 219.115C267.513 212.255 272.843 207.659 277.322 209.059C281.493 210.362 280.574 216.021 274.304 222.189C269.9 226.517 265.482 232.005 263.424 238.282L259.898 246.363L258.739 235.785Z" fill="#B46B6B"/>
<path d="M258.739 235.785C258.636 231.95 259.699 225.529 263.472 219.115C267.513 212.255 272.843 207.659 277.322 209.059C281.493 210.362 280.574 216.021 274.304 222.189C269.9 226.517 265.482 232.005 263.424 238.282L259.898 246.363L258.739 235.785Z" fill="#B46B6B"/>
<g opacity="0.1">
<path d="M258.739 235.785C258.636 231.95 259.699 225.529 263.472 219.115C267.513 212.255 272.843 207.659 277.322 209.059C281.493 210.362 280.574 216.021 274.304 222.189C269.9 226.517 265.482 232.005 263.424 238.282L259.898 246.363L258.739 235.785Z" fill="black"/>
</g>
<path d="M259.438 238.632C259.494 238.627 259.547 238.605 259.589 238.568C259.631 238.531 259.66 238.481 259.672 238.426C262.361 227.491 269.166 215.98 275.511 211.672C275.562 211.628 275.594 211.568 275.603 211.502C275.612 211.436 275.596 211.369 275.559 211.313C275.522 211.258 275.466 211.218 275.402 211.201C275.338 211.183 275.269 211.19 275.21 211.219C268.768 215.617 261.86 227.258 259.144 238.316C259.135 238.351 259.134 238.386 259.14 238.421C259.145 238.456 259.158 238.489 259.176 238.519C259.195 238.549 259.219 238.575 259.247 238.595C259.276 238.616 259.308 238.631 259.342 238.639C259.375 238.643 259.407 238.641 259.438 238.632Z" fill="white"/>
<path d="M258.704 248.181C260.821 250.059 263.395 251.347 266.168 251.913C270.97 252.963 273.206 250.788 273.206 250.788C273.206 250.788 271.574 246.157 268.919 244.724C271.841 245.563 274.599 246.892 277.075 248.654C277.075 248.654 280.012 248.874 281.452 244.456C281.452 244.456 279.867 241.644 274.105 239.839C277.023 239.492 279.982 239.816 282.756 240.786C283.133 240.964 285.115 235.257 285.774 232.609C286.432 229.961 285.349 229.92 283.297 229.241C281.246 228.562 274.146 227.786 272.774 228.856C271.402 229.927 270.497 233.809 270.497 233.809C270.497 233.809 269.379 231.518 269.811 229.549C268.38 229.046 266.829 228.991 265.365 229.392C262.971 230.078 263.054 231.223 262.951 232.931C262.84 234.65 262.974 236.375 263.349 238.056C263.349 238.056 261.812 236.553 262.066 231.381C262.066 231.381 258.732 233.905 257.319 236.183C255.906 238.46 255.878 244.518 258.704 248.181Z" fill="#B46B6B"/>
<path d="M258.684 248.456C258.735 248.458 258.785 248.447 258.83 248.423C258.875 248.399 258.912 248.363 258.938 248.318C263.307 240.47 278.324 231.944 283.565 231.244C283.6 231.239 283.634 231.227 283.664 231.209C283.695 231.191 283.722 231.167 283.743 231.139C283.764 231.11 283.78 231.078 283.789 231.044C283.798 231.009 283.8 230.974 283.795 230.939C283.79 230.903 283.778 230.87 283.76 230.839C283.742 230.808 283.718 230.782 283.69 230.76C283.661 230.739 283.629 230.723 283.595 230.715C283.56 230.706 283.525 230.704 283.489 230.709C278.166 231.395 262.909 240.079 258.464 248.051C258.429 248.114 258.421 248.188 258.44 248.257C258.459 248.326 258.505 248.385 258.567 248.421C258.603 248.442 258.643 248.454 258.684 248.456Z" fill="white"/>
<path d="M76.1461 264.302L74.2801 263.225C73.4811 262.704 72.8162 262.002 72.3395 261.176C71.8627 260.35 71.5875 259.423 71.5361 258.471V94.8669C71.5869 93.9135 71.8619 92.9855 72.3387 92.1583C72.8155 91.3311 73.4806 90.628 74.2801 90.1061L149.74 46.5451C150.59 46.1131 151.53 45.8879 152.484 45.8879C153.438 45.8879 154.378 46.1131 155.228 46.5451L157.094 47.6221C157.893 48.1433 158.557 48.8454 159.034 49.6713C159.511 50.4972 159.786 51.4239 159.838 52.3761V215.987C159.786 216.939 159.511 217.866 159.034 218.692C158.557 219.518 157.893 220.22 157.094 220.741L81.6341 264.302C80.7839 264.734 79.8437 264.959 78.8901 264.959C77.9364 264.959 76.9962 264.734 76.1461 264.302Z" fill="#37474F"/>
<path d="M82.5739 98.098L72.3388 92.1915C71.8464 93.0124 71.5702 93.9447 71.5361 94.9012V258.471C71.5875 259.423 71.8627 260.35 72.3395 261.176C72.8162 262.002 73.4811 262.704 74.2801 263.225L76.1461 264.302C76.9962 264.734 77.9364 264.959 78.8901 264.959C79.8437 264.959 80.7839 264.734 81.6341 264.302L82.567 263.767L82.5739 98.098Z" fill="#263238"/>
<path d="M78.8901 99.1133V262.738C78.8901 264.494 80.1181 265.201 81.6341 264.323L157.094 220.762C157.893 220.24 158.557 219.538 159.034 218.712C159.511 217.887 159.786 216.96 159.838 216.008V52.3761C159.838 50.6268 158.61 49.9202 157.094 50.7915L81.6341 94.3593C80.8344 94.8793 80.1689 95.581 79.692 96.4072C79.2151 97.2334 78.9404 98.1607 78.8901 99.1133Z" fill="#455A64"/>
<path d="M84.927 109.458L153.527 69.8417C154.823 69.0939 155.88 69.7045 155.88 71.2137V201.725C155.836 202.542 155.6 203.336 155.191 204.044C154.782 204.752 154.212 205.354 153.527 205.8L84.927 245.41C83.6236 246.164 82.574 245.554 82.574 244.038V113.533C82.6166 112.716 82.852 111.921 83.261 111.213C83.67 110.505 84.2409 109.903 84.927 109.458Z" fill="#FAFAFA"/>
<g opacity="0.4">
<path d="M119.611 119.741C127.301 115.303 133.537 118.904 133.537 127.781C133.537 136.658 127.301 147.469 119.611 151.908C111.921 156.346 105.685 152.752 105.685 143.868C105.685 134.984 111.921 124.166 119.611 119.741Z" fill="#B46B6B"/>
<path d="M147.058 167.247C147.058 152.656 136.816 146.173 124.18 153.472L116.277 158.034C103.641 165.326 93.3989 183.073 93.3989 197.664V201.595L147.058 170.629V167.247Z" fill="#B46B6B"/>
</g>
<path d="M119.364 76.832C120.379 76.242 121.203 76.7222 121.203 77.8953C121.169 78.5332 120.984 79.154 120.665 79.7071C120.345 80.2603 119.9 80.7301 119.364 81.0783C118.349 81.6683 117.526 81.1881 117.526 80.015C117.56 79.3772 117.744 78.7563 118.063 78.2032C118.383 77.65 118.829 77.1802 119.364 76.832Z" fill="#263238"/>
<path d="M114.054 86.0107C117.793 83.9527 124.461 79.9807 128.145 77.813C128.769 77.4425 129.277 77.6964 129.277 78.3755C129.25 78.7585 129.132 79.1297 128.934 79.4588C128.737 79.7878 128.464 80.0654 128.138 80.2689L114.027 88.4185C113.396 88.7821 112.888 88.5283 112.888 87.8423C112.92 87.4655 113.043 87.102 113.246 86.783C113.449 86.464 113.726 86.199 114.054 86.0107Z" fill="#263238"/>
<path d="M110.487 88.0755C111.057 87.7463 111.523 88.0138 111.523 88.6724C111.503 89.0311 111.399 89.3801 111.219 89.6911C111.039 90.0022 110.788 90.2665 110.487 90.4628C109.918 90.7921 109.451 90.5246 109.451 89.866C109.472 89.5072 109.576 89.1583 109.756 88.8472C109.936 88.5362 110.186 88.2719 110.487 88.0755Z" fill="#263238"/>
<path d="M119.364 229.81C121.422 228.637 123.048 229.591 123.048 231.937C122.979 233.214 122.609 234.457 121.969 235.564C121.329 236.672 120.436 237.612 119.364 238.31C117.306 239.483 115.687 238.529 115.687 236.183C115.756 234.907 116.125 233.664 116.764 232.557C117.403 231.45 118.294 230.509 119.364 229.81Z" fill="#263238"/>
<path d="M181.934 183.944L173.661 179.142L173.572 179.094C169.456 176.775 163.817 177.111 157.567 180.727C151.723 184.095 146.386 189.713 142.366 196.223C137.721 203.715 134.82 212.392 134.82 220.165C134.82 227.416 137.358 232.513 141.46 234.893L149.864 239.695C154.014 242.343 159.865 242.103 166.369 238.358C178.929 231.182 189.13 213.49 189.13 198.94C189.13 191.394 186.359 186.187 181.934 183.944Z" fill="#B46B6B"/>
<path opacity="0.1" d="M149.685 239.654L141.453 234.948C137.337 232.568 134.813 227.471 134.813 220.22C134.813 212.44 137.735 203.756 142.359 196.278L151.153 201.348C146.502 208.846 143.607 217.503 143.607 225.269C143.573 232.19 145.898 237.15 149.685 239.654Z" fill="black"/>
<path opacity="0.4" d="M181.79 183.848C177.729 181.879 172.316 182.38 166.376 185.803C160.435 189.226 155.166 194.824 151.139 201.334L142.345 196.265C146.365 189.754 151.702 184.136 157.547 180.768C163.789 177.16 169.435 176.817 173.551 179.135L173.64 179.183L181.79 183.848Z" fill="white"/>
<path d="M178.216 193.109L175.06 191.284L162.706 220.405L164.812 221.619L178.216 193.109Z" fill="white"/>
<path d="M160.284 213.902L157.128 212.084L153.74 219.252L156.895 221.07L160.284 213.902Z" fill="white"/>
<path d="M165.621 230.16L156.895 221.07L160.284 213.902L164.811 221.619L178.216 193.109L183.183 197.952L165.621 230.16Z" fill="#F5F5F5"/>
<path d="M153.74 219.252L156.895 221.07L165.621 230.16L162.472 228.356L153.74 219.252Z" fill="#E0E0E0"/>
<path d="M246.274 112.449C249.847 112.449 253.274 111.03 255.801 108.503C258.328 105.976 259.747 102.549 259.747 98.9761V98.1803C259.748 96.6807 259.453 95.1956 258.88 93.8099C258.307 92.4241 257.466 91.1649 256.406 90.1042C255.346 89.0435 254.087 88.2021 252.702 87.628C251.317 87.0539 249.832 86.7584 248.332 86.7584H244.216C241.187 86.7584 238.282 87.9618 236.14 90.1038C233.998 92.2458 232.794 95.151 232.794 98.1803V98.9761C232.794 100.746 233.143 102.499 233.82 104.134C234.498 105.769 235.491 107.254 236.743 108.505C237.995 109.757 239.481 110.749 241.116 111.426C242.751 112.102 244.504 112.45 246.274 112.449Z" fill="#263238"/>
<path d="M232.376 245.718C230.805 247.367 229.082 248.865 227.231 250.191C226.949 250.38 226.714 250.631 226.545 250.925C226.305 251.433 225.927 252.681 228.225 253.484C229.388 253.887 230.623 254.034 231.847 253.915C233.071 253.797 234.255 253.416 235.319 252.798C237.212 251.618 237.294 249.162 239.078 247.756C240.395 246.72 242.042 246.452 243.112 245.094C243.853 244.147 243.66 242.892 243.269 241.335C242.851 239.634 242.652 238.351 242.09 238.481L242.186 239.263C241.5 240.381 237.843 240.711 236.224 239.949C236.197 239.935 233.398 244.6 232.376 245.718Z" fill="#263238"/>
<path d="M230.777 247.303C231.326 246.802 231.861 246.281 232.376 245.718C233.453 244.32 234.445 242.859 235.346 241.342C235.967 240.422 236.26 239.32 236.176 238.214C236.046 237.034 235.723 234.022 235.723 234.022L241.486 233.61L242.172 239.263C242.309 240.546 241.253 241.685 239.373 243.304C237.493 244.923 235.12 248.689 233.419 249.635C231.717 250.582 230.51 250.548 229.783 250.061C229.056 249.574 228.953 249.176 230.777 247.303Z" fill="#B16668"/>
<path d="M254.293 246.233V245.362C253.957 246.384 252.373 250.754 249.965 252.949C248.058 254.691 245.451 256.701 244.785 258.649C244.12 260.598 248.414 261.345 250.198 261.03C252.256 260.666 254.959 259.486 256.42 257.696C257.442 256.434 258.101 254.952 258.835 253.943C259.569 252.935 261.256 251.844 261.654 250.692C261.874 250.061 261.613 248.682 261.304 247.516C260.996 246.349 260.721 245.266 260.358 245.362V246.048C259.494 246.725 258.423 247.086 257.326 247.07C256.441 247.084 254.287 246.905 254.293 246.233Z" fill="#263238"/>
<path d="M248.236 254.506C248.826 253.978 249.423 253.463 249.965 252.969C251.645 251.44 252.928 248.853 253.662 247.07C254.082 246.059 254.299 244.975 254.3 243.88V240.45H260.358V246.075V246.226C260.07 247.488 257.284 250.836 255.707 253.017C254.65 254.479 252.64 256.344 250.219 256.667C247.92 256.928 246.754 256.207 248.236 254.506Z" fill="#B16668"/>
<path d="M259.15 152.072C263.849 162.328 258.979 198.467 258.979 198.467C259.123 200.134 261.037 203.413 261.723 210.739C262.56 219.397 260.406 241.129 260.406 241.129C259.482 241.667 258.441 241.97 257.373 242.013C256.306 242.056 255.244 241.838 254.28 241.376C254.28 241.376 248.511 208.633 247.42 200.031C246.473 192.519 244.676 174.861 244.676 174.861L239.956 200.189C240.83 202.558 241.448 205.014 241.801 207.515C242.288 212.585 241.925 235.998 241.925 235.998C241.925 235.998 239.867 237.576 235.881 236.992C235.881 236.992 229.021 204.929 228.479 198.837C228.164 195.201 232.307 150.57 232.307 150.57L259.15 152.072Z" fill="#B46B6B"/>
<path opacity="0.6" d="M259.15 152.072C263.849 162.328 258.979 198.467 258.979 198.467C259.123 200.134 261.037 203.413 261.723 210.739C262.56 219.397 260.406 241.129 260.406 241.129C259.482 241.667 258.441 241.97 257.373 242.013C256.306 242.056 255.244 241.838 254.28 241.376C254.28 241.376 248.511 208.633 247.42 200.031C246.473 192.519 244.676 174.861 244.676 174.861L239.956 200.189C240.83 202.558 241.448 205.014 241.801 207.515C242.288 212.585 241.925 235.998 241.925 235.998C241.925 235.998 239.867 237.576 235.881 236.992C235.881 236.992 229.021 204.929 228.479 198.837C228.164 195.201 232.307 150.57 232.307 150.57L259.15 152.072Z" fill="black"/>
<path opacity="0.3" d="M244.669 174.861L243.146 166.472C243.146 166.472 236.691 165.134 233.768 162.356C233.768 162.356 236.835 166.177 241.397 167.425L243.112 174.758L240.416 197.671L244.669 174.861Z" fill="black"/>
<path d="M266.806 147.613C266.758 146.927 265.496 139.759 264.631 135.739L256.187 138.325L257.689 145.72L264.796 151.428C267.032 150.989 266.854 148.286 266.806 147.613Z" fill="#B16668"/>
<path d="M225.962 132.467L221.969 139.786L228.184 145.11L233.871 136.089L225.962 132.467Z" fill="#B16668"/>
<path d="M240.944 116.16C236.986 116.202 232.623 117.635 231.12 120.743C229.618 123.85 225.468 132.405 225.468 132.405C225.468 132.405 229.165 137.426 234.715 137.063L240.944 116.16Z" fill="#B46B6B"/>
<path opacity="0.6" d="M240.944 116.16C236.986 116.202 232.623 117.635 231.12 120.743C229.618 123.85 225.468 132.405 225.468 132.405C225.468 132.405 229.165 137.426 234.715 137.063L240.944 116.16Z" fill="black"/>
<path d="M249.135 116.298L252.434 116.435C256.015 117.292 257.312 119.755 258.814 122.931C259.916 125.384 260.019 128.169 259.102 130.697L254.904 142.839C254.904 142.839 256.866 147.586 259.15 152.072C248.62 157.952 235.47 154.858 232.3 150.57C232.17 149.658 232.348 145.562 232.095 140.898C231.827 135.917 231.141 130.299 231.923 127.226C233.377 121.518 236.094 116.16 241.527 116.16L249.135 116.298Z" fill="#F5F5F5"/>
<path d="M252.448 116.435C256.036 116.942 261.318 117.663 263.136 126.203C264.981 134.861 265.331 136.926 265.331 136.926C265.331 136.926 262.189 140.061 256.228 140.033C256.214 140.033 250.96 123.034 252.448 116.435Z" fill="#B46B6B"/>
<path opacity="0.6" d="M252.448 116.435C256.036 116.942 261.318 117.663 263.136 126.203C264.981 134.861 265.331 136.926 265.331 136.926C265.331 136.926 262.189 140.061 256.228 140.033C256.214 140.033 250.96 123.034 252.448 116.435Z" fill="black"/>
<path d="M256.056 139.505C255.37 137.234 254.684 134.641 254.033 131.856C254.061 135.357 254.417 138.848 255.096 142.283L256.056 139.505Z" fill="#EBEBEB"/>
<path d="M237.191 92.2053C235.771 93.049 234.015 96.63 234.187 104.135C234.331 110.494 236.396 112.065 237.431 112.518C238.467 112.97 240.464 112.696 242.405 112.374V116.195C242.405 116.195 239.723 119.309 239.887 121.058C240.052 122.808 243.763 123.226 246.274 121.511C247.899 120.341 249.295 118.88 250.39 117.203V107.97C250.39 107.97 251.7 109.719 253.82 108.299C255.94 106.879 256.043 103.353 254.801 102.084C253.559 100.815 250.863 101.219 250.369 102.969C250.369 102.969 247.269 103.085 243.146 100.821C241.547 99.9528 240.175 98.7203 239.141 97.2236C238.106 95.7268 237.439 94.0078 237.191 92.2053Z" fill="#B16668"/>
<path d="M241.287 102.536C241.284 102.694 241.328 102.849 241.413 102.981C241.498 103.114 241.62 103.219 241.764 103.283C241.908 103.347 242.068 103.367 242.223 103.341C242.378 103.314 242.523 103.243 242.638 103.135C242.753 103.028 242.834 102.889 242.87 102.736C242.907 102.582 242.897 102.422 242.843 102.274C242.789 102.126 242.693 101.997 242.566 101.903C242.439 101.81 242.288 101.756 242.131 101.748C242.024 101.744 241.917 101.761 241.816 101.799C241.716 101.837 241.624 101.894 241.545 101.967C241.467 102.04 241.404 102.128 241.359 102.226C241.315 102.324 241.291 102.429 241.287 102.536Z" fill="#263238"/>
<path d="M241.074 107.928L239.215 108.525C239.247 108.651 239.303 108.769 239.382 108.873C239.461 108.976 239.559 109.062 239.672 109.126C239.785 109.19 239.91 109.231 240.039 109.246C240.168 109.26 240.298 109.249 240.422 109.211C240.677 109.125 240.888 108.942 241.01 108.703C241.132 108.463 241.155 108.185 241.074 107.928Z" fill="#9A4A4D"/>
<path d="M234.729 100.081L236.348 98.9624C236.28 98.849 236.19 98.751 236.083 98.6745C235.975 98.5981 235.853 98.5449 235.724 98.5184C235.595 98.492 235.461 98.4927 235.333 98.5208C235.204 98.5488 235.082 98.6034 234.976 98.6811C234.764 98.8389 234.62 99.0717 234.574 99.3318C234.528 99.592 234.584 99.8598 234.729 100.081Z" fill="#263238"/>
<path d="M235.099 101.96C235.098 102.117 235.143 102.272 235.229 102.403C235.314 102.535 235.437 102.639 235.581 102.702C235.725 102.765 235.885 102.784 236.04 102.757C236.194 102.73 236.338 102.658 236.452 102.55C236.567 102.442 236.647 102.303 236.683 102.15C236.719 101.997 236.709 101.837 236.655 101.689C236.601 101.541 236.504 101.413 236.378 101.32C236.251 101.227 236.1 101.172 235.943 101.164C235.726 101.161 235.517 101.242 235.359 101.39C235.201 101.539 235.108 101.744 235.099 101.96Z" fill="#263238"/>
<path d="M238.872 101.501L238.749 106.316L236.217 105.534L238.872 101.501Z" fill="#9A4A4D"/>
<path d="M242.405 112.374C244.463 112.106 248.654 110.899 249.313 109.232C249.051 110.075 248.536 110.817 247.838 111.358C246.583 112.435 242.405 113.65 242.405 113.65V112.374Z" fill="#9A4A4D"/>
<path d="M208.921 132.021L232.142 138.133L239.002 166.959L216.92 160.545L208.921 132.021Z" fill="#B46B6B"/>
<path opacity="0.15" d="M219.047 151.091C218.834 151.681 217.558 153.314 214.855 153.184L214.526 151.99L219.047 151.091Z" fill="black"/>
<path opacity="0.15" d="M224.24 151.99C224.343 152.758 225.92 154.185 228.589 155.07C231.628 156.086 236.286 155.551 236.286 155.551L235.867 154.117L224.24 151.99Z" fill="black"/>
<path opacity="0.15" d="M215.72 136.192C215.72 136.192 215.637 135.794 215.528 135.307C215.418 134.82 216.79 134.792 218.573 135.259L222.003 136.144C223.787 136.61 225.324 137.385 225.433 137.872L225.626 138.757L215.72 136.192Z" fill="black"/>
<path d="M214.114 132.851C214.046 132.542 214.595 132.467 215.342 132.672L216.714 133.043C216.714 133.043 216.31 131.129 219.314 131.801C222.319 132.473 222.978 134.641 222.978 134.641L224.425 135.053C225.228 135.279 225.948 135.739 226.044 136.02L226.215 136.569L214.252 133.42C214.252 133.42 214.176 133.153 214.114 132.851Z" fill="#37474F"/>
<path d="M215.761 133.804C216.858 134.072 217.311 134.216 217.476 134.971C217.661 135.835 217.736 136.466 217.736 136.466L223.032 137.838C223.032 137.838 222.779 136.747 222.696 136.322C222.614 135.897 222.792 135.636 223.636 135.862L223.705 135.526L215.404 133.441L215.761 133.804Z" fill="#37474F"/>
<path d="M215.576 136.274C215.576 136.274 215.493 135.876 215.384 135.389C215.274 134.902 216.646 134.881 218.429 135.341L221.859 136.233C223.643 136.692 225.18 137.468 225.289 137.955L225.482 138.84L215.576 136.274Z" fill="#37474F"/>
<path d="M264.796 151.428L257.682 145.72C257.682 145.72 241.959 148.519 240.107 148.663C239.13 148.69 238.167 148.42 237.346 147.89C236.524 147.36 235.882 146.594 235.504 145.693C234.818 143.875 233.562 144.101 233.562 144.101C233.562 144.101 234.104 146.399 234.248 147.133C234.392 147.867 229.995 148.505 227.539 147.641C225.083 146.777 221.523 148.018 223.725 151.359C225.927 154.7 230.215 155.091 233.185 155.091C234.431 155.082 235.674 154.999 236.91 154.844C237.87 154.72 238.831 154.624 239.798 154.556C245.924 154.117 262.052 152.292 264.796 151.428Z" fill="#B16668"/>
<path d="M211.288 140.445L212.317 144.122C212.516 144.808 215.212 146.111 216.92 146.584C218.628 147.058 220.494 147.607 219.664 150.014C218.923 152.217 216.111 152.717 214.684 152.656C213.257 152.594 211.295 151.229 210.527 149.027C209.539 146.214 210.067 143.209 209.676 141.57C209.285 139.93 210.431 139.464 211.288 140.445Z" fill="#B16668"/>
<path d="M258.032 127.226C257.029 127.226 256.035 127.03 255.108 126.646C254.181 126.263 253.339 125.701 252.629 124.992C251.919 124.283 251.356 123.441 250.972 122.514C250.588 121.587 250.39 120.594 250.39 119.59V108.868C252.415 108.87 254.356 109.675 255.787 111.107C257.219 112.538 258.024 114.479 258.025 116.503L258.032 127.226Z" fill="#263238"/>
</svg>
