<svg width="343" height="343" viewBox="0 0 343 343" fill="none" xmlns="http://www.w3.org/2000/svg">
<path d="M302.327 180.939C303.699 162.712 299.46 143.683 293.78 126.745C285.376 101.528 268.967 75.6864 241.39 69.7182C225.488 66.2882 209.306 69.9651 195.668 78.5813C182.558 86.8682 172.344 97.5766 156.216 99.6483C139.91 101.748 123.178 100.904 106.79 100.904C64.6487 100.904 30.4516 145.171 38.9992 191.284C47.5468 237.397 87.8561 269.372 122.053 269.372C152.786 269.372 178.072 250.939 207.261 245.986C221.736 243.53 236.272 246.439 250.596 242.762C267.245 238.481 282.9 228.28 292.126 213.511C298.41 203.44 301.47 192.348 302.327 180.939Z" fill="#2E0D44"/>
<path opacity="0.7" d="M302.327 180.939C303.699 162.712 299.46 143.683 293.78 126.745C285.376 101.528 268.967 75.6864 241.39 69.7182C225.488 66.2882 209.306 69.9651 195.668 78.5813C182.558 86.8682 172.344 97.5766 156.216 99.6483C139.91 101.748 123.178 100.904 106.79 100.904C64.6487 100.904 30.4516 145.171 38.9992 191.284C47.5468 237.397 87.8561 269.372 122.053 269.372C152.786 269.372 178.072 250.939 207.261 245.986C221.736 243.53 236.272 246.439 250.596 242.762C267.245 238.481 282.9 228.28 292.126 213.511C298.41 203.44 301.47 192.348 302.327 180.939Z" fill="#DEF7E5"/>
<path d="M297.395 174.539C297.395 174.539 297.395 171.109 292.593 166.355C287.791 161.601 284.745 158.843 284.745 158.843C284.745 158.843 282.357 166.691 286.803 171.473C290.066 174.831 293.604 177.91 297.381 180.679L297.395 174.539Z" fill="#2E0D44"/>
<path d="M290.466 195.846C290.466 195.846 290.466 192.416 285.664 187.662C280.862 182.908 277.83 180.15 277.83 180.15C277.83 180.15 275.436 187.998 279.888 192.78C283.151 196.138 286.69 199.217 290.466 201.986V195.846Z" fill="#2E0D44"/>
<path d="M297.093 180.349C297.093 180.349 297.456 176.961 302.711 172.714C307.966 168.468 311.307 166.081 311.307 166.081C311.307 166.081 312.85 174.134 307.938 178.429C304.339 181.424 300.495 184.113 296.448 186.469L297.093 180.349Z" fill="#2E0D44"/>
<path d="M288.724 205.512C288.724 205.512 289.41 202.178 295.11 198.508C300.811 194.838 304.351 192.814 304.351 192.814C304.351 192.814 305.037 200.991 299.706 204.73C295.812 207.331 291.707 209.603 287.434 211.521L288.724 205.512Z" fill="#2E0D44"/>
<path d="M290.295 232.952C290.295 232.952 290.295 229.522 295.097 224.761C299.899 220 302.938 217.256 302.938 217.256C302.938 217.256 305.332 225.104 300.88 229.879C297.618 233.24 294.079 236.322 290.302 239.092L290.295 232.952Z" fill="#2E0D44"/>
<path d="M290.219 239.647C290.219 239.647 290.699 236.272 286.652 230.866C282.604 225.461 279.95 222.319 279.95 222.319C279.95 222.319 276.472 229.748 280.183 235.106C282.934 238.895 285.997 242.447 289.341 245.725L290.219 239.647Z" fill="#2E0D44"/>
<path d="M285.506 259.493C285.506 259.493 285.506 256.063 290.308 251.309C295.11 246.555 298.156 243.798 298.156 243.798C298.156 243.798 300.543 251.645 296.098 256.427C292.834 259.786 289.296 262.868 285.52 265.64L285.506 259.493Z" fill="#2E0D44"/>
<path d="M288.696 277.487C288.696 277.487 287.832 274.187 291.241 268.356C294.651 262.525 296.935 259.109 296.935 259.109C296.935 259.109 301.229 266.093 298.149 271.841C295.845 275.917 293.204 279.793 290.253 283.428L288.696 277.487Z" fill="#2E0D44"/>
<path d="M297.827 173.668C297.587 177.22 297.152 180.756 296.523 184.26C294.63 194.015 289.91 200.312 288.024 209.12C286.137 217.929 291.557 229.282 290.082 240.601C288.607 251.92 284.23 258.21 285.486 265.763C286.741 273.316 293.354 293.773 293.354 293.773" stroke="#263238" stroke-linecap="round" stroke-linejoin="round"/>
<path d="M297.052 182.62L302.197 178.669" stroke="#263238" stroke-linecap="round" stroke-linejoin="round"/>
<path d="M297.292 178.072L295.131 174.237" stroke="#263238" stroke-linecap="round" stroke-linejoin="round"/>
<path d="M288.312 208.716C288.312 208.716 292.62 205.484 297.052 202.253" stroke="#263238" stroke-linecap="round" stroke-linejoin="round"/>
<path d="M290.466 201.986C290.466 201.986 286.871 194.947 282.803 190.283" stroke="#263238" stroke-linecap="round" stroke-linejoin="round"/>
<path d="M290.466 237.809C292.924 233.267 296.029 229.107 299.686 225.461" stroke="#263238" stroke-linecap="round" stroke-linejoin="round"/>
<path d="M289.629 242.597C288.322 239.518 286.759 236.553 284.958 233.734C282.447 230.023 282.083 229.542 282.083 229.542" stroke="#263238" stroke-linecap="round" stroke-linejoin="round"/>
<path d="M285.506 265.763C286.6 263.059 287.898 260.443 289.389 257.936C290.881 255.606 292.563 253.403 294.417 251.35" stroke="#263238" stroke-linecap="round" stroke-linejoin="round"/>
<path d="M290.254 283.428C290.003 280.842 290.449 278.237 291.543 275.882C293.341 272.411 295.371 267.862 296.208 266.065" stroke="#263238" stroke-linecap="round" stroke-linejoin="round"/>
<path d="M258.416 220.124C258.416 220.124 258.046 217.983 260.522 214.464C262.999 210.945 264.638 208.908 264.638 208.908C264.638 208.908 266.984 213.572 264.72 217.044C263.039 219.506 261.155 221.823 259.088 223.972L258.416 220.124Z" fill="#2E0D44"/>
<path d="M265.077 232.732C265.077 232.732 264.707 230.592 267.183 227.073C269.66 223.554 271.299 221.516 271.299 221.516C271.299 221.516 273.645 226.181 271.382 229.659C269.699 232.118 267.815 234.433 265.75 236.581L265.077 232.732Z" fill="#2E0D44"/>
<path d="M259.232 223.732C259.232 223.732 258.643 221.674 254.883 219.554C251.124 217.435 248.778 216.323 248.778 216.323C248.778 216.323 248.682 221.544 252.208 223.698C254.789 225.184 257.49 226.453 260.282 227.491L259.232 223.732Z" fill="#2E0D44"/>
<path d="M267.217 238.605C267.217 238.605 266.408 236.588 262.457 234.9C258.505 233.213 256.036 232.334 256.036 232.334C256.036 232.334 256.488 237.534 260.248 239.304C262.972 240.511 265.792 241.489 268.679 242.227L267.217 238.605Z" fill="#2E0D44"/>
<path d="M269.207 255.981C269.207 255.981 268.843 253.841 265.324 251.364C261.805 248.888 259.589 247.509 259.589 247.509C259.589 247.509 258.944 252.688 262.244 255.199C264.655 256.954 267.209 258.503 269.879 259.829L269.207 255.981Z" fill="#2E0D44"/>
<path d="M269.989 260.172C269.989 260.172 269.303 258.114 271.272 254.273C273.241 250.431 274.544 248.188 274.544 248.188C274.544 248.188 277.528 252.469 275.786 256.235C274.473 258.908 272.938 261.467 271.196 263.884L269.989 260.172Z" fill="#2E0D44"/>
<path d="M275.985 277.425C275.985 277.425 276.231 275.271 279.6 272.623C282.968 269.975 285.088 268.446 285.088 268.446C285.088 268.446 286.028 273.584 282.879 276.28C280.573 278.167 278.113 279.858 275.525 281.335L275.985 277.425Z" fill="#2E0D44"/>
<path d="M275.086 272.102C275.086 272.102 274.715 269.962 271.203 267.485C267.691 265.009 265.482 263.63 265.482 263.63C265.482 263.63 264.837 268.809 268.137 271.327C270.549 273.079 273.103 274.628 275.772 275.957L275.086 272.102Z" fill="#2E0D44"/>
<path d="M275.086 283.736C275.086 283.736 275.264 281.569 272.493 278.283C269.721 274.997 267.924 273.103 267.924 273.103C267.924 273.103 265.983 277.947 268.542 281.219C270.417 283.523 272.482 285.666 274.716 287.626L275.086 283.736Z" fill="#2E0D44"/>
<path d="M258.052 219.616C258.589 221.818 259.247 223.989 260.021 226.119C262.265 232.033 265.907 235.47 268.047 240.786C270.188 246.103 268.048 253.82 270.16 260.755C272.273 267.691 275.772 271.162 275.772 276.033C275.772 280.903 273.878 294.452 273.878 294.452" stroke="#263238" stroke-linecap="round" stroke-linejoin="round"/>
<path d="M259.514 225.145L255.857 223.231" stroke="#263238" stroke-linecap="round" stroke-linejoin="round"/>
<path d="M258.869 222.319L259.802 219.685" stroke="#263238" stroke-linecap="round" stroke-linejoin="round"/>
<path d="M267.821 240.567C267.821 240.567 264.769 239.009 261.647 237.459" stroke="#263238" stroke-linecap="round" stroke-linejoin="round"/>
<path d="M265.743 236.581C266.643 233.754 267.826 231.026 269.276 228.438" stroke="#263238" stroke-linecap="round" stroke-linejoin="round"/>
<path d="M269.632 259.04C267.597 256.465 265.198 254.198 262.511 252.311" stroke="#263238" stroke-linecap="round" stroke-linejoin="round"/>
<path d="M270.675 261.949C271.163 259.879 271.822 257.853 272.644 255.892C273.817 253.292 274.016 252.949 274.016 252.949" stroke="#263238" stroke-linecap="round" stroke-linejoin="round"/>
<path d="M275.607 279.73C276.797 278.256 278.115 276.89 279.545 275.649C280.455 274.979 281.308 274.235 282.097 273.426" stroke="#263238" stroke-linecap="round" stroke-linejoin="round"/>
<path d="M275.772 276.033C274.792 274.452 273.693 272.947 272.486 271.533C271.297 270.235 270.003 269.037 268.617 267.952" stroke="#263238" stroke-linecap="round" stroke-linejoin="round"/>
<path d="M274.716 287.626C274.593 285.977 274.032 284.39 273.09 283.03C271.587 281.047 269.817 278.413 269.097 277.377" stroke="#263238" stroke-linecap="round" stroke-linejoin="round"/>
<path d="M63.5718 190.242L60.5671 181.66L63.5718 185.302L61.212 172.426L64.8615 181.66L66.1512 163.625L68.2984 180.795L70.6582 177.365V181.66L73.4502 175.863L71.9479 185.947L74.5204 184.232L70.4455 189.809L63.5718 190.242Z" fill="#2E0D44"/>
<path d="M73.0179 188.094H61.8567L63.8667 210.629H71.0079L73.0179 188.094Z" fill="#263238" stroke="#263238" stroke-linecap="round" stroke-linejoin="round"/>
<path d="M93.9547 210.376H55.9297V290.912H93.9547V210.376Z" fill="white" stroke="#263238" stroke-linecap="round" stroke-linejoin="round"/>
<path d="M96.0332 210.376H74.9387V290.912H96.0332V210.376Z" fill="white" stroke="#263238" stroke-linecap="round" stroke-linejoin="round"/>
<path d="M93.6597 210.376H74.9387V290.912H93.6597V210.376Z" fill="#263238" stroke="#263238" stroke-linecap="round" stroke-linejoin="round"/>
<path d="M91.5536 272.184H74.9387V288.676H91.5536V272.184Z" fill="#2E0D44" stroke="#263238" stroke-linecap="round" stroke-linejoin="round"/>
<path d="M91.5536 273.076H74.9387V275.189H91.5536V273.076Z" fill="white" stroke="#263238" stroke-linecap="round" stroke-linejoin="round"/>
<path d="M91.5536 285.218H74.9387V287.331H91.5536V285.218Z" fill="white" stroke="#263238" stroke-linecap="round" stroke-linejoin="round"/>
<path d="M78.0874 272.527V293.382" stroke="#263238" stroke-linecap="round" stroke-linejoin="round"/>
<path d="M83.8843 272.527V293.382" stroke="#263238" stroke-linecap="round" stroke-linejoin="round"/>
<path d="M88.9744 272.527V293.382" stroke="#263238" stroke-linecap="round" stroke-linejoin="round"/>
<path d="M91.5536 213.367H74.9387V237.617H91.5536V213.367Z" fill="#2E0D44" stroke="#263238" stroke-linecap="round" stroke-linejoin="round"/>
<path d="M91.5536 214.382H74.9387V216.783H91.5536V214.382Z" fill="white" stroke="#263238" stroke-linecap="round" stroke-linejoin="round"/>
<path d="M91.5536 229.927H74.9387V232.328H91.5536V229.927Z" fill="white" stroke="#263238" stroke-linecap="round" stroke-linejoin="round"/>
<path d="M78.0874 213.751V237.452" stroke="#263238" stroke-linecap="round" stroke-linejoin="round"/>
<path d="M83.8843 213.751V237.452" stroke="#263238" stroke-linecap="round" stroke-linejoin="round"/>
<path d="M88.9744 213.751V237.452" stroke="#263238" stroke-linecap="round" stroke-linejoin="round"/>
<path d="M91.5536 242.59H74.9387V266.84H91.5536V242.59Z" fill="#2E0D44" stroke="#263238" stroke-linecap="round" stroke-linejoin="round"/>
<path d="M91.5536 243.605H74.9387V246.006H91.5536V243.605Z" fill="white" stroke="#263238" stroke-linecap="round" stroke-linejoin="round"/>
<path d="M91.5536 259.15H74.9387V261.551H91.5536V259.15Z" fill="white" stroke="#263238" stroke-linecap="round" stroke-linejoin="round"/>
<path d="M78.0874 242.981V266.676" stroke="#263238" stroke-linecap="round" stroke-linejoin="round"/>
<path d="M83.8843 242.981V266.676" stroke="#263238" stroke-linecap="round" stroke-linejoin="round"/>
<path d="M88.9744 242.981V266.676" stroke="#263238" stroke-linecap="round" stroke-linejoin="round"/>
<path d="M93.9478 237.281H74.9387V240.038H93.9478V237.281Z" fill="white" stroke="#263238" stroke-linecap="round" stroke-linejoin="round"/>
<path d="M93.9478 266.689H74.9387V269.447H93.9478V266.689Z" fill="white" stroke="#263238" stroke-linecap="round" stroke-linejoin="round"/>
<path d="M93.9478 210.376V290.905" stroke="#263238" stroke-linecap="round" stroke-linejoin="round"/>
<path d="M72.2566 210.376V290.905H74.9388V213.367H93.6186V210.341L72.2566 210.376Z" fill="white" stroke="#263238" stroke-linecap="round" stroke-linejoin="round"/>
<path d="M74.9387 213.367V210.376" stroke="#263238" stroke-linecap="round" stroke-linejoin="round"/>
<path d="M93.8036 173.38C91.8074 169.531 90.9705 166.773 90.9705 166.135C90.9705 164.873 93.7145 164.119 93.7145 164.119C97.9951 161.855 118.129 165.127 127.191 166.636C132.264 167.521 137.396 168.025 142.544 168.145C142.544 168.145 143.799 167.144 145.288 165.882C146.777 164.619 153.842 156.319 156.614 155.592C159.385 154.864 161.896 156.6 161.896 156.6C161.896 156.6 166.43 159.344 165.669 159.872C164.908 160.401 153.842 169.936 151.071 171.699C148.299 173.462 142.516 172.707 137.481 173.716C133.146 174.58 115.584 175.65 111.557 175.98C108.533 176.697 105.359 176.433 102.495 175.225" fill="white"/>
<mask id="mask0_342_366" style="mask-type:luminance" maskUnits="userSpaceOnUse" x="90" y="155" width="76" height="22">
<path d="M93.8036 173.38C91.8074 169.531 90.9705 166.773 90.9705 166.135C90.9705 164.873 93.7145 164.119 93.7145 164.119C97.9951 161.855 118.129 165.127 127.191 166.636C132.264 167.521 137.396 168.025 142.544 168.145C142.544 168.145 143.799 167.144 145.288 165.882C146.777 164.619 153.842 156.319 156.614 155.592C159.385 154.864 161.896 156.6 161.896 156.6C161.896 156.6 166.43 159.344 165.669 159.872C164.908 160.401 153.842 169.936 151.071 171.699C148.299 173.462 142.516 172.707 137.481 173.716C133.146 174.58 115.584 175.65 111.557 175.98C108.533 176.697 105.359 176.433 102.495 175.225" fill="white"/>
</mask>
<g mask="url(#mask0_342_366)">
<path d="M161.944 156.573C161.944 156.573 159.426 154.81 156.662 155.564C153.897 156.319 146.845 164.626 145.336 165.854C143.827 167.082 142.592 168.118 142.592 168.118C137.444 167.998 132.312 167.493 127.239 166.609C118.177 165.1 98.0432 161.807 93.7626 164.091C93.7626 164.091 91.0186 164.846 91.0186 166.108C91.1139 166.814 91.2959 167.505 91.5605 168.166L91.9378 168.303C91.9378 168.303 96.9662 167.775 107.819 168.036C118.671 168.296 143.772 169.785 145.384 170.368C146.07 170.629 150.934 169.531 156.326 167.624C160.442 164.27 165.278 160.078 165.765 159.783C166.479 159.337 161.944 156.573 161.944 156.573Z" fill="#2E0D44"/>
<path opacity="0.5" d="M161.944 156.573C161.944 156.573 159.426 154.81 156.662 155.564C153.897 156.319 146.845 164.626 145.336 165.854C143.827 167.082 142.592 168.118 142.592 168.118C137.444 167.998 132.312 167.493 127.239 166.609C118.177 165.1 98.0432 161.807 93.7626 164.091C93.7626 164.091 91.0186 164.846 91.0186 166.108C91.1139 166.814 91.2959 167.505 91.5605 168.166L91.9378 168.303C91.9378 168.303 96.9662 167.775 107.819 168.036C118.671 168.296 143.772 169.785 145.384 170.368C146.07 170.629 150.934 169.531 156.326 167.624C160.442 164.27 165.278 160.078 165.765 159.783C166.479 159.337 161.944 156.573 161.944 156.573Z" fill="white"/>
</g>
<path d="M93.8036 173.38C91.8074 169.531 90.9705 166.773 90.9705 166.135C90.9705 164.873 93.7145 164.119 93.7145 164.119C97.9951 161.855 118.129 165.127 127.191 166.636C132.264 167.521 137.396 168.025 142.544 168.145C142.544 168.145 143.799 167.144 145.288 165.882C146.777 164.619 153.842 156.319 156.614 155.592C159.385 154.864 161.896 156.6 161.896 156.6C161.896 156.6 166.43 159.344 165.669 159.872C164.908 160.401 153.842 169.936 151.071 171.699C148.299 173.462 142.517 172.707 137.481 173.716C133.146 174.58 115.584 175.65 111.557 175.98C108.533 176.697 105.359 176.433 102.495 175.225" stroke="#263238" stroke-linecap="round" stroke-linejoin="round"/>
<path d="M193.212 195.757C193.667 194.893 194.35 194.169 195.187 193.665C196.024 193.161 196.982 192.895 197.959 192.896H243.715C243.715 192.896 247.022 192.896 246.034 199.18C245.046 205.464 231.477 243.832 228.198 255.432C224.919 267.032 224.226 291.481 224.226 291.481H169.346C169.346 291.481 173.695 233.014 193.212 195.757Z" fill="white"/>
<mask id="mask1_342_366" style="mask-type:luminance" maskUnits="userSpaceOnUse" x="169" y="192" width="78" height="100">
<path d="M193.212 195.757C193.667 194.893 194.35 194.169 195.187 193.665C196.024 193.161 196.982 192.895 197.959 192.896H243.715C243.715 192.896 247.022 192.896 246.034 199.18C245.046 205.464 231.477 243.832 228.198 255.432C224.919 267.032 224.226 291.481 224.226 291.481H169.346C169.346 291.481 173.695 233.014 193.212 195.757Z" fill="white"/>
</mask>
<g mask="url(#mask1_342_366)">
<path opacity="0.16" d="M213.819 192.896H197.959C196.982 192.895 196.023 193.161 195.187 193.665C194.35 194.169 193.667 194.893 193.212 195.757C173.695 233.014 169.298 291.461 169.298 291.461H193.912L199.983 268.404L225.296 273.625C225.474 271.69 225.68 269.721 225.92 267.78L225.365 261.606C225.365 261.606 220.178 256.152 218.546 254.787C216.913 253.422 217.997 250.959 217.723 240.32C217.448 229.68 207.899 222.031 204.346 215.479C200.792 208.928 206.26 204.833 211.171 198.281C212.921 195.915 213.634 194.172 213.819 192.896Z" fill="black"/>
</g>
<path d="M193.212 195.757C193.667 194.893 194.35 194.169 195.187 193.665C196.024 193.161 196.982 192.895 197.959 192.896H243.715C243.715 192.896 247.022 192.896 246.034 199.18C245.046 205.464 231.477 243.832 228.198 255.432C224.919 267.032 224.226 291.481 224.226 291.481H169.346C169.346 291.481 173.695 233.014 193.212 195.757Z" stroke="#263238" stroke-linecap="round" stroke-linejoin="round"/>
<path d="M235.778 203.811C231.154 214.601 221.372 257.319 219.781 291.461H224.198C224.198 291.461 224.884 266.984 228.17 255.412C231.456 243.839 245.039 205.464 246.006 199.16C246.974 192.855 243.688 192.876 243.688 192.876C243.688 192.876 239.489 195.16 235.778 203.811Z" fill="#263238" stroke="#263238" stroke-linecap="round" stroke-linejoin="round"/>
<path d="M155.399 182.243C155.399 182.243 148.1 177.962 145.336 170.416C142.571 162.87 166.979 150.783 177.578 150.028C188.177 149.274 191.167 152.038 197.472 162.863C203.776 173.688 208.043 188.533 204.771 195.832C201.499 203.131 195.963 204.894 199.969 210.924C203.975 216.954 215.322 234.077 214.567 242.131C213.812 250.184 206.013 257.223 194.673 257.991C183.333 258.759 168.241 251.947 155.66 240.841C143.079 229.735 146.344 213.401 150.858 208.119C155.372 202.836 162.184 200.82 162.685 195.537C163.186 190.255 155.399 182.243 155.399 182.243Z" fill="#263238" stroke="#263238" stroke-linecap="round" stroke-linejoin="round"/>
<path d="M186.51 170.299C190.385 177.516 195.235 187.182 196.751 193.02C199.399 203.241 185.776 209.676 189.555 214.595" stroke="white" stroke-linecap="round" stroke-linejoin="round"/>
<path d="M181.227 160.846C181.227 160.846 182.737 163.419 184.822 167.206" stroke="white" stroke-linecap="round" stroke-linejoin="round"/>
<path d="M201.56 179.005C202.007 180.357 202.297 181.757 202.425 183.176" stroke="white" stroke-linecap="round" stroke-linejoin="round"/>
<path d="M183.848 157.094C183.848 157.094 195.771 165.902 200.531 176.446" stroke="white" stroke-linecap="round" stroke-linejoin="round"/>
<path d="M167.302 163.7C158.788 166.087 146.543 169.963 147.538 172.2" stroke="white" stroke-linecap="round" stroke-linejoin="round"/>
<path d="M175.17 161.601C175.17 161.601 173.352 162.054 170.642 162.781" stroke="white" stroke-linecap="round" stroke-linejoin="round"/>
<path d="M164.64 157.156C169.516 155.619 174.624 154.946 179.732 155.166" stroke="white" stroke-linecap="round" stroke-linejoin="round"/>
<path d="M161.169 158.576C161.94 158.174 162.737 157.826 163.556 157.533" stroke="white" stroke-linecap="round" stroke-linejoin="round"/>
<path d="M93.8035 173.38C92.6481 171.264 91.728 169.028 91.0595 166.712C91.7248 169.029 92.6451 171.265 93.8035 173.38ZM90.9841 166.321C90.9841 166.362 90.9841 166.41 90.9841 166.472C90.9978 166.41 90.9909 166.362 90.9841 166.321ZM93.8035 173.373C96.3692 178.232 99.5611 182.734 103.298 186.763C112.36 196.58 138.538 222.257 141.028 224.02C143.518 225.783 142.791 230.812 141.028 235.847C139.265 240.882 132.72 248.195 132.974 256.235C133.228 264.275 135.718 276.623 135.492 279.14C135.265 281.658 128.968 290.219 128.968 290.219H193.905C193.905 290.219 185.81 279.929 185.81 276.41C185.81 272.891 196.923 227.8 197.424 224.528C197.925 221.256 195.915 218.992 191.888 218.738C187.861 218.484 172.508 215.212 171.754 212.694C170.999 210.177 175.781 200.614 175.781 200.614L160.689 201.368C160.689 201.368 159.934 207.913 158.926 209.175C157.917 210.437 156.408 207.913 152.882 206.157C149.356 204.401 142.592 202.884 140.047 200.868C137.502 198.851 113.368 176.172 113.368 176.172" fill="white"/>
<mask id="mask2_342_366" style="mask-type:luminance" maskUnits="userSpaceOnUse" x="90" y="166" width="108" height="125">
<path d="M93.8035 173.38C92.6481 171.264 91.728 169.028 91.0595 166.712C91.7248 169.029 92.6451 171.265 93.8035 173.38ZM90.9841 166.321C90.9841 166.362 90.9841 166.41 90.9841 166.472C90.9978 166.41 90.9909 166.362 90.9841 166.321ZM93.8035 173.373C96.3692 178.232 99.5611 182.734 103.298 186.763C112.36 196.58 138.538 222.257 141.028 224.02C143.518 225.783 142.791 230.812 141.028 235.847C139.265 240.882 132.72 248.195 132.974 256.235C133.228 264.275 135.718 276.623 135.492 279.14C135.265 281.658 128.968 290.219 128.968 290.219H193.905C193.905 290.219 185.81 279.929 185.81 276.41C185.81 272.891 196.923 227.8 197.424 224.528C197.925 221.256 195.915 218.992 191.888 218.738C187.861 218.484 172.508 215.212 171.754 212.694C170.999 210.177 175.781 200.614 175.781 200.614L160.689 201.368C160.689 201.368 159.934 207.913 158.926 209.175C157.917 210.437 156.408 207.913 152.882 206.157C149.356 204.401 142.592 202.884 140.047 200.868C137.502 198.851 113.368 176.172 113.368 176.172" fill="white"/>
</mask>
<g mask="url(#mask2_342_366)">
<path d="M143.902 202.809C145.157 205.004 146.413 206.987 146.413 206.987C146.413 206.987 150.645 209.367 151.702 209.367C152.758 209.367 159.111 212.797 159.111 212.797C159.111 212.797 164.407 211.473 162.541 206.973C161.952 205.821 161.209 204.755 160.332 203.804C160.016 205.8 159.509 208.414 158.912 209.161C157.903 210.417 156.394 207.899 152.868 206.143C150.584 205.004 146.886 203.962 143.902 202.809Z" fill="#2E0D44"/>
<path d="M130.978 192.622C123.205 185.426 113.368 176.199 113.368 176.199L107.647 175.376L106.961 175.76C106.961 175.76 123.109 190.049 126.546 191.641C127.937 192.28 129.448 192.615 130.978 192.622Z" fill="#2E0D44"/>
<path d="M139.121 200.072L138.503 199.523C138.819 200.044 138.997 200.374 138.997 200.374L139.121 200.072Z" fill="#2E0D44"/>
<g opacity="0.5">
<path d="M143.902 202.809C145.157 205.004 146.413 206.987 146.413 206.987C146.413 206.987 150.645 209.367 151.702 209.367C152.758 209.367 159.111 212.797 159.111 212.797C159.111 212.797 164.407 211.473 162.541 206.973C161.952 205.821 161.209 204.755 160.332 203.804C160.016 205.8 159.509 208.414 158.912 209.161C157.903 210.417 156.394 207.899 152.868 206.143C150.584 205.004 146.886 203.962 143.902 202.809Z" fill="white"/>
<path d="M130.978 192.622C123.205 185.426 113.368 176.199 113.368 176.199L107.647 175.376L106.961 175.76C106.961 175.76 123.109 190.049 126.546 191.641C127.937 192.28 129.448 192.615 130.978 192.622Z" fill="white"/>
<path d="M139.121 200.072L138.503 199.523C138.819 200.044 138.997 200.374 138.997 200.374L139.121 200.072Z" fill="white"/>
</g>
</g>
<path d="M90.9704 166.135C90.9672 166.183 90.9672 166.232 90.9704 166.28M91.0595 166.712C91.728 169.028 92.6481 171.264 93.8035 173.38C92.6451 171.265 91.7248 169.029 91.0595 166.712ZM91.0595 166.712C91.0406 166.647 91.0268 166.58 91.0184 166.513M93.8035 173.373C96.3692 178.232 99.5611 182.734 103.298 186.763C112.36 196.58 138.538 222.257 141.028 224.02C143.518 225.783 142.791 230.812 141.028 235.847C139.265 240.882 132.72 248.195 132.974 256.235C133.228 264.275 135.718 276.623 135.492 279.14C135.265 281.658 128.968 290.219 128.968 290.219H193.905C193.905 290.219 185.81 279.929 185.81 276.41C185.81 272.891 196.923 227.8 197.424 224.528C197.925 221.256 195.915 218.992 191.888 218.738C187.861 218.484 172.508 215.212 171.754 212.694C170.999 210.177 175.781 200.614 175.781 200.614L160.689 201.368C160.689 201.368 159.934 207.913 158.926 209.175C157.917 210.437 156.408 207.913 152.882 206.157C149.356 204.401 142.592 202.884 140.047 200.868C137.502 198.851 113.368 176.172 113.368 176.172M90.9841 166.321C90.9841 166.362 90.9841 166.41 90.9841 166.472C90.9978 166.41 90.9909 166.362 90.9841 166.321Z" stroke="#263238" stroke-linecap="round" stroke-linejoin="round"/>
<path d="M113.368 176.199C113.368 176.199 105.328 176.35 100.842 172.652" stroke="#263238" stroke-linecap="round" stroke-linejoin="round"/>
<path d="M171.761 212.694C171.006 210.184 175.787 200.614 175.787 200.614L160.695 201.368C160.695 201.368 159.941 207.913 158.932 209.175C157.924 210.437 156.415 207.913 152.889 206.157C152.621 206.02 152.326 205.889 152.024 205.759L151.112 220.103C151.112 220.103 152.436 233.995 168.31 231.353C174.738 230.283 181.598 224.548 187.518 218.1C181.426 216.982 172.337 214.622 171.761 212.694Z" fill="white"/>
<mask id="mask3_342_366" style="mask-type:luminance" maskUnits="userSpaceOnUse" x="151" y="200" width="37" height="32">
<path d="M171.761 212.694C171.006 210.184 175.787 200.614 175.787 200.614L160.695 201.368C160.695 201.368 159.941 207.913 158.932 209.175C157.924 210.437 156.415 207.913 152.889 206.157C152.621 206.02 152.326 205.889 152.024 205.759L151.112 220.103C151.112 220.103 152.436 233.995 168.31 231.353C174.738 230.283 181.598 224.548 187.518 218.1C181.426 216.982 172.337 214.622 171.761 212.694Z" fill="white"/>
</mask>
<g mask="url(#mask3_342_366)">
<path d="M171.335 202.514C171.335 202.514 170.423 207.632 169.689 213.291C168.955 218.951 168.413 223.163 168.413 223.163L171.761 212.694L175.534 201.602C175.534 201.602 171.884 201.602 171.335 202.514Z" fill="#2E0D44"/>
<path opacity="0.5" d="M171.335 202.514C171.335 202.514 170.423 207.632 169.689 213.291C168.955 218.951 168.413 223.163 168.413 223.163L171.761 212.694L175.534 201.602C175.534 201.602 171.884 201.602 171.335 202.514Z" fill="white"/>
</g>
<path d="M171.761 212.694C171.006 210.184 175.787 200.614 175.787 200.614L160.695 201.368C160.695 201.368 159.941 207.913 158.932 209.175C157.924 210.437 156.415 207.913 152.889 206.157C152.621 206.02 152.326 205.889 152.024 205.759L151.112 220.103C151.112 220.103 152.436 233.995 168.31 231.353C174.738 230.283 181.598 224.548 187.518 218.1C181.426 216.982 172.337 214.622 171.761 212.694Z" stroke="#263238" stroke-linecap="round" stroke-linejoin="round"/>
<path d="M158.926 209.175C157.917 210.431 156.408 207.913 152.882 206.157C150.659 205.039 147.119 204.023 144.19 202.926C143.36 200.957 142.263 198.391 141.556 196.841C140.301 194.097 138.284 195.832 138.284 195.832C137.232 194.636 136.381 193.276 135.766 191.806C134.511 189.062 132.494 189.288 129.729 188.787C126.965 188.286 121.168 182.997 121.168 182.997C121.168 182.997 118.458 180.939 117.34 179.917C116.037 182.483 112.916 186.997 106.165 189.816C116.929 201.06 138.764 222.422 141.055 224.027C143.573 225.783 142.818 230.818 141.055 235.854C139.292 240.889 132.748 248.202 133.002 256.242C133.255 264.281 135.746 276.63 135.519 279.147C135.293 281.39 130.271 288.422 129.181 289.931L131.739 290.219H145.061C144.986 283.469 144.993 255.919 149.61 244.943C154.899 232.328 158.926 209.175 158.926 209.175Z" fill="#2E0D44"/>
<mask id="mask4_342_366" style="mask-type:luminance" maskUnits="userSpaceOnUse" x="106" y="179" width="53" height="112">
<path d="M158.926 209.175C157.917 210.431 156.408 207.913 152.882 206.157C150.659 205.039 147.119 204.023 144.19 202.926C143.36 200.957 142.263 198.391 141.556 196.841C140.301 194.097 138.284 195.832 138.284 195.832C137.232 194.636 136.381 193.276 135.766 191.806C134.511 189.062 132.494 189.288 129.729 188.787C126.965 188.286 121.168 182.997 121.168 182.997C121.168 182.997 118.458 180.939 117.34 179.917C116.037 182.483 112.916 186.997 106.165 189.816C116.929 201.06 138.764 222.422 141.055 224.027C143.573 225.783 142.818 230.818 141.055 235.854C139.292 240.889 132.748 248.202 133.002 256.242C133.255 264.281 135.746 276.63 135.519 279.147C135.293 281.39 130.271 288.422 129.181 289.931L131.739 290.219H145.061C144.986 283.469 144.993 255.919 149.61 244.943C154.899 232.328 158.926 209.175 158.926 209.175Z" fill="white"/>
</mask>
<g mask="url(#mask4_342_366)">
<path opacity="0.16" d="M152.882 206.157C150.659 205.039 147.119 204.023 144.19 202.926C143.36 200.957 142.263 198.391 141.556 196.841C140.301 194.097 138.284 195.832 138.284 195.832C137.232 194.636 136.381 193.276 135.766 191.806C134.511 189.062 132.494 189.288 129.729 188.787C126.965 188.286 121.168 182.997 121.168 182.997C121.168 182.997 118.458 180.939 117.34 179.917C116.782 181.007 116.118 182.038 115.358 182.997C119.858 186.805 124.824 190.838 126.56 191.641C129.99 193.226 130.793 191.902 133.42 193.493C136.047 195.085 138.977 200.353 138.977 200.353C138.977 200.353 140.568 196.114 141.892 199.029C143.216 201.945 146.392 206.966 146.392 206.966C146.392 206.966 150.625 209.347 151.681 209.347C152.511 209.347 156.579 211.459 158.308 212.372C158.692 210.362 158.905 209.155 158.905 209.155C157.917 210.431 156.408 207.913 152.882 206.157Z" fill="black"/>
</g>
<path d="M158.926 209.175C157.917 210.431 156.408 207.913 152.882 206.157C150.659 205.039 147.119 204.023 144.19 202.926C143.36 200.957 142.263 198.391 141.556 196.841C140.301 194.097 138.284 195.832 138.284 195.832C137.232 194.636 136.381 193.276 135.766 191.806C134.511 189.062 132.494 189.288 129.729 188.787C126.965 188.286 121.168 182.997 121.168 182.997C121.168 182.997 118.458 180.939 117.34 179.917C116.037 182.483 112.916 186.997 106.165 189.816C116.929 201.06 138.764 222.422 141.055 224.027C143.573 225.783 142.818 230.818 141.055 235.854C139.292 240.889 132.748 248.202 133.002 256.242C133.255 264.281 135.746 276.63 135.519 279.147C135.293 281.39 130.271 288.422 129.181 289.931L131.739 290.219H145.061C144.986 283.469 144.993 255.919 149.61 244.943C154.899 232.328 158.926 209.175 158.926 209.175Z" stroke="#263238" stroke-linecap="round" stroke-linejoin="round"/>
<path d="M159.104 208.297C159.104 208.297 155.976 207.337 154.048 209.024C152.12 210.712 149.246 219.369 147.552 228.76C146.507 234.228 147.228 239.885 149.61 244.916C149.61 244.916 153.568 234.537 154.768 229.481C155.969 224.425 159.104 208.297 159.104 208.297Z" fill="#2E0D44"/>
<mask id="mask5_342_366" style="mask-type:luminance" maskUnits="userSpaceOnUse" x="147" y="208" width="13" height="37">
<path d="M159.104 208.297C159.104 208.297 155.976 207.337 154.048 209.024C152.12 210.712 149.246 219.369 147.552 228.76C146.507 234.228 147.228 239.885 149.61 244.916C149.61 244.916 153.568 234.537 154.768 229.481C155.969 224.425 159.104 208.297 159.104 208.297Z" fill="white"/>
</mask>
<g mask="url(#mask5_342_366)">
<path opacity="0.16" d="M153.101 209.827C153.101 209.827 155.365 209.278 156.298 209.594C157.084 209.931 157.818 210.376 158.48 210.918L159.104 208.297C158.167 207.819 157.105 207.644 156.065 207.796C154.508 208.112 153.101 209.827 153.101 209.827Z" fill="black"/>
</g>
<path d="M159.104 208.297C159.104 208.297 155.976 207.337 154.048 209.024C152.12 210.712 149.246 219.369 147.552 228.76C146.507 234.228 147.228 239.885 149.61 244.916C149.61 244.916 153.568 234.537 154.768 229.481C155.969 224.425 159.104 208.297 159.104 208.297Z" stroke="#263238" stroke-linecap="round" stroke-linejoin="round"/>
<path d="M138.037 209.12L142.064 225.481L133.001 204.84" stroke="#263238" stroke-linecap="round" stroke-linejoin="round"/>
<path d="M164.564 290.219H193.912C193.912 290.219 185.817 279.929 185.817 276.41C185.817 272.891 196.93 227.8 197.431 224.528C197.931 221.256 195.922 218.992 191.895 218.738C187.868 218.484 172.515 215.212 171.761 212.694C171.761 212.694 165.971 233.082 163.961 246.926C162.232 258.8 164.023 283.441 164.564 290.219Z" fill="#2E0D44"/>
<mask id="mask6_342_366" style="mask-type:luminance" maskUnits="userSpaceOnUse" x="163" y="212" width="35" height="79">
<path d="M164.564 290.219H193.912C193.912 290.219 185.817 279.929 185.817 276.41C185.817 272.891 196.93 227.8 197.431 224.528C197.931 221.256 195.922 218.992 191.895 218.738C187.868 218.484 172.515 215.212 171.761 212.694C171.761 212.694 165.971 233.082 163.961 246.926C162.232 258.8 164.023 283.441 164.564 290.219Z" fill="white"/>
</mask>
<g mask="url(#mask6_342_366)">
<path opacity="0.16" d="M191.895 218.738C188.595 218.532 177.695 216.296 173.448 214.114L174.992 217.681C177.788 219.165 180.796 220.211 183.91 220.782C189.02 221.695 193.774 221.516 196.882 226.085L197.033 226.311C197.225 225.433 197.355 224.816 197.397 224.528C197.938 221.256 195.922 218.992 191.895 218.738Z" fill="black"/>
</g>
<path d="M164.564 290.219H193.912C193.912 290.219 185.817 279.929 185.817 276.41C185.817 272.891 196.93 227.8 197.431 224.528C197.931 221.256 195.922 218.992 191.895 218.738C187.868 218.484 172.515 215.212 171.761 212.694C171.761 212.694 165.971 233.082 163.961 246.926C162.232 258.8 164.023 283.441 164.564 290.219Z" stroke="#263238" stroke-linecap="round" stroke-linejoin="round"/>
<path d="M171.761 212.694C171.761 212.694 163.995 237.39 163.961 246.926C163.961 246.926 174.992 233.569 176.432 224.185C177.873 214.8 171.761 212.694 171.761 212.694Z" fill="#2E0D44"/>
<mask id="mask7_342_366" style="mask-type:luminance" maskUnits="userSpaceOnUse" x="163" y="212" width="14" height="35">
<path d="M171.761 212.694C171.761 212.694 163.995 237.39 163.961 246.926C163.961 246.926 174.992 233.569 176.432 224.185C177.873 214.8 171.761 212.694 171.761 212.694Z" fill="white"/>
</mask>
<g mask="url(#mask7_342_366)">
<path opacity="0.16" d="M170.423 215.85C171.59 215.811 172.748 216.056 173.799 216.566C174.85 217.075 175.761 217.832 176.453 218.772C176.453 218.772 174.93 214.293 171.761 212.694L170.423 215.85Z" fill="black"/>
</g>
<path d="M171.761 212.694C171.761 212.694 163.995 237.39 163.961 246.926C163.961 246.926 174.992 233.569 176.432 224.185C177.873 214.8 171.761 212.694 171.761 212.694Z" stroke="#263238" stroke-linecap="round" stroke-linejoin="round"/>
<path d="M254.664 285.575C254.664 285.575 260.351 285.808 264.076 286.343C266.56 286.68 269.061 286.879 271.567 286.94C271.567 286.94 269.509 282.783 267.314 281.61C265.118 280.437 261.139 278.338 257.806 278.804C254.472 279.271 249.704 282.632 250.102 283.702C250.5 284.772 252.276 285.253 254.664 285.575Z" fill="white"/>
<mask id="mask8_342_366" style="mask-type:luminance" maskUnits="userSpaceOnUse" x="250" y="278" width="22" height="9">
<path d="M254.664 285.575C254.664 285.575 260.351 285.808 264.076 286.343C266.56 286.68 269.061 286.879 271.567 286.94C271.567 286.94 269.509 282.783 267.314 281.61C265.118 280.437 261.139 278.338 257.806 278.804C254.472 279.271 249.704 282.632 250.102 283.702C250.5 284.772 252.276 285.253 254.664 285.575Z" fill="white"/>
</mask>
<g mask="url(#mask8_342_366)">
<path d="M254.664 285.575C254.664 285.575 260.351 285.808 264.076 286.343C266.56 286.68 269.061 286.879 271.567 286.94C271.567 286.94 269.509 282.783 267.314 281.61C265.118 280.437 261.139 278.338 257.806 278.804C254.472 279.271 249.704 282.632 250.102 283.702C250.5 284.772 252.276 285.253 254.664 285.575Z" fill="#2E0D44"/>
<path opacity="0.5" d="M254.664 285.575C254.664 285.575 260.351 285.808 264.076 286.343C266.56 286.68 269.061 286.879 271.567 286.94C271.567 286.94 269.509 282.783 267.314 281.61C265.118 280.437 261.139 278.338 257.806 278.804C254.472 279.271 249.704 282.632 250.102 283.702C250.5 284.772 252.276 285.253 254.664 285.575Z" fill="white"/>
</g>
<path d="M254.664 285.575C254.664 285.575 260.351 285.808 264.076 286.343C266.56 286.68 269.061 286.879 271.567 286.94C271.567 286.94 269.509 282.783 267.314 281.61C265.118 280.437 261.139 278.338 257.806 278.804C254.472 279.271 249.704 282.632 250.102 283.702C250.5 284.772 252.276 285.253 254.664 285.575Z" stroke="#263238" stroke-linecap="round" stroke-linejoin="round"/>
<path d="M264.11 283.874C264.11 283.874 268.617 281.534 269.742 281.569C270.867 281.603 278.344 286.659 277.974 287.468C277.722 287.844 277.359 288.13 276.936 288.288C276.512 288.446 276.05 288.466 275.614 288.346C274.784 287.955 269.749 285.815 269.749 285.815L266.456 286.59L264.11 283.874Z" fill="white"/>
<mask id="mask9_342_366" style="mask-type:luminance" maskUnits="userSpaceOnUse" x="264" y="281" width="14" height="8">
<path d="M264.11 283.874C264.11 283.874 268.617 281.534 269.742 281.569C270.867 281.603 278.344 286.659 277.974 287.468C277.722 287.844 277.359 288.13 276.936 288.288C276.512 288.446 276.05 288.466 275.614 288.346C274.784 287.955 269.749 285.815 269.749 285.815L266.456 286.59L264.11 283.874Z" fill="white"/>
</mask>
<g mask="url(#mask9_342_366)">
<path d="M264.11 283.874C264.11 283.874 268.617 281.534 269.742 281.569C270.867 281.603 278.344 286.659 277.974 287.468C277.603 288.278 275.834 288.936 275.614 288.346C275.395 287.756 269.749 285.815 269.749 285.815L266.456 286.59L264.11 283.874Z" fill="#2E0D44"/>
<path opacity="0.5" d="M264.11 283.874C264.11 283.874 268.617 281.534 269.742 281.569C270.867 281.603 278.344 286.659 277.974 287.468C277.603 288.278 275.834 288.936 275.614 288.346C275.395 287.756 269.749 285.815 269.749 285.815L266.456 286.59L264.11 283.874Z" fill="white"/>
</g>
<path d="M264.11 283.874C264.11 283.874 268.617 281.534 269.742 281.569C270.867 281.603 278.344 286.659 277.974 287.468C277.722 287.844 277.359 288.13 276.936 288.288C276.512 288.446 276.05 288.466 275.614 288.346C274.784 287.955 269.749 285.815 269.749 285.815L266.456 286.59L264.11 283.874Z" stroke="#263238" stroke-linecap="round" stroke-linejoin="round"/>
<path d="M260.893 280.025C260.893 280.025 266.902 279.833 268.096 280.437C269.289 281.04 274.681 290.288 273.872 290.96C273.062 291.632 270.826 291.433 270.894 290.686C270.963 289.938 265.928 284.985 265.928 284.985L262.011 284.127L260.893 280.025Z" fill="white"/>
<mask id="mask10_342_366" style="mask-type:luminance" maskUnits="userSpaceOnUse" x="260" y="279" width="14" height="13">
<path d="M260.893 280.025C260.893 280.025 266.902 279.833 268.096 280.437C269.289 281.04 274.681 290.288 273.872 290.96C273.062 291.632 270.826 291.433 270.894 290.686C270.963 289.938 265.928 284.985 265.928 284.985L262.011 284.127L260.893 280.025Z" fill="white"/>
</mask>
<g mask="url(#mask10_342_366)">
<path d="M260.893 280.025C260.893 280.025 266.902 279.833 268.096 280.437C269.289 281.04 274.681 290.288 273.872 290.96C273.062 291.632 270.826 291.433 270.894 290.686C270.963 289.938 265.928 284.985 265.928 284.985L262.011 284.127L260.893 280.025Z" fill="#2E0D44"/>
<path opacity="0.5" d="M260.893 280.025C260.893 280.025 266.902 279.833 268.096 280.437C269.289 281.04 274.681 290.288 273.872 290.96C273.062 291.632 270.826 291.433 270.894 290.686C270.963 289.938 265.928 284.985 265.928 284.985L262.011 284.127L260.893 280.025Z" fill="white"/>
</g>
<path d="M260.893 280.025C260.893 280.025 266.902 279.833 268.096 280.437C269.289 281.04 274.681 290.288 273.872 290.96C273.062 291.632 270.826 291.433 270.894 290.686C270.963 289.938 265.928 284.985 265.928 284.985L262.011 284.127L260.893 280.025Z" stroke="#263238" stroke-linecap="round" stroke-linejoin="round"/>
<path d="M257.332 278.784C257.332 278.784 263.417 278.585 264.624 279.202C265.832 279.819 271.292 289.17 270.469 289.856C269.646 290.542 267.396 290.329 267.465 289.574C267.533 288.82 262.436 283.805 262.436 283.805L258.471 282.934L257.332 278.784Z" fill="white"/>
<mask id="mask11_342_366" style="mask-type:luminance" maskUnits="userSpaceOnUse" x="257" y="278" width="14" height="13">
<path d="M257.332 278.784C257.332 278.784 263.417 278.585 264.624 279.202C265.832 279.819 271.292 289.17 270.469 289.856C269.646 290.542 267.396 290.329 267.465 289.574C267.533 288.82 262.436 283.805 262.436 283.805L258.471 282.934L257.332 278.784Z" fill="white"/>
</mask>
<g mask="url(#mask11_342_366)">
<path d="M257.332 278.784C257.332 278.784 263.417 278.585 264.624 279.202C265.832 279.819 271.292 289.17 270.469 289.856C269.646 290.542 267.396 290.329 267.465 289.574C267.533 288.82 262.436 283.805 262.436 283.805L258.471 282.934L257.332 278.784Z" fill="#2E0D44"/>
<path opacity="0.5" d="M257.332 278.784C257.332 278.784 263.417 278.585 264.624 279.202C265.832 279.819 271.292 289.17 270.469 289.856C269.646 290.542 267.396 290.329 267.465 289.574C267.533 288.82 262.436 283.805 262.436 283.805L258.471 282.934L257.332 278.784Z" fill="white"/>
</g>
<path d="M257.332 278.784C257.332 278.784 263.417 278.585 264.624 279.202C265.832 279.819 271.292 289.17 270.469 289.856C269.646 290.542 267.396 290.329 267.465 289.574C267.533 288.82 262.436 283.805 262.436 283.805L258.471 282.934L257.332 278.784Z" stroke="#263238" stroke-linecap="round" stroke-linejoin="round"/>
<path d="M188.149 243.921C192.553 250.706 201.396 267.897 203.975 269.831C208.002 272.85 234.921 280.176 237.514 282.179C240.107 284.182 239.928 286.192 242.384 286.926C244.84 287.66 254.046 289.766 257.559 290.096C261.071 290.425 259.5 288.25 259.5 288.25L253.511 284.134L258.732 282.845C258.732 282.845 263.966 289.142 264.947 289.485C265.928 289.828 267.657 289.485 267.547 288.71C267.355 287.468 261.771 277.309 259.788 276.876C257.806 276.444 245.773 278.111 245.773 278.111C245.773 278.111 220.535 261.092 220.082 260.488C220.082 260.488 218.573 256.207 217.338 254.444C216.104 252.681 215.322 253.189 215.322 253.189C215.322 253.189 215.829 250.918 215.075 250.164L211.048 246.137L210.904 246.329C210.218 244.957 209.532 243.393 208.777 241.609C206.671 236.649 199.214 222.73 197.959 220.72C197.019 219.218 189.144 218.141 185.151 217.688" fill="#2E0D44"/>
<mask id="mask12_342_366" style="mask-type:luminance" maskUnits="userSpaceOnUse" x="185" y="217" width="83" height="74">
<path d="M188.149 243.921C192.553 250.706 201.396 267.897 203.975 269.831C208.002 272.85 234.921 280.176 237.514 282.179C240.107 284.182 239.928 286.192 242.384 286.926C244.84 287.66 254.046 289.766 257.559 290.096C261.071 290.425 259.5 288.25 259.5 288.25L253.511 284.134L258.732 282.845C258.732 282.845 263.966 289.142 264.947 289.485C265.928 289.828 267.657 289.485 267.547 288.71C267.355 287.468 261.771 277.309 259.788 276.876C257.806 276.444 245.773 278.111 245.773 278.111C245.773 278.111 220.535 261.092 220.082 260.488C220.082 260.488 218.573 256.207 217.338 254.444C216.104 252.681 215.322 253.189 215.322 253.189C215.322 253.189 215.829 250.918 215.075 250.164L211.048 246.137L210.904 246.329C210.218 244.957 209.532 243.393 208.777 241.609C206.671 236.649 199.214 222.73 197.959 220.72C197.019 219.218 189.144 218.141 185.151 217.688" fill="white"/>
</mask>
<g mask="url(#mask12_342_366)">
<path opacity="0.16" d="M205.683 244.353C208.976 247.276 207.879 247.276 207.145 249.841C206.411 252.407 207.693 248.929 210.801 249.114C213.909 249.299 212.996 253.312 212.626 254.046C212.255 254.78 216.467 255.693 215.733 257.332C214.999 258.972 210.801 261.352 208.427 263.733C206.054 266.113 214.636 259.891 217.558 259.713C218.45 259.651 219.184 259.768 219.801 259.754C219.154 257.918 218.322 256.153 217.318 254.485C216.056 252.722 215.301 253.23 215.301 253.23C215.301 253.23 215.809 250.959 215.054 250.205L211.027 246.178L210.883 246.37C210.197 244.998 209.511 243.434 208.757 241.65C206.651 236.691 199.194 222.772 197.938 220.762C196.999 219.259 189.123 218.182 185.131 217.73L185.494 220.906L185.584 220.974C185.584 220.974 190.516 221.887 192.162 222.072C193.809 222.257 195.819 223.711 195.634 224.816C195.448 225.92 190.701 230.846 192.162 231.216C193.624 231.587 195.27 227.56 196.916 228.109C198.563 228.657 202.37 241.431 205.683 244.353Z" fill="black"/>
</g>
<path d="M188.149 243.921C192.553 250.706 201.396 267.897 203.975 269.831C208.002 272.85 234.921 280.176 237.514 282.179C240.107 284.182 239.928 286.192 242.384 286.926C244.84 287.66 254.046 289.766 257.559 290.096C261.071 290.425 259.5 288.25 259.5 288.25L253.511 284.134L258.732 282.845C258.732 282.845 263.966 289.142 264.947 289.485C265.928 289.828 267.657 289.485 267.547 288.71C267.355 287.468 261.771 277.309 259.788 276.876C257.806 276.444 245.773 278.111 245.773 278.111C245.773 278.111 220.535 261.092 220.082 260.488C220.082 260.488 218.573 256.207 217.338 254.444C216.104 252.681 215.322 253.189 215.322 253.189C215.322 253.189 215.829 250.918 215.075 250.164L211.048 246.137L210.904 246.329C210.218 244.957 209.532 243.393 208.777 241.609C206.671 236.649 199.214 222.73 197.959 220.72C197.019 219.218 189.144 218.141 185.151 217.688" stroke="#263238" stroke-linecap="round" stroke-linejoin="round"/>
<path d="M188.218 234.612C188.032 235.229 187.875 235.847 187.751 236.478" stroke="#263238" stroke-linecap="round" stroke-linejoin="round"/>
<path d="M194.886 223.259C192.73 225.716 190.912 228.45 189.48 231.388" stroke="#263238" stroke-linecap="round" stroke-linejoin="round"/>
<path d="M204.963 262.21C206.815 259.466 209.765 255.988 213.017 254.993" stroke="#263238" stroke-linecap="round" stroke-linejoin="round"/>
<path d="M202.912 265.585C202.912 265.585 203.241 264.94 203.831 263.966" stroke="#263238" stroke-linecap="round" stroke-linejoin="round"/>
<path d="M202.912 261.249C202.912 261.249 206.28 252.825 209.648 250.658C213.017 248.49 211.089 252.825 211.089 252.825" stroke="#263238" stroke-linecap="round" stroke-linejoin="round"/>
<path d="M237.514 282.186C240.114 284.196 239.928 286.199 242.384 286.933C244.84 287.667 254.046 289.773 257.559 290.103C261.071 290.432 259.5 288.257 259.5 288.257L253.511 284.141L258.732 282.852C258.732 282.852 263.966 289.149 264.947 289.492C265.928 289.835 267.794 289.958 267.547 288.717C267.067 286.316 261.771 277.315 259.788 276.883C257.806 276.451 245.773 278.118 245.773 278.118C245.773 278.118 222.785 262.34 220.268 260.632C210.506 261.572 205.862 266.682 203.906 269.749L203.975 269.804C208.002 272.85 234.921 280.176 237.514 282.186Z" fill="white"/>
<mask id="mask13_342_366" style="mask-type:luminance" maskUnits="userSpaceOnUse" x="203" y="260" width="65" height="31">
<path d="M237.514 282.186C240.114 284.196 239.928 286.199 242.384 286.933C244.84 287.667 254.046 289.773 257.559 290.103C261.071 290.432 259.5 288.257 259.5 288.257L253.511 284.141L258.732 282.852C258.732 282.852 263.966 289.149 264.947 289.492C265.928 289.835 267.794 289.958 267.547 288.717C267.067 286.316 261.771 277.315 259.788 276.883C257.806 276.451 245.773 278.118 245.773 278.118C245.773 278.118 222.785 262.34 220.268 260.632C210.506 261.572 205.862 266.682 203.906 269.749L203.975 269.804C208.002 272.85 234.921 280.176 237.514 282.186Z" fill="white"/>
</mask>
<g mask="url(#mask13_342_366)">
<path d="M267.54 288.744C266.291 285.692 261.764 277.343 259.781 276.911C257.799 276.479 245.766 278.146 245.766 278.146C245.766 278.146 222.778 262.368 220.261 260.659C217.699 260.882 215.185 261.49 212.804 262.464C216.433 264.522 240.621 278.242 243.674 278.852C246.912 279.538 257.716 277.761 259.617 279.037C260.824 279.847 264.419 285.547 266.847 289.595C267.54 289.492 267.794 289.362 267.54 288.744Z" fill="#2E0D44"/>
<path opacity="0.5" d="M267.54 288.744C265.592 284.374 261.764 277.343 259.781 276.911C257.799 276.479 245.766 278.146 245.766 278.146C245.766 278.146 222.778 262.368 220.261 260.659C217.699 260.882 215.185 261.49 212.804 262.464C216.433 264.522 240.621 278.242 243.674 278.852C246.912 279.538 257.716 277.761 259.617 279.037C260.824 279.847 264.419 285.547 266.847 289.595C267.54 289.492 267.814 289.355 267.54 288.744Z" fill="white"/>
</g>
<path d="M237.514 282.186C240.114 284.196 239.928 286.199 242.384 286.933C244.84 287.667 254.046 289.773 257.559 290.103C261.071 290.432 259.5 288.257 259.5 288.257L253.511 284.141L258.732 282.852C258.732 282.852 263.966 289.149 264.947 289.492C265.928 289.835 267.794 289.958 267.547 288.717C267.067 286.316 261.771 277.315 259.788 276.883C257.806 276.451 245.773 278.118 245.773 278.118C245.773 278.118 222.785 262.34 220.268 260.632C210.506 261.572 205.862 266.682 203.906 269.749L203.975 269.804C208.002 272.85 234.921 280.176 237.514 282.186Z" stroke="#263238" stroke-linecap="round" stroke-linejoin="round"/>
<path d="M176.885 162.397L156.223 171.02C155.972 174.651 155.073 178.208 153.568 181.522C151.126 186.688 152.553 196.464 154.899 201.739C157.245 207.014 167.583 204.949 171.363 204.291C173.926 203.803 176.437 203.07 178.861 202.102C179.964 202.528 181.158 202.665 182.329 202.502C183.5 202.339 184.611 201.88 185.556 201.17C185.556 201.17 174.498 170.128 176.885 162.397Z" fill="white"/>
<mask id="mask14_342_366" style="mask-type:luminance" maskUnits="userSpaceOnUse" x="152" y="162" width="34" height="44">
<path d="M176.885 162.397L156.223 171.02C155.972 174.651 155.073 178.208 153.568 181.522C151.126 186.688 152.553 196.464 154.899 201.739C157.245 207.014 167.583 204.949 171.363 204.291C173.926 203.803 176.437 203.07 178.861 202.102C179.964 202.528 181.158 202.665 182.329 202.502C183.5 202.339 184.611 201.88 185.556 201.17C185.556 201.17 174.498 170.128 176.885 162.397Z" fill="white"/>
</mask>
<g mask="url(#mask14_342_366)">
<path d="M176.885 162.397L156.223 171.02C155.972 174.651 155.073 178.208 153.568 181.522C151.126 186.688 152.553 196.464 154.899 201.739C155.291 202.587 155.923 203.302 156.717 203.797V203.399C156.717 203.399 152.882 193.898 153.609 188.417C154.336 182.936 157.451 180.185 157.814 176.72C158.178 173.256 157.993 171.61 164.942 169.051C171.891 166.492 174.806 164.119 175.534 166.671C176.261 169.222 179.19 186.043 181.2 190.063C183.21 194.083 183.025 198.295 179.924 200.113C176.79 201.994 173.432 203.474 169.929 204.517L171.39 204.263C173.954 203.776 176.465 203.043 178.888 202.075C179.992 202.5 181.185 202.638 182.357 202.475C183.528 202.311 184.638 201.853 185.584 201.142C185.584 201.142 174.498 170.128 176.885 162.397Z" fill="#2E0D44"/>
<path opacity="0.5" d="M176.885 162.397L156.223 171.02C155.972 174.651 155.073 178.208 153.568 181.522C151.126 186.688 152.553 196.464 154.899 201.739C155.291 202.587 155.923 203.302 156.717 203.797V203.399C156.717 203.399 152.882 193.898 153.609 188.417C154.336 182.936 157.451 180.185 157.814 176.72C158.178 173.256 157.993 171.61 164.942 169.051C171.891 166.492 174.806 164.119 175.534 166.671C176.261 169.222 179.19 186.043 181.2 190.063C183.21 194.083 183.025 198.295 179.924 200.113C176.79 201.994 173.432 203.474 169.929 204.517L171.39 204.263C173.954 203.776 176.465 203.043 178.888 202.075C179.992 202.5 181.185 202.638 182.357 202.475C183.528 202.311 184.638 201.853 185.584 201.142C185.584 201.142 174.498 170.128 176.885 162.397Z" fill="white"/>
</g>
<path d="M176.885 162.397L156.223 171.02C155.972 174.651 155.073 178.208 153.568 181.522C151.126 186.688 152.553 196.464 154.899 201.739C157.245 207.014 167.583 204.949 171.363 204.291C173.926 203.803 176.437 203.07 178.861 202.102C179.964 202.528 181.158 202.665 182.329 202.502C183.5 202.339 184.611 201.88 185.556 201.17C185.556 201.17 174.498 170.128 176.885 162.397Z" stroke="#263238" stroke-linecap="round" stroke-linejoin="round"/>
<path d="M166.444 175.918C166.5 177.133 166.349 178.348 165.998 179.512C165.449 180.884 160.27 186.276 160.428 186.86C160.586 187.443 161.052 189.315 161.971 189.494" stroke="#263238" stroke-linecap="round" stroke-linejoin="round"/>
<path d="M172.186 180.74C172.906 179.3 175.273 180.706 175.238 183.951" stroke="#263238" stroke-linecap="round" stroke-linejoin="round"/>
<path d="M160.455 176.501C160.455 176.501 162.472 175.616 164.276 178.881" stroke="#263238" stroke-linecap="round" stroke-linejoin="round"/>
<path d="M169.318 185.494C171.649 185.612 173.865 186.541 175.582 188.122" stroke="#263238" stroke-width="0.5" stroke-linecap="round" stroke-linejoin="round"/>
<path d="M158.02 181.207C159.225 181.368 160.402 181.693 161.519 182.174" stroke="#263238" stroke-width="0.5" stroke-linecap="round" stroke-linejoin="round"/>
<path d="M166.218 172.872C165.685 172.59 165.094 172.436 164.492 172.422C163.889 172.408 163.292 172.534 162.746 172.79C160.901 173.675 159.769 174.649 159.893 173.517C160.016 172.385 162.184 171.136 162.836 170.972C163.487 170.807 166.403 170.354 166.218 172.872Z" fill="#263238"/>
<path d="M171.39 170.313C173.313 171.869 174.841 173.858 175.849 176.117C177.221 179.547 178.305 175.801 177.221 173.558C176.137 171.315 173.002 168.927 171.39 170.313Z" fill="#263238"/>
<path d="M185.858 207.035C185.858 208.633 184.952 209.93 183.841 209.93C182.73 209.93 181.831 208.633 181.831 207.035C181.831 205.436 182.73 201.368 183.841 201.368C184.952 201.368 185.858 205.436 185.858 207.035Z" fill="#2E0D44" stroke="#263238" stroke-linecap="round" stroke-linejoin="round"/>
<path d="M172.364 180.116C172.285 180.326 172.223 180.541 172.179 180.761C171.98 181.776 171.781 183.896 172.179 183.985C172.577 184.074 173.551 182.092 173.722 181.077C173.761 180.877 173.784 180.676 173.791 180.473C173.323 180.326 172.846 180.207 172.364 180.116Z" fill="#263238"/>
<path d="M160.661 176.302C160.6 176.481 160.552 176.665 160.517 176.851C160.311 177.866 160.318 180.096 160.75 180.178C161.182 180.26 161.889 178.175 162.088 177.16C162.138 176.913 162.165 176.663 162.17 176.412C161.679 176.277 161.166 176.239 160.661 176.302Z" fill="#263238"/>
<path d="M172.186 180.775L172.872 179.499C173.959 179.711 174.945 180.281 175.671 181.118" stroke="#263238" stroke-width="0.75" stroke-linecap="round" stroke-linejoin="round"/>
<path d="M160.661 176.302L161.347 175.499C161.347 175.499 161.642 175.355 163.261 176.089" stroke="#263238" stroke-width="0.75" stroke-linecap="round" stroke-linejoin="round"/>
<path d="M158.061 194.906C158.061 194.906 159.214 192.787 160.757 192.787C162.301 192.787 163.453 196.251 163.453 196.251" stroke="#263238" stroke-linecap="round" stroke-linejoin="round"/>
<path d="M108.388 286.323C106.896 286.249 105.431 285.9 104.066 285.294C103.876 285.223 103.702 285.115 103.555 284.975C103.408 284.835 103.291 284.667 103.211 284.481C103.131 284.294 103.089 284.093 103.089 283.89C103.09 283.687 103.131 283.487 103.211 283.3C103.291 283.114 103.409 282.946 103.556 282.806C103.703 282.666 103.877 282.558 104.067 282.488C104.258 282.418 104.461 282.387 104.663 282.398C104.866 282.408 105.064 282.46 105.246 282.55C106.618 283.133 108.395 283.496 108.868 283.291C109.74 282.316 111.077 276.431 109.349 273.591C108.957 272.959 108.594 272.843 108.354 272.815C107.373 272.678 105.919 273.687 105.404 274.187C105.261 274.322 105.092 274.428 104.908 274.498C104.724 274.568 104.528 274.601 104.331 274.596C104.135 274.59 103.941 274.545 103.761 274.465C103.581 274.384 103.419 274.269 103.284 274.126C103.149 273.982 103.044 273.814 102.974 273.63C102.903 273.446 102.87 273.25 102.876 273.053C102.882 272.856 102.926 272.662 103.007 272.483C103.088 272.303 103.203 272.141 103.346 272.006C103.614 271.745 106.09 269.516 108.731 269.872C109.386 269.968 110.01 270.213 110.555 270.589C111.1 270.965 111.551 271.462 111.873 272.04C114.418 276.19 112.676 284.086 110.721 285.65C110.041 286.131 109.219 286.368 108.388 286.323Z" fill="white"/>
<mask id="mask15_342_366" style="mask-type:luminance" maskUnits="userSpaceOnUse" x="102" y="269" width="12" height="18">
<path d="M108.388 286.323C106.896 286.249 105.431 285.9 104.066 285.294C103.876 285.223 103.702 285.115 103.555 284.975C103.408 284.835 103.291 284.667 103.211 284.481C103.131 284.294 103.089 284.093 103.089 283.89C103.09 283.687 103.131 283.487 103.211 283.3C103.291 283.114 103.409 282.946 103.556 282.806C103.703 282.666 103.877 282.558 104.067 282.488C104.258 282.418 104.461 282.387 104.663 282.398C104.866 282.408 105.064 282.46 105.246 282.55C106.618 283.133 108.395 283.496 108.868 283.291C109.74 282.316 111.077 276.431 109.349 273.591C108.957 272.959 108.594 272.843 108.354 272.815C107.373 272.678 105.919 273.687 105.404 274.187C105.261 274.322 105.092 274.428 104.908 274.498C104.724 274.568 104.528 274.601 104.331 274.596C104.135 274.59 103.941 274.545 103.761 274.465C103.581 274.384 103.419 274.269 103.284 274.126C103.149 273.982 103.044 273.814 102.974 273.63C102.903 273.446 102.87 273.25 102.876 273.053C102.882 272.856 102.926 272.662 103.007 272.483C103.088 272.303 103.203 272.141 103.346 272.006C103.614 271.745 106.09 269.516 108.731 269.872C109.386 269.968 110.01 270.213 110.555 270.589C111.1 270.965 111.551 271.462 111.873 272.04C114.418 276.19 112.676 284.086 110.721 285.65C110.041 286.131 109.219 286.368 108.388 286.323Z" fill="white"/>
</mask>
<g mask="url(#mask15_342_366)">
<path d="M110.398 273.138C110.218 272.712 109.936 272.336 109.578 272.044C109.219 271.753 108.794 271.553 108.34 271.464C106.625 271.19 105.013 272.911 104.835 273.103C104.671 273.301 104.569 273.543 104.544 273.798C104.518 274.054 104.569 274.311 104.69 274.537C104.96 274.483 105.21 274.355 105.411 274.167C105.925 273.687 107.38 272.678 108.361 272.795C108.601 272.795 108.964 272.939 109.355 273.57C111.084 276.383 109.746 282.296 108.875 283.27C108.402 283.476 106.632 283.112 105.253 282.529C105.083 282.458 104.902 282.418 104.718 282.412C104.73 282.6 104.79 282.782 104.89 282.942C104.991 283.101 105.13 283.233 105.294 283.325C106.162 283.788 107.118 284.06 108.1 284.121C108.66 284.147 109.208 283.956 109.63 283.586C110.919 282.399 112.058 276.328 110.398 273.138Z" fill="#2E0D44"/>
<path opacity="0.5" d="M110.398 273.138C110.218 272.712 109.936 272.336 109.578 272.044C109.219 271.753 108.794 271.553 108.34 271.464C106.625 271.19 105.013 272.911 104.835 273.103C104.671 273.301 104.569 273.543 104.544 273.798C104.518 274.054 104.569 274.311 104.69 274.537C104.96 274.483 105.21 274.355 105.411 274.167C105.925 273.687 107.38 272.678 108.361 272.795C108.601 272.795 108.964 272.939 109.355 273.57C111.084 276.383 109.746 282.296 108.875 283.27C108.402 283.476 106.632 283.112 105.253 282.529C105.083 282.458 104.902 282.418 104.718 282.412C104.73 282.6 104.79 282.782 104.89 282.942C104.991 283.101 105.13 283.233 105.294 283.325C106.162 283.788 107.118 284.06 108.1 284.121C108.66 284.147 109.208 283.956 109.63 283.586C110.919 282.399 112.058 276.328 110.398 273.138Z" fill="white"/>
</g>
<path d="M108.388 286.323C106.896 286.249 105.431 285.9 104.066 285.294C103.876 285.223 103.702 285.115 103.555 284.975C103.408 284.835 103.291 284.667 103.211 284.481C103.131 284.294 103.089 284.093 103.089 283.89C103.09 283.687 103.131 283.487 103.211 283.3C103.291 283.114 103.409 282.946 103.556 282.806C103.703 282.666 103.877 282.558 104.067 282.488C104.258 282.418 104.461 282.387 104.663 282.398C104.866 282.408 105.064 282.46 105.246 282.55C106.618 283.133 108.395 283.496 108.868 283.291C109.74 282.316 111.077 276.431 109.349 273.591C108.957 272.959 108.594 272.843 108.354 272.815C107.373 272.678 105.919 273.687 105.404 274.187C105.261 274.322 105.092 274.428 104.908 274.498C104.724 274.568 104.528 274.601 104.331 274.596C104.135 274.59 103.941 274.545 103.761 274.465C103.581 274.384 103.419 274.269 103.284 274.126C103.149 273.982 103.044 273.814 102.974 273.63C102.903 273.446 102.87 273.25 102.876 273.053C102.882 272.856 102.926 272.662 103.007 272.483C103.088 272.303 103.203 272.141 103.346 272.006C103.614 271.745 106.09 269.516 108.731 269.872C109.386 269.968 110.01 270.213 110.555 270.589C111.1 270.965 111.551 271.462 111.873 272.04C114.418 276.19 112.676 284.086 110.721 285.65C110.041 286.131 109.219 286.368 108.388 286.323Z" stroke="#263238" stroke-linecap="round" stroke-linejoin="round"/>
<path d="M105.768 268.624H89.2693V290.521H105.768V268.624Z" fill="white"/>
<mask id="mask16_342_366" style="mask-type:luminance" maskUnits="userSpaceOnUse" x="89" y="268" width="17" height="23">
<path d="M105.768 268.624H89.2693V290.521H105.768V268.624Z" fill="white"/>
</mask>
<g mask="url(#mask16_342_366)">
<path d="M96.0264 268.624H89.2693V290.521H96.0264V268.624Z" fill="#2E0D44"/>
<path opacity="0.5" d="M96.0264 268.624H89.2693V290.521H96.0264V268.624Z" fill="white"/>
</g>
<path d="M105.768 268.624H89.2693V290.521H105.768V268.624Z" stroke="#263238" stroke-linecap="round" stroke-linejoin="round"/>
<path d="M196.429 290.219H125.95L123.652 251.474C123.588 251.098 123.607 250.713 123.707 250.346C123.806 249.978 123.984 249.636 124.229 249.344C124.474 249.052 124.779 248.816 125.123 248.653C125.467 248.49 125.843 248.404 126.224 248.401H196.128C196.511 248.4 196.89 248.484 197.237 248.645C197.585 248.806 197.894 249.041 198.141 249.333C198.389 249.626 198.569 249.969 198.671 250.339C198.772 250.709 198.791 251.096 198.727 251.474L196.429 290.219Z" fill="#263238" stroke="#263238" stroke-linecap="round" stroke-linejoin="round"/>
<path d="M129.421 249.327H195.62C195.994 249.323 196.364 249.401 196.705 249.555C197.045 249.709 197.348 249.936 197.592 250.22C197.836 250.504 198.015 250.837 198.116 251.197C198.217 251.557 198.239 251.935 198.179 252.304" stroke="white" stroke-linecap="round" stroke-linejoin="round"/>
<path d="M124.166 251.693C124.221 251.045 124.519 250.441 124.999 250.003C125.48 249.564 126.108 249.323 126.759 249.327" stroke="white" stroke-linecap="round" stroke-linejoin="round"/>
<path d="M196.724 286.446H125.655V290.219H196.724V286.446Z" fill="white" stroke="#263238" stroke-linecap="round" stroke-linejoin="round"/>
<path d="M160.936 272.479C163.717 272.479 165.971 271.128 165.971 269.461C165.971 267.794 163.717 266.442 160.936 266.442C158.155 266.442 155.9 267.794 155.9 269.461C155.9 271.128 158.155 272.479 160.936 272.479Z" fill="white" stroke="#263238" stroke-linecap="round" stroke-linejoin="round"/>
<path d="M303.918 289.773H39.2185V296.201H303.918V289.773Z" fill="#263238"/>
<path d="M235.284 51.45H107.942C103.649 51.45 100.17 54.9298 100.17 59.2224V132.288C100.17 136.581 103.649 140.061 107.942 140.061H235.284C239.577 140.061 243.057 136.581 243.057 132.288V59.2224C243.057 54.9298 239.577 51.45 235.284 51.45Z" fill="#2E0D44"/>
<path d="M174.973 102.372C186.525 100.516 194.384 89.6465 192.527 78.0953C190.671 66.5441 179.802 58.6849 168.251 60.5413C156.7 62.3977 148.84 73.2667 150.697 84.8179C152.553 96.3692 163.422 104.228 174.973 102.372Z" fill="#263238"/>
<path d="M171.452 85.3727L164.393 94.4348C164.153 94.812 163.823 95.1236 163.433 95.3416C163.042 95.5595 162.604 95.677 162.157 95.6833C161.543 95.6917 160.952 95.4575 160.51 95.0316C160.286 94.8258 160.108 94.574 159.99 94.2935C159.872 94.0129 159.815 93.7102 159.824 93.4058C159.846 92.7242 160.087 92.0677 160.51 91.533L168.557 81.5792L161.011 71.6184C160.66 71.151 160.468 70.5838 160.462 69.9995C160.46 69.651 160.531 69.3059 160.669 68.9859C160.807 68.666 161.01 68.3781 161.265 68.1404C161.504 67.8905 161.792 67.6918 162.11 67.5562C162.428 67.4206 162.771 67.3509 163.117 67.3515C163.56 67.3587 163.994 67.4767 164.38 67.6948C164.766 67.9129 165.091 68.2241 165.326 68.6L172.145 77.5798L179.005 68.751C179.25 68.3391 179.593 67.994 180.003 67.7463C180.414 67.4986 180.879 67.356 181.358 67.3309C181.655 67.3302 181.949 67.3907 182.222 67.5088C182.494 67.6268 182.74 67.7998 182.942 68.0169C183.159 68.2205 183.331 68.466 183.449 68.7385C183.567 69.011 183.628 69.3047 183.628 69.6016C183.621 70.1329 183.438 70.6468 183.107 71.0628L175.033 81.3939L182.833 91.6839C183.201 92.1439 183.407 92.7135 183.416 93.3029C183.418 93.6437 183.346 93.981 183.205 94.2913C183.064 94.6016 182.858 94.8776 182.599 95.1002C182.096 95.5842 181.425 95.8547 180.727 95.8548C180.281 95.8493 179.844 95.7321 179.456 95.514C179.068 95.2958 178.74 94.9838 178.504 94.6063L171.452 85.3727Z" fill="white"/>
<path d="M211.974 124.715H131.225C129.587 124.715 128.017 124.064 126.859 122.906C125.701 121.749 125.051 120.178 125.051 118.541C125.051 116.903 125.701 115.333 126.859 114.175C128.017 113.017 129.587 112.367 131.225 112.367H211.974C213.611 112.367 215.182 113.017 216.34 114.175C217.497 115.333 218.148 116.903 218.148 118.541C218.148 120.178 217.497 121.749 216.34 122.906C215.182 124.064 213.611 124.715 211.974 124.715Z" fill="white"/>
<path d="M142.29 120.53C142.236 120.53 142.183 120.519 142.133 120.498C142.084 120.477 142.039 120.446 142.002 120.407C141.961 120.366 141.93 120.318 141.908 120.265C141.887 120.212 141.877 120.155 141.879 120.098C141.878 120.001 141.904 119.907 141.954 119.824L142.571 118.863H141.309C141.251 118.866 141.192 118.857 141.138 118.835C141.084 118.814 141.034 118.782 140.994 118.74C140.923 118.658 140.884 118.553 140.884 118.445C140.884 118.337 140.923 118.232 140.994 118.15C141.034 118.108 141.084 118.075 141.138 118.054C141.192 118.033 141.251 118.023 141.309 118.026L142.551 118.061L142.002 117.169C141.947 117.077 141.916 116.974 141.913 116.867C141.911 116.81 141.921 116.753 141.943 116.7C141.964 116.647 141.996 116.599 142.036 116.558C142.075 116.519 142.121 116.488 142.171 116.467C142.222 116.446 142.276 116.435 142.331 116.435C142.408 116.434 142.484 116.455 142.548 116.497C142.613 116.538 142.664 116.598 142.695 116.668L143.299 117.745L143.875 116.716C143.911 116.636 143.969 116.567 144.041 116.518C144.114 116.468 144.199 116.44 144.286 116.435C144.34 116.435 144.394 116.446 144.443 116.467C144.493 116.488 144.537 116.519 144.574 116.558C144.615 116.596 144.646 116.642 144.668 116.693C144.689 116.743 144.699 116.798 144.698 116.853C144.697 116.951 144.669 117.046 144.616 117.128L144.012 118.095L145.267 118.061C145.326 118.057 145.384 118.066 145.439 118.088C145.493 118.109 145.542 118.142 145.583 118.184C145.653 118.266 145.692 118.371 145.692 118.479C145.692 118.587 145.653 118.692 145.583 118.774C145.542 118.816 145.493 118.849 145.439 118.87C145.384 118.892 145.326 118.901 145.267 118.898H143.998L144.561 119.776C144.624 119.882 144.66 120.002 144.664 120.125C144.666 120.181 144.656 120.236 144.636 120.288C144.616 120.34 144.586 120.387 144.547 120.427C144.511 120.466 144.467 120.497 144.419 120.518C144.371 120.539 144.319 120.55 144.266 120.551C144.181 120.549 144.098 120.522 144.028 120.475C143.957 120.428 143.902 120.361 143.868 120.283L143.299 119.275L142.729 120.283C142.688 120.363 142.624 120.428 142.546 120.472C142.468 120.516 142.379 120.536 142.29 120.53Z" fill="black"/>
<path d="M148.587 120.53C148.534 120.53 148.48 120.519 148.431 120.498C148.381 120.477 148.336 120.446 148.299 120.407C148.259 120.366 148.227 120.318 148.206 120.265C148.184 120.212 148.174 120.155 148.176 120.098C148.176 120.001 148.202 119.907 148.251 119.824L148.869 118.863H147.606C147.548 118.866 147.49 118.857 147.435 118.835C147.381 118.814 147.332 118.782 147.291 118.74C147.22 118.658 147.182 118.553 147.182 118.445C147.182 118.337 147.22 118.232 147.291 118.15C147.332 118.108 147.381 118.075 147.435 118.054C147.49 118.033 147.548 118.023 147.606 118.026L148.848 118.061L148.265 117.135C148.21 117.043 148.179 116.939 148.176 116.833C148.174 116.776 148.184 116.719 148.206 116.666C148.227 116.612 148.259 116.564 148.299 116.524C148.338 116.485 148.384 116.454 148.434 116.432C148.485 116.411 148.539 116.4 148.594 116.4C148.671 116.399 148.747 116.421 148.811 116.462C148.876 116.504 148.927 116.563 148.958 116.634L149.562 117.711L150.138 116.682C150.174 116.602 150.232 116.533 150.304 116.484C150.377 116.434 150.462 116.405 150.549 116.4C150.603 116.4 150.657 116.411 150.706 116.433C150.756 116.454 150.8 116.485 150.838 116.524C150.878 116.562 150.91 116.607 150.931 116.658C150.952 116.709 150.962 116.764 150.961 116.819C150.96 116.916 150.932 117.012 150.879 117.093L150.275 118.061L151.53 118.026C151.589 118.023 151.647 118.032 151.702 118.053C151.756 118.075 151.805 118.108 151.846 118.15C151.916 118.232 151.955 118.337 151.955 118.445C151.955 118.553 151.916 118.658 151.846 118.74C151.805 118.782 151.756 118.815 151.702 118.836C151.647 118.857 151.589 118.867 151.53 118.863H150.261L150.824 119.741C150.887 119.847 150.923 119.968 150.927 120.091C150.929 120.147 150.919 120.202 150.899 120.254C150.879 120.306 150.849 120.353 150.81 120.393C150.774 120.432 150.73 120.462 150.682 120.484C150.634 120.505 150.582 120.516 150.529 120.516C150.444 120.515 150.361 120.489 150.29 120.442C150.22 120.394 150.164 120.327 150.131 120.249L149.562 119.241L148.992 120.249C148.958 120.329 148.902 120.399 148.831 120.448C148.759 120.498 148.675 120.527 148.587 120.53Z" fill="black"/>
<path d="M154.885 120.53C154.831 120.53 154.778 120.519 154.728 120.498C154.679 120.477 154.634 120.446 154.597 120.407C154.556 120.366 154.524 120.318 154.503 120.265C154.482 120.212 154.472 120.155 154.473 120.098C154.473 120.001 154.499 119.907 154.549 119.824L155.166 118.863H153.904C153.846 118.866 153.787 118.857 153.733 118.835C153.679 118.814 153.629 118.782 153.589 118.74C153.518 118.658 153.479 118.553 153.479 118.445C153.479 118.337 153.518 118.232 153.589 118.15C153.629 118.108 153.679 118.075 153.733 118.054C153.787 118.033 153.846 118.023 153.904 118.026L155.146 118.061L154.563 117.135C154.508 117.043 154.477 116.939 154.473 116.833C154.472 116.776 154.482 116.719 154.503 116.666C154.524 116.612 154.556 116.564 154.597 116.524C154.635 116.485 154.681 116.454 154.732 116.432C154.783 116.411 154.837 116.4 154.892 116.4C154.969 116.399 155.044 116.421 155.109 116.462C155.174 116.504 155.225 116.563 155.256 116.634L155.859 117.711L156.435 116.682C156.472 116.602 156.529 116.533 156.602 116.484C156.674 116.434 156.759 116.405 156.847 116.4C156.901 116.4 156.954 116.411 157.004 116.433C157.053 116.454 157.098 116.485 157.135 116.524C157.175 116.562 157.207 116.607 157.228 116.658C157.25 116.709 157.26 116.764 157.259 116.819C157.258 116.916 157.229 117.012 157.176 117.093L156.573 118.061L157.828 118.026C157.886 118.023 157.945 118.032 157.999 118.053C158.054 118.075 158.103 118.108 158.144 118.15C158.214 118.232 158.253 118.337 158.253 118.445C158.253 118.553 158.214 118.658 158.144 118.74C158.103 118.782 158.054 118.815 157.999 118.836C157.945 118.857 157.886 118.867 157.828 118.863H156.559L157.121 119.741C157.185 119.847 157.22 119.968 157.224 120.091C157.226 120.147 157.217 120.202 157.197 120.254C157.177 120.306 157.147 120.353 157.108 120.393C157.072 120.432 157.028 120.462 156.98 120.484C156.931 120.505 156.879 120.516 156.826 120.516C156.741 120.515 156.658 120.489 156.588 120.442C156.517 120.394 156.462 120.327 156.429 120.249L155.859 119.241L155.29 120.249C155.256 120.329 155.2 120.399 155.128 120.448C155.057 120.498 154.972 120.527 154.885 120.53Z" fill="black"/>
<path d="M161.21 120.53C161.156 120.53 161.103 120.519 161.053 120.498C161.004 120.477 160.959 120.446 160.922 120.407C160.881 120.366 160.849 120.318 160.828 120.265C160.807 120.212 160.797 120.155 160.798 120.098C160.798 120.001 160.824 119.907 160.874 119.824L161.491 118.863H160.229C160.171 118.866 160.112 118.857 160.058 118.835C160.004 118.814 159.954 118.782 159.913 118.74C159.843 118.658 159.804 118.553 159.804 118.445C159.804 118.337 159.843 118.232 159.913 118.15C159.954 118.108 160.004 118.075 160.058 118.054C160.112 118.033 160.171 118.023 160.229 118.026L161.471 118.061L160.888 117.135C160.833 117.043 160.802 116.939 160.798 116.833C160.797 116.776 160.807 116.719 160.828 116.666C160.849 116.612 160.881 116.564 160.922 116.524C160.96 116.485 161.006 116.454 161.057 116.432C161.108 116.411 161.162 116.4 161.217 116.4C161.294 116.399 161.369 116.421 161.434 116.462C161.498 116.504 161.549 116.563 161.58 116.634L162.184 117.711L162.76 116.682C162.797 116.602 162.854 116.533 162.927 116.484C162.999 116.434 163.084 116.405 163.172 116.4C163.226 116.4 163.279 116.411 163.329 116.433C163.378 116.454 163.423 116.485 163.46 116.524C163.5 116.562 163.532 116.607 163.553 116.658C163.575 116.709 163.585 116.764 163.584 116.819C163.583 116.916 163.554 117.012 163.501 117.093L162.898 118.061L164.153 118.026C164.211 118.023 164.27 118.032 164.324 118.053C164.379 118.075 164.428 118.108 164.469 118.15C164.539 118.232 164.578 118.337 164.578 118.445C164.578 118.553 164.539 118.658 164.469 118.74C164.428 118.782 164.379 118.815 164.324 118.836C164.27 118.857 164.211 118.867 164.153 118.863H162.884L163.446 119.741C163.51 119.847 163.545 119.968 163.549 120.091C163.551 120.147 163.542 120.202 163.522 120.254C163.502 120.306 163.471 120.353 163.433 120.393C163.397 120.432 163.353 120.462 163.305 120.484C163.256 120.505 163.204 120.516 163.151 120.516C163.066 120.514 162.984 120.488 162.913 120.441C162.843 120.393 162.787 120.327 162.754 120.249L162.184 119.241L161.615 120.249C161.581 120.329 161.525 120.399 161.453 120.448C161.382 120.498 161.297 120.527 161.21 120.53Z" fill="black"/>
<path d="M167.48 120.53C167.426 120.53 167.373 120.519 167.323 120.498C167.274 120.477 167.229 120.446 167.192 120.407C167.151 120.366 167.119 120.318 167.098 120.265C167.077 120.212 167.067 120.155 167.068 120.098C167.072 120.002 167.097 119.908 167.144 119.824L167.761 118.863H166.499C166.441 118.866 166.382 118.857 166.328 118.835C166.274 118.814 166.224 118.782 166.183 118.74C166.113 118.658 166.074 118.553 166.074 118.445C166.074 118.337 166.113 118.232 166.183 118.15C166.224 118.108 166.274 118.075 166.328 118.054C166.382 118.033 166.441 118.023 166.499 118.026L167.741 118.061L167.158 117.135C167.103 117.043 167.072 116.939 167.068 116.833C167.067 116.776 167.077 116.719 167.098 116.666C167.119 116.612 167.151 116.564 167.192 116.524C167.23 116.485 167.276 116.454 167.327 116.432C167.378 116.411 167.432 116.4 167.487 116.4C167.564 116.399 167.639 116.421 167.704 116.462C167.768 116.504 167.819 116.563 167.85 116.634L168.454 117.711L169.03 116.682C169.067 116.602 169.124 116.533 169.197 116.484C169.269 116.434 169.354 116.405 169.442 116.4C169.496 116.4 169.55 116.41 169.599 116.432C169.649 116.453 169.693 116.484 169.73 116.524C169.77 116.562 169.802 116.607 169.823 116.658C169.845 116.709 169.855 116.764 169.854 116.819C169.853 116.916 169.824 117.012 169.771 117.093L169.168 118.061L170.423 118.026C170.481 118.023 170.54 118.032 170.594 118.053C170.649 118.075 170.698 118.108 170.739 118.15C170.809 118.232 170.848 118.337 170.848 118.445C170.848 118.553 170.809 118.658 170.739 118.74C170.698 118.782 170.649 118.815 170.594 118.836C170.54 118.857 170.481 118.867 170.423 118.863H169.154L169.716 119.741C169.78 119.847 169.815 119.968 169.819 120.091C169.821 120.147 169.812 120.202 169.792 120.254C169.772 120.306 169.742 120.353 169.703 120.393C169.667 120.432 169.623 120.462 169.575 120.484C169.526 120.505 169.474 120.516 169.421 120.516C169.337 120.514 169.254 120.488 169.183 120.441C169.113 120.393 169.057 120.327 169.024 120.249L168.454 119.241L167.885 120.249C167.851 120.329 167.795 120.399 167.723 120.448C167.652 120.498 167.567 120.527 167.48 120.53Z" fill="black"/>
<path d="M173.777 120.53C173.724 120.53 173.67 120.519 173.621 120.498C173.571 120.477 173.526 120.446 173.489 120.407C173.449 120.366 173.417 120.318 173.396 120.265C173.374 120.212 173.364 120.155 173.366 120.098C173.369 120.002 173.395 119.908 173.441 119.824L174.059 118.863H172.803C172.744 118.867 172.684 118.858 172.629 118.836C172.573 118.815 172.523 118.782 172.481 118.74C172.41 118.658 172.372 118.553 172.372 118.445C172.372 118.337 172.41 118.232 172.481 118.15C172.523 118.107 172.573 118.075 172.629 118.053C172.684 118.032 172.744 118.023 172.803 118.026L174.038 118.061L173.455 117.135C173.4 117.043 173.369 116.939 173.366 116.833C173.364 116.776 173.374 116.719 173.396 116.666C173.417 116.612 173.449 116.564 173.489 116.524C173.528 116.485 173.574 116.454 173.624 116.432C173.675 116.411 173.729 116.4 173.784 116.4C173.861 116.399 173.937 116.421 174.001 116.462C174.066 116.504 174.117 116.563 174.148 116.634L174.752 117.711L175.328 116.682C175.364 116.602 175.422 116.533 175.494 116.484C175.567 116.434 175.652 116.405 175.739 116.4C175.793 116.4 175.847 116.41 175.897 116.432C175.946 116.453 175.991 116.484 176.027 116.524C176.068 116.562 176.099 116.607 176.121 116.658C176.142 116.709 176.152 116.764 176.151 116.819C176.15 116.916 176.122 117.012 176.069 117.093L175.465 118.061L176.72 118.026C176.779 118.023 176.837 118.032 176.892 118.053C176.946 118.075 176.995 118.108 177.036 118.15C177.106 118.232 177.145 118.337 177.145 118.445C177.145 118.553 177.106 118.658 177.036 118.74C176.995 118.782 176.946 118.815 176.892 118.836C176.837 118.857 176.779 118.867 176.72 118.863H175.451L176.014 119.741C176.077 119.847 176.113 119.968 176.117 120.091C176.119 120.147 176.109 120.202 176.089 120.254C176.069 120.306 176.039 120.353 176 120.393C175.964 120.432 175.92 120.462 175.872 120.484C175.824 120.505 175.772 120.516 175.719 120.516C175.634 120.514 175.551 120.488 175.481 120.441C175.41 120.393 175.355 120.327 175.321 120.249L174.752 119.241L174.182 120.249C174.148 120.329 174.092 120.399 174.021 120.448C173.949 120.498 173.865 120.527 173.777 120.53Z" fill="black"/>
<path d="M180.075 120.53C180.021 120.53 179.968 120.519 179.918 120.498C179.869 120.477 179.824 120.446 179.787 120.407C179.746 120.366 179.714 120.318 179.693 120.265C179.672 120.212 179.662 120.155 179.663 120.098C179.663 120.001 179.689 119.907 179.739 119.824L180.356 118.863H179.094C179.036 118.866 178.977 118.857 178.923 118.835C178.869 118.814 178.819 118.782 178.778 118.74C178.708 118.658 178.669 118.553 178.669 118.445C178.669 118.337 178.708 118.232 178.778 118.15C178.819 118.108 178.869 118.075 178.923 118.054C178.977 118.033 179.036 118.023 179.094 118.026L180.336 118.061L179.732 117.169C179.677 117.077 179.646 116.974 179.643 116.867C179.641 116.81 179.651 116.753 179.673 116.7C179.694 116.647 179.726 116.599 179.766 116.558C179.805 116.519 179.851 116.488 179.901 116.467C179.952 116.446 180.006 116.435 180.061 116.435C180.138 116.434 180.214 116.455 180.278 116.497C180.343 116.538 180.394 116.598 180.425 116.668L181.029 117.745L181.605 116.716C181.641 116.636 181.699 116.567 181.771 116.518C181.844 116.468 181.929 116.44 182.016 116.435C182.07 116.434 182.124 116.445 182.174 116.466C182.223 116.487 182.268 116.519 182.304 116.558C182.345 116.596 182.376 116.642 182.398 116.693C182.419 116.743 182.429 116.798 182.428 116.853C182.427 116.951 182.399 117.046 182.346 117.128L181.742 118.095L182.997 118.061C183.056 118.057 183.114 118.066 183.169 118.088C183.223 118.109 183.272 118.142 183.313 118.184C183.383 118.266 183.422 118.371 183.422 118.479C183.422 118.587 183.383 118.692 183.313 118.774C183.272 118.816 183.223 118.849 183.169 118.87C183.114 118.892 183.056 118.901 182.997 118.898H181.728L182.291 119.776C182.354 119.882 182.39 120.002 182.394 120.125C182.396 120.181 182.386 120.236 182.366 120.288C182.346 120.34 182.316 120.388 182.277 120.427C182.241 120.466 182.197 120.497 182.149 120.518C182.101 120.539 182.049 120.55 181.996 120.551C181.911 120.549 181.828 120.522 181.758 120.475C181.687 120.428 181.632 120.361 181.598 120.283L181.029 119.275L180.459 120.283C180.422 120.354 180.367 120.415 180.3 120.458C180.233 120.501 180.155 120.526 180.075 120.53Z" fill="black"/>
<path d="M186.372 120.53C186.318 120.53 186.265 120.519 186.216 120.498C186.166 120.477 186.121 120.446 186.084 120.407C186.044 120.366 186.012 120.318 185.99 120.265C185.969 120.212 185.959 120.155 185.961 120.098C185.964 120.002 185.99 119.908 186.036 119.824L186.654 118.863H185.398C185.34 118.868 185.281 118.859 185.226 118.837C185.172 118.816 185.123 118.783 185.083 118.74C185.008 118.66 184.966 118.554 184.966 118.445C184.966 118.335 185.008 118.23 185.083 118.15C185.123 118.107 185.172 118.073 185.226 118.052C185.281 118.031 185.34 118.022 185.398 118.026L186.633 118.061L186.05 117.134C185.995 117.043 185.964 116.939 185.961 116.833C185.959 116.777 185.968 116.721 185.989 116.668C186.009 116.616 186.039 116.568 186.078 116.528C186.117 116.488 186.164 116.455 186.216 116.434C186.267 116.412 186.323 116.4 186.379 116.4C186.456 116.399 186.531 116.421 186.596 116.462C186.661 116.504 186.712 116.563 186.743 116.634L187.346 117.711L187.923 116.682C187.959 116.602 188.017 116.533 188.089 116.483C188.162 116.434 188.246 116.405 188.334 116.4C188.388 116.399 188.442 116.409 188.492 116.43C188.542 116.452 188.586 116.484 188.622 116.524C188.663 116.562 188.694 116.607 188.716 116.658C188.737 116.709 188.747 116.764 188.746 116.819C188.745 116.916 188.716 117.011 188.664 117.093L188.06 118.061L189.315 118.026C189.374 118.023 189.432 118.032 189.487 118.053C189.541 118.075 189.59 118.108 189.631 118.15C189.701 118.232 189.74 118.337 189.74 118.445C189.74 118.553 189.701 118.658 189.631 118.74C189.59 118.782 189.541 118.815 189.487 118.836C189.432 118.857 189.374 118.867 189.315 118.863H188.046L188.609 119.741C188.672 119.847 188.708 119.968 188.712 120.091C188.713 120.145 188.705 120.199 188.686 120.25C188.667 120.3 188.638 120.347 188.601 120.386C188.564 120.426 188.519 120.458 188.47 120.48C188.421 120.502 188.368 120.515 188.314 120.516C188.229 120.514 188.146 120.488 188.076 120.441C188.005 120.393 187.95 120.327 187.916 120.249L187.346 119.241L186.777 120.249C186.743 120.329 186.687 120.399 186.616 120.448C186.544 120.498 186.46 120.527 186.372 120.53Z" fill="black"/>
<path d="M192.67 120.53C192.616 120.53 192.563 120.519 192.513 120.498C192.464 120.477 192.419 120.446 192.382 120.407C192.341 120.366 192.309 120.318 192.288 120.265C192.267 120.212 192.257 120.155 192.258 120.098C192.262 120.002 192.287 119.908 192.334 119.824L192.951 118.863H191.689C191.632 118.867 191.574 118.857 191.521 118.836C191.467 118.815 191.419 118.782 191.38 118.74C191.306 118.66 191.264 118.554 191.264 118.445C191.264 118.335 191.306 118.23 191.38 118.15C191.419 118.108 191.467 118.075 191.521 118.054C191.574 118.032 191.632 118.023 191.689 118.026L192.931 118.061L192.348 117.134C192.292 117.043 192.262 116.939 192.258 116.833C192.256 116.777 192.266 116.721 192.286 116.668C192.306 116.616 192.337 116.568 192.376 116.528C192.415 116.488 192.462 116.455 192.513 116.434C192.565 116.412 192.621 116.4 192.677 116.4C192.754 116.399 192.829 116.421 192.894 116.462C192.958 116.504 193.009 116.563 193.04 116.634L193.644 117.711L194.22 116.682C194.257 116.602 194.314 116.533 194.387 116.483C194.459 116.434 194.544 116.405 194.632 116.4C194.686 116.399 194.74 116.409 194.79 116.43C194.839 116.452 194.884 116.484 194.92 116.524C194.96 116.562 194.992 116.607 195.013 116.658C195.035 116.709 195.045 116.764 195.043 116.819C195.043 116.916 195.014 117.011 194.961 117.093L194.357 118.061L195.613 118.026C195.671 118.023 195.73 118.032 195.784 118.053C195.839 118.075 195.888 118.108 195.928 118.15C195.999 118.232 196.038 118.337 196.038 118.445C196.038 118.553 195.999 118.658 195.928 118.74C195.888 118.782 195.839 118.815 195.784 118.836C195.73 118.857 195.671 118.867 195.613 118.863H194.344L194.906 119.741C194.97 119.847 195.005 119.968 195.009 120.091C195.011 120.145 195.002 120.199 194.983 120.25C194.964 120.3 194.935 120.347 194.898 120.386C194.861 120.426 194.817 120.458 194.768 120.48C194.719 120.502 194.665 120.515 194.611 120.516C194.526 120.514 194.444 120.488 194.373 120.441C194.303 120.393 194.247 120.327 194.213 120.249L193.644 119.241L193.075 120.249C193.041 120.329 192.985 120.399 192.913 120.448C192.842 120.498 192.757 120.527 192.67 120.53Z" fill="black"/>
<path d="M198.94 120.53C198.886 120.53 198.833 120.519 198.783 120.498C198.734 120.477 198.689 120.446 198.652 120.407C198.611 120.366 198.579 120.318 198.558 120.265C198.537 120.212 198.527 120.155 198.528 120.098C198.532 120.002 198.557 119.908 198.604 119.824L199.221 118.863H197.959C197.902 118.867 197.844 118.857 197.791 118.836C197.737 118.815 197.689 118.782 197.65 118.74C197.576 118.66 197.534 118.554 197.534 118.445C197.534 118.335 197.576 118.23 197.65 118.15C197.689 118.108 197.737 118.075 197.791 118.054C197.844 118.032 197.902 118.023 197.959 118.026L199.201 118.061L198.618 117.134C198.562 117.043 198.532 116.939 198.528 116.833C198.527 116.775 198.537 116.719 198.558 116.666C198.579 116.612 198.611 116.564 198.652 116.524C198.69 116.485 198.736 116.454 198.787 116.432C198.837 116.411 198.892 116.4 198.947 116.4C199.024 116.399 199.099 116.421 199.164 116.462C199.228 116.504 199.279 116.563 199.31 116.634L199.914 117.711L200.49 116.682C200.527 116.602 200.584 116.533 200.657 116.483C200.729 116.434 200.814 116.405 200.902 116.4C200.956 116.399 201.01 116.409 201.06 116.43C201.109 116.452 201.154 116.484 201.19 116.524C201.23 116.562 201.262 116.607 201.283 116.658C201.305 116.709 201.315 116.764 201.313 116.819C201.313 116.916 201.284 117.011 201.231 117.093L200.627 118.061L201.883 118.026C201.941 118.023 202 118.032 202.054 118.053C202.109 118.075 202.158 118.108 202.198 118.15C202.269 118.232 202.308 118.337 202.308 118.445C202.308 118.553 202.269 118.658 202.198 118.74C202.158 118.782 202.109 118.815 202.054 118.836C202 118.857 201.941 118.867 201.883 118.863H200.614L201.176 119.741C201.24 119.847 201.275 119.968 201.279 120.091C201.281 120.147 201.272 120.202 201.252 120.254C201.232 120.306 201.201 120.353 201.163 120.393C201.126 120.431 201.083 120.462 201.035 120.483C200.986 120.505 200.934 120.516 200.881 120.516C200.796 120.514 200.714 120.488 200.643 120.441C200.573 120.393 200.517 120.327 200.483 120.249L199.914 119.241L199.345 120.249C199.311 120.329 199.255 120.399 199.183 120.448C199.112 120.498 199.027 120.527 198.94 120.53Z" fill="black"/>
<path d="M220.521 135.705H228.911" stroke="white" stroke-width="3" stroke-linecap="round" stroke-linejoin="round"/>
<path d="M104.155 73.9302V129.654C104.155 131.268 104.796 132.816 105.937 133.957C107.079 135.098 108.626 135.739 110.24 135.739H212.557" stroke="white" stroke-width="3" stroke-linecap="round" stroke-linejoin="round"/>
<path d="M104.155 59.1538V67.5093" stroke="white" stroke-width="3" stroke-linecap="round" stroke-linejoin="round"/>
</svg>
